<?xml version="1.0" encoding="UTF-8" standalone="no"?>
<!DOCTYPE svg PUBLIC "-//W3C//DTD SVG 1.1//EN"
 "http://www.w3.org/Graphics/SVG/1.1/DTD/svg11.dtd">
<!-- Generated by graphviz version 2.43.0 (0)
 -->
<!-- Title: %3 Pages: 1 -->
<svg width="174pt" height="338pt"
 viewBox="0.00 0.00 174.00 338.00" xmlns="http://www.w3.org/2000/svg" xmlns:xlink="http://www.w3.org/1999/xlink">
<g id="graph0" class="graph" transform="scale(1 1) rotate(0) translate(4 334)">
<title>%3</title>
<polygon fill="white" stroke="transparent" points="-4,4 -4,-334 170,-334 170,4 -4,4"/>
<!-- 132560372090576 -->
<g id="node1" class="node">
<title>132560372090576</title>
<polygon fill="aliceblue" stroke="skyblue" points="134,-184 72,-184 72,-146 134,-146 134,-184"/>
<text text-anchor="middle" x="103" y="-168.8" font-family="Sans-Serif" font-size="14.00">t</text>
<text text-anchor="middle" x="103" y="-153.8" font-family="Sans-Serif" font-size="14.00">(10, 10)</text>
</g>
<!-- 132558396599568 -->
<g id="node6" class="node">
<title>132558396599568</title>
<polygon fill="lightgray" stroke="darkslategray" points="114.5,-110 15.5,-110 15.5,-74 114.5,-74 114.5,-110"/>
<text text-anchor="middle" x="65" y="-88.3" font-family="Courier Bold" font-size="14.00">max_scalar</text>
</g>
<!-- 132560372090576&#45;&gt;132558396599568 -->
<g id="edge5" class="edge">
<title>132560372090576&#45;&gt;132558396599568</title>
<path fill="none" stroke="#666666" stroke-width="1.2" d="M93.21,-145.72C88.56,-137.03 82.94,-126.52 77.94,-117.19"/>
<polygon fill="#666666" stroke="#666666" stroke-width="1.2" points="80.34,-115.74 74.1,-110 75.41,-118.38 80.34,-115.74"/>
</g>
<!-- 132560372104592 -->
<g id="node2" class="node">
<title>132560372104592</title>
<polygon fill="moccasin" stroke="orange" points="94,-330 40,-330 40,-292 94,-292 94,-330"/>
<text text-anchor="middle" x="67" y="-314.8" font-family="Sans-Serif" font-size="14.00">var_1</text>
<text text-anchor="middle" x="67" y="-299.8" font-family="Sans-Serif" font-size="14.00">&#45;1</text>
</g>
<!-- 132558397716416 -->
<g id="node4" class="node">
<title>132558397716416</title>
<polygon fill="lightgray" stroke="darkslategray" points="140,-256 66,-256 66,-220 140,-220 140,-256"/>
<text text-anchor="middle" x="103" y="-234.3" font-family="Courier Bold" font-size="14.00">uniform</text>
</g>
<!-- 132560372104592&#45;&gt;132558397716416 -->
<g id="edge2" class="edge">
<title>132560372104592&#45;&gt;132558397716416</title>
<path fill="none" stroke="#666666" stroke-width="1.2" d="M76.27,-291.72C80.68,-283.03 86,-272.52 90.74,-263.19"/>
<polygon fill="#666666" stroke="#666666" stroke-width="1.2" points="93.26,-264.4 94.38,-256 88.26,-261.87 93.26,-264.4"/>
</g>
<!-- 132558398381392 -->
<g id="node3" class="node">
<title>132558398381392</title>
<polygon fill="moccasin" stroke="orange" points="166,-330 112,-330 112,-292 166,-292 166,-330"/>
<text text-anchor="middle" x="139" y="-314.8" font-family="Sans-Serif" font-size="14.00">var_2</text>
<text text-anchor="middle" x="139" y="-299.8" font-family="Sans-Serif" font-size="14.00">1</text>
</g>
<!-- 132558398381392&#45;&gt;132558397716416 -->
<g id="edge3" class="edge">
<title>132558398381392&#45;&gt;132558397716416</title>
<path fill="none" stroke="#666666" stroke-width="1.2" d="M129.73,-291.72C125.32,-283.03 120,-272.52 115.26,-263.19"/>
<polygon fill="#666666" stroke="#666666" stroke-width="1.2" points="117.74,-261.87 111.62,-256 112.74,-264.4 117.74,-261.87"/>
</g>
<!-- 132558397716416&#45;&gt;132560372090576 -->
<g id="edge1" class="edge">
<title>132558397716416&#45;&gt;132560372090576</title>
<path fill="none" stroke="#666666" stroke-width="1.2" d="M103,-219.81C103,-211.52 103,-201.39 103,-192.16"/>
<polygon fill="#666666" stroke="#666666" stroke-width="1.2" points="105.8,-192.02 103,-184.02 100.2,-192.02 105.8,-192.02"/>
</g>
<!-- 132558396599424 -->
<g id="node5" class="node">
<title>132558396599424</title>
<polygon fill="aliceblue" stroke="skyblue" points="96,-38 34,-38 34,0 96,0 96,-38"/>
<text text-anchor="middle" x="65" y="-22.8" font-family="Sans-Serif" font-size="14.00">relu_t</text>
<text text-anchor="middle" x="65" y="-7.8" font-family="Sans-Serif" font-size="14.00">(10, 10)</text>
</g>
<!-- 132558396599568&#45;&gt;132558396599424 -->
<g id="edge4" class="edge">
<title>132558396599568&#45;&gt;132558396599424</title>
<path fill="none" stroke="#666666" stroke-width="1.2" d="M65,-73.81C65,-65.52 65,-55.39 65,-46.16"/>
<polygon fill="#666666" stroke="#666666" stroke-width="1.2" points="67.8,-46.02 65,-38.02 62.2,-46.02 67.8,-46.02"/>
</g>
<!-- 132558396599808 -->
<g id="node7" class="node">
<title>132558396599808</title>
<polygon fill="moccasin" stroke="orange" points="54,-184 0,-184 0,-146 54,-146 54,-184"/>
<text text-anchor="middle" x="27" y="-168.8" font-family="Sans-Serif" font-size="14.00">var_3</text>
<text text-anchor="middle" x="27" y="-153.8" font-family="Sans-Serif" font-size="14.00">0</text>
</g>
<!-- 132558396599808&#45;&gt;132558396599568 -->
<g id="edge6" class="edge">
<title>132558396599808&#45;&gt;132558396599568</title>
<path fill="none" stroke="#666666" stroke-width="1.2" d="M36.79,-145.72C41.44,-137.03 47.06,-126.52 52.06,-117.19"/>
<polygon fill="#666666" stroke="#666666" stroke-width="1.2" points="54.59,-118.38 55.9,-110 49.66,-115.74 54.59,-118.38"/>
</g>
</g>
</svg>
