<?xml version="1.0" encoding="UTF-8" standalone="no"?>
<!DOCTYPE svg PUBLIC "-//W3C//DTD SVG 1.1//EN"
 "http://www.w3.org/Graphics/SVG/1.1/DTD/svg11.dtd">
<!-- Generated by graphviz version 2.43.0 (0)
 -->
<!-- Title: %3 Pages: 1 -->
<svg width="273pt" height="338pt"
 viewBox="0.00 0.00 273.00 338.00" xmlns="http://www.w3.org/2000/svg" xmlns:xlink="http://www.w3.org/1999/xlink">
<g id="graph0" class="graph" transform="scale(1 1) rotate(0) translate(4 334)">
<title>%3</title>
<polygon fill="white" stroke="transparent" points="-4,4 -4,-334 269,-334 269,4 -4,4"/>
<!-- 132047699877248 -->
<g id="node1" class="node">
<title>132047699877248</title>
<polygon fill="aliceblue" stroke="skyblue" points="152,-330 90,-330 90,-292 152,-292 152,-330"/>
<text text-anchor="middle" x="121" y="-314.8" font-family="Sans-Serif" font-size="14.00">t</text>
<text text-anchor="middle" x="121" y="-299.8" font-family="Sans-Serif" font-size="14.00">(2, 3, 4)</text>
</g>
<!-- 132049957750528 -->
<g id="node2" class="node">
<title>132049957750528</title>
<polygon fill="lightgray" stroke="darkslategray" points="117,-256 43,-256 43,-220 117,-220 117,-256"/>
<text text-anchor="middle" x="80" y="-234.3" font-family="Courier Bold" font-size="14.00">reshape</text>
</g>
<!-- 132047699877248&#45;&gt;132049957750528 -->
<g id="edge2" class="edge">
<title>132047699877248&#45;&gt;132049957750528</title>
<path fill="none" stroke="#666666" stroke-width="1.2" d="M104.45,-291.72C98.6,-283.03 92.39,-272.52 87.53,-263.19"/>
<polygon fill="#666666" stroke="#666666" stroke-width="1.2" points="90.03,-261.92 83.96,-256 85.01,-264.41 90.03,-261.92"/>
</g>
<!-- 132047698095712 -->
<g id="node5" class="node">
<title>132047698095712</title>
<polygon fill="lightgray" stroke="darkslategray" points="189,-256 135,-256 135,-220 189,-220 189,-256"/>
<text text-anchor="middle" x="162" y="-234.3" font-family="Courier Bold" font-size="14.00">sqrt</text>
</g>
<!-- 132047699877248&#45;&gt;132047698095712 -->
<g id="edge5" class="edge">
<title>132047699877248&#45;&gt;132047698095712</title>
<path fill="none" stroke="#666666" stroke-width="1.2" d="M131.56,-291.72C136.58,-283.03 142.64,-272.52 148.03,-263.19"/>
<polygon fill="#666666" stroke="#666666" stroke-width="1.2" points="150.61,-264.33 152.18,-256 145.76,-261.53 150.61,-264.33"/>
</g>
<!-- 132049957750528&#45;&gt;132047699877248 -->
<g id="edge1" class="edge">
<title>132049957750528&#45;&gt;132047699877248</title>
<path fill="none" stroke="#666666" stroke-width="1.2" d="M95.68,-256C101.49,-264.5 107.75,-274.97 112.74,-284.42"/>
<polygon fill="#666666" stroke="#666666" stroke-width="1.2" points="110.32,-285.84 116.43,-291.72 115.32,-283.31 110.32,-285.84"/>
</g>
<!-- 132049957751296 -->
<g id="node3" class="node">
<title>132049957751296</title>
<polygon fill="honeydew" stroke="darkseagreen" points="72,-330 0,-330 0,-292 72,-292 72,-330"/>
<text text-anchor="middle" x="36" y="-314.8" font-family="Sans-Serif" font-size="14.00">vector_1</text>
<text text-anchor="middle" x="36" y="-299.8" font-family="Sans-Serif" font-size="14.00">(2, 3, 4)</text>
</g>
<!-- 132049957751296&#45;&gt;132049957750528 -->
<g id="edge3" class="edge">
<title>132049957751296&#45;&gt;132049957750528</title>
<path fill="none" stroke="#666666" stroke-width="1.2" d="M47.33,-291.72C52.77,-282.94 59.35,-272.31 65.18,-262.91"/>
<polygon fill="#666666" stroke="#666666" stroke-width="1.2" points="67.63,-264.28 69.46,-256 62.87,-261.33 67.63,-264.28"/>
</g>
<!-- 132047698095568 -->
<g id="node4" class="node">
<title>132047698095568</title>
<polygon fill="aliceblue" stroke="skyblue" points="193,-184 131,-184 131,-146 193,-146 193,-184"/>
<text text-anchor="middle" x="162" y="-168.8" font-family="Sans-Serif" font-size="14.00">rsqrt_t</text>
<text text-anchor="middle" x="162" y="-153.8" font-family="Sans-Serif" font-size="14.00">(2, 3, 4)</text>
</g>
<!-- 132047698095376 -->
<g id="node6" class="node">
<title>132047698095376</title>
<polygon fill="lightgray" stroke="darkslategray" points="253.5,-110 146.5,-110 146.5,-74 253.5,-74 253.5,-110"/>
<text text-anchor="middle" x="200" y="-88.3" font-family="Courier Bold" font-size="14.00">rdiv_scalar</text>
</g>
<!-- 132047698095568&#45;&gt;132047698095376 -->
<g id="edge7" class="edge">
<title>132047698095568&#45;&gt;132047698095376</title>
<path fill="none" stroke="#666666" stroke-width="1.2" d="M171.79,-145.72C176.44,-137.03 182.06,-126.52 187.06,-117.19"/>
<polygon fill="#666666" stroke="#666666" stroke-width="1.2" points="189.59,-118.38 190.9,-110 184.66,-115.74 189.59,-118.38"/>
</g>
<!-- 132047698095712&#45;&gt;132047698095568 -->
<g id="edge4" class="edge">
<title>132047698095712&#45;&gt;132047698095568</title>
<path fill="none" stroke="#666666" stroke-width="1.2" d="M162,-219.81C162,-211.52 162,-201.39 162,-192.16"/>
<polygon fill="#666666" stroke="#666666" stroke-width="1.2" points="164.8,-192.02 162,-184.02 159.2,-192.02 164.8,-192.02"/>
</g>
<!-- 132047698095856 -->
<g id="node8" class="node">
<title>132047698095856</title>
<polygon fill="aliceblue" stroke="skyblue" points="236.5,-38 163.5,-38 163.5,0 236.5,0 236.5,-38"/>
<text text-anchor="middle" x="200" y="-22.8" font-family="Sans-Serif" font-size="14.00">tensor_3</text>
<text text-anchor="middle" x="200" y="-7.8" font-family="Sans-Serif" font-size="14.00">(2, 3, 4)</text>
</g>
<!-- 132047698095376&#45;&gt;132047698095856 -->
<g id="edge8" class="edge">
<title>132047698095376&#45;&gt;132047698095856</title>
<path fill="none" stroke="#666666" stroke-width="1.2" d="M200,-73.81C200,-65.52 200,-55.39 200,-46.16"/>
<polygon fill="#666666" stroke="#666666" stroke-width="1.2" points="202.8,-46.02 200,-38.02 197.2,-46.02 202.8,-46.02"/>
</g>
<!-- 132047698095616 -->
<g id="node7" class="node">
<title>132047698095616</title>
<polygon fill="moccasin" stroke="orange" points="265,-184 211,-184 211,-146 265,-146 265,-184"/>
<text text-anchor="middle" x="238" y="-168.8" font-family="Sans-Serif" font-size="14.00">var_1</text>
<text text-anchor="middle" x="238" y="-153.8" font-family="Sans-Serif" font-size="14.00">1</text>
</g>
<!-- 132047698095616&#45;&gt;132047698095376 -->
<g id="edge6" class="edge">
<title>132047698095616&#45;&gt;132047698095376</title>
<path fill="none" stroke="#666666" stroke-width="1.2" d="M228.21,-145.72C223.56,-137.03 217.94,-126.52 212.94,-117.19"/>
<polygon fill="#666666" stroke="#666666" stroke-width="1.2" points="215.34,-115.74 209.1,-110 210.41,-118.38 215.34,-115.74"/>
</g>
</g>
</svg>
