<?xml version="1.0" encoding="UTF-8" standalone="no"?>
<!DOCTYPE svg PUBLIC "-//W3C//DTD SVG 1.1//EN"
 "http://www.w3.org/Graphics/SVG/1.1/DTD/svg11.dtd">
<!-- Generated by graphviz version 2.43.0 (0)
 -->
<!-- Title: %3 Pages: 1 -->
<svg width="339pt" height="776pt"
 viewBox="0.00 0.00 339.00 776.00" xmlns="http://www.w3.org/2000/svg" xmlns:xlink="http://www.w3.org/1999/xlink">
<g id="graph0" class="graph" transform="scale(1 1) rotate(0) translate(4 772)">
<title>%3</title>
<polygon fill="white" stroke="transparent" points="-4,4 -4,-772 335,-772 335,4 -4,4"/>
<!-- 124458605174432 -->
<g id="node1" class="node">
<title>124458605174432</title>
<polygon fill="aliceblue" stroke="skyblue" points="219,-622 157,-622 157,-584 219,-584 219,-622"/>
<text text-anchor="middle" x="188" y="-606.8" font-family="Sans-Serif" font-size="14.00">x</text>
<text text-anchor="middle" x="188" y="-591.8" font-family="Sans-Serif" font-size="14.00">(3, 4, 5)</text>
</g>
<!-- 124458605657200 -->
<g id="node7" class="node">
<title>124458605657200</title>
<polygon fill="lightgray" stroke="darkslategray" points="199.5,-548 100.5,-548 100.5,-512 199.5,-512 199.5,-548"/>
<text text-anchor="middle" x="150" y="-526.3" font-family="Courier Bold" font-size="14.00">mul_scalar</text>
</g>
<!-- 124458605174432&#45;&gt;124458605657200 -->
<g id="edge5" class="edge">
<title>124458605174432&#45;&gt;124458605657200</title>
<path fill="none" stroke="#666666" stroke-width="1.2" d="M178.21,-583.72C173.56,-575.03 167.94,-564.52 162.94,-555.19"/>
<polygon fill="#666666" stroke="#666666" stroke-width="1.2" points="165.34,-553.74 159.1,-548 160.41,-556.38 165.34,-553.74"/>
</g>
<!-- 124458605170256 -->
<g id="node2" class="node">
<title>124458605170256</title>
<polygon fill="moccasin" stroke="orange" points="179,-768 125,-768 125,-730 179,-730 179,-768"/>
<text text-anchor="middle" x="152" y="-752.8" font-family="Sans-Serif" font-size="14.00">var_1</text>
<text text-anchor="middle" x="152" y="-737.8" font-family="Sans-Serif" font-size="14.00">&#45;1</text>
</g>
<!-- 124458605169248 -->
<g id="node4" class="node">
<title>124458605169248</title>
<polygon fill="lightgray" stroke="darkslategray" points="225,-694 151,-694 151,-658 225,-658 225,-694"/>
<text text-anchor="middle" x="188" y="-672.3" font-family="Courier Bold" font-size="14.00">uniform</text>
</g>
<!-- 124458605170256&#45;&gt;124458605169248 -->
<g id="edge2" class="edge">
<title>124458605170256&#45;&gt;124458605169248</title>
<path fill="none" stroke="#666666" stroke-width="1.2" d="M161.27,-729.72C165.68,-721.03 171,-710.52 175.74,-701.19"/>
<polygon fill="#666666" stroke="#666666" stroke-width="1.2" points="178.26,-702.4 179.38,-694 173.26,-699.87 178.26,-702.4"/>
</g>
<!-- 124458605174000 -->
<g id="node3" class="node">
<title>124458605174000</title>
<polygon fill="moccasin" stroke="orange" points="251,-768 197,-768 197,-730 251,-730 251,-768"/>
<text text-anchor="middle" x="224" y="-752.8" font-family="Sans-Serif" font-size="14.00">var_2</text>
<text text-anchor="middle" x="224" y="-737.8" font-family="Sans-Serif" font-size="14.00">1</text>
</g>
<!-- 124458605174000&#45;&gt;124458605169248 -->
<g id="edge3" class="edge">
<title>124458605174000&#45;&gt;124458605169248</title>
<path fill="none" stroke="#666666" stroke-width="1.2" d="M214.73,-729.72C210.32,-721.03 205,-710.52 200.26,-701.19"/>
<polygon fill="#666666" stroke="#666666" stroke-width="1.2" points="202.74,-699.87 196.62,-694 197.74,-702.4 202.74,-699.87"/>
</g>
<!-- 124458605169248&#45;&gt;124458605174432 -->
<g id="edge1" class="edge">
<title>124458605169248&#45;&gt;124458605174432</title>
<path fill="none" stroke="#666666" stroke-width="1.2" d="M188,-657.81C188,-649.52 188,-639.39 188,-630.16"/>
<polygon fill="#666666" stroke="#666666" stroke-width="1.2" points="190.8,-630.02 188,-622.02 185.2,-630.02 190.8,-630.02"/>
</g>
<!-- 124458605656912 -->
<g id="node5" class="node">
<title>124458605656912</title>
<polygon fill="aliceblue" stroke="skyblue" points="331,-768 269,-768 269,-730 331,-730 331,-768"/>
<text text-anchor="middle" x="300" y="-752.8" font-family="Sans-Serif" font-size="14.00">out</text>
<text text-anchor="middle" x="300" y="-737.8" font-family="Sans-Serif" font-size="14.00">(3, 4, 5)</text>
</g>
<!-- 124458605657104 -->
<g id="node6" class="node">
<title>124458605657104</title>
<polygon fill="aliceblue" stroke="skyblue" points="186.5,-476 113.5,-476 113.5,-438 186.5,-438 186.5,-476"/>
<text text-anchor="middle" x="150" y="-460.8" font-family="Sans-Serif" font-size="14.00">tensor_3</text>
<text text-anchor="middle" x="150" y="-445.8" font-family="Sans-Serif" font-size="14.00">(3, 4, 5)</text>
</g>
<!-- 124458605657584 -->
<g id="node10" class="node">
<title>124458605657584</title>
<polygon fill="lightgray" stroke="darkslategray" points="158.5,-402 59.5,-402 59.5,-366 158.5,-366 158.5,-402"/>
<text text-anchor="middle" x="109" y="-380.3" font-family="Courier Bold" font-size="14.00">add_scalar</text>
</g>
<!-- 124458605657104&#45;&gt;124458605657584 -->
<g id="edge8" class="edge">
<title>124458605657104&#45;&gt;124458605657584</title>
<path fill="none" stroke="#666666" stroke-width="1.2" d="M139.44,-437.72C134.42,-429.03 128.36,-418.52 122.97,-409.19"/>
<polygon fill="#666666" stroke="#666666" stroke-width="1.2" points="125.24,-407.53 118.82,-402 120.39,-410.33 125.24,-407.53"/>
</g>
<!-- 124458605657200&#45;&gt;124458605657104 -->
<g id="edge4" class="edge">
<title>124458605657200&#45;&gt;124458605657104</title>
<path fill="none" stroke="#666666" stroke-width="1.2" d="M150,-511.81C150,-503.52 150,-493.39 150,-484.16"/>
<polygon fill="#666666" stroke="#666666" stroke-width="1.2" points="152.8,-484.02 150,-476.02 147.2,-484.02 152.8,-484.02"/>
</g>
<!-- 124458605657152 -->
<g id="node8" class="node">
<title>124458605657152</title>
<polygon fill="moccasin" stroke="orange" points="139,-622 85,-622 85,-584 139,-584 139,-622"/>
<text text-anchor="middle" x="112" y="-606.8" font-family="Sans-Serif" font-size="14.00">var_3</text>
<text text-anchor="middle" x="112" y="-591.8" font-family="Sans-Serif" font-size="14.00">&#45;1</text>
</g>
<!-- 124458605657152&#45;&gt;124458605657200 -->
<g id="edge6" class="edge">
<title>124458605657152&#45;&gt;124458605657200</title>
<path fill="none" stroke="#666666" stroke-width="1.2" d="M121.79,-583.72C126.44,-575.03 132.06,-564.52 137.06,-555.19"/>
<polygon fill="#666666" stroke="#666666" stroke-width="1.2" points="139.59,-556.38 140.9,-548 134.66,-553.74 139.59,-556.38"/>
</g>
<!-- 124458605657488 -->
<g id="node9" class="node">
<title>124458605657488</title>
<polygon fill="aliceblue" stroke="skyblue" points="145.5,-330 72.5,-330 72.5,-292 145.5,-292 145.5,-330"/>
<text text-anchor="middle" x="109" y="-314.8" font-family="Sans-Serif" font-size="14.00">tensor_4</text>
<text text-anchor="middle" x="109" y="-299.8" font-family="Sans-Serif" font-size="14.00">(3, 4, 5)</text>
</g>
<!-- 124458605657968 -->
<g id="node13" class="node">
<title>124458605657968</title>
<polygon fill="lightgray" stroke="darkslategray" points="136,-256 82,-256 82,-220 136,-220 136,-256"/>
<text text-anchor="middle" x="109" y="-234.3" font-family="Courier Bold" font-size="14.00">exp</text>
</g>
<!-- 124458605657488&#45;&gt;124458605657968 -->
<g id="edge11" class="edge">
<title>124458605657488&#45;&gt;124458605657968</title>
<path fill="none" stroke="#666666" stroke-width="1.2" d="M109,-291.72C109,-283.29 109,-273.15 109,-264.02"/>
<polygon fill="#666666" stroke="#666666" stroke-width="1.2" points="111.8,-264 109,-256 106.2,-264 111.8,-264"/>
</g>
<!-- 124458605657584&#45;&gt;124458605657488 -->
<g id="edge7" class="edge">
<title>124458605657584&#45;&gt;124458605657488</title>
<path fill="none" stroke="#666666" stroke-width="1.2" d="M109,-365.81C109,-357.52 109,-347.39 109,-338.16"/>
<polygon fill="#666666" stroke="#666666" stroke-width="1.2" points="111.8,-338.02 109,-330.02 106.2,-338.02 111.8,-338.02"/>
</g>
<!-- 124458605657536 -->
<g id="node11" class="node">
<title>124458605657536</title>
<polygon fill="moccasin" stroke="orange" points="95,-476 41,-476 41,-438 95,-438 95,-476"/>
<text text-anchor="middle" x="68" y="-460.8" font-family="Sans-Serif" font-size="14.00">var_4</text>
<text text-anchor="middle" x="68" y="-445.8" font-family="Sans-Serif" font-size="14.00">1</text>
</g>
<!-- 124458605657536&#45;&gt;124458605657584 -->
<g id="edge9" class="edge">
<title>124458605657536&#45;&gt;124458605657584</title>
<path fill="none" stroke="#666666" stroke-width="1.2" d="M78.56,-437.72C83.58,-429.03 89.64,-418.52 95.03,-409.19"/>
<polygon fill="#666666" stroke="#666666" stroke-width="1.2" points="97.61,-410.33 99.18,-402 92.76,-407.53 97.61,-410.33"/>
</g>
<!-- 124458605657872 -->
<g id="node12" class="node">
<title>124458605657872</title>
<polygon fill="aliceblue" stroke="skyblue" points="145.5,-184 72.5,-184 72.5,-146 145.5,-146 145.5,-184"/>
<text text-anchor="middle" x="109" y="-168.8" font-family="Sans-Serif" font-size="14.00">tensor_5</text>
<text text-anchor="middle" x="109" y="-153.8" font-family="Sans-Serif" font-size="14.00">(3, 4, 5)</text>
</g>
<!-- 124458605904128 -->
<g id="node15" class="node">
<title>124458605904128</title>
<polygon fill="lightgray" stroke="darkslategray" points="121.5,-110 14.5,-110 14.5,-74 121.5,-74 121.5,-110"/>
<text text-anchor="middle" x="68" y="-88.3" font-family="Courier Bold" font-size="14.00">rdiv_scalar</text>
</g>
<!-- 124458605657872&#45;&gt;124458605904128 -->
<g id="edge14" class="edge">
<title>124458605657872&#45;&gt;124458605904128</title>
<path fill="none" stroke="#666666" stroke-width="1.2" d="M98.44,-145.72C93.42,-137.03 87.36,-126.52 81.97,-117.19"/>
<polygon fill="#666666" stroke="#666666" stroke-width="1.2" points="84.24,-115.53 77.82,-110 79.39,-118.33 84.24,-115.53"/>
</g>
<!-- 124458605657968&#45;&gt;124458605657872 -->
<g id="edge10" class="edge">
<title>124458605657968&#45;&gt;124458605657872</title>
<path fill="none" stroke="#666666" stroke-width="1.2" d="M109,-219.81C109,-211.52 109,-201.39 109,-192.16"/>
<polygon fill="#666666" stroke="#666666" stroke-width="1.2" points="111.8,-192.02 109,-184.02 106.2,-192.02 111.8,-192.02"/>
</g>
<!-- 124458605904032 -->
<g id="node14" class="node">
<title>124458605904032</title>
<polygon fill="aliceblue" stroke="skyblue" points="104.5,-38 31.5,-38 31.5,0 104.5,0 104.5,-38"/>
<text text-anchor="middle" x="68" y="-22.8" font-family="Sans-Serif" font-size="14.00">tensor_6</text>
<text text-anchor="middle" x="68" y="-7.8" font-family="Sans-Serif" font-size="14.00">(3, 4, 5)</text>
</g>
<!-- 124458605904128&#45;&gt;124458605904032 -->
<g id="edge12" class="edge">
<title>124458605904128&#45;&gt;124458605904032</title>
<path fill="none" stroke="#666666" stroke-width="1.2" d="M68,-73.81C68,-65.52 68,-55.39 68,-46.16"/>
<polygon fill="#666666" stroke="#666666" stroke-width="1.2" points="70.8,-46.02 68,-38.02 65.2,-46.02 70.8,-46.02"/>
</g>
<!-- 124458605904080 -->
<g id="node16" class="node">
<title>124458605904080</title>
<polygon fill="moccasin" stroke="orange" points="54,-184 0,-184 0,-146 54,-146 54,-184"/>
<text text-anchor="middle" x="27" y="-168.8" font-family="Sans-Serif" font-size="14.00">var_5</text>
<text text-anchor="middle" x="27" y="-153.8" font-family="Sans-Serif" font-size="14.00">1</text>
</g>
<!-- 124458605904080&#45;&gt;124458605904128 -->
<g id="edge13" class="edge">
<title>124458605904080&#45;&gt;124458605904128</title>
<path fill="none" stroke="#666666" stroke-width="1.2" d="M37.56,-145.72C42.58,-137.03 48.64,-126.52 54.03,-117.19"/>
<polygon fill="#666666" stroke="#666666" stroke-width="1.2" points="56.61,-118.33 58.18,-110 51.76,-115.53 56.61,-118.33"/>
</g>
</g>
</svg>
