<?xml version="1.0" encoding="UTF-8" standalone="no"?>
<!DOCTYPE svg PUBLIC "-//W3C//DTD SVG 1.1//EN"
 "http://www.w3.org/Graphics/SVG/1.1/DTD/svg11.dtd">
<!-- Generated by graphviz version 2.43.0 (0)
 -->
<!-- Title: %3 Pages: 1 -->
<svg width="538pt" height="630pt"
 viewBox="0.00 0.00 538.00 630.00" xmlns="http://www.w3.org/2000/svg" xmlns:xlink="http://www.w3.org/1999/xlink">
<g id="graph0" class="graph" transform="scale(1 1) rotate(0) translate(4 626)">
<title>%3</title>
<polygon fill="white" stroke="transparent" points="-4,4 -4,-626 534,-626 534,4 -4,4"/>
<!-- 130115172244864 -->
<g id="node1" class="node">
<title>130115172244864</title>
<polygon fill="aliceblue" stroke="skyblue" points="224,-622 162,-622 162,-584 224,-584 224,-622"/>
<text text-anchor="middle" x="193" y="-606.8" font-family="Sans-Serif" font-size="14.00">x</text>
<text text-anchor="middle" x="193" y="-591.8" font-family="Sans-Serif" font-size="14.00">(3, 4, 5)</text>
</g>
<!-- 130117430101712 -->
<g id="node2" class="node">
<title>130117430101712</title>
<polygon fill="lightgray" stroke="darkslategray" points="78,-548 4,-548 4,-512 78,-512 78,-548"/>
<text text-anchor="middle" x="41" y="-526.3" font-family="Courier Bold" font-size="14.00">reshape</text>
</g>
<!-- 130115172244864&#45;&gt;130117430101712 -->
<g id="edge4" class="edge">
<title>130115172244864&#45;&gt;130117430101712</title>
<path fill="none" stroke="#666666" stroke-width="1.2" d="M162,-589.96C137.93,-579.48 104.6,-564.06 78.96,-551.62"/>
<polygon fill="#666666" stroke="#666666" stroke-width="1.2" points="80.02,-549.03 71.61,-548.04 77.57,-554.06 80.02,-549.03"/>
</g>
<!-- 130115170569184 -->
<g id="node4" class="node">
<title>130115170569184</title>
<polygon fill="lightgray" stroke="darkslategray" points="195.5,-548 96.5,-548 96.5,-512 195.5,-512 195.5,-548"/>
<text text-anchor="middle" x="146" y="-526.3" font-family="Courier Bold" font-size="14.00">div_scalar</text>
</g>
<!-- 130115172244864&#45;&gt;130115170569184 -->
<g id="edge6" class="edge">
<title>130115172244864&#45;&gt;130115170569184</title>
<path fill="none" stroke="#666666" stroke-width="1.2" d="M174.91,-583.72C168.32,-575.03 161.22,-564.52 155.57,-555.19"/>
<polygon fill="#666666" stroke="#666666" stroke-width="1.2" points="157.84,-553.51 151.4,-548 153,-556.33 157.84,-553.51"/>
</g>
<!-- 130115170569280 -->
<g id="node6" class="node">
<title>130115170569280</title>
<polygon fill="lightgray" stroke="darkslategray" points="312.5,-548 213.5,-548 213.5,-512 312.5,-512 312.5,-548"/>
<text text-anchor="middle" x="263" y="-526.3" font-family="Courier Bold" font-size="14.00">add_scalar</text>
</g>
<!-- 130115172244864&#45;&gt;130115170569280 -->
<g id="edge8" class="edge">
<title>130115172244864&#45;&gt;130115170569280</title>
<path fill="none" stroke="#666666" stroke-width="1.2" d="M205.04,-583.72C213.23,-574.51 224.2,-563.27 234.45,-553.53"/>
<polygon fill="#666666" stroke="#666666" stroke-width="1.2" points="236.44,-555.51 240.38,-548 232.62,-551.41 236.44,-555.51"/>
</g>
<!-- 130115170569520 -->
<g id="node9" class="node">
<title>130115170569520</title>
<polygon fill="lightgray" stroke="darkslategray" points="429.5,-548 330.5,-548 330.5,-512 429.5,-512 429.5,-548"/>
<text text-anchor="middle" x="380" y="-526.3" font-family="Courier Bold" font-size="14.00">mul_scalar</text>
</g>
<!-- 130115172244864&#45;&gt;130115170569520 -->
<g id="edge10" class="edge">
<title>130115172244864&#45;&gt;130115170569520</title>
<path fill="none" stroke="#666666" stroke-width="1.2" d="M224.34,-587.62C227.26,-586.37 230.18,-585.14 233,-584 262.31,-572.14 295.4,-560.1 322.75,-550.49"/>
<polygon fill="#666666" stroke="#666666" stroke-width="1.2" points="323.68,-553.13 330.31,-547.85 321.83,-547.85 323.68,-553.13"/>
</g>
<!-- 130117430101712&#45;&gt;130115172244864 -->
<g id="edge1" class="edge">
<title>130117430101712&#45;&gt;130115172244864</title>
<path fill="none" stroke="#666666" stroke-width="1.2" d="M78,-545.67C101.17,-555.89 130.87,-569.66 154.33,-581.03"/>
<polygon fill="#666666" stroke="#666666" stroke-width="1.2" points="153.3,-583.64 161.71,-584.63 155.75,-578.61 153.3,-583.64"/>
</g>
<!-- 130117430101376 -->
<g id="node3" class="node">
<title>130117430101376</title>
<polygon fill="honeydew" stroke="darkseagreen" points="72,-622 0,-622 0,-584 72,-584 72,-622"/>
<text text-anchor="middle" x="36" y="-606.8" font-family="Sans-Serif" font-size="14.00">vector_1</text>
<text text-anchor="middle" x="36" y="-591.8" font-family="Sans-Serif" font-size="14.00">(3, 4, 5)</text>
</g>
<!-- 130117430101376&#45;&gt;130117430101712 -->
<g id="edge5" class="edge">
<title>130117430101376&#45;&gt;130117430101712</title>
<path fill="none" stroke="#666666" stroke-width="1.2" d="M37.29,-583.72C37.88,-575.29 38.6,-565.15 39.24,-556.02"/>
<polygon fill="#666666" stroke="#666666" stroke-width="1.2" points="42.03,-556.18 39.8,-548 36.45,-555.79 42.03,-556.18"/>
</g>
<!-- 130115170569184&#45;&gt;130115172244864 -->
<g id="edge2" class="edge">
<title>130115170569184&#45;&gt;130115172244864</title>
<path fill="none" stroke="#666666" stroke-width="1.2" d="M163.11,-548C169.71,-556.59 176.93,-567.18 182.75,-576.7"/>
<polygon fill="#666666" stroke="#666666" stroke-width="1.2" points="180.41,-578.25 186.88,-583.72 185.23,-575.4 180.41,-578.25"/>
</g>
<!-- 130117430113280 -->
<g id="node5" class="node">
<title>130117430113280</title>
<polygon fill="moccasin" stroke="orange" points="144,-622 90,-622 90,-584 144,-584 144,-622"/>
<text text-anchor="middle" x="117" y="-606.8" font-family="Sans-Serif" font-size="14.00">var_1</text>
<text text-anchor="middle" x="117" y="-591.8" font-family="Sans-Serif" font-size="14.00">10.0</text>
</g>
<!-- 130117430113280&#45;&gt;130115170569184 -->
<g id="edge7" class="edge">
<title>130117430113280&#45;&gt;130115170569184</title>
<path fill="none" stroke="#666666" stroke-width="1.2" d="M124.47,-583.72C127.98,-575.11 132.22,-564.73 136.01,-555.46"/>
<polygon fill="#666666" stroke="#666666" stroke-width="1.2" points="138.62,-556.47 139.05,-548 133.44,-554.35 138.62,-556.47"/>
</g>
<!-- 130115170569280&#45;&gt;130115172244864 -->
<g id="edge3" class="edge">
<title>130115170569280&#45;&gt;130115172244864</title>
<path fill="none" stroke="#666666" stroke-width="1.2" d="M252.09,-548C244.17,-557.01 233.31,-568.22 223,-578.09"/>
<polygon fill="#666666" stroke="#666666" stroke-width="1.2" points="220.92,-576.19 217.01,-583.72 224.76,-580.27 220.92,-576.19"/>
</g>
<!-- 130115170569136 -->
<g id="node7" class="node">
<title>130115170569136</title>
<polygon fill="moccasin" stroke="orange" points="296,-622 242,-622 242,-584 296,-584 296,-622"/>
<text text-anchor="middle" x="269" y="-606.8" font-family="Sans-Serif" font-size="14.00">var_2</text>
<text text-anchor="middle" x="269" y="-591.8" font-family="Sans-Serif" font-size="14.00">&#45;3.0</text>
</g>
<!-- 130115170569136&#45;&gt;130115170569280 -->
<g id="edge9" class="edge">
<title>130115170569136&#45;&gt;130115170569280</title>
<path fill="none" stroke="#666666" stroke-width="1.2" d="M267.45,-583.72C266.74,-575.29 265.89,-565.15 265.11,-556.02"/>
<polygon fill="#666666" stroke="#666666" stroke-width="1.2" points="267.9,-555.74 264.44,-548 262.32,-556.21 267.9,-555.74"/>
</g>
<!-- 130115170569088 -->
<g id="node8" class="node">
<title>130115170569088</title>
<polygon fill="aliceblue" stroke="skyblue" points="487,-622 425,-622 425,-584 487,-584 487,-622"/>
<text text-anchor="middle" x="456" y="-606.8" font-family="Sans-Serif" font-size="14.00">out</text>
<text text-anchor="middle" x="456" y="-591.8" font-family="Sans-Serif" font-size="14.00">(3, 4, 5)</text>
</g>
<!-- 130115170569664 -->
<g id="node11" class="node">
<title>130115170569664</title>
<polygon fill="aliceblue" stroke="skyblue" points="416.5,-476 343.5,-476 343.5,-438 416.5,-438 416.5,-476"/>
<text text-anchor="middle" x="380" y="-460.8" font-family="Sans-Serif" font-size="14.00">tensor_3</text>
<text text-anchor="middle" x="380" y="-445.8" font-family="Sans-Serif" font-size="14.00">(3, 4, 5)</text>
</g>
<!-- 130115170569520&#45;&gt;130115170569664 -->
<g id="edge12" class="edge">
<title>130115170569520&#45;&gt;130115170569664</title>
<path fill="none" stroke="#666666" stroke-width="1.2" d="M380,-511.81C380,-503.52 380,-493.39 380,-484.16"/>
<polygon fill="#666666" stroke="#666666" stroke-width="1.2" points="382.8,-484.02 380,-476.02 377.2,-484.02 382.8,-484.02"/>
</g>
<!-- 130115170569472 -->
<g id="node10" class="node">
<title>130115170569472</title>
<polygon fill="moccasin" stroke="orange" points="407,-622 353,-622 353,-584 407,-584 407,-622"/>
<text text-anchor="middle" x="380" y="-606.8" font-family="Sans-Serif" font-size="14.00">var_3</text>
<text text-anchor="middle" x="380" y="-591.8" font-family="Sans-Serif" font-size="14.00">&#45;1</text>
</g>
<!-- 130115170569472&#45;&gt;130115170569520 -->
<g id="edge11" class="edge">
<title>130115170569472&#45;&gt;130115170569520</title>
<path fill="none" stroke="#666666" stroke-width="1.2" d="M380,-583.72C380,-575.29 380,-565.15 380,-556.02"/>
<polygon fill="#666666" stroke="#666666" stroke-width="1.2" points="382.8,-556 380,-548 377.2,-556 382.8,-556"/>
</g>
<!-- 130115170569904 -->
<g id="node12" class="node">
<title>130115170569904</title>
<polygon fill="lightgray" stroke="darkslategray" points="407,-402 353,-402 353,-366 407,-366 407,-402"/>
<text text-anchor="middle" x="380" y="-380.3" font-family="Courier Bold" font-size="14.00">exp</text>
</g>
<!-- 130115170569664&#45;&gt;130115170569904 -->
<g id="edge13" class="edge">
<title>130115170569664&#45;&gt;130115170569904</title>
<path fill="none" stroke="#666666" stroke-width="1.2" d="M380,-437.72C380,-429.29 380,-419.15 380,-410.02"/>
<polygon fill="#666666" stroke="#666666" stroke-width="1.2" points="382.8,-410 380,-402 377.2,-410 382.8,-410"/>
</g>
<!-- 130115170570000 -->
<g id="node13" class="node">
<title>130115170570000</title>
<polygon fill="aliceblue" stroke="skyblue" points="416.5,-330 343.5,-330 343.5,-292 416.5,-292 416.5,-330"/>
<text text-anchor="middle" x="380" y="-314.8" font-family="Sans-Serif" font-size="14.00">tensor_4</text>
<text text-anchor="middle" x="380" y="-299.8" font-family="Sans-Serif" font-size="14.00">(3, 4, 5)</text>
</g>
<!-- 130115170569904&#45;&gt;130115170570000 -->
<g id="edge14" class="edge">
<title>130115170569904&#45;&gt;130115170570000</title>
<path fill="none" stroke="#666666" stroke-width="1.2" d="M380,-365.81C380,-357.52 380,-347.39 380,-338.16"/>
<polygon fill="#666666" stroke="#666666" stroke-width="1.2" points="382.8,-338.02 380,-330.02 377.2,-338.02 382.8,-338.02"/>
</g>
<!-- 130115170576384 -->
<g id="node14" class="node">
<title>130115170576384</title>
<polygon fill="lightgray" stroke="darkslategray" points="470.5,-256 371.5,-256 371.5,-220 470.5,-220 470.5,-256"/>
<text text-anchor="middle" x="421" y="-234.3" font-family="Courier Bold" font-size="14.00">add_scalar</text>
</g>
<!-- 130115170570000&#45;&gt;130115170576384 -->
<g id="edge15" class="edge">
<title>130115170570000&#45;&gt;130115170576384</title>
<path fill="none" stroke="#666666" stroke-width="1.2" d="M390.56,-291.72C395.58,-283.03 401.64,-272.52 407.03,-263.19"/>
<polygon fill="#666666" stroke="#666666" stroke-width="1.2" points="409.61,-264.33 411.18,-256 404.76,-261.53 409.61,-264.33"/>
</g>
<!-- 130115170576528 -->
<g id="node16" class="node">
<title>130115170576528</title>
<polygon fill="aliceblue" stroke="skyblue" points="457.5,-184 384.5,-184 384.5,-146 457.5,-146 457.5,-184"/>
<text text-anchor="middle" x="421" y="-168.8" font-family="Sans-Serif" font-size="14.00">tensor_5</text>
<text text-anchor="middle" x="421" y="-153.8" font-family="Sans-Serif" font-size="14.00">(3, 4, 5)</text>
</g>
<!-- 130115170576384&#45;&gt;130115170576528 -->
<g id="edge17" class="edge">
<title>130115170576384&#45;&gt;130115170576528</title>
<path fill="none" stroke="#666666" stroke-width="1.2" d="M421,-219.81C421,-211.52 421,-201.39 421,-192.16"/>
<polygon fill="#666666" stroke="#666666" stroke-width="1.2" points="423.8,-192.02 421,-184.02 418.2,-192.02 423.8,-192.02"/>
</g>
<!-- 130115170576336 -->
<g id="node15" class="node">
<title>130115170576336</title>
<polygon fill="moccasin" stroke="orange" points="489,-330 435,-330 435,-292 489,-292 489,-330"/>
<text text-anchor="middle" x="462" y="-314.8" font-family="Sans-Serif" font-size="14.00">var_4</text>
<text text-anchor="middle" x="462" y="-299.8" font-family="Sans-Serif" font-size="14.00">1</text>
</g>
<!-- 130115170576336&#45;&gt;130115170576384 -->
<g id="edge16" class="edge">
<title>130115170576336&#45;&gt;130115170576384</title>
<path fill="none" stroke="#666666" stroke-width="1.2" d="M451.44,-291.72C446.42,-283.03 440.36,-272.52 434.97,-263.19"/>
<polygon fill="#666666" stroke="#666666" stroke-width="1.2" points="437.24,-261.53 430.82,-256 432.39,-264.33 437.24,-261.53"/>
</g>
<!-- 130115170576768 -->
<g id="node17" class="node">
<title>130115170576768</title>
<polygon fill="lightgray" stroke="darkslategray" points="515.5,-110 408.5,-110 408.5,-74 515.5,-74 515.5,-110"/>
<text text-anchor="middle" x="462" y="-88.3" font-family="Courier Bold" font-size="14.00">rdiv_scalar</text>
</g>
<!-- 130115170576528&#45;&gt;130115170576768 -->
<g id="edge19" class="edge">
<title>130115170576528&#45;&gt;130115170576768</title>
<path fill="none" stroke="#666666" stroke-width="1.2" d="M431.56,-145.72C436.58,-137.03 442.64,-126.52 448.03,-117.19"/>
<polygon fill="#666666" stroke="#666666" stroke-width="1.2" points="450.61,-118.33 452.18,-110 445.76,-115.53 450.61,-118.33"/>
</g>
<!-- 130115170576912 -->
<g id="node19" class="node">
<title>130115170576912</title>
<polygon fill="aliceblue" stroke="skyblue" points="498.5,-38 425.5,-38 425.5,0 498.5,0 498.5,-38"/>
<text text-anchor="middle" x="462" y="-22.8" font-family="Sans-Serif" font-size="14.00">tensor_6</text>
<text text-anchor="middle" x="462" y="-7.8" font-family="Sans-Serif" font-size="14.00">(3, 4, 5)</text>
</g>
<!-- 130115170576768&#45;&gt;130115170576912 -->
<g id="edge20" class="edge">
<title>130115170576768&#45;&gt;130115170576912</title>
<path fill="none" stroke="#666666" stroke-width="1.2" d="M462,-73.81C462,-65.52 462,-55.39 462,-46.16"/>
<polygon fill="#666666" stroke="#666666" stroke-width="1.2" points="464.8,-46.02 462,-38.02 459.2,-46.02 464.8,-46.02"/>
</g>
<!-- 130115170576720 -->
<g id="node18" class="node">
<title>130115170576720</title>
<polygon fill="moccasin" stroke="orange" points="530,-184 476,-184 476,-146 530,-146 530,-184"/>
<text text-anchor="middle" x="503" y="-168.8" font-family="Sans-Serif" font-size="14.00">var_5</text>
<text text-anchor="middle" x="503" y="-153.8" font-family="Sans-Serif" font-size="14.00">1</text>
</g>
<!-- 130115170576720&#45;&gt;130115170576768 -->
<g id="edge18" class="edge">
<title>130115170576720&#45;&gt;130115170576768</title>
<path fill="none" stroke="#666666" stroke-width="1.2" d="M492.44,-145.72C487.42,-137.03 481.36,-126.52 475.97,-117.19"/>
<polygon fill="#666666" stroke="#666666" stroke-width="1.2" points="478.24,-115.53 471.82,-110 473.39,-118.33 478.24,-115.53"/>
</g>
</g>
</svg>
