<?xml version="1.0" encoding="UTF-8" standalone="no"?>
<!DOCTYPE svg PUBLIC "-//W3C//DTD SVG 1.1//EN"
 "http://www.w3.org/Graphics/SVG/1.1/DTD/svg11.dtd">
<!-- Generated by graphviz version 2.43.0 (0)
 -->
<!-- Title: %3 Pages: 1 -->
<svg width="530pt" height="922pt"
 viewBox="0.00 0.00 530.00 922.00" xmlns="http://www.w3.org/2000/svg" xmlns:xlink="http://www.w3.org/1999/xlink">
<g id="graph0" class="graph" transform="scale(1 1) rotate(0) translate(4 918)">
<title>%3</title>
<polygon fill="white" stroke="transparent" points="-4,4 -4,-918 526,-918 526,4 -4,4"/>
<!-- 126069248056752 -->
<g id="node1" class="node">
<title>126069248056752</title>
<polygon fill="aliceblue" stroke="skyblue" points="250,-914 188,-914 188,-876 250,-876 250,-914"/>
<text text-anchor="middle" x="219" y="-898.8" font-family="Sans-Serif" font-size="14.00">x</text>
<text text-anchor="middle" x="219" y="-883.8" font-family="Sans-Serif" font-size="14.00">(3, 4, 5)</text>
</g>
<!-- 126071540500176 -->
<g id="node2" class="node">
<title>126071540500176</title>
<polygon fill="lightgray" stroke="darkslategray" points="74,-840 0,-840 0,-804 74,-804 74,-840"/>
<text text-anchor="middle" x="37" y="-818.3" font-family="Courier Bold" font-size="14.00">reshape</text>
</g>
<!-- 126069248056752&#45;&gt;126071540500176 -->
<g id="edge4" class="edge">
<title>126069248056752&#45;&gt;126071540500176</title>
<path fill="none" stroke="#666666" stroke-width="1.2" d="M187.85,-883.88C181.54,-881.25 175.05,-878.46 169,-876 160.27,-872.45 116.7,-856.1 81.87,-842.49"/>
<polygon fill="#666666" stroke="#666666" stroke-width="1.2" points="82.61,-839.77 74.14,-839.46 80.56,-844.98 82.61,-839.77"/>
</g>
<!-- 126069246242448 -->
<g id="node4" class="node">
<title>126069246242448</title>
<polygon fill="lightgray" stroke="darkslategray" points="191.5,-840 92.5,-840 92.5,-804 191.5,-804 191.5,-840"/>
<text text-anchor="middle" x="142" y="-818.3" font-family="Courier Bold" font-size="14.00">div_scalar</text>
</g>
<!-- 126069248056752&#45;&gt;126069246242448 -->
<g id="edge6" class="edge">
<title>126069248056752&#45;&gt;126069246242448</title>
<path fill="none" stroke="#666666" stroke-width="1.2" d="M193.18,-875.72C182.42,-866.6 170.24,-855.48 160.38,-845.81"/>
<polygon fill="#666666" stroke="#666666" stroke-width="1.2" points="162.22,-843.68 154.58,-840 158.26,-847.64 162.22,-843.68"/>
</g>
<!-- 126069246242544 -->
<g id="node6" class="node">
<title>126069246242544</title>
<polygon fill="lightgray" stroke="darkslategray" points="347.5,-840 248.5,-840 248.5,-804 347.5,-804 347.5,-840"/>
<text text-anchor="middle" x="298" y="-818.3" font-family="Courier Bold" font-size="14.00">add_scalar</text>
</g>
<!-- 126069248056752&#45;&gt;126069246242544 -->
<g id="edge8" class="edge">
<title>126069248056752&#45;&gt;126069246242544</title>
<path fill="none" stroke="#666666" stroke-width="1.2" d="M233.36,-875.72C242.8,-866.42 255.34,-855.06 266.92,-845.26"/>
<polygon fill="#666666" stroke="#666666" stroke-width="1.2" points="268.87,-847.28 273.22,-840 265.28,-842.98 268.87,-847.28"/>
</g>
<!-- 126069246242352 -->
<g id="node8" class="node">
<title>126069246242352</title>
<polygon fill="lightgray" stroke="darkslategray" points="464.5,-840 365.5,-840 365.5,-804 464.5,-804 464.5,-840"/>
<text text-anchor="middle" x="415" y="-818.3" font-family="Courier Bold" font-size="14.00">mul_scalar</text>
</g>
<!-- 126069248056752&#45;&gt;126069246242352 -->
<g id="edge10" class="edge">
<title>126069248056752&#45;&gt;126069246242352</title>
<path fill="none" stroke="#666666" stroke-width="1.2" d="M250.38,-880.6C254.28,-879.01 258.22,-877.44 262,-876 293.32,-864.03 328.68,-851.71 357.5,-841.96"/>
<polygon fill="#666666" stroke="#666666" stroke-width="1.2" points="358.76,-844.49 365.45,-839.28 356.97,-839.19 358.76,-844.49"/>
</g>
<!-- 126069246244656 -->
<g id="node23" class="node">
<title>126069246244656</title>
<polygon fill="lightgray" stroke="darkslategray" points="279,-110 225,-110 225,-74 279,-74 279,-110"/>
<text text-anchor="middle" x="252" y="-88.3" font-family="Courier Bold" font-size="14.00">mul</text>
</g>
<!-- 126069248056752&#45;&gt;126069246244656 -->
<g id="edge24" class="edge">
<title>126069248056752&#45;&gt;126069246244656</title>
<path fill="none" stroke="#666666" stroke-width="1.2" d="M219.21,-875.81C219.5,-848.5 220,-795.25 220,-750 220,-750 220,-750 220,-237 220,-194.34 233.55,-146.24 243.01,-117.83"/>
<polygon fill="#666666" stroke="#666666" stroke-width="1.2" points="245.74,-118.49 245.68,-110.02 240.44,-116.68 245.74,-118.49"/>
</g>
<!-- 126071540500176&#45;&gt;126069248056752 -->
<g id="edge1" class="edge">
<title>126071540500176&#45;&gt;126069248056752</title>
<path fill="none" stroke="#666666" stroke-width="1.2" d="M74.06,-834.51C109.34,-846.76 159.61,-865.43 180.29,-873.38"/>
<polygon fill="#666666" stroke="#666666" stroke-width="1.2" points="179.4,-876.04 187.87,-876.35 181.44,-870.83 179.4,-876.04"/>
</g>
<!-- 126071540499840 -->
<g id="node3" class="node">
<title>126071540499840</title>
<polygon fill="honeydew" stroke="darkseagreen" points="73,-914 1,-914 1,-876 73,-876 73,-914"/>
<text text-anchor="middle" x="37" y="-898.8" font-family="Sans-Serif" font-size="14.00">vector_1</text>
<text text-anchor="middle" x="37" y="-883.8" font-family="Sans-Serif" font-size="14.00">(3, 4, 5)</text>
</g>
<!-- 126071540499840&#45;&gt;126071540500176 -->
<g id="edge5" class="edge">
<title>126071540499840&#45;&gt;126071540500176</title>
<path fill="none" stroke="#666666" stroke-width="1.2" d="M37,-875.72C37,-867.29 37,-857.15 37,-848.02"/>
<polygon fill="#666666" stroke="#666666" stroke-width="1.2" points="39.8,-848 37,-840 34.2,-848 39.8,-848"/>
</g>
<!-- 126069246242448&#45;&gt;126069248056752 -->
<g id="edge2" class="edge">
<title>126069246242448&#45;&gt;126069248056752</title>
<path fill="none" stroke="#666666" stroke-width="1.2" d="M166.3,-840C176.92,-848.93 189.14,-860.01 199.2,-869.81"/>
<polygon fill="#666666" stroke="#666666" stroke-width="1.2" points="197.51,-872.07 205.16,-875.72 201.45,-868.09 197.51,-872.07"/>
</g>
<!-- 126071540511648 -->
<g id="node5" class="node">
<title>126071540511648</title>
<polygon fill="moccasin" stroke="orange" points="169,-914 115,-914 115,-876 169,-876 169,-914"/>
<text text-anchor="middle" x="142" y="-898.8" font-family="Sans-Serif" font-size="14.00">var_1</text>
<text text-anchor="middle" x="142" y="-883.8" font-family="Sans-Serif" font-size="14.00">10.0</text>
</g>
<!-- 126071540511648&#45;&gt;126069246242448 -->
<g id="edge7" class="edge">
<title>126071540511648&#45;&gt;126069246242448</title>
<path fill="none" stroke="#666666" stroke-width="1.2" d="M142,-875.72C142,-867.29 142,-857.15 142,-848.02"/>
<polygon fill="#666666" stroke="#666666" stroke-width="1.2" points="144.8,-848 142,-840 139.2,-848 144.8,-848"/>
</g>
<!-- 126069246242544&#45;&gt;126069248056752 -->
<g id="edge3" class="edge">
<title>126069246242544&#45;&gt;126069248056752</title>
<path fill="none" stroke="#666666" stroke-width="1.2" d="M284.94,-840C275.79,-849.09 263.36,-860.43 251.7,-870.36"/>
<polygon fill="#666666" stroke="#666666" stroke-width="1.2" points="249.66,-868.43 245.33,-875.72 253.26,-872.71 249.66,-868.43"/>
</g>
<!-- 126069246242400 -->
<g id="node7" class="node">
<title>126069246242400</title>
<polygon fill="moccasin" stroke="orange" points="325,-914 271,-914 271,-876 325,-876 325,-914"/>
<text text-anchor="middle" x="298" y="-898.8" font-family="Sans-Serif" font-size="14.00">var_2</text>
<text text-anchor="middle" x="298" y="-883.8" font-family="Sans-Serif" font-size="14.00">&#45;3.0</text>
</g>
<!-- 126069246242400&#45;&gt;126069246242544 -->
<g id="edge9" class="edge">
<title>126069246242400&#45;&gt;126069246242544</title>
<path fill="none" stroke="#666666" stroke-width="1.2" d="M298,-875.72C298,-867.29 298,-857.15 298,-848.02"/>
<polygon fill="#666666" stroke="#666666" stroke-width="1.2" points="300.8,-848 298,-840 295.2,-848 300.8,-848"/>
</g>
<!-- 126069246242688 -->
<g id="node10" class="node">
<title>126069246242688</title>
<polygon fill="aliceblue" stroke="skyblue" points="451.5,-768 378.5,-768 378.5,-730 451.5,-730 451.5,-768"/>
<text text-anchor="middle" x="415" y="-752.8" font-family="Sans-Serif" font-size="14.00">tensor_2</text>
<text text-anchor="middle" x="415" y="-737.8" font-family="Sans-Serif" font-size="14.00">(3, 4, 5)</text>
</g>
<!-- 126069246242352&#45;&gt;126069246242688 -->
<g id="edge12" class="edge">
<title>126069246242352&#45;&gt;126069246242688</title>
<path fill="none" stroke="#666666" stroke-width="1.2" d="M415,-803.81C415,-795.52 415,-785.39 415,-776.16"/>
<polygon fill="#666666" stroke="#666666" stroke-width="1.2" points="417.8,-776.02 415,-768.02 412.2,-776.02 417.8,-776.02"/>
</g>
<!-- 126069246242592 -->
<g id="node9" class="node">
<title>126069246242592</title>
<polygon fill="moccasin" stroke="orange" points="442,-914 388,-914 388,-876 442,-876 442,-914"/>
<text text-anchor="middle" x="415" y="-898.8" font-family="Sans-Serif" font-size="14.00">var_3</text>
<text text-anchor="middle" x="415" y="-883.8" font-family="Sans-Serif" font-size="14.00">1.0</text>
</g>
<!-- 126069246242592&#45;&gt;126069246242352 -->
<g id="edge11" class="edge">
<title>126069246242592&#45;&gt;126069246242352</title>
<path fill="none" stroke="#666666" stroke-width="1.2" d="M415,-875.72C415,-867.29 415,-857.15 415,-848.02"/>
<polygon fill="#666666" stroke="#666666" stroke-width="1.2" points="417.8,-848 415,-840 412.2,-848 417.8,-848"/>
</g>
<!-- 126069246243168 -->
<g id="node12" class="node">
<title>126069246243168</title>
<polygon fill="lightgray" stroke="darkslategray" points="442.5,-694 343.5,-694 343.5,-658 442.5,-658 442.5,-694"/>
<text text-anchor="middle" x="393" y="-672.3" font-family="Courier Bold" font-size="14.00">mul_scalar</text>
</g>
<!-- 126069246242688&#45;&gt;126069246243168 -->
<g id="edge13" class="edge">
<title>126069246242688&#45;&gt;126069246243168</title>
<path fill="none" stroke="#666666" stroke-width="1.2" d="M409.33,-729.72C406.7,-721.2 403.52,-710.94 400.67,-701.74"/>
<polygon fill="#666666" stroke="#666666" stroke-width="1.2" points="403.31,-700.82 398.27,-694 397.96,-702.47 403.31,-700.82"/>
</g>
<!-- 126069246242928 -->
<g id="node11" class="node">
<title>126069246242928</title>
<polygon fill="aliceblue" stroke="skyblue" points="522,-914 460,-914 460,-876 522,-876 522,-914"/>
<text text-anchor="middle" x="491" y="-898.8" font-family="Sans-Serif" font-size="14.00">out</text>
<text text-anchor="middle" x="491" y="-883.8" font-family="Sans-Serif" font-size="14.00">(3, 4, 5)</text>
</g>
<!-- 126069246243312 -->
<g id="node14" class="node">
<title>126069246243312</title>
<polygon fill="aliceblue" stroke="skyblue" points="429.5,-622 356.5,-622 356.5,-584 429.5,-584 429.5,-622"/>
<text text-anchor="middle" x="393" y="-606.8" font-family="Sans-Serif" font-size="14.00">tensor_4</text>
<text text-anchor="middle" x="393" y="-591.8" font-family="Sans-Serif" font-size="14.00">(3, 4, 5)</text>
</g>
<!-- 126069246243168&#45;&gt;126069246243312 -->
<g id="edge15" class="edge">
<title>126069246243168&#45;&gt;126069246243312</title>
<path fill="none" stroke="#666666" stroke-width="1.2" d="M393,-657.81C393,-649.52 393,-639.39 393,-630.16"/>
<polygon fill="#666666" stroke="#666666" stroke-width="1.2" points="395.8,-630.02 393,-622.02 390.2,-630.02 395.8,-630.02"/>
</g>
<!-- 126069246243120 -->
<g id="node13" class="node">
<title>126069246243120</title>
<polygon fill="moccasin" stroke="orange" points="360,-768 306,-768 306,-730 360,-730 360,-768"/>
<text text-anchor="middle" x="333" y="-752.8" font-family="Sans-Serif" font-size="14.00">var_4</text>
<text text-anchor="middle" x="333" y="-737.8" font-family="Sans-Serif" font-size="14.00">&#45;1</text>
</g>
<!-- 126069246243120&#45;&gt;126069246243168 -->
<g id="edge14" class="edge">
<title>126069246243120&#45;&gt;126069246243168</title>
<path fill="none" stroke="#666666" stroke-width="1.2" d="M348.45,-729.72C356.01,-720.77 365.2,-709.9 373.26,-700.36"/>
<polygon fill="#666666" stroke="#666666" stroke-width="1.2" points="375.61,-701.92 378.63,-694 371.33,-698.31 375.61,-701.92"/>
</g>
<!-- 126069246243552 -->
<g id="node15" class="node">
<title>126069246243552</title>
<polygon fill="lightgray" stroke="darkslategray" points="420,-548 366,-548 366,-512 420,-512 420,-548"/>
<text text-anchor="middle" x="393" y="-526.3" font-family="Courier Bold" font-size="14.00">exp</text>
</g>
<!-- 126069246243312&#45;&gt;126069246243552 -->
<g id="edge16" class="edge">
<title>126069246243312&#45;&gt;126069246243552</title>
<path fill="none" stroke="#666666" stroke-width="1.2" d="M393,-583.72C393,-575.29 393,-565.15 393,-556.02"/>
<polygon fill="#666666" stroke="#666666" stroke-width="1.2" points="395.8,-556 393,-548 390.2,-556 395.8,-556"/>
</g>
<!-- 126069246243648 -->
<g id="node16" class="node">
<title>126069246243648</title>
<polygon fill="aliceblue" stroke="skyblue" points="429.5,-476 356.5,-476 356.5,-438 429.5,-438 429.5,-476"/>
<text text-anchor="middle" x="393" y="-460.8" font-family="Sans-Serif" font-size="14.00">tensor_5</text>
<text text-anchor="middle" x="393" y="-445.8" font-family="Sans-Serif" font-size="14.00">(3, 4, 5)</text>
</g>
<!-- 126069246243552&#45;&gt;126069246243648 -->
<g id="edge17" class="edge">
<title>126069246243552&#45;&gt;126069246243648</title>
<path fill="none" stroke="#666666" stroke-width="1.2" d="M393,-511.81C393,-503.52 393,-493.39 393,-484.16"/>
<polygon fill="#666666" stroke="#666666" stroke-width="1.2" points="395.8,-484.02 393,-476.02 390.2,-484.02 395.8,-484.02"/>
</g>
<!-- 126069246243888 -->
<g id="node17" class="node">
<title>126069246243888</title>
<polygon fill="lightgray" stroke="darkslategray" points="420.5,-402 321.5,-402 321.5,-366 420.5,-366 420.5,-402"/>
<text text-anchor="middle" x="371" y="-380.3" font-family="Courier Bold" font-size="14.00">add_scalar</text>
</g>
<!-- 126069246243648&#45;&gt;126069246243888 -->
<g id="edge18" class="edge">
<title>126069246243648&#45;&gt;126069246243888</title>
<path fill="none" stroke="#666666" stroke-width="1.2" d="M387.33,-437.72C384.7,-429.2 381.52,-418.94 378.67,-409.74"/>
<polygon fill="#666666" stroke="#666666" stroke-width="1.2" points="381.31,-408.82 376.27,-402 375.96,-410.47 381.31,-408.82"/>
</g>
<!-- 126069246244032 -->
<g id="node19" class="node">
<title>126069246244032</title>
<polygon fill="aliceblue" stroke="skyblue" points="407.5,-330 334.5,-330 334.5,-292 407.5,-292 407.5,-330"/>
<text text-anchor="middle" x="371" y="-314.8" font-family="Sans-Serif" font-size="14.00">tensor_6</text>
<text text-anchor="middle" x="371" y="-299.8" font-family="Sans-Serif" font-size="14.00">(3, 4, 5)</text>
</g>
<!-- 126069246243888&#45;&gt;126069246244032 -->
<g id="edge20" class="edge">
<title>126069246243888&#45;&gt;126069246244032</title>
<path fill="none" stroke="#666666" stroke-width="1.2" d="M371,-365.81C371,-357.52 371,-347.39 371,-338.16"/>
<polygon fill="#666666" stroke="#666666" stroke-width="1.2" points="373.8,-338.02 371,-330.02 368.2,-338.02 373.8,-338.02"/>
</g>
<!-- 126069246243840 -->
<g id="node18" class="node">
<title>126069246243840</title>
<polygon fill="moccasin" stroke="orange" points="338,-476 284,-476 284,-438 338,-438 338,-476"/>
<text text-anchor="middle" x="311" y="-460.8" font-family="Sans-Serif" font-size="14.00">var_5</text>
<text text-anchor="middle" x="311" y="-445.8" font-family="Sans-Serif" font-size="14.00">1</text>
</g>
<!-- 126069246243840&#45;&gt;126069246243888 -->
<g id="edge19" class="edge">
<title>126069246243840&#45;&gt;126069246243888</title>
<path fill="none" stroke="#666666" stroke-width="1.2" d="M326.45,-437.72C334.01,-428.77 343.2,-417.9 351.26,-408.36"/>
<polygon fill="#666666" stroke="#666666" stroke-width="1.2" points="353.61,-409.92 356.63,-402 349.33,-406.31 353.61,-409.92"/>
</g>
<!-- 126069246244272 -->
<g id="node20" class="node">
<title>126069246244272</title>
<polygon fill="lightgray" stroke="darkslategray" points="355.5,-256 248.5,-256 248.5,-220 355.5,-220 355.5,-256"/>
<text text-anchor="middle" x="302" y="-234.3" font-family="Courier Bold" font-size="14.00">rdiv_scalar</text>
</g>
<!-- 126069246244032&#45;&gt;126069246244272 -->
<g id="edge22" class="edge">
<title>126069246244032&#45;&gt;126069246244272</title>
<path fill="none" stroke="#666666" stroke-width="1.2" d="M353.23,-291.72C344.37,-282.6 333.56,-271.48 324.16,-261.81"/>
<polygon fill="#666666" stroke="#666666" stroke-width="1.2" points="326.11,-259.79 318.52,-256 322.09,-263.69 326.11,-259.79"/>
</g>
<!-- 126069246244416 -->
<g id="node22" class="node">
<title>126069246244416</title>
<polygon fill="aliceblue" stroke="skyblue" points="329.5,-184 256.5,-184 256.5,-146 329.5,-146 329.5,-184"/>
<text text-anchor="middle" x="293" y="-168.8" font-family="Sans-Serif" font-size="14.00">tensor_7</text>
<text text-anchor="middle" x="293" y="-153.8" font-family="Sans-Serif" font-size="14.00">(3, 4, 5)</text>
</g>
<!-- 126069246244272&#45;&gt;126069246244416 -->
<g id="edge23" class="edge">
<title>126069246244272&#45;&gt;126069246244416</title>
<path fill="none" stroke="#666666" stroke-width="1.2" d="M299.82,-219.81C298.77,-211.52 297.49,-201.39 296.32,-192.16"/>
<polygon fill="#666666" stroke="#666666" stroke-width="1.2" points="299.07,-191.6 295.28,-184.02 293.51,-192.31 299.07,-191.6"/>
</g>
<!-- 126069246244224 -->
<g id="node21" class="node">
<title>126069246244224</title>
<polygon fill="moccasin" stroke="orange" points="316,-330 262,-330 262,-292 316,-292 316,-330"/>
<text text-anchor="middle" x="289" y="-314.8" font-family="Sans-Serif" font-size="14.00">var_6</text>
<text text-anchor="middle" x="289" y="-299.8" font-family="Sans-Serif" font-size="14.00">1</text>
</g>
<!-- 126069246244224&#45;&gt;126069246244272 -->
<g id="edge21" class="edge">
<title>126069246244224&#45;&gt;126069246244272</title>
<path fill="none" stroke="#666666" stroke-width="1.2" d="M292.35,-291.72C293.89,-283.29 295.75,-273.15 297.42,-264.02"/>
<polygon fill="#666666" stroke="#666666" stroke-width="1.2" points="300.2,-264.38 298.89,-256 294.69,-263.37 300.2,-264.38"/>
</g>
<!-- 126069246244416&#45;&gt;126069246244656 -->
<g id="edge25" class="edge">
<title>126069246244416&#45;&gt;126069246244656</title>
<path fill="none" stroke="#666666" stroke-width="1.2" d="M282.44,-145.72C277.42,-137.03 271.36,-126.52 265.97,-117.19"/>
<polygon fill="#666666" stroke="#666666" stroke-width="1.2" points="268.24,-115.53 261.82,-110 263.39,-118.33 268.24,-115.53"/>
</g>
<!-- 126069246244752 -->
<g id="node24" class="node">
<title>126069246244752</title>
<polygon fill="aliceblue" stroke="skyblue" points="288.5,-38 215.5,-38 215.5,0 288.5,0 288.5,-38"/>
<text text-anchor="middle" x="252" y="-22.8" font-family="Sans-Serif" font-size="14.00">tensor_8</text>
<text text-anchor="middle" x="252" y="-7.8" font-family="Sans-Serif" font-size="14.00">(3, 4, 5)</text>
</g>
<!-- 126069246244656&#45;&gt;126069246244752 -->
<g id="edge26" class="edge">
<title>126069246244656&#45;&gt;126069246244752</title>
<path fill="none" stroke="#666666" stroke-width="1.2" d="M252,-73.81C252,-65.52 252,-55.39 252,-46.16"/>
<polygon fill="#666666" stroke="#666666" stroke-width="1.2" points="254.8,-46.02 252,-38.02 249.2,-46.02 254.8,-46.02"/>
</g>
</g>
</svg>
