<?xml version="1.0" encoding="UTF-8" standalone="no"?>
<!DOCTYPE svg PUBLIC "-//W3C//DTD SVG 1.1//EN"
 "http://www.w3.org/Graphics/SVG/1.1/DTD/svg11.dtd">
<!-- Generated by graphviz version 2.43.0 (0)
 -->
<!-- Title: %3 Pages: 1 -->
<svg width="736pt" height="484pt"
 viewBox="0.00 0.00 735.50 484.00" xmlns="http://www.w3.org/2000/svg" xmlns:xlink="http://www.w3.org/1999/xlink">
<g id="graph0" class="graph" transform="scale(1 1) rotate(0) translate(4 480)">
<title>%3</title>
<polygon fill="white" stroke="transparent" points="-4,4 -4,-480 731.5,-480 731.5,4 -4,4"/>
<!-- 134462353640752 -->
<g id="node1" class="node">
<title>134462353640752</title>
<polygon fill="aliceblue" stroke="skyblue" points="239.5,-330 177.5,-330 177.5,-292 239.5,-292 239.5,-330"/>
<text text-anchor="middle" x="208.5" y="-314.8" font-family="Sans-Serif" font-size="14.00">t1</text>
<text text-anchor="middle" x="208.5" y="-299.8" font-family="Sans-Serif" font-size="14.00">(3, 4, 5)</text>
</g>
<!-- 134460377150272 -->
<g id="node7" class="node">
<title>134460377150272</title>
<polygon fill="lightgray" stroke="darkslategray" points="155.5,-256 101.5,-256 101.5,-220 155.5,-220 155.5,-256"/>
<text text-anchor="middle" x="128.5" y="-234.3" font-family="Courier Bold" font-size="14.00">add</text>
</g>
<!-- 134462353640752&#45;&gt;134460377150272 -->
<g id="edge5" class="edge">
<title>134462353640752&#45;&gt;134460377150272</title>
<path fill="none" stroke="#666666" stroke-width="1.2" d="M187.9,-291.72C177.53,-282.51 164.86,-271.27 153.89,-261.53"/>
<polygon fill="#666666" stroke="#666666" stroke-width="1.2" points="155.5,-259.22 147.66,-256 151.78,-263.41 155.5,-259.22"/>
</g>
<!-- 134460378946608 -->
<g id="node2" class="node">
<title>134460378946608</title>
<polygon fill="lightgray" stroke="darkslategray" points="260,-402 177,-402 177,-366 260,-366 260,-402"/>
<text text-anchor="middle" x="218.5" y="-380.3" font-family="Courier Bold" font-size="14.00">constant</text>
</g>
<!-- 134460378946608&#45;&gt;134462353640752 -->
<g id="edge1" class="edge">
<title>134460378946608&#45;&gt;134462353640752</title>
<path fill="none" stroke="#666666" stroke-width="1.2" d="M216.08,-365.81C214.91,-357.52 213.48,-347.39 212.18,-338.16"/>
<polygon fill="#666666" stroke="#666666" stroke-width="1.2" points="214.93,-337.55 211.04,-330.02 209.38,-338.33 214.93,-337.55"/>
</g>
<!-- 134460378946848 -->
<g id="node3" class="node">
<title>134460378946848</title>
<polygon fill="moccasin" stroke="orange" points="245.5,-476 191.5,-476 191.5,-438 245.5,-438 245.5,-476"/>
<text text-anchor="middle" x="218.5" y="-460.8" font-family="Sans-Serif" font-size="14.00">var_1</text>
<text text-anchor="middle" x="218.5" y="-445.8" font-family="Sans-Serif" font-size="14.00">0</text>
</g>
<!-- 134460378946848&#45;&gt;134460378946608 -->
<g id="edge2" class="edge">
<title>134460378946848&#45;&gt;134460378946608</title>
<path fill="none" stroke="#666666" stroke-width="1.2" d="M218.5,-437.72C218.5,-429.29 218.5,-419.15 218.5,-410.02"/>
<polygon fill="#666666" stroke="#666666" stroke-width="1.2" points="221.3,-410 218.5,-402 215.7,-410 221.3,-410"/>
</g>
<!-- 134460377149792 -->
<g id="node4" class="node">
<title>134460377149792</title>
<polygon fill="aliceblue" stroke="skyblue" points="153.5,-330 91.5,-330 91.5,-292 153.5,-292 153.5,-330"/>
<text text-anchor="middle" x="122.5" y="-314.8" font-family="Sans-Serif" font-size="14.00">t2</text>
<text text-anchor="middle" x="122.5" y="-299.8" font-family="Sans-Serif" font-size="14.00">(3, 4, 5)</text>
</g>
<!-- 134460377149792&#45;&gt;134460377150272 -->
<g id="edge6" class="edge">
<title>134460377149792&#45;&gt;134460377150272</title>
<path fill="none" stroke="#666666" stroke-width="1.2" d="M124.05,-291.72C124.76,-283.29 125.61,-273.15 126.39,-264.02"/>
<polygon fill="#666666" stroke="#666666" stroke-width="1.2" points="129.18,-264.21 127.06,-256 123.6,-263.74 129.18,-264.21"/>
</g>
<!-- 134460377149936 -->
<g id="node5" class="node">
<title>134460377149936</title>
<polygon fill="lightgray" stroke="darkslategray" points="159,-402 76,-402 76,-366 159,-366 159,-402"/>
<text text-anchor="middle" x="117.5" y="-380.3" font-family="Courier Bold" font-size="14.00">constant</text>
</g>
<!-- 134460377149936&#45;&gt;134460377149792 -->
<g id="edge3" class="edge">
<title>134460377149936&#45;&gt;134460377149792</title>
<path fill="none" stroke="#666666" stroke-width="1.2" d="M118.71,-365.81C119.29,-357.52 120.01,-347.39 120.66,-338.16"/>
<polygon fill="#666666" stroke="#666666" stroke-width="1.2" points="123.46,-338.2 121.23,-330.02 117.88,-337.8 123.46,-338.2"/>
</g>
<!-- 134460377150032 -->
<g id="node6" class="node">
<title>134460377150032</title>
<polygon fill="moccasin" stroke="orange" points="144.5,-476 90.5,-476 90.5,-438 144.5,-438 144.5,-476"/>
<text text-anchor="middle" x="117.5" y="-460.8" font-family="Sans-Serif" font-size="14.00">var_2</text>
<text text-anchor="middle" x="117.5" y="-445.8" font-family="Sans-Serif" font-size="14.00">1</text>
</g>
<!-- 134460377150032&#45;&gt;134460377149936 -->
<g id="edge4" class="edge">
<title>134460377150032&#45;&gt;134460377149936</title>
<path fill="none" stroke="#666666" stroke-width="1.2" d="M117.5,-437.72C117.5,-429.29 117.5,-419.15 117.5,-410.02"/>
<polygon fill="#666666" stroke="#666666" stroke-width="1.2" points="120.3,-410 117.5,-402 114.7,-410 120.3,-410"/>
</g>
<!-- 134460377150464 -->
<g id="node8" class="node">
<title>134460377150464</title>
<polygon fill="aliceblue" stroke="skyblue" points="157.5,-184 95.5,-184 95.5,-146 157.5,-146 157.5,-184"/>
<text text-anchor="middle" x="126.5" y="-168.8" font-family="Sans-Serif" font-size="14.00">t3</text>
<text text-anchor="middle" x="126.5" y="-153.8" font-family="Sans-Serif" font-size="14.00">(3, 4, 5)</text>
</g>
<!-- 134460377150272&#45;&gt;134460377150464 -->
<g id="edge7" class="edge">
<title>134460377150272&#45;&gt;134460377150464</title>
<path fill="none" stroke="#666666" stroke-width="1.2" d="M128.02,-219.81C127.78,-211.52 127.5,-201.39 127.24,-192.16"/>
<polygon fill="#666666" stroke="#666666" stroke-width="1.2" points="130.03,-191.94 127.01,-184.02 124.43,-192.1 130.03,-191.94"/>
</g>
<!-- 134460377150896 -->
<g id="node12" class="node">
<title>134460377150896</title>
<polygon fill="lightgray" stroke="darkslategray" points="111.5,-110 57.5,-110 57.5,-74 111.5,-74 111.5,-110"/>
<text text-anchor="middle" x="84.5" y="-88.3" font-family="Courier Bold" font-size="14.00">add</text>
</g>
<!-- 134460377150464&#45;&gt;134460377150896 -->
<g id="edge11" class="edge">
<title>134460377150464&#45;&gt;134460377150896</title>
<path fill="none" stroke="#666666" stroke-width="1.2" d="M115.68,-145.72C110.49,-136.94 104.21,-126.31 98.64,-116.91"/>
<polygon fill="#666666" stroke="#666666" stroke-width="1.2" points="101.04,-115.46 94.56,-110 96.22,-118.31 101.04,-115.46"/>
</g>
<!-- 134460377150560 -->
<g id="node9" class="node">
<title>134460377150560</title>
<polygon fill="aliceblue" stroke="skyblue" points="75.5,-184 13.5,-184 13.5,-146 75.5,-146 75.5,-184"/>
<text text-anchor="middle" x="44.5" y="-168.8" font-family="Sans-Serif" font-size="14.00">t4</text>
<text text-anchor="middle" x="44.5" y="-153.8" font-family="Sans-Serif" font-size="14.00">(3, 4, 5)</text>
</g>
<!-- 134460377150560&#45;&gt;134460377150896 -->
<g id="edge10" class="edge">
<title>134460377150560&#45;&gt;134460377150896</title>
<path fill="none" stroke="#666666" stroke-width="1.2" d="M54.8,-145.72C59.7,-137.03 65.61,-126.52 70.87,-117.19"/>
<polygon fill="#666666" stroke="#666666" stroke-width="1.2" points="73.43,-118.35 74.92,-110 68.55,-115.6 73.43,-118.35"/>
</g>
<!-- 134460377150800 -->
<g id="node10" class="node">
<title>134460377150800</title>
<polygon fill="lightgray" stroke="darkslategray" points="83,-256 0,-256 0,-220 83,-220 83,-256"/>
<text text-anchor="middle" x="41.5" y="-234.3" font-family="Courier Bold" font-size="14.00">constant</text>
</g>
<!-- 134460377150800&#45;&gt;134460377150560 -->
<g id="edge8" class="edge">
<title>134460377150800&#45;&gt;134460377150560</title>
<path fill="none" stroke="#666666" stroke-width="1.2" d="M42.23,-219.81C42.58,-211.52 43,-201.39 43.39,-192.16"/>
<polygon fill="#666666" stroke="#666666" stroke-width="1.2" points="46.2,-192.13 43.74,-184.02 40.6,-191.89 46.2,-192.13"/>
</g>
<!-- 134460377150752 -->
<g id="node11" class="node">
<title>134460377150752</title>
<polygon fill="moccasin" stroke="orange" points="68.5,-330 14.5,-330 14.5,-292 68.5,-292 68.5,-330"/>
<text text-anchor="middle" x="41.5" y="-314.8" font-family="Sans-Serif" font-size="14.00">var_3</text>
<text text-anchor="middle" x="41.5" y="-299.8" font-family="Sans-Serif" font-size="14.00">0.5</text>
</g>
<!-- 134460377150752&#45;&gt;134460377150800 -->
<g id="edge9" class="edge">
<title>134460377150752&#45;&gt;134460377150800</title>
<path fill="none" stroke="#666666" stroke-width="1.2" d="M41.5,-291.72C41.5,-283.29 41.5,-273.15 41.5,-264.02"/>
<polygon fill="#666666" stroke="#666666" stroke-width="1.2" points="44.3,-264 41.5,-256 38.7,-264 44.3,-264"/>
</g>
<!-- 134460377151040 -->
<g id="node13" class="node">
<title>134460377151040</title>
<polygon fill="aliceblue" stroke="skyblue" points="115.5,-38 53.5,-38 53.5,0 115.5,0 115.5,-38"/>
<text text-anchor="middle" x="84.5" y="-22.8" font-family="Sans-Serif" font-size="14.00">t5</text>
<text text-anchor="middle" x="84.5" y="-7.8" font-family="Sans-Serif" font-size="14.00">(3, 4, 5)</text>
</g>
<!-- 134460377150896&#45;&gt;134460377151040 -->
<g id="edge12" class="edge">
<title>134460377150896&#45;&gt;134460377151040</title>
<path fill="none" stroke="#666666" stroke-width="1.2" d="M84.5,-73.81C84.5,-65.52 84.5,-55.39 84.5,-46.16"/>
<polygon fill="#666666" stroke="#666666" stroke-width="1.2" points="87.3,-46.02 84.5,-38.02 81.7,-46.02 87.3,-46.02"/>
</g>
<!-- 134460377151472 -->
<g id="node14" class="node">
<title>134460377151472</title>
<polygon fill="aliceblue" stroke="skyblue" points="507,-330 434,-330 434,-292 507,-292 507,-330"/>
<text text-anchor="middle" x="470.5" y="-314.8" font-family="Sans-Serif" font-size="14.00">tensor_6</text>
<text text-anchor="middle" x="470.5" y="-299.8" font-family="Sans-Serif" font-size="14.00">(3, 4, 5)</text>
</g>
<!-- 134460377151568 -->
<g id="node15" class="node">
<title>134460377151568</title>
<polygon fill="lightgray" stroke="darkslategray" points="443,-402 360,-402 360,-366 443,-366 443,-402"/>
<text text-anchor="middle" x="401.5" y="-380.3" font-family="Courier Bold" font-size="14.00">constant</text>
</g>
<!-- 134460377151568&#45;&gt;134460377151472 -->
<g id="edge13" class="edge">
<title>134460377151568&#45;&gt;134460377151472</title>
<path fill="none" stroke="#666666" stroke-width="1.2" d="M418.2,-365.81C426.92,-356.84 437.73,-345.72 447.25,-335.92"/>
<polygon fill="#666666" stroke="#666666" stroke-width="1.2" points="449.42,-337.71 452.99,-330.02 445.4,-333.81 449.42,-337.71"/>
</g>
<!-- 134460377151520 -->
<g id="node16" class="node">
<title>134460377151520</title>
<polygon fill="moccasin" stroke="orange" points="319.5,-476 265.5,-476 265.5,-438 319.5,-438 319.5,-476"/>
<text text-anchor="middle" x="292.5" y="-460.8" font-family="Sans-Serif" font-size="14.00">var_4</text>
<text text-anchor="middle" x="292.5" y="-445.8" font-family="Sans-Serif" font-size="14.00">0</text>
</g>
<!-- 134460377151520&#45;&gt;134460377151568 -->
<g id="edge15" class="edge">
<title>134460377151520&#45;&gt;134460377151568</title>
<path fill="none" stroke="#666666" stroke-width="1.2" d="M319.72,-438.27C334.49,-428.65 352.85,-416.69 368.43,-406.54"/>
<polygon fill="#666666" stroke="#666666" stroke-width="1.2" points="370.2,-408.73 375.37,-402.02 367.14,-404.04 370.2,-408.73"/>
</g>
<!-- 134460377151712 -->
<g id="node17" class="node">
<title>134460377151712</title>
<polygon fill="lightgray" stroke="darkslategray" points="576.5,-402 502.5,-402 502.5,-366 576.5,-366 576.5,-402"/>
<text text-anchor="middle" x="539.5" y="-380.3" font-family="Courier Bold" font-size="14.00">uniform</text>
</g>
<!-- 134460377151712&#45;&gt;134460377151472 -->
<g id="edge14" class="edge">
<title>134460377151712&#45;&gt;134460377151472</title>
<path fill="none" stroke="#666666" stroke-width="1.2" d="M522.8,-365.81C514.08,-356.84 503.27,-345.72 493.75,-335.92"/>
<polygon fill="#666666" stroke="#666666" stroke-width="1.2" points="495.6,-333.81 488.01,-330.02 491.58,-337.71 495.6,-333.81"/>
</g>
<!-- 134460377151232 -->
<g id="node18" class="node">
<title>134460377151232</title>
<polygon fill="moccasin" stroke="orange" points="489.5,-476 337.5,-476 337.5,-438 489.5,-438 489.5,-476"/>
<text text-anchor="middle" x="413.5" y="-460.8" font-family="Sans-Serif" font-size="14.00">var_5</text>
<text text-anchor="middle" x="413.5" y="-445.8" font-family="Sans-Serif" font-size="14.00">&#45;0.5477225575051661</text>
</g>
<!-- 134460377151232&#45;&gt;134460377151712 -->
<g id="edge16" class="edge">
<title>134460377151232&#45;&gt;134460377151712</title>
<path fill="none" stroke="#666666" stroke-width="1.2" d="M445.62,-437.9C462.72,-428.27 483.85,-416.36 501.73,-406.28"/>
<polygon fill="#666666" stroke="#666666" stroke-width="1.2" points="503.58,-408.46 509.17,-402.09 500.83,-403.58 503.58,-408.46"/>
</g>
<!-- 134460377151904 -->
<g id="node19" class="node">
<title>134460377151904</title>
<polygon fill="moccasin" stroke="orange" points="655.5,-476 507.5,-476 507.5,-438 655.5,-438 655.5,-476"/>
<text text-anchor="middle" x="581.5" y="-460.8" font-family="Sans-Serif" font-size="14.00">var_6</text>
<text text-anchor="middle" x="581.5" y="-445.8" font-family="Sans-Serif" font-size="14.00">0.5477225575051661</text>
</g>
<!-- 134460377151904&#45;&gt;134460377151712 -->
<g id="edge17" class="edge">
<title>134460377151904&#45;&gt;134460377151712</title>
<path fill="none" stroke="#666666" stroke-width="1.2" d="M570.68,-437.72C565.49,-428.94 559.21,-418.31 553.64,-408.91"/>
<polygon fill="#666666" stroke="#666666" stroke-width="1.2" points="556.04,-407.46 549.56,-402 551.22,-410.31 556.04,-407.46"/>
</g>
<!-- 134460377151856 -->
<g id="node20" class="node">
<title>134460377151856</title>
<polygon fill="moccasin" stroke="orange" points="727.5,-476 673.5,-476 673.5,-438 727.5,-438 727.5,-476"/>
<text text-anchor="middle" x="700.5" y="-460.8" font-family="Sans-Serif" font-size="14.00">var_7</text>
<text text-anchor="middle" x="700.5" y="-445.8" font-family="Sans-Serif" font-size="14.00">0</text>
</g>
<!-- 134460377151856&#45;&gt;134460377151712 -->
<g id="edge18" class="edge">
<title>134460377151856&#45;&gt;134460377151712</title>
<path fill="none" stroke="#666666" stroke-width="1.2" d="M673.46,-442.25C670.45,-440.79 667.42,-439.35 664.5,-438 638.14,-425.84 608.21,-413.11 584.24,-403.17"/>
<polygon fill="#666666" stroke="#666666" stroke-width="1.2" points="585.15,-400.52 576.69,-400.05 583.01,-405.69 585.15,-400.52"/>
</g>
</g>
</svg>
