<?xml version="1.0" encoding="UTF-8" standalone="no"?>
<!DOCTYPE svg PUBLIC "-//W3C//DTD SVG 1.1//EN"
 "http://www.w3.org/Graphics/SVG/1.1/DTD/svg11.dtd">
<!-- Generated by graphviz version 2.43.0 (0)
 -->
<!-- Title: %3 Pages: 1 -->
<svg width="149pt" height="630pt"
 viewBox="0.00 0.00 148.50 630.00" xmlns="http://www.w3.org/2000/svg" xmlns:xlink="http://www.w3.org/1999/xlink">
<g id="graph0" class="graph" transform="scale(1 1) rotate(0) translate(4 626)">
<title>%3</title>
<polygon fill="white" stroke="transparent" points="-4,4 -4,-626 144.5,-626 144.5,4 -4,4"/>
<!-- 127569128262912 -->
<g id="node1" class="node">
<title>127569128262912</title>
<polygon fill="aliceblue" stroke="skyblue" points="54,-330 0,-330 0,-292 54,-292 54,-330"/>
<text text-anchor="middle" x="27" y="-314.8" font-family="Sans-Serif" font-size="14.00">t1</text>
<text text-anchor="middle" x="27" y="-299.8" font-family="Sans-Serif" font-size="14.00">(60,)</text>
</g>
<!-- 127566868400880 -->
<g id="node5" class="node">
<title>127566868400880</title>
<polygon fill="lightgray" stroke="darkslategray" points="54,-256 0,-256 0,-220 54,-220 54,-256"/>
<text text-anchor="middle" x="27" y="-234.3" font-family="Courier Bold" font-size="14.00">sqrt</text>
</g>
<!-- 127569128262912&#45;&gt;127566868400880 -->
<g id="edge3" class="edge">
<title>127569128262912&#45;&gt;127566868400880</title>
<path fill="none" stroke="#666666" stroke-width="1.2" d="M27,-291.72C27,-283.29 27,-273.15 27,-264.02"/>
<polygon fill="#666666" stroke="#666666" stroke-width="1.2" points="29.8,-264 27,-256 24.2,-264 29.8,-264"/>
</g>
<!-- 127569128261520 -->
<g id="node2" class="node">
<title>127569128261520</title>
<polygon fill="aliceblue" stroke="skyblue" points="126,-476 72,-476 72,-438 126,-438 126,-476"/>
<text text-anchor="middle" x="99" y="-460.8" font-family="Sans-Serif" font-size="14.00">t2</text>
<text text-anchor="middle" x="99" y="-445.8" font-family="Sans-Serif" font-size="14.00">(60,)</text>
</g>
<!-- 127566868401456 -->
<g id="node7" class="node">
<title>127566868401456</title>
<polygon fill="lightgray" stroke="darkslategray" points="126,-402 72,-402 72,-366 126,-366 126,-402"/>
<text text-anchor="middle" x="99" y="-380.3" font-family="Courier Bold" font-size="14.00">log</text>
</g>
<!-- 127569128261520&#45;&gt;127566868401456 -->
<g id="edge5" class="edge">
<title>127569128261520&#45;&gt;127566868401456</title>
<path fill="none" stroke="#666666" stroke-width="1.2" d="M99,-437.72C99,-429.29 99,-419.15 99,-410.02"/>
<polygon fill="#666666" stroke="#666666" stroke-width="1.2" points="101.8,-410 99,-402 96.2,-410 101.8,-410"/>
</g>
<!-- 127566868400736 -->
<g id="node3" class="node">
<title>127566868400736</title>
<polygon fill="lightgray" stroke="darkslategray" points="140.5,-548 57.5,-548 57.5,-512 140.5,-512 140.5,-548"/>
<text text-anchor="middle" x="99" y="-526.3" font-family="Courier Bold" font-size="14.00">constant</text>
</g>
<!-- 127566868400736&#45;&gt;127569128261520 -->
<g id="edge1" class="edge">
<title>127566868400736&#45;&gt;127569128261520</title>
<path fill="none" stroke="#666666" stroke-width="1.2" d="M99,-511.81C99,-503.52 99,-493.39 99,-484.16"/>
<polygon fill="#666666" stroke="#666666" stroke-width="1.2" points="101.8,-484.02 99,-476.02 96.2,-484.02 101.8,-484.02"/>
</g>
<!-- 127566868400688 -->
<g id="node4" class="node">
<title>127566868400688</title>
<polygon fill="moccasin" stroke="orange" points="126,-622 72,-622 72,-584 126,-584 126,-622"/>
<text text-anchor="middle" x="99" y="-606.8" font-family="Sans-Serif" font-size="14.00">var_1</text>
<text text-anchor="middle" x="99" y="-591.8" font-family="Sans-Serif" font-size="14.00">2</text>
</g>
<!-- 127566868400688&#45;&gt;127566868400736 -->
<g id="edge2" class="edge">
<title>127566868400688&#45;&gt;127566868400736</title>
<path fill="none" stroke="#666666" stroke-width="1.2" d="M99,-583.72C99,-575.29 99,-565.15 99,-556.02"/>
<polygon fill="#666666" stroke="#666666" stroke-width="1.2" points="101.8,-556 99,-548 96.2,-556 101.8,-556"/>
</g>
<!-- 127566868401024 -->
<g id="node6" class="node">
<title>127566868401024</title>
<polygon fill="aliceblue" stroke="skyblue" points="54,-184 0,-184 0,-146 54,-146 54,-184"/>
<text text-anchor="middle" x="27" y="-168.8" font-family="Sans-Serif" font-size="14.00">t3</text>
<text text-anchor="middle" x="27" y="-153.8" font-family="Sans-Serif" font-size="14.00">(60,)</text>
</g>
<!-- 127566868400880&#45;&gt;127566868401024 -->
<g id="edge4" class="edge">
<title>127566868400880&#45;&gt;127566868401024</title>
<path fill="none" stroke="#666666" stroke-width="1.2" d="M27,-219.81C27,-211.52 27,-201.39 27,-192.16"/>
<polygon fill="#666666" stroke="#666666" stroke-width="1.2" points="29.8,-192.02 27,-184.02 24.2,-192.02 29.8,-192.02"/>
</g>
<!-- 127566868402128 -->
<g id="node11" class="node">
<title>127566868402128</title>
<polygon fill="lightgray" stroke="darkslategray" points="90,-110 36,-110 36,-74 90,-74 90,-110"/>
<text text-anchor="middle" x="63" y="-88.3" font-family="Courier Bold" font-size="14.00">pow</text>
</g>
<!-- 127566868401024&#45;&gt;127566868402128 -->
<g id="edge10" class="edge">
<title>127566868401024&#45;&gt;127566868402128</title>
<path fill="none" stroke="#666666" stroke-width="1.2" d="M36.27,-145.72C40.68,-137.03 46,-126.52 50.74,-117.19"/>
<polygon fill="#666666" stroke="#666666" stroke-width="1.2" points="53.26,-118.4 54.38,-110 48.26,-115.87 53.26,-118.4"/>
</g>
<!-- 127566868401360 -->
<g id="node8" class="node">
<title>127566868401360</title>
<polygon fill="aliceblue" stroke="skyblue" points="126,-330 72,-330 72,-292 126,-292 126,-330"/>
<text text-anchor="middle" x="99" y="-314.8" font-family="Sans-Serif" font-size="14.00">t4</text>
<text text-anchor="middle" x="99" y="-299.8" font-family="Sans-Serif" font-size="14.00">(60,)</text>
</g>
<!-- 127566868401456&#45;&gt;127566868401360 -->
<g id="edge6" class="edge">
<title>127566868401456&#45;&gt;127566868401360</title>
<path fill="none" stroke="#666666" stroke-width="1.2" d="M99,-365.81C99,-357.52 99,-347.39 99,-338.16"/>
<polygon fill="#666666" stroke="#666666" stroke-width="1.2" points="101.8,-338.02 99,-330.02 96.2,-338.02 101.8,-338.02"/>
</g>
<!-- 127566868401792 -->
<g id="node9" class="node">
<title>127566868401792</title>
<polygon fill="lightgray" stroke="darkslategray" points="126,-256 72,-256 72,-220 126,-220 126,-256"/>
<text text-anchor="middle" x="99" y="-234.3" font-family="Courier Bold" font-size="14.00">exp</text>
</g>
<!-- 127566868401360&#45;&gt;127566868401792 -->
<g id="edge7" class="edge">
<title>127566868401360&#45;&gt;127566868401792</title>
<path fill="none" stroke="#666666" stroke-width="1.2" d="M99,-291.72C99,-283.29 99,-273.15 99,-264.02"/>
<polygon fill="#666666" stroke="#666666" stroke-width="1.2" points="101.8,-264 99,-256 96.2,-264 101.8,-264"/>
</g>
<!-- 127566868401696 -->
<g id="node10" class="node">
<title>127566868401696</title>
<polygon fill="aliceblue" stroke="skyblue" points="126,-184 72,-184 72,-146 126,-146 126,-184"/>
<text text-anchor="middle" x="99" y="-168.8" font-family="Sans-Serif" font-size="14.00">t5</text>
<text text-anchor="middle" x="99" y="-153.8" font-family="Sans-Serif" font-size="14.00">(60,)</text>
</g>
<!-- 127566868401792&#45;&gt;127566868401696 -->
<g id="edge8" class="edge">
<title>127566868401792&#45;&gt;127566868401696</title>
<path fill="none" stroke="#666666" stroke-width="1.2" d="M99,-219.81C99,-211.52 99,-201.39 99,-192.16"/>
<polygon fill="#666666" stroke="#666666" stroke-width="1.2" points="101.8,-192.02 99,-184.02 96.2,-192.02 101.8,-192.02"/>
</g>
<!-- 127566868401696&#45;&gt;127566868402128 -->
<g id="edge9" class="edge">
<title>127566868401696&#45;&gt;127566868402128</title>
<path fill="none" stroke="#666666" stroke-width="1.2" d="M89.73,-145.72C85.32,-137.03 80,-126.52 75.26,-117.19"/>
<polygon fill="#666666" stroke="#666666" stroke-width="1.2" points="77.74,-115.87 71.62,-110 72.74,-118.4 77.74,-115.87"/>
</g>
<!-- 127566868402032 -->
<g id="node12" class="node">
<title>127566868402032</title>
<polygon fill="aliceblue" stroke="skyblue" points="90,-38 36,-38 36,0 90,0 90,-38"/>
<text text-anchor="middle" x="63" y="-22.8" font-family="Sans-Serif" font-size="14.00">t6</text>
<text text-anchor="middle" x="63" y="-7.8" font-family="Sans-Serif" font-size="14.00">(60,)</text>
</g>
<!-- 127566868402128&#45;&gt;127566868402032 -->
<g id="edge11" class="edge">
<title>127566868402128&#45;&gt;127566868402032</title>
<path fill="none" stroke="#666666" stroke-width="1.2" d="M63,-73.81C63,-65.52 63,-55.39 63,-46.16"/>
<polygon fill="#666666" stroke="#666666" stroke-width="1.2" points="65.8,-46.02 63,-38.02 60.2,-46.02 65.8,-46.02"/>
</g>
</g>
</svg>
