<?xml version="1.0" encoding="UTF-8" standalone="no"?>
<!DOCTYPE svg PUBLIC "-//W3C//DTD SVG 1.1//EN"
 "http://www.w3.org/Graphics/SVG/1.1/DTD/svg11.dtd">
<!-- Generated by graphviz version 2.43.0 (0)
 -->
<!-- Title: %3 Pages: 1 -->
<svg width="204pt" height="410pt"
 viewBox="0.00 0.00 203.50 410.00" xmlns="http://www.w3.org/2000/svg" xmlns:xlink="http://www.w3.org/1999/xlink">
<g id="graph0" class="graph" transform="scale(1 1) rotate(0) translate(4 406)">
<title>%3</title>
<polygon fill="white" stroke="transparent" points="-4,4 -4,-406 199.5,-406 199.5,4 -4,4"/>
<!-- 124025483544560 -->
<g id="node1" class="node">
<title>124025483544560</title>
<polygon fill="aliceblue" stroke="skyblue" points="179,-256 117,-256 117,-218 179,-218 179,-256"/>
<text text-anchor="middle" x="148" y="-240.8" font-family="Sans-Serif" font-size="14.00">t1</text>
<text text-anchor="middle" x="148" y="-225.8" font-family="Sans-Serif" font-size="14.00">(2, 3, 4)</text>
</g>
<!-- 124023224088848 -->
<g id="node7" class="node">
<title>124023224088848</title>
<polygon fill="lightgray" stroke="darkslategray" points="130,-182 76,-182 76,-146 130,-146 130,-182"/>
<text text-anchor="middle" x="103" y="-160.3" font-family="Courier Bold" font-size="14.00">add</text>
</g>
<!-- 124025483544560&#45;&gt;124023224088848 -->
<g id="edge5" class="edge">
<title>124025483544560&#45;&gt;124023224088848</title>
<path fill="none" stroke="#666666" stroke-width="1.2" d="M136.41,-217.72C130.85,-208.94 124.11,-198.31 118.15,-188.91"/>
<polygon fill="#666666" stroke="#666666" stroke-width="1.2" points="120.42,-187.26 113.78,-182 115.69,-190.26 120.42,-187.26"/>
</g>
<!-- 124023224089136 -->
<g id="node2" class="node">
<title>124023224089136</title>
<polygon fill="lightgray" stroke="darkslategray" points="195.5,-328 112.5,-328 112.5,-292 195.5,-292 195.5,-328"/>
<text text-anchor="middle" x="154" y="-306.3" font-family="Courier Bold" font-size="14.00">constant</text>
</g>
<!-- 124023224089136&#45;&gt;124025483544560 -->
<g id="edge1" class="edge">
<title>124023224089136&#45;&gt;124025483544560</title>
<path fill="none" stroke="#666666" stroke-width="1.2" d="M152.55,-291.81C151.85,-283.52 150.99,-273.39 150.21,-264.16"/>
<polygon fill="#666666" stroke="#666666" stroke-width="1.2" points="152.99,-263.76 149.52,-256.02 147.41,-264.23 152.99,-263.76"/>
</g>
<!-- 124025483558240 -->
<g id="node3" class="node">
<title>124025483558240</title>
<polygon fill="moccasin" stroke="orange" points="181,-402 127,-402 127,-364 181,-364 181,-402"/>
<text text-anchor="middle" x="154" y="-386.8" font-family="Sans-Serif" font-size="14.00">var_1</text>
<text text-anchor="middle" x="154" y="-371.8" font-family="Sans-Serif" font-size="14.00">10</text>
</g>
<!-- 124025483558240&#45;&gt;124023224089136 -->
<g id="edge2" class="edge">
<title>124025483558240&#45;&gt;124023224089136</title>
<path fill="none" stroke="#666666" stroke-width="1.2" d="M154,-363.72C154,-355.29 154,-345.15 154,-336.02"/>
<polygon fill="#666666" stroke="#666666" stroke-width="1.2" points="156.8,-336 154,-328 151.2,-336 156.8,-336"/>
</g>
<!-- 124023224086304 -->
<g id="node4" class="node">
<title>124023224086304</title>
<polygon fill="aliceblue" stroke="skyblue" points="94,-256 32,-256 32,-218 94,-218 94,-256"/>
<text text-anchor="middle" x="63" y="-240.8" font-family="Sans-Serif" font-size="14.00">t2</text>
<text text-anchor="middle" x="63" y="-225.8" font-family="Sans-Serif" font-size="14.00">(2, 3, 4)</text>
</g>
<!-- 124023224086304&#45;&gt;124023224088848 -->
<g id="edge6" class="edge">
<title>124023224086304&#45;&gt;124023224088848</title>
<path fill="none" stroke="#666666" stroke-width="1.2" d="M73.3,-217.72C78.2,-209.03 84.11,-198.52 89.37,-189.19"/>
<polygon fill="#666666" stroke="#666666" stroke-width="1.2" points="91.93,-190.35 93.42,-182 87.05,-187.6 91.93,-190.35"/>
</g>
<!-- 124023224089184 -->
<g id="node5" class="node">
<title>124023224089184</title>
<polygon fill="lightgray" stroke="darkslategray" points="94.5,-328 11.5,-328 11.5,-292 94.5,-292 94.5,-328"/>
<text text-anchor="middle" x="53" y="-306.3" font-family="Courier Bold" font-size="14.00">constant</text>
</g>
<!-- 124023224089184&#45;&gt;124023224086304 -->
<g id="edge3" class="edge">
<title>124023224089184&#45;&gt;124023224086304</title>
<path fill="none" stroke="#666666" stroke-width="1.2" d="M55.42,-291.81C56.59,-283.52 58.02,-273.39 59.32,-264.16"/>
<polygon fill="#666666" stroke="#666666" stroke-width="1.2" points="62.12,-264.33 60.46,-256.02 56.57,-263.55 62.12,-264.33"/>
</g>
<!-- 124023224085296 -->
<g id="node6" class="node">
<title>124023224085296</title>
<polygon fill="moccasin" stroke="orange" points="80,-402 26,-402 26,-364 80,-364 80,-402"/>
<text text-anchor="middle" x="53" y="-386.8" font-family="Sans-Serif" font-size="14.00">var_2</text>
<text text-anchor="middle" x="53" y="-371.8" font-family="Sans-Serif" font-size="14.00">10</text>
</g>
<!-- 124023224085296&#45;&gt;124023224089184 -->
<g id="edge4" class="edge">
<title>124023224085296&#45;&gt;124023224089184</title>
<path fill="none" stroke="#666666" stroke-width="1.2" d="M53,-363.72C53,-355.29 53,-345.15 53,-336.02"/>
<polygon fill="#666666" stroke="#666666" stroke-width="1.2" points="55.8,-336 53,-328 50.2,-336 55.8,-336"/>
</g>
<!-- 124023224089376 -->
<g id="node8" class="node">
<title>124023224089376</title>
<polygon fill="aliceblue" stroke="skyblue" points="134,-110 72,-110 72,-72 134,-72 134,-110"/>
<text text-anchor="middle" x="103" y="-94.8" font-family="Sans-Serif" font-size="14.00">t3</text>
<text text-anchor="middle" x="103" y="-79.8" font-family="Sans-Serif" font-size="14.00">(2, 3, 4)</text>
</g>
<!-- 124023224088848&#45;&gt;124023224089376 -->
<g id="edge7" class="edge">
<title>124023224088848&#45;&gt;124023224089376</title>
<path fill="none" stroke="#666666" stroke-width="1.2" d="M103,-145.81C103,-137.52 103,-127.39 103,-118.16"/>
<polygon fill="#666666" stroke="#666666" stroke-width="1.2" points="105.8,-118.02 103,-110.02 100.2,-118.02 105.8,-118.02"/>
</g>
<!-- 124023224089568 -->
<g id="node9" class="node">
<title>124023224089568</title>
<polygon fill="lightgray" stroke="darkslategray" points="148.5,-36 57.5,-36 57.5,0 148.5,0 148.5,-36"/>
<text text-anchor="middle" x="103" y="-14.3" font-family="Courier Bold" font-size="14.00">addscalar</text>
</g>
<!-- 124023224089376&#45;&gt;124023224089568 -->
<g id="edge9" class="edge">
<title>124023224089376&#45;&gt;124023224089568</title>
<path fill="none" stroke="#666666" stroke-width="1.2" d="M97.01,-71.72C96.2,-63.29 96.04,-53.15 96.52,-44.02"/>
<polygon fill="#666666" stroke="#666666" stroke-width="1.2" points="99.31,-44.2 97.14,-36 93.73,-43.76 99.31,-44.2"/>
</g>
<!-- 124023224089568&#45;&gt;124023224089376 -->
<g id="edge8" class="edge">
<title>124023224089568&#45;&gt;124023224089376</title>
<path fill="none" stroke="#666666" stroke-width="1.2" d="M108.86,-36C109.73,-44.25 109.96,-54.35 109.55,-63.57"/>
<polygon fill="#666666" stroke="#666666" stroke-width="1.2" points="106.75,-63.54 108.99,-71.72 112.33,-63.93 106.75,-63.54"/>
</g>
<!-- 124023224089520 -->
<g id="node10" class="node">
<title>124023224089520</title>
<polygon fill="moccasin" stroke="orange" points="54,-110 0,-110 0,-72 54,-72 54,-110"/>
<text text-anchor="middle" x="27" y="-94.8" font-family="Sans-Serif" font-size="14.00">var_3</text>
<text text-anchor="middle" x="27" y="-79.8" font-family="Sans-Serif" font-size="14.00">0.5</text>
</g>
<!-- 124023224089520&#45;&gt;124023224089568 -->
<g id="edge10" class="edge">
<title>124023224089520&#45;&gt;124023224089568</title>
<path fill="none" stroke="#666666" stroke-width="1.2" d="M46.57,-71.72C56.43,-62.51 68.46,-51.27 78.88,-41.53"/>
<polygon fill="#666666" stroke="#666666" stroke-width="1.2" points="80.86,-43.51 84.8,-36 77.04,-39.42 80.86,-43.51"/>
</g>
</g>
</svg>
