<?xml version="1.0" encoding="UTF-8" standalone="no"?>
<!DOCTYPE svg PUBLIC "-//W3C//DTD SVG 1.1//EN"
 "http://www.w3.org/Graphics/SVG/1.1/DTD/svg11.dtd">
<!-- Generated by graphviz version 2.43.0 (0)
 -->
<!-- Title: %3 Pages: 1 -->
<svg width="450pt" height="484pt"
 viewBox="0.00 0.00 449.50 484.00" xmlns="http://www.w3.org/2000/svg" xmlns:xlink="http://www.w3.org/1999/xlink">
<g id="graph0" class="graph" transform="scale(1 1) rotate(0) translate(4 480)">
<title>%3</title>
<polygon fill="white" stroke="transparent" points="-4,4 -4,-480 445.5,-480 445.5,4 -4,4"/>
<!-- 130352998993200 -->
<g id="node1" class="node">
<title>130352998993200</title>
<polygon fill="aliceblue" stroke="skyblue" points="326,-330 264,-330 264,-292 326,-292 326,-330"/>
<text text-anchor="middle" x="295" y="-314.8" font-family="Sans-Serif" font-size="14.00">t1</text>
<text text-anchor="middle" x="295" y="-299.8" font-family="Sans-Serif" font-size="14.00">(3, 4, 5)</text>
</g>
<!-- 130350739524384 -->
<g id="node7" class="node">
<title>130350739524384</title>
<polygon fill="lightgray" stroke="darkslategray" points="265,-256 211,-256 211,-220 265,-220 265,-256"/>
<text text-anchor="middle" x="238" y="-234.3" font-family="Courier Bold" font-size="14.00">add</text>
</g>
<!-- 130352998993200&#45;&gt;130350739524384 -->
<g id="edge5" class="edge">
<title>130352998993200&#45;&gt;130350739524384</title>
<path fill="none" stroke="#666666" stroke-width="1.2" d="M280.32,-291.72C273.14,-282.77 264.41,-271.9 256.75,-262.36"/>
<polygon fill="#666666" stroke="#666666" stroke-width="1.2" points="258.84,-260.49 251.65,-256 254.48,-263.99 258.84,-260.49"/>
</g>
<!-- 130350739525632 -->
<g id="node15" class="node">
<title>130350739525632</title>
<polygon fill="lightgray" stroke="darkslategray" points="337,-256 283,-256 283,-220 337,-220 337,-256"/>
<text text-anchor="middle" x="310" y="-234.3" font-family="Courier Bold" font-size="14.00">div</text>
</g>
<!-- 130352998993200&#45;&gt;130350739525632 -->
<g id="edge14" class="edge">
<title>130352998993200&#45;&gt;130350739525632</title>
<path fill="none" stroke="#666666" stroke-width="1.2" d="M298.86,-291.72C300.64,-283.29 302.79,-273.15 304.71,-264.02"/>
<polygon fill="#666666" stroke="#666666" stroke-width="1.2" points="307.49,-264.41 306.41,-256 302.01,-263.25 307.49,-264.41"/>
</g>
<!-- 130350739524192 -->
<g id="node2" class="node">
<title>130350739524192</title>
<polygon fill="lightgray" stroke="darkslategray" points="336.5,-402 253.5,-402 253.5,-366 336.5,-366 336.5,-402"/>
<text text-anchor="middle" x="295" y="-380.3" font-family="Courier Bold" font-size="14.00">constant</text>
</g>
<!-- 130350739524192&#45;&gt;130352998993200 -->
<g id="edge1" class="edge">
<title>130350739524192&#45;&gt;130352998993200</title>
<path fill="none" stroke="#666666" stroke-width="1.2" d="M295,-365.81C295,-357.52 295,-347.39 295,-338.16"/>
<polygon fill="#666666" stroke="#666666" stroke-width="1.2" points="297.8,-338.02 295,-330.02 292.2,-338.02 297.8,-338.02"/>
</g>
<!-- 130350741117520 -->
<g id="node3" class="node">
<title>130350741117520</title>
<polygon fill="moccasin" stroke="orange" points="322,-476 268,-476 268,-438 322,-438 322,-476"/>
<text text-anchor="middle" x="295" y="-460.8" font-family="Sans-Serif" font-size="14.00">var_1</text>
<text text-anchor="middle" x="295" y="-445.8" font-family="Sans-Serif" font-size="14.00">0</text>
</g>
<!-- 130350741117520&#45;&gt;130350739524192 -->
<g id="edge2" class="edge">
<title>130350741117520&#45;&gt;130350739524192</title>
<path fill="none" stroke="#666666" stroke-width="1.2" d="M295,-437.72C295,-429.29 295,-419.15 295,-410.02"/>
<polygon fill="#666666" stroke="#666666" stroke-width="1.2" points="297.8,-410 295,-402 292.2,-410 297.8,-410"/>
</g>
<!-- 130350741118576 -->
<g id="node4" class="node">
<title>130350741118576</title>
<polygon fill="aliceblue" stroke="skyblue" points="219,-330 157,-330 157,-292 219,-292 219,-330"/>
<text text-anchor="middle" x="188" y="-314.8" font-family="Sans-Serif" font-size="14.00">t2</text>
<text text-anchor="middle" x="188" y="-299.8" font-family="Sans-Serif" font-size="14.00">(3, 4, 5)</text>
</g>
<!-- 130350741118576&#45;&gt;130350739524384 -->
<g id="edge6" class="edge">
<title>130350741118576&#45;&gt;130350739524384</title>
<path fill="none" stroke="#666666" stroke-width="1.2" d="M200.88,-291.72C207.12,-282.85 214.69,-272.11 221.36,-262.63"/>
<polygon fill="#666666" stroke="#666666" stroke-width="1.2" points="223.71,-264.16 226.03,-256 219.13,-260.93 223.71,-264.16"/>
</g>
<!-- 130350741118576&#45;&gt;130350739525632 -->
<g id="edge15" class="edge">
<title>130350741118576&#45;&gt;130350739525632</title>
<path fill="none" stroke="#666666" stroke-width="1.2" d="M219.1,-291.9C236.27,-281.91 257.65,-269.47 275.35,-259.16"/>
<polygon fill="#666666" stroke="#666666" stroke-width="1.2" points="277.19,-261.34 282.69,-254.89 274.37,-256.5 277.19,-261.34"/>
</g>
<!-- 130350739525776 -->
<g id="node16" class="node">
<title>130350739525776</title>
<polygon fill="lightgray" stroke="darkslategray" points="152.5,-256 53.5,-256 53.5,-220 152.5,-220 152.5,-256"/>
<text text-anchor="middle" x="103" y="-234.3" font-family="Courier Bold" font-size="14.00">rdivscalar</text>
</g>
<!-- 130350741118576&#45;&gt;130350739525776 -->
<g id="edge17" class="edge">
<title>130350741118576&#45;&gt;130350739525776</title>
<path fill="none" stroke="#666666" stroke-width="1.2" d="M166.11,-291.72C154.99,-282.42 141.38,-271.06 129.65,-261.26"/>
<polygon fill="#666666" stroke="#666666" stroke-width="1.2" points="131.29,-258.98 123.36,-256 127.7,-263.28 131.29,-258.98"/>
</g>
<!-- 130350739526544 -->
<g id="node21" class="node">
<title>130350739526544</title>
<polygon fill="lightgray" stroke="darkslategray" points="208,-110 154,-110 154,-74 208,-74 208,-110"/>
<text text-anchor="middle" x="181" y="-88.3" font-family="Courier Bold" font-size="14.00">mul</text>
</g>
<!-- 130350741118576&#45;&gt;130350739526544 -->
<g id="edge23" class="edge">
<title>130350741118576&#45;&gt;130350739526544</title>
<path fill="none" stroke="#666666" stroke-width="1.2" d="M187.42,-291.87C186.17,-253.2 183.24,-162.52 181.81,-118.23"/>
<polygon fill="#666666" stroke="#666666" stroke-width="1.2" points="184.61,-117.93 181.55,-110.02 179.01,-118.11 184.61,-117.93"/>
</g>
<!-- 130350739524336 -->
<g id="node5" class="node">
<title>130350739524336</title>
<polygon fill="lightgray" stroke="darkslategray" points="229.5,-402 146.5,-402 146.5,-366 229.5,-366 229.5,-402"/>
<text text-anchor="middle" x="188" y="-380.3" font-family="Courier Bold" font-size="14.00">constant</text>
</g>
<!-- 130350739524336&#45;&gt;130350741118576 -->
<g id="edge3" class="edge">
<title>130350739524336&#45;&gt;130350741118576</title>
<path fill="none" stroke="#666666" stroke-width="1.2" d="M188,-365.81C188,-357.52 188,-347.39 188,-338.16"/>
<polygon fill="#666666" stroke="#666666" stroke-width="1.2" points="190.8,-338.02 188,-330.02 185.2,-338.02 190.8,-338.02"/>
</g>
<!-- 130350739524480 -->
<g id="node6" class="node">
<title>130350739524480</title>
<polygon fill="moccasin" stroke="orange" points="215,-476 161,-476 161,-438 215,-438 215,-476"/>
<text text-anchor="middle" x="188" y="-460.8" font-family="Sans-Serif" font-size="14.00">var_2</text>
<text text-anchor="middle" x="188" y="-445.8" font-family="Sans-Serif" font-size="14.00">1</text>
</g>
<!-- 130350739524480&#45;&gt;130350739524336 -->
<g id="edge4" class="edge">
<title>130350739524480&#45;&gt;130350739524336</title>
<path fill="none" stroke="#666666" stroke-width="1.2" d="M188,-437.72C188,-429.29 188,-419.15 188,-410.02"/>
<polygon fill="#666666" stroke="#666666" stroke-width="1.2" points="190.8,-410 188,-402 185.2,-410 190.8,-410"/>
</g>
<!-- 130350739524672 -->
<g id="node8" class="node">
<title>130350739524672</title>
<polygon fill="aliceblue" stroke="skyblue" points="271,-184 209,-184 209,-146 271,-146 271,-184"/>
<text text-anchor="middle" x="240" y="-168.8" font-family="Sans-Serif" font-size="14.00">t3</text>
<text text-anchor="middle" x="240" y="-153.8" font-family="Sans-Serif" font-size="14.00">(3, 4, 5)</text>
</g>
<!-- 130350739524384&#45;&gt;130350739524672 -->
<g id="edge7" class="edge">
<title>130350739524384&#45;&gt;130350739524672</title>
<path fill="none" stroke="#666666" stroke-width="1.2" d="M238.48,-219.81C238.72,-211.52 239,-201.39 239.26,-192.16"/>
<polygon fill="#666666" stroke="#666666" stroke-width="1.2" points="242.07,-192.1 239.49,-184.02 236.47,-191.94 242.07,-192.1"/>
</g>
<!-- 130350739525104 -->
<g id="node12" class="node">
<title>130350739525104</title>
<polygon fill="lightgray" stroke="darkslategray" points="357,-110 303,-110 303,-74 357,-74 357,-110"/>
<text text-anchor="middle" x="330" y="-88.3" font-family="Courier Bold" font-size="14.00">add</text>
</g>
<!-- 130350739524672&#45;&gt;130350739525104 -->
<g id="edge11" class="edge">
<title>130350739524672&#45;&gt;130350739525104</title>
<path fill="none" stroke="#666666" stroke-width="1.2" d="M263.18,-145.72C275.06,-136.34 289.63,-124.85 302.13,-114.99"/>
<polygon fill="#666666" stroke="#666666" stroke-width="1.2" points="303.9,-117.16 308.45,-110 300.43,-112.76 303.9,-117.16"/>
</g>
<!-- 130350739524528 -->
<g id="node9" class="node">
<title>130350739524528</title>
<polygon fill="aliceblue" stroke="skyblue" points="431,-184 369,-184 369,-146 431,-146 431,-184"/>
<text text-anchor="middle" x="400" y="-168.8" font-family="Sans-Serif" font-size="14.00">t4</text>
<text text-anchor="middle" x="400" y="-153.8" font-family="Sans-Serif" font-size="14.00">(3, 4, 5)</text>
</g>
<!-- 130350739524528&#45;&gt;130350739525104 -->
<g id="edge10" class="edge">
<title>130350739524528&#45;&gt;130350739525104</title>
<path fill="none" stroke="#666666" stroke-width="1.2" d="M381.97,-145.72C372.98,-136.6 362.02,-125.48 352.49,-115.81"/>
<polygon fill="#666666" stroke="#666666" stroke-width="1.2" points="354.37,-113.73 346.76,-110 350.39,-117.67 354.37,-113.73"/>
</g>
<!-- 130350739524864 -->
<g id="node10" class="node">
<title>130350739524864</title>
<polygon fill="lightgray" stroke="darkslategray" points="441.5,-256 358.5,-256 358.5,-220 441.5,-220 441.5,-256"/>
<text text-anchor="middle" x="400" y="-234.3" font-family="Courier Bold" font-size="14.00">constant</text>
</g>
<!-- 130350739524864&#45;&gt;130350739524528 -->
<g id="edge8" class="edge">
<title>130350739524864&#45;&gt;130350739524528</title>
<path fill="none" stroke="#666666" stroke-width="1.2" d="M400,-219.81C400,-211.52 400,-201.39 400,-192.16"/>
<polygon fill="#666666" stroke="#666666" stroke-width="1.2" points="402.8,-192.02 400,-184.02 397.2,-192.02 402.8,-192.02"/>
</g>
<!-- 130350739525152 -->
<g id="node11" class="node">
<title>130350739525152</title>
<polygon fill="moccasin" stroke="orange" points="427,-330 373,-330 373,-292 427,-292 427,-330"/>
<text text-anchor="middle" x="400" y="-314.8" font-family="Sans-Serif" font-size="14.00">var_3</text>
<text text-anchor="middle" x="400" y="-299.8" font-family="Sans-Serif" font-size="14.00">0.5</text>
</g>
<!-- 130350739525152&#45;&gt;130350739524864 -->
<g id="edge9" class="edge">
<title>130350739525152&#45;&gt;130350739524864</title>
<path fill="none" stroke="#666666" stroke-width="1.2" d="M400,-291.72C400,-283.29 400,-273.15 400,-264.02"/>
<polygon fill="#666666" stroke="#666666" stroke-width="1.2" points="402.8,-264 400,-256 397.2,-264 402.8,-264"/>
</g>
<!-- 130350739525296 -->
<g id="node13" class="node">
<title>130350739525296</title>
<polygon fill="aliceblue" stroke="skyblue" points="361,-38 299,-38 299,0 361,0 361,-38"/>
<text text-anchor="middle" x="330" y="-22.8" font-family="Sans-Serif" font-size="14.00">t5</text>
<text text-anchor="middle" x="330" y="-7.8" font-family="Sans-Serif" font-size="14.00">(3, 4, 5)</text>
</g>
<!-- 130350739525104&#45;&gt;130350739525296 -->
<g id="edge12" class="edge">
<title>130350739525104&#45;&gt;130350739525296</title>
<path fill="none" stroke="#666666" stroke-width="1.2" d="M330,-73.81C330,-65.52 330,-55.39 330,-46.16"/>
<polygon fill="#666666" stroke="#666666" stroke-width="1.2" points="332.8,-46.02 330,-38.02 327.2,-46.02 332.8,-46.02"/>
</g>
<!-- 130350739525440 -->
<g id="node14" class="node">
<title>130350739525440</title>
<polygon fill="aliceblue" stroke="skyblue" points="351,-184 289,-184 289,-146 351,-146 351,-184"/>
<text text-anchor="middle" x="320" y="-168.8" font-family="Sans-Serif" font-size="14.00">t6</text>
<text text-anchor="middle" x="320" y="-153.8" font-family="Sans-Serif" font-size="14.00">(3, 4, 5)</text>
</g>
<!-- 130350739525632&#45;&gt;130350739525440 -->
<g id="edge13" class="edge">
<title>130350739525632&#45;&gt;130350739525440</title>
<path fill="none" stroke="#666666" stroke-width="1.2" d="M312.42,-219.81C313.59,-211.52 315.02,-201.39 316.32,-192.16"/>
<polygon fill="#666666" stroke="#666666" stroke-width="1.2" points="319.12,-192.33 317.46,-184.02 313.57,-191.55 319.12,-192.33"/>
</g>
<!-- 130350739526016 -->
<g id="node18" class="node">
<title>130350739526016</title>
<polygon fill="aliceblue" stroke="skyblue" points="134,-184 72,-184 72,-146 134,-146 134,-184"/>
<text text-anchor="middle" x="103" y="-168.8" font-family="Sans-Serif" font-size="14.00">t7</text>
<text text-anchor="middle" x="103" y="-153.8" font-family="Sans-Serif" font-size="14.00">(3, 4, 5)</text>
</g>
<!-- 130350739525776&#45;&gt;130350739526016 -->
<g id="edge18" class="edge">
<title>130350739525776&#45;&gt;130350739526016</title>
<path fill="none" stroke="#666666" stroke-width="1.2" d="M103,-219.81C103,-211.52 103,-201.39 103,-192.16"/>
<polygon fill="#666666" stroke="#666666" stroke-width="1.2" points="105.8,-192.02 103,-184.02 100.2,-192.02 105.8,-192.02"/>
</g>
<!-- 130350739525968 -->
<g id="node17" class="node">
<title>130350739525968</title>
<polygon fill="moccasin" stroke="orange" points="130,-330 76,-330 76,-292 130,-292 130,-330"/>
<text text-anchor="middle" x="103" y="-314.8" font-family="Sans-Serif" font-size="14.00">var_4</text>
<text text-anchor="middle" x="103" y="-299.8" font-family="Sans-Serif" font-size="14.00">0.05</text>
</g>
<!-- 130350739525968&#45;&gt;130350739525776 -->
<g id="edge16" class="edge">
<title>130350739525968&#45;&gt;130350739525776</title>
<path fill="none" stroke="#666666" stroke-width="1.2" d="M103,-291.72C103,-283.29 103,-273.15 103,-264.02"/>
<polygon fill="#666666" stroke="#666666" stroke-width="1.2" points="105.8,-264 103,-256 100.2,-264 105.8,-264"/>
</g>
<!-- 130350739526304 -->
<g id="node19" class="node">
<title>130350739526304</title>
<polygon fill="lightgray" stroke="darkslategray" points="135.5,-110 44.5,-110 44.5,-74 135.5,-74 135.5,-110"/>
<text text-anchor="middle" x="90" y="-88.3" font-family="Courier Bold" font-size="14.00">mulscalar</text>
</g>
<!-- 130350739526016&#45;&gt;130350739526304 -->
<g id="edge20" class="edge">
<title>130350739526016&#45;&gt;130350739526304</title>
<path fill="none" stroke="#666666" stroke-width="1.2" d="M93.66,-145.72C91.31,-137.29 89.29,-127.15 88.1,-118.02"/>
<polygon fill="#666666" stroke="#666666" stroke-width="1.2" points="90.88,-117.67 87.25,-110 85.31,-118.25 90.88,-117.67"/>
</g>
<!-- 130350739526016&#45;&gt;130350739526544 -->
<g id="edge22" class="edge">
<title>130350739526016&#45;&gt;130350739526544</title>
<path fill="none" stroke="#666666" stroke-width="1.2" d="M123.09,-145.72C133.2,-136.51 145.55,-125.27 156.24,-115.53"/>
<polygon fill="#666666" stroke="#666666" stroke-width="1.2" points="158.29,-117.46 162.32,-110 154.52,-113.32 158.29,-117.46"/>
</g>
<!-- 130350739526304&#45;&gt;130350739526016 -->
<g id="edge19" class="edge">
<title>130350739526304&#45;&gt;130350739526016</title>
<path fill="none" stroke="#666666" stroke-width="1.2" d="M98.97,-110C101.36,-118.25 103.44,-128.35 104.71,-137.57"/>
<polygon fill="#666666" stroke="#666666" stroke-width="1.2" points="101.95,-138.08 105.64,-145.72 107.52,-137.45 101.95,-138.08"/>
</g>
<!-- 130350739526352 -->
<g id="node20" class="node">
<title>130350739526352</title>
<polygon fill="moccasin" stroke="orange" points="54,-184 0,-184 0,-146 54,-146 54,-184"/>
<text text-anchor="middle" x="27" y="-168.8" font-family="Sans-Serif" font-size="14.00">var_5</text>
<text text-anchor="middle" x="27" y="-153.8" font-family="Sans-Serif" font-size="14.00">2.5</text>
</g>
<!-- 130350739526352&#45;&gt;130350739526304 -->
<g id="edge21" class="edge">
<title>130350739526352&#45;&gt;130350739526304</title>
<path fill="none" stroke="#666666" stroke-width="1.2" d="M43.22,-145.72C51.24,-136.68 61,-125.69 69.52,-116.08"/>
<polygon fill="#666666" stroke="#666666" stroke-width="1.2" points="71.7,-117.85 74.91,-110 67.51,-114.13 71.7,-117.85"/>
</g>
<!-- 130350739526256 -->
<g id="node22" class="node">
<title>130350739526256</title>
<polygon fill="aliceblue" stroke="skyblue" points="212,-38 150,-38 150,0 212,0 212,-38"/>
<text text-anchor="middle" x="181" y="-22.8" font-family="Sans-Serif" font-size="14.00">t8</text>
<text text-anchor="middle" x="181" y="-7.8" font-family="Sans-Serif" font-size="14.00">(3, 4, 5)</text>
</g>
<!-- 130350739526544&#45;&gt;130350739526256 -->
<g id="edge24" class="edge">
<title>130350739526544&#45;&gt;130350739526256</title>
<path fill="none" stroke="#666666" stroke-width="1.2" d="M181,-73.81C181,-65.52 181,-55.39 181,-46.16"/>
<polygon fill="#666666" stroke="#666666" stroke-width="1.2" points="183.8,-46.02 181,-38.02 178.2,-46.02 183.8,-46.02"/>
</g>
</g>
</svg>
