<?xml version="1.0" encoding="UTF-8" standalone="no"?>
<!DOCTYPE svg PUBLIC "-//W3C//DTD SVG 1.1//EN"
 "http://www.w3.org/Graphics/SVG/1.1/DTD/svg11.dtd">
<!-- Generated by graphviz version 2.43.0 (0)
 -->
<!-- Title: %3 Pages: 1 -->
<svg width="679pt" height="484pt"
 viewBox="0.00 0.00 678.50 484.00" xmlns="http://www.w3.org/2000/svg" xmlns:xlink="http://www.w3.org/1999/xlink">
<g id="graph0" class="graph" transform="scale(1 1) rotate(0) translate(4 480)">
<title>%3</title>
<polygon fill="white" stroke="transparent" points="-4,4 -4,-480 674.5,-480 674.5,4 -4,4"/>
<!-- 133948203272704 -->
<g id="node1" class="node">
<title>133948203272704</title>
<polygon fill="aliceblue" stroke="skyblue" points="239.5,-330 177.5,-330 177.5,-292 239.5,-292 239.5,-330"/>
<text text-anchor="middle" x="208.5" y="-314.8" font-family="Sans-Serif" font-size="14.00">t1</text>
<text text-anchor="middle" x="208.5" y="-299.8" font-family="Sans-Serif" font-size="14.00">(3, 4, 5)</text>
</g>
<!-- 133948204056528 -->
<g id="node7" class="node">
<title>133948204056528</title>
<polygon fill="lightgray" stroke="darkslategray" points="155.5,-256 101.5,-256 101.5,-220 155.5,-220 155.5,-256"/>
<text text-anchor="middle" x="128.5" y="-234.3" font-family="Courier Bold" font-size="14.00">add</text>
</g>
<!-- 133948203272704&#45;&gt;133948204056528 -->
<g id="edge5" class="edge">
<title>133948203272704&#45;&gt;133948204056528</title>
<path fill="none" stroke="#666666" stroke-width="1.2" d="M187.9,-291.72C177.53,-282.51 164.86,-271.27 153.89,-261.53"/>
<polygon fill="#666666" stroke="#666666" stroke-width="1.2" points="155.5,-259.22 147.66,-256 151.78,-263.41 155.5,-259.22"/>
</g>
<!-- 133948203278224 -->
<g id="node2" class="node">
<title>133948203278224</title>
<polygon fill="lightgray" stroke="darkslategray" points="260,-402 177,-402 177,-366 260,-366 260,-402"/>
<text text-anchor="middle" x="218.5" y="-380.3" font-family="Courier Bold" font-size="14.00">constant</text>
</g>
<!-- 133948203278224&#45;&gt;133948203272704 -->
<g id="edge1" class="edge">
<title>133948203278224&#45;&gt;133948203272704</title>
<path fill="none" stroke="#666666" stroke-width="1.2" d="M216.08,-365.81C214.91,-357.52 213.48,-347.39 212.18,-338.16"/>
<polygon fill="#666666" stroke="#666666" stroke-width="1.2" points="214.93,-337.55 211.04,-330.02 209.38,-338.33 214.93,-337.55"/>
</g>
<!-- 133948203278464 -->
<g id="node3" class="node">
<title>133948203278464</title>
<polygon fill="moccasin" stroke="orange" points="245.5,-476 191.5,-476 191.5,-438 245.5,-438 245.5,-476"/>
<text text-anchor="middle" x="218.5" y="-460.8" font-family="Sans-Serif" font-size="14.00">var_1</text>
<text text-anchor="middle" x="218.5" y="-445.8" font-family="Sans-Serif" font-size="14.00">0</text>
</g>
<!-- 133948203278464&#45;&gt;133948203278224 -->
<g id="edge2" class="edge">
<title>133948203278464&#45;&gt;133948203278224</title>
<path fill="none" stroke="#666666" stroke-width="1.2" d="M218.5,-437.72C218.5,-429.29 218.5,-419.15 218.5,-410.02"/>
<polygon fill="#666666" stroke="#666666" stroke-width="1.2" points="221.3,-410 218.5,-402 215.7,-410 221.3,-410"/>
</g>
<!-- 133948204041264 -->
<g id="node4" class="node">
<title>133948204041264</title>
<polygon fill="aliceblue" stroke="skyblue" points="153.5,-330 91.5,-330 91.5,-292 153.5,-292 153.5,-330"/>
<text text-anchor="middle" x="122.5" y="-314.8" font-family="Sans-Serif" font-size="14.00">t2</text>
<text text-anchor="middle" x="122.5" y="-299.8" font-family="Sans-Serif" font-size="14.00">(3, 4, 5)</text>
</g>
<!-- 133948204041264&#45;&gt;133948204056528 -->
<g id="edge6" class="edge">
<title>133948204041264&#45;&gt;133948204056528</title>
<path fill="none" stroke="#666666" stroke-width="1.2" d="M124.05,-291.72C124.76,-283.29 125.61,-273.15 126.39,-264.02"/>
<polygon fill="#666666" stroke="#666666" stroke-width="1.2" points="129.18,-264.21 127.06,-256 123.6,-263.74 129.18,-264.21"/>
</g>
<!-- 133948204041120 -->
<g id="node5" class="node">
<title>133948204041120</title>
<polygon fill="lightgray" stroke="darkslategray" points="159,-402 76,-402 76,-366 159,-366 159,-402"/>
<text text-anchor="middle" x="117.5" y="-380.3" font-family="Courier Bold" font-size="14.00">constant</text>
</g>
<!-- 133948204041120&#45;&gt;133948204041264 -->
<g id="edge3" class="edge">
<title>133948204041120&#45;&gt;133948204041264</title>
<path fill="none" stroke="#666666" stroke-width="1.2" d="M118.71,-365.81C119.29,-357.52 120.01,-347.39 120.66,-338.16"/>
<polygon fill="#666666" stroke="#666666" stroke-width="1.2" points="123.46,-338.2 121.23,-330.02 117.88,-337.8 123.46,-338.2"/>
</g>
<!-- 133948204041216 -->
<g id="node6" class="node">
<title>133948204041216</title>
<polygon fill="moccasin" stroke="orange" points="144.5,-476 90.5,-476 90.5,-438 144.5,-438 144.5,-476"/>
<text text-anchor="middle" x="117.5" y="-460.8" font-family="Sans-Serif" font-size="14.00">var_2</text>
<text text-anchor="middle" x="117.5" y="-445.8" font-family="Sans-Serif" font-size="14.00">1</text>
</g>
<!-- 133948204041216&#45;&gt;133948204041120 -->
<g id="edge4" class="edge">
<title>133948204041216&#45;&gt;133948204041120</title>
<path fill="none" stroke="#666666" stroke-width="1.2" d="M117.5,-437.72C117.5,-429.29 117.5,-419.15 117.5,-410.02"/>
<polygon fill="#666666" stroke="#666666" stroke-width="1.2" points="120.3,-410 117.5,-402 114.7,-410 120.3,-410"/>
</g>
<!-- 133948204056144 -->
<g id="node8" class="node">
<title>133948204056144</title>
<polygon fill="aliceblue" stroke="skyblue" points="157.5,-184 95.5,-184 95.5,-146 157.5,-146 157.5,-184"/>
<text text-anchor="middle" x="126.5" y="-168.8" font-family="Sans-Serif" font-size="14.00">t3</text>
<text text-anchor="middle" x="126.5" y="-153.8" font-family="Sans-Serif" font-size="14.00">(3, 4, 5)</text>
</g>
<!-- 133948204056528&#45;&gt;133948204056144 -->
<g id="edge7" class="edge">
<title>133948204056528&#45;&gt;133948204056144</title>
<path fill="none" stroke="#666666" stroke-width="1.2" d="M128.02,-219.81C127.78,-211.52 127.5,-201.39 127.24,-192.16"/>
<polygon fill="#666666" stroke="#666666" stroke-width="1.2" points="130.03,-191.94 127.01,-184.02 124.43,-192.1 130.03,-191.94"/>
</g>
<!-- 133948204055520 -->
<g id="node12" class="node">
<title>133948204055520</title>
<polygon fill="lightgray" stroke="darkslategray" points="111.5,-110 57.5,-110 57.5,-74 111.5,-74 111.5,-110"/>
<text text-anchor="middle" x="84.5" y="-88.3" font-family="Courier Bold" font-size="14.00">add</text>
</g>
<!-- 133948204056144&#45;&gt;133948204055520 -->
<g id="edge11" class="edge">
<title>133948204056144&#45;&gt;133948204055520</title>
<path fill="none" stroke="#666666" stroke-width="1.2" d="M115.68,-145.72C110.49,-136.94 104.21,-126.31 98.64,-116.91"/>
<polygon fill="#666666" stroke="#666666" stroke-width="1.2" points="101.04,-115.46 94.56,-110 96.22,-118.31 101.04,-115.46"/>
</g>
<!-- 133948204055904 -->
<g id="node9" class="node">
<title>133948204055904</title>
<polygon fill="aliceblue" stroke="skyblue" points="75.5,-184 13.5,-184 13.5,-146 75.5,-146 75.5,-184"/>
<text text-anchor="middle" x="44.5" y="-168.8" font-family="Sans-Serif" font-size="14.00">t4</text>
<text text-anchor="middle" x="44.5" y="-153.8" font-family="Sans-Serif" font-size="14.00">(3, 4, 5)</text>
</g>
<!-- 133948204055904&#45;&gt;133948204055520 -->
<g id="edge10" class="edge">
<title>133948204055904&#45;&gt;133948204055520</title>
<path fill="none" stroke="#666666" stroke-width="1.2" d="M54.8,-145.72C59.7,-137.03 65.61,-126.52 70.87,-117.19"/>
<polygon fill="#666666" stroke="#666666" stroke-width="1.2" points="73.43,-118.35 74.92,-110 68.55,-115.6 73.43,-118.35"/>
</g>
<!-- 133948204055664 -->
<g id="node10" class="node">
<title>133948204055664</title>
<polygon fill="lightgray" stroke="darkslategray" points="83,-256 0,-256 0,-220 83,-220 83,-256"/>
<text text-anchor="middle" x="41.5" y="-234.3" font-family="Courier Bold" font-size="14.00">constant</text>
</g>
<!-- 133948204055664&#45;&gt;133948204055904 -->
<g id="edge8" class="edge">
<title>133948204055664&#45;&gt;133948204055904</title>
<path fill="none" stroke="#666666" stroke-width="1.2" d="M42.23,-219.81C42.58,-211.52 43,-201.39 43.39,-192.16"/>
<polygon fill="#666666" stroke="#666666" stroke-width="1.2" points="46.2,-192.13 43.74,-184.02 40.6,-191.89 46.2,-192.13"/>
</g>
<!-- 133948204055712 -->
<g id="node11" class="node">
<title>133948204055712</title>
<polygon fill="moccasin" stroke="orange" points="68.5,-330 14.5,-330 14.5,-292 68.5,-292 68.5,-330"/>
<text text-anchor="middle" x="41.5" y="-314.8" font-family="Sans-Serif" font-size="14.00">var_3</text>
<text text-anchor="middle" x="41.5" y="-299.8" font-family="Sans-Serif" font-size="14.00">0.5</text>
</g>
<!-- 133948204055712&#45;&gt;133948204055664 -->
<g id="edge9" class="edge">
<title>133948204055712&#45;&gt;133948204055664</title>
<path fill="none" stroke="#666666" stroke-width="1.2" d="M41.5,-291.72C41.5,-283.29 41.5,-273.15 41.5,-264.02"/>
<polygon fill="#666666" stroke="#666666" stroke-width="1.2" points="44.3,-264 41.5,-256 38.7,-264 44.3,-264"/>
</g>
<!-- 133948204055424 -->
<g id="node13" class="node">
<title>133948204055424</title>
<polygon fill="aliceblue" stroke="skyblue" points="115.5,-38 53.5,-38 53.5,0 115.5,0 115.5,-38"/>
<text text-anchor="middle" x="84.5" y="-22.8" font-family="Sans-Serif" font-size="14.00">t5</text>
<text text-anchor="middle" x="84.5" y="-7.8" font-family="Sans-Serif" font-size="14.00">(3, 4, 5)</text>
</g>
<!-- 133948204055520&#45;&gt;133948204055424 -->
<g id="edge12" class="edge">
<title>133948204055520&#45;&gt;133948204055424</title>
<path fill="none" stroke="#666666" stroke-width="1.2" d="M84.5,-73.81C84.5,-65.52 84.5,-55.39 84.5,-46.16"/>
<polygon fill="#666666" stroke="#666666" stroke-width="1.2" points="87.3,-46.02 84.5,-38.02 81.7,-46.02 87.3,-46.02"/>
</g>
<!-- 133948204055136 -->
<g id="node14" class="node">
<title>133948204055136</title>
<polygon fill="aliceblue" stroke="skyblue" points="410,-330 337,-330 337,-292 410,-292 410,-330"/>
<text text-anchor="middle" x="373.5" y="-314.8" font-family="Sans-Serif" font-size="14.00">tensor_6</text>
<text text-anchor="middle" x="373.5" y="-299.8" font-family="Sans-Serif" font-size="14.00">(3, 4, 5)</text>
</g>
<!-- 133948204054896 -->
<g id="node15" class="node">
<title>133948204054896</title>
<polygon fill="lightgray" stroke="darkslategray" points="361,-402 278,-402 278,-366 361,-366 361,-402"/>
<text text-anchor="middle" x="319.5" y="-380.3" font-family="Courier Bold" font-size="14.00">constant</text>
</g>
<!-- 133948204054896&#45;&gt;133948204055136 -->
<g id="edge13" class="edge">
<title>133948204054896&#45;&gt;133948204055136</title>
<path fill="none" stroke="#666666" stroke-width="1.2" d="M332.57,-365.81C339.27,-357.01 347.54,-346.14 354.88,-336.48"/>
<polygon fill="#666666" stroke="#666666" stroke-width="1.2" points="357.18,-338.08 359.79,-330.02 352.72,-334.69 357.18,-338.08"/>
</g>
<!-- 133948204054944 -->
<g id="node16" class="node">
<title>133948204054944</title>
<polygon fill="moccasin" stroke="orange" points="334.5,-476 280.5,-476 280.5,-438 334.5,-438 334.5,-476"/>
<text text-anchor="middle" x="307.5" y="-460.8" font-family="Sans-Serif" font-size="14.00">var_4</text>
<text text-anchor="middle" x="307.5" y="-445.8" font-family="Sans-Serif" font-size="14.00">0</text>
</g>
<!-- 133948204054944&#45;&gt;133948204054896 -->
<g id="edge15" class="edge">
<title>133948204054944&#45;&gt;133948204054896</title>
<path fill="none" stroke="#666666" stroke-width="1.2" d="M310.59,-437.72C312.02,-429.29 313.73,-419.15 315.27,-410.02"/>
<polygon fill="#666666" stroke="#666666" stroke-width="1.2" points="318.05,-410.36 316.63,-402 312.53,-409.42 318.05,-410.36"/>
</g>
<!-- 133948204055232 -->
<g id="node17" class="node">
<title>133948204055232</title>
<polygon fill="moccasin" stroke="orange" points="504.5,-476 352.5,-476 352.5,-438 504.5,-438 504.5,-476"/>
<text text-anchor="middle" x="428.5" y="-460.8" font-family="Sans-Serif" font-size="14.00">var_5</text>
<text text-anchor="middle" x="428.5" y="-445.8" font-family="Sans-Serif" font-size="14.00">&#45;0.5477225575051661</text>
</g>
<!-- 133948204054704 -->
<g id="node19" class="node">
<title>133948204054704</title>
<polygon fill="lightgray" stroke="darkslategray" points="465.5,-402 391.5,-402 391.5,-366 465.5,-366 465.5,-402"/>
<text text-anchor="middle" x="428.5" y="-380.3" font-family="Courier Bold" font-size="14.00">uniform</text>
</g>
<!-- 133948204055232&#45;&gt;133948204054704 -->
<g id="edge16" class="edge">
<title>133948204055232&#45;&gt;133948204054704</title>
<path fill="none" stroke="#666666" stroke-width="1.2" d="M428.5,-437.72C428.5,-429.29 428.5,-419.15 428.5,-410.02"/>
<polygon fill="#666666" stroke="#666666" stroke-width="1.2" points="431.3,-410 428.5,-402 425.7,-410 431.3,-410"/>
</g>
<!-- 133948204054800 -->
<g id="node18" class="node">
<title>133948204054800</title>
<polygon fill="moccasin" stroke="orange" points="670.5,-476 522.5,-476 522.5,-438 670.5,-438 670.5,-476"/>
<text text-anchor="middle" x="596.5" y="-460.8" font-family="Sans-Serif" font-size="14.00">var_6</text>
<text text-anchor="middle" x="596.5" y="-445.8" font-family="Sans-Serif" font-size="14.00">0.5477225575051661</text>
</g>
<!-- 133948204054800&#45;&gt;133948204054704 -->
<g id="edge17" class="edge">
<title>133948204054800&#45;&gt;133948204054704</title>
<path fill="none" stroke="#666666" stroke-width="1.2" d="M553.67,-437.9C529,-427.47 498.04,-414.39 473.08,-403.84"/>
<polygon fill="#666666" stroke="#666666" stroke-width="1.2" points="474,-401.19 465.54,-400.66 471.82,-406.35 474,-401.19"/>
</g>
<!-- 133948204054704&#45;&gt;133948204055136 -->
<g id="edge14" class="edge">
<title>133948204054704&#45;&gt;133948204055136</title>
<path fill="none" stroke="#666666" stroke-width="1.2" d="M415.19,-365.81C408.37,-357.01 399.94,-346.14 392.46,-336.48"/>
<polygon fill="#666666" stroke="#666666" stroke-width="1.2" points="394.57,-334.63 387.46,-330.02 390.14,-338.06 394.57,-334.63"/>
</g>
</g>
</svg>
