<?xml version="1.0" encoding="UTF-8" standalone="no"?>
<!DOCTYPE svg PUBLIC "-//W3C//DTD SVG 1.1//EN"
 "http://www.w3.org/Graphics/SVG/1.1/DTD/svg11.dtd">
<!-- Generated by graphviz version 2.43.0 (0)
 -->
<!-- Title: %3 Pages: 1 -->
<svg width="268pt" height="484pt"
 viewBox="0.00 0.00 268.00 484.00" xmlns="http://www.w3.org/2000/svg" xmlns:xlink="http://www.w3.org/1999/xlink">
<g id="graph0" class="graph" transform="scale(1 1) rotate(0) translate(4 480)">
<title>%3</title>
<polygon fill="white" stroke="transparent" points="-4,4 -4,-480 264,-480 264,4 -4,4"/>
<!-- 130498683931952 -->
<g id="node1" class="node">
<title>130498683931952</title>
<polygon fill="aliceblue" stroke="skyblue" points="243.5,-330 181.5,-330 181.5,-292 243.5,-292 243.5,-330"/>
<text text-anchor="middle" x="212.5" y="-314.8" font-family="Sans-Serif" font-size="14.00">t1</text>
<text text-anchor="middle" x="212.5" y="-299.8" font-family="Sans-Serif" font-size="14.00">(3, 4, 5)</text>
</g>
<!-- 130498684418944 -->
<g id="node7" class="node">
<title>130498684418944</title>
<polygon fill="lightgray" stroke="darkslategray" points="155.5,-256 101.5,-256 101.5,-220 155.5,-220 155.5,-256"/>
<text text-anchor="middle" x="128.5" y="-234.3" font-family="Courier Bold" font-size="14.00">add</text>
</g>
<!-- 130498683931952&#45;&gt;130498684418944 -->
<g id="edge5" class="edge">
<title>130498683931952&#45;&gt;130498684418944</title>
<path fill="none" stroke="#666666" stroke-width="1.2" d="M190.87,-291.72C179.88,-282.42 166.43,-271.06 154.84,-261.26"/>
<polygon fill="#666666" stroke="#666666" stroke-width="1.2" points="156.53,-259.03 148.62,-256 152.92,-263.31 156.53,-259.03"/>
</g>
<!-- 130498683936656 -->
<g id="node2" class="node">
<title>130498683936656</title>
<polygon fill="lightgray" stroke="darkslategray" points="260,-402 177,-402 177,-366 260,-366 260,-402"/>
<text text-anchor="middle" x="218.5" y="-380.3" font-family="Courier Bold" font-size="14.00">constant</text>
</g>
<!-- 130498683936656&#45;&gt;130498683931952 -->
<g id="edge1" class="edge">
<title>130498683936656&#45;&gt;130498683931952</title>
<path fill="none" stroke="#666666" stroke-width="1.2" d="M217.05,-365.81C216.35,-357.52 215.49,-347.39 214.71,-338.16"/>
<polygon fill="#666666" stroke="#666666" stroke-width="1.2" points="217.49,-337.76 214.02,-330.02 211.91,-338.23 217.49,-337.76"/>
</g>
<!-- 130498683936896 -->
<g id="node3" class="node">
<title>130498683936896</title>
<polygon fill="moccasin" stroke="orange" points="245.5,-476 191.5,-476 191.5,-438 245.5,-438 245.5,-476"/>
<text text-anchor="middle" x="218.5" y="-460.8" font-family="Sans-Serif" font-size="14.00">var_1</text>
<text text-anchor="middle" x="218.5" y="-445.8" font-family="Sans-Serif" font-size="14.00">0</text>
</g>
<!-- 130498683936896&#45;&gt;130498683936656 -->
<g id="edge2" class="edge">
<title>130498683936896&#45;&gt;130498683936656</title>
<path fill="none" stroke="#666666" stroke-width="1.2" d="M218.5,-437.72C218.5,-429.29 218.5,-419.15 218.5,-410.02"/>
<polygon fill="#666666" stroke="#666666" stroke-width="1.2" points="221.3,-410 218.5,-402 215.7,-410 221.3,-410"/>
</g>
<!-- 130498684418656 -->
<g id="node4" class="node">
<title>130498684418656</title>
<polygon fill="aliceblue" stroke="skyblue" points="153.5,-330 91.5,-330 91.5,-292 153.5,-292 153.5,-330"/>
<text text-anchor="middle" x="122.5" y="-314.8" font-family="Sans-Serif" font-size="14.00">t2</text>
<text text-anchor="middle" x="122.5" y="-299.8" font-family="Sans-Serif" font-size="14.00">(3, 4, 5)</text>
</g>
<!-- 130498684418656&#45;&gt;130498684418944 -->
<g id="edge6" class="edge">
<title>130498684418656&#45;&gt;130498684418944</title>
<path fill="none" stroke="#666666" stroke-width="1.2" d="M124.05,-291.72C124.76,-283.29 125.61,-273.15 126.39,-264.02"/>
<polygon fill="#666666" stroke="#666666" stroke-width="1.2" points="129.18,-264.21 127.06,-256 123.6,-263.74 129.18,-264.21"/>
</g>
<!-- 130498684418512 -->
<g id="node5" class="node">
<title>130498684418512</title>
<polygon fill="lightgray" stroke="darkslategray" points="159,-402 76,-402 76,-366 159,-366 159,-402"/>
<text text-anchor="middle" x="117.5" y="-380.3" font-family="Courier Bold" font-size="14.00">constant</text>
</g>
<!-- 130498684418512&#45;&gt;130498684418656 -->
<g id="edge3" class="edge">
<title>130498684418512&#45;&gt;130498684418656</title>
<path fill="none" stroke="#666666" stroke-width="1.2" d="M118.71,-365.81C119.29,-357.52 120.01,-347.39 120.66,-338.16"/>
<polygon fill="#666666" stroke="#666666" stroke-width="1.2" points="123.46,-338.2 121.23,-330.02 117.88,-337.8 123.46,-338.2"/>
</g>
<!-- 130498684418608 -->
<g id="node6" class="node">
<title>130498684418608</title>
<polygon fill="moccasin" stroke="orange" points="144.5,-476 90.5,-476 90.5,-438 144.5,-438 144.5,-476"/>
<text text-anchor="middle" x="117.5" y="-460.8" font-family="Sans-Serif" font-size="14.00">var_2</text>
<text text-anchor="middle" x="117.5" y="-445.8" font-family="Sans-Serif" font-size="14.00">1</text>
</g>
<!-- 130498684418608&#45;&gt;130498684418512 -->
<g id="edge4" class="edge">
<title>130498684418608&#45;&gt;130498684418512</title>
<path fill="none" stroke="#666666" stroke-width="1.2" d="M117.5,-437.72C117.5,-429.29 117.5,-419.15 117.5,-410.02"/>
<polygon fill="#666666" stroke="#666666" stroke-width="1.2" points="120.3,-410 117.5,-402 114.7,-410 120.3,-410"/>
</g>
<!-- 130498684419040 -->
<g id="node8" class="node">
<title>130498684419040</title>
<polygon fill="aliceblue" stroke="skyblue" points="157.5,-184 95.5,-184 95.5,-146 157.5,-146 157.5,-184"/>
<text text-anchor="middle" x="126.5" y="-168.8" font-family="Sans-Serif" font-size="14.00">t3</text>
<text text-anchor="middle" x="126.5" y="-153.8" font-family="Sans-Serif" font-size="14.00">(3, 4, 5)</text>
</g>
<!-- 130498684418944&#45;&gt;130498684419040 -->
<g id="edge7" class="edge">
<title>130498684418944&#45;&gt;130498684419040</title>
<path fill="none" stroke="#666666" stroke-width="1.2" d="M128.02,-219.81C127.78,-211.52 127.5,-201.39 127.24,-192.16"/>
<polygon fill="#666666" stroke="#666666" stroke-width="1.2" points="130.03,-191.94 127.01,-184.02 124.43,-192.1 130.03,-191.94"/>
</g>
<!-- 130498684419664 -->
<g id="node12" class="node">
<title>130498684419664</title>
<polygon fill="lightgray" stroke="darkslategray" points="111.5,-110 57.5,-110 57.5,-74 111.5,-74 111.5,-110"/>
<text text-anchor="middle" x="84.5" y="-88.3" font-family="Courier Bold" font-size="14.00">add</text>
</g>
<!-- 130498684419040&#45;&gt;130498684419664 -->
<g id="edge11" class="edge">
<title>130498684419040&#45;&gt;130498684419664</title>
<path fill="none" stroke="#666666" stroke-width="1.2" d="M115.68,-145.72C110.49,-136.94 104.21,-126.31 98.64,-116.91"/>
<polygon fill="#666666" stroke="#666666" stroke-width="1.2" points="101.04,-115.46 94.56,-110 96.22,-118.31 101.04,-115.46"/>
</g>
<!-- 130498684419280 -->
<g id="node9" class="node">
<title>130498684419280</title>
<polygon fill="aliceblue" stroke="skyblue" points="75.5,-184 13.5,-184 13.5,-146 75.5,-146 75.5,-184"/>
<text text-anchor="middle" x="44.5" y="-168.8" font-family="Sans-Serif" font-size="14.00">t4</text>
<text text-anchor="middle" x="44.5" y="-153.8" font-family="Sans-Serif" font-size="14.00">(3, 4, 5)</text>
</g>
<!-- 130498684419280&#45;&gt;130498684419664 -->
<g id="edge10" class="edge">
<title>130498684419280&#45;&gt;130498684419664</title>
<path fill="none" stroke="#666666" stroke-width="1.2" d="M54.8,-145.72C59.7,-137.03 65.61,-126.52 70.87,-117.19"/>
<polygon fill="#666666" stroke="#666666" stroke-width="1.2" points="73.43,-118.35 74.92,-110 68.55,-115.6 73.43,-118.35"/>
</g>
<!-- 130498684419520 -->
<g id="node10" class="node">
<title>130498684419520</title>
<polygon fill="lightgray" stroke="darkslategray" points="83,-256 0,-256 0,-220 83,-220 83,-256"/>
<text text-anchor="middle" x="41.5" y="-234.3" font-family="Courier Bold" font-size="14.00">constant</text>
</g>
<!-- 130498684419520&#45;&gt;130498684419280 -->
<g id="edge8" class="edge">
<title>130498684419520&#45;&gt;130498684419280</title>
<path fill="none" stroke="#666666" stroke-width="1.2" d="M42.23,-219.81C42.58,-211.52 43,-201.39 43.39,-192.16"/>
<polygon fill="#666666" stroke="#666666" stroke-width="1.2" points="46.2,-192.13 43.74,-184.02 40.6,-191.89 46.2,-192.13"/>
</g>
<!-- 130498684419472 -->
<g id="node11" class="node">
<title>130498684419472</title>
<polygon fill="moccasin" stroke="orange" points="68.5,-330 14.5,-330 14.5,-292 68.5,-292 68.5,-330"/>
<text text-anchor="middle" x="41.5" y="-314.8" font-family="Sans-Serif" font-size="14.00">var_3</text>
<text text-anchor="middle" x="41.5" y="-299.8" font-family="Sans-Serif" font-size="14.00">0.5</text>
</g>
<!-- 130498684419472&#45;&gt;130498684419520 -->
<g id="edge9" class="edge">
<title>130498684419472&#45;&gt;130498684419520</title>
<path fill="none" stroke="#666666" stroke-width="1.2" d="M41.5,-291.72C41.5,-283.29 41.5,-273.15 41.5,-264.02"/>
<polygon fill="#666666" stroke="#666666" stroke-width="1.2" points="44.3,-264 41.5,-256 38.7,-264 44.3,-264"/>
</g>
<!-- 130498684419760 -->
<g id="node13" class="node">
<title>130498684419760</title>
<polygon fill="aliceblue" stroke="skyblue" points="115.5,-38 53.5,-38 53.5,0 115.5,0 115.5,-38"/>
<text text-anchor="middle" x="84.5" y="-22.8" font-family="Sans-Serif" font-size="14.00">t5</text>
<text text-anchor="middle" x="84.5" y="-7.8" font-family="Sans-Serif" font-size="14.00">(3, 4, 5)</text>
</g>
<!-- 130498684419664&#45;&gt;130498684419760 -->
<g id="edge12" class="edge">
<title>130498684419664&#45;&gt;130498684419760</title>
<path fill="none" stroke="#666666" stroke-width="1.2" d="M84.5,-73.81C84.5,-65.52 84.5,-55.39 84.5,-46.16"/>
<polygon fill="#666666" stroke="#666666" stroke-width="1.2" points="87.3,-46.02 84.5,-38.02 81.7,-46.02 87.3,-46.02"/>
</g>
</g>
</svg>
