<?xml version="1.0" encoding="UTF-8" standalone="no"?>
<!DOCTYPE svg PUBLIC "-//W3C//DTD SVG 1.1//EN"
 "http://www.w3.org/Graphics/SVG/1.1/DTD/svg11.dtd">
<!-- Generated by graphviz version 2.43.0 (0)
 -->
<!-- Title: %3 Pages: 1 -->
<svg width="192pt" height="338pt"
 viewBox="0.00 0.00 192.00 338.00" xmlns="http://www.w3.org/2000/svg" xmlns:xlink="http://www.w3.org/1999/xlink">
<g id="graph0" class="graph" transform="scale(1 1) rotate(0) translate(4 334)">
<title>%3</title>
<polygon fill="white" stroke="transparent" points="-4,4 -4,-334 188,-334 188,4 -4,4"/>
<!-- 135175655853216 -->
<g id="node1" class="node">
<title>135175655853216</title>
<polygon fill="aliceblue" stroke="skyblue" points="161.5,-184 107.5,-184 107.5,-146 161.5,-146 161.5,-184"/>
<text text-anchor="middle" x="134.5" y="-168.8" font-family="Sans-Serif" font-size="14.00">t1</text>
<text text-anchor="middle" x="134.5" y="-153.8" font-family="Sans-Serif" font-size="14.00">(3, 4)</text>
</g>
<!-- 135173961432464 -->
<g id="node7" class="node">
<title>135173961432464</title>
<polygon fill="lightgray" stroke="darkslategray" points="124.5,-110 58.5,-110 58.5,-74 124.5,-74 124.5,-110"/>
<text text-anchor="middle" x="91.5" y="-88.3" font-family="Courier Bold" font-size="14.00">matmul</text>
</g>
<!-- 135175655853216&#45;&gt;135173961432464 -->
<g id="edge5" class="edge">
<title>135175655853216&#45;&gt;135173961432464</title>
<path fill="none" stroke="#666666" stroke-width="1.2" d="M123.43,-145.72C118.11,-136.94 111.68,-126.31 105.98,-116.91"/>
<polygon fill="#666666" stroke="#666666" stroke-width="1.2" points="108.34,-115.4 101.8,-110 103.55,-118.3 108.34,-115.4"/>
</g>
<!-- 135173962560752 -->
<g id="node2" class="node">
<title>135173962560752</title>
<polygon fill="lightgray" stroke="darkslategray" points="184,-256 101,-256 101,-220 184,-220 184,-256"/>
<text text-anchor="middle" x="142.5" y="-234.3" font-family="Courier Bold" font-size="14.00">constant</text>
</g>
<!-- 135173962560752&#45;&gt;135175655853216 -->
<g id="edge1" class="edge">
<title>135173962560752&#45;&gt;135175655853216</title>
<path fill="none" stroke="#666666" stroke-width="1.2" d="M140.56,-219.81C139.63,-211.52 138.49,-201.39 137.45,-192.16"/>
<polygon fill="#666666" stroke="#666666" stroke-width="1.2" points="140.21,-191.66 136.53,-184.02 134.64,-192.28 140.21,-191.66"/>
</g>
<!-- 135173963166624 -->
<g id="node3" class="node">
<title>135173963166624</title>
<polygon fill="moccasin" stroke="orange" points="169.5,-330 115.5,-330 115.5,-292 169.5,-292 169.5,-330"/>
<text text-anchor="middle" x="142.5" y="-314.8" font-family="Sans-Serif" font-size="14.00">var_1</text>
<text text-anchor="middle" x="142.5" y="-299.8" font-family="Sans-Serif" font-size="14.00">1</text>
</g>
<!-- 135173963166624&#45;&gt;135173962560752 -->
<g id="edge2" class="edge">
<title>135173963166624&#45;&gt;135173962560752</title>
<path fill="none" stroke="#666666" stroke-width="1.2" d="M142.5,-291.72C142.5,-283.29 142.5,-273.15 142.5,-264.02"/>
<polygon fill="#666666" stroke="#666666" stroke-width="1.2" points="145.3,-264 142.5,-256 139.7,-264 145.3,-264"/>
</g>
<!-- 135173961432896 -->
<g id="node4" class="node">
<title>135173961432896</title>
<polygon fill="aliceblue" stroke="skyblue" points="82.5,-184 28.5,-184 28.5,-146 82.5,-146 82.5,-184"/>
<text text-anchor="middle" x="55.5" y="-168.8" font-family="Sans-Serif" font-size="14.00">t2</text>
<text text-anchor="middle" x="55.5" y="-153.8" font-family="Sans-Serif" font-size="14.00">(4, 5)</text>
</g>
<!-- 135173961432896&#45;&gt;135173961432464 -->
<g id="edge6" class="edge">
<title>135173961432896&#45;&gt;135173961432464</title>
<path fill="none" stroke="#666666" stroke-width="1.2" d="M64.77,-145.72C69.18,-137.03 74.5,-126.52 79.24,-117.19"/>
<polygon fill="#666666" stroke="#666666" stroke-width="1.2" points="81.76,-118.4 82.88,-110 76.76,-115.87 81.76,-118.4"/>
</g>
<!-- 135173961432704 -->
<g id="node5" class="node">
<title>135173961432704</title>
<polygon fill="lightgray" stroke="darkslategray" points="83,-256 0,-256 0,-220 83,-220 83,-256"/>
<text text-anchor="middle" x="41.5" y="-234.3" font-family="Courier Bold" font-size="14.00">constant</text>
</g>
<!-- 135173961432704&#45;&gt;135173961432896 -->
<g id="edge3" class="edge">
<title>135173961432704&#45;&gt;135173961432896</title>
<path fill="none" stroke="#666666" stroke-width="1.2" d="M44.89,-219.81C46.54,-211.43 48.56,-201.18 50.4,-191.88"/>
<polygon fill="#666666" stroke="#666666" stroke-width="1.2" points="53.15,-192.41 51.95,-184.02 47.65,-191.33 53.15,-192.41"/>
</g>
<!-- 135173961432224 -->
<g id="node6" class="node">
<title>135173961432224</title>
<polygon fill="moccasin" stroke="orange" points="68.5,-330 14.5,-330 14.5,-292 68.5,-292 68.5,-330"/>
<text text-anchor="middle" x="41.5" y="-314.8" font-family="Sans-Serif" font-size="14.00">var_2</text>
<text text-anchor="middle" x="41.5" y="-299.8" font-family="Sans-Serif" font-size="14.00">1</text>
</g>
<!-- 135173961432224&#45;&gt;135173961432704 -->
<g id="edge4" class="edge">
<title>135173961432224&#45;&gt;135173961432704</title>
<path fill="none" stroke="#666666" stroke-width="1.2" d="M41.5,-291.72C41.5,-283.29 41.5,-273.15 41.5,-264.02"/>
<polygon fill="#666666" stroke="#666666" stroke-width="1.2" points="44.3,-264 41.5,-256 38.7,-264 44.3,-264"/>
</g>
<!-- 135173961432416 -->
<g id="node8" class="node">
<title>135173961432416</title>
<polygon fill="aliceblue" stroke="skyblue" points="128,-38 55,-38 55,0 128,0 128,-38"/>
<text text-anchor="middle" x="91.5" y="-22.8" font-family="Sans-Serif" font-size="14.00">tensor_3</text>
<text text-anchor="middle" x="91.5" y="-7.8" font-family="Sans-Serif" font-size="14.00">(3, 5)</text>
</g>
<!-- 135173961432464&#45;&gt;135173961432416 -->
<g id="edge7" class="edge">
<title>135173961432464&#45;&gt;135173961432416</title>
<path fill="none" stroke="#666666" stroke-width="1.2" d="M91.5,-73.81C91.5,-65.52 91.5,-55.39 91.5,-46.16"/>
<polygon fill="#666666" stroke="#666666" stroke-width="1.2" points="94.3,-46.02 91.5,-38.02 88.7,-46.02 94.3,-46.02"/>
</g>
</g>
</svg>
