<?xml version="1.0" encoding="UTF-8" standalone="no"?>
<!DOCTYPE svg PUBLIC "-//W3C//DTD SVG 1.1//EN"
 "http://www.w3.org/Graphics/SVG/1.1/DTD/svg11.dtd">
<!-- Generated by graphviz version 2.43.0 (0)
 -->
<!-- Title: %3 Pages: 1 -->
<svg width="309pt" height="630pt"
 viewBox="0.00 0.00 309.00 630.00" xmlns="http://www.w3.org/2000/svg" xmlns:xlink="http://www.w3.org/1999/xlink">
<g id="graph0" class="graph" transform="scale(1 1) rotate(0) translate(4 626)">
<title>%3</title>
<polygon fill="white" stroke="transparent" points="-4,4 -4,-626 305,-626 305,4 -4,4"/>
<!-- 137164688866560 -->
<g id="node1" class="node">
<title>137164688866560</title>
<polygon fill="aliceblue" stroke="skyblue" points="288.5,-184 226.5,-184 226.5,-146 288.5,-146 288.5,-184"/>
<text text-anchor="middle" x="257.5" y="-168.8" font-family="Sans-Serif" font-size="14.00">a</text>
<text text-anchor="middle" x="257.5" y="-153.8" font-family="Sans-Serif" font-size="14.00">(4, 2, 3)</text>
</g>
<!-- 137164688861760 -->
<g id="node13" class="node">
<title>137164688861760</title>
<polygon fill="lightgray" stroke="darkslategray" points="239.5,-110 185.5,-110 185.5,-74 239.5,-74 239.5,-110"/>
<text text-anchor="middle" x="212.5" y="-88.3" font-family="Courier Bold" font-size="14.00">add</text>
</g>
<!-- 137164688866560&#45;&gt;137164688861760 -->
<g id="edge11" class="edge">
<title>137164688866560&#45;&gt;137164688861760</title>
<path fill="none" stroke="#666666" stroke-width="1.2" d="M245.91,-145.72C240.35,-136.94 233.61,-126.31 227.65,-116.91"/>
<polygon fill="#666666" stroke="#666666" stroke-width="1.2" points="229.92,-115.26 223.28,-110 225.19,-118.26 229.92,-115.26"/>
</g>
<!-- 137164688862768 -->
<g id="node2" class="node">
<title>137164688862768</title>
<polygon fill="lightgray" stroke="darkslategray" points="301,-256 218,-256 218,-220 301,-220 301,-256"/>
<text text-anchor="middle" x="259.5" y="-234.3" font-family="Courier Bold" font-size="14.00">constant</text>
</g>
<!-- 137164688862768&#45;&gt;137164688866560 -->
<g id="edge1" class="edge">
<title>137164688862768&#45;&gt;137164688866560</title>
<path fill="none" stroke="#666666" stroke-width="1.2" d="M259.02,-219.81C258.78,-211.52 258.5,-201.39 258.24,-192.16"/>
<polygon fill="#666666" stroke="#666666" stroke-width="1.2" points="261.03,-191.94 258.01,-184.02 255.43,-192.1 261.03,-191.94"/>
</g>
<!-- 137164688862720 -->
<g id="node3" class="node">
<title>137164688862720</title>
<polygon fill="moccasin" stroke="orange" points="286.5,-330 232.5,-330 232.5,-292 286.5,-292 286.5,-330"/>
<text text-anchor="middle" x="259.5" y="-314.8" font-family="Sans-Serif" font-size="14.00">var_1</text>
<text text-anchor="middle" x="259.5" y="-299.8" font-family="Sans-Serif" font-size="14.00">1</text>
</g>
<!-- 137164688862720&#45;&gt;137164688862768 -->
<g id="edge2" class="edge">
<title>137164688862720&#45;&gt;137164688862768</title>
<path fill="none" stroke="#666666" stroke-width="1.2" d="M259.5,-291.72C259.5,-283.29 259.5,-273.15 259.5,-264.02"/>
<polygon fill="#666666" stroke="#666666" stroke-width="1.2" points="262.3,-264 259.5,-256 256.7,-264 262.3,-264"/>
</g>
<!-- 137164688862816 -->
<g id="node4" class="node">
<title>137164688862816</title>
<polygon fill="aliceblue" stroke="skyblue" points="68.5,-476 14.5,-476 14.5,-438 68.5,-438 68.5,-476"/>
<text text-anchor="middle" x="41.5" y="-460.8" font-family="Sans-Serif" font-size="14.00">b</text>
<text text-anchor="middle" x="41.5" y="-445.8" font-family="Sans-Serif" font-size="14.00">(2, 1)</text>
</g>
<!-- 137164688862240 -->
<g id="node8" class="node">
<title>137164688862240</title>
<polygon fill="lightgray" stroke="darkslategray" points="118.5,-402 44.5,-402 44.5,-366 118.5,-366 118.5,-402"/>
<text text-anchor="middle" x="81.5" y="-380.3" font-family="Courier Bold" font-size="14.00">reshape</text>
</g>
<!-- 137164688862816&#45;&gt;137164688862240 -->
<g id="edge6" class="edge">
<title>137164688862816&#45;&gt;137164688862240</title>
<path fill="none" stroke="#666666" stroke-width="1.2" d="M51.8,-437.72C56.7,-429.03 62.61,-418.52 67.87,-409.19"/>
<polygon fill="#666666" stroke="#666666" stroke-width="1.2" points="70.43,-410.35 71.92,-402 65.55,-407.6 70.43,-410.35"/>
</g>
<!-- 137164688862624 -->
<g id="node5" class="node">
<title>137164688862624</title>
<polygon fill="lightgray" stroke="darkslategray" points="83,-548 0,-548 0,-512 83,-512 83,-548"/>
<text text-anchor="middle" x="41.5" y="-526.3" font-family="Courier Bold" font-size="14.00">constant</text>
</g>
<!-- 137164688862624&#45;&gt;137164688862816 -->
<g id="edge3" class="edge">
<title>137164688862624&#45;&gt;137164688862816</title>
<path fill="none" stroke="#666666" stroke-width="1.2" d="M41.5,-511.81C41.5,-503.52 41.5,-493.39 41.5,-484.16"/>
<polygon fill="#666666" stroke="#666666" stroke-width="1.2" points="44.3,-484.02 41.5,-476.02 38.7,-484.02 44.3,-484.02"/>
</g>
<!-- 137164688862672 -->
<g id="node6" class="node">
<title>137164688862672</title>
<polygon fill="moccasin" stroke="orange" points="68.5,-622 14.5,-622 14.5,-584 68.5,-584 68.5,-622"/>
<text text-anchor="middle" x="41.5" y="-606.8" font-family="Sans-Serif" font-size="14.00">var_2</text>
<text text-anchor="middle" x="41.5" y="-591.8" font-family="Sans-Serif" font-size="14.00">1</text>
</g>
<!-- 137164688862672&#45;&gt;137164688862624 -->
<g id="edge4" class="edge">
<title>137164688862672&#45;&gt;137164688862624</title>
<path fill="none" stroke="#666666" stroke-width="1.2" d="M41.5,-583.72C41.5,-575.29 41.5,-565.15 41.5,-556.02"/>
<polygon fill="#666666" stroke="#666666" stroke-width="1.2" points="44.3,-556 41.5,-548 38.7,-556 44.3,-556"/>
</g>
<!-- 137164688862480 -->
<g id="node7" class="node">
<title>137164688862480</title>
<polygon fill="aliceblue" stroke="skyblue" points="118,-330 45,-330 45,-292 118,-292 118,-330"/>
<text text-anchor="middle" x="81.5" y="-314.8" font-family="Sans-Serif" font-size="14.00">tensor_3</text>
<text text-anchor="middle" x="81.5" y="-299.8" font-family="Sans-Serif" font-size="14.00">(1, 2, 1)</text>
</g>
<!-- 137164688861856 -->
<g id="node11" class="node">
<title>137164688861856</title>
<polygon fill="lightgray" stroke="darkslategray" points="199.5,-256 133.5,-256 133.5,-220 199.5,-220 199.5,-256"/>
<text text-anchor="middle" x="166.5" y="-234.3" font-family="Courier Bold" font-size="14.00">expand</text>
</g>
<!-- 137164688862480&#45;&gt;137164688861856 -->
<g id="edge9" class="edge">
<title>137164688862480&#45;&gt;137164688861856</title>
<path fill="none" stroke="#666666" stroke-width="1.2" d="M103.39,-291.72C114.51,-282.42 128.12,-271.06 139.85,-261.26"/>
<polygon fill="#666666" stroke="#666666" stroke-width="1.2" points="141.8,-263.28 146.14,-256 138.21,-258.98 141.8,-263.28"/>
</g>
<!-- 137164688862240&#45;&gt;137164688862480 -->
<g id="edge5" class="edge">
<title>137164688862240&#45;&gt;137164688862480</title>
<path fill="none" stroke="#666666" stroke-width="1.2" d="M81.5,-365.81C81.5,-357.52 81.5,-347.39 81.5,-338.16"/>
<polygon fill="#666666" stroke="#666666" stroke-width="1.2" points="84.3,-338.02 81.5,-330.02 78.7,-338.02 84.3,-338.02"/>
</g>
<!-- 137164688862288 -->
<g id="node9" class="node">
<title>137164688862288</title>
<polygon fill="honeydew" stroke="darkseagreen" points="158.5,-476 86.5,-476 86.5,-438 158.5,-438 158.5,-476"/>
<text text-anchor="middle" x="122.5" y="-460.8" font-family="Sans-Serif" font-size="14.00">vector_1</text>
<text text-anchor="middle" x="122.5" y="-445.8" font-family="Sans-Serif" font-size="14.00">[1, 2, 1]</text>
</g>
<!-- 137164688862288&#45;&gt;137164688862240 -->
<g id="edge7" class="edge">
<title>137164688862288&#45;&gt;137164688862240</title>
<path fill="none" stroke="#666666" stroke-width="1.2" d="M111.94,-437.72C106.92,-429.03 100.86,-418.52 95.47,-409.19"/>
<polygon fill="#666666" stroke="#666666" stroke-width="1.2" points="97.74,-407.53 91.32,-402 92.89,-410.33 97.74,-407.53"/>
</g>
<!-- 137164688862144 -->
<g id="node10" class="node">
<title>137164688862144</title>
<polygon fill="aliceblue" stroke="skyblue" points="206,-184 133,-184 133,-146 206,-146 206,-184"/>
<text text-anchor="middle" x="169.5" y="-168.8" font-family="Sans-Serif" font-size="14.00">tensor_4</text>
<text text-anchor="middle" x="169.5" y="-153.8" font-family="Sans-Serif" font-size="14.00">(4, 2, 3)</text>
</g>
<!-- 137164688862144&#45;&gt;137164688861760 -->
<g id="edge12" class="edge">
<title>137164688862144&#45;&gt;137164688861760</title>
<path fill="none" stroke="#666666" stroke-width="1.2" d="M180.57,-145.72C185.89,-136.94 192.32,-126.31 198.02,-116.91"/>
<polygon fill="#666666" stroke="#666666" stroke-width="1.2" points="200.45,-118.3 202.2,-110 195.66,-115.4 200.45,-118.3"/>
</g>
<!-- 137164688861856&#45;&gt;137164688862144 -->
<g id="edge8" class="edge">
<title>137164688861856&#45;&gt;137164688862144</title>
<path fill="none" stroke="#666666" stroke-width="1.2" d="M167.23,-219.81C167.58,-211.52 168,-201.39 168.39,-192.16"/>
<polygon fill="#666666" stroke="#666666" stroke-width="1.2" points="171.2,-192.13 168.74,-184.02 165.6,-191.89 171.2,-192.13"/>
</g>
<!-- 137164688861904 -->
<g id="node12" class="node">
<title>137164688861904</title>
<polygon fill="honeydew" stroke="darkseagreen" points="208.5,-330 136.5,-330 136.5,-292 208.5,-292 208.5,-330"/>
<text text-anchor="middle" x="172.5" y="-314.8" font-family="Sans-Serif" font-size="14.00">vector_2</text>
<text text-anchor="middle" x="172.5" y="-299.8" font-family="Sans-Serif" font-size="14.00">(4, 2, 3)</text>
</g>
<!-- 137164688861904&#45;&gt;137164688861856 -->
<g id="edge10" class="edge">
<title>137164688861904&#45;&gt;137164688861856</title>
<path fill="none" stroke="#666666" stroke-width="1.2" d="M170.95,-291.72C170.24,-283.29 169.39,-273.15 168.61,-264.02"/>
<polygon fill="#666666" stroke="#666666" stroke-width="1.2" points="171.4,-263.74 167.94,-256 165.82,-264.21 171.4,-263.74"/>
</g>
<!-- 137164688861616 -->
<g id="node14" class="node">
<title>137164688861616</title>
<polygon fill="aliceblue" stroke="skyblue" points="249,-38 176,-38 176,0 249,0 249,-38"/>
<text text-anchor="middle" x="212.5" y="-22.8" font-family="Sans-Serif" font-size="14.00">tensor_5</text>
<text text-anchor="middle" x="212.5" y="-7.8" font-family="Sans-Serif" font-size="14.00">(4, 2, 3)</text>
</g>
<!-- 137164688861760&#45;&gt;137164688861616 -->
<g id="edge13" class="edge">
<title>137164688861760&#45;&gt;137164688861616</title>
<path fill="none" stroke="#666666" stroke-width="1.2" d="M212.5,-73.81C212.5,-65.52 212.5,-55.39 212.5,-46.16"/>
<polygon fill="#666666" stroke="#666666" stroke-width="1.2" points="215.3,-46.02 212.5,-38.02 209.7,-46.02 215.3,-46.02"/>
</g>
</g>
</svg>
