<?xml version="1.0" encoding="UTF-8" standalone="no"?>
<!DOCTYPE svg PUBLIC "-//W3C//DTD SVG 1.1//EN"
 "http://www.w3.org/Graphics/SVG/1.1/DTD/svg11.dtd">
<!-- Generated by graphviz version 2.43.0 (0)
 -->
<!-- Title: %3 Pages: 1 -->
<svg width="338pt" height="338pt"
 viewBox="0.00 0.00 338.00 338.00" xmlns="http://www.w3.org/2000/svg" xmlns:xlink="http://www.w3.org/1999/xlink">
<g id="graph0" class="graph" transform="scale(1 1) rotate(0) translate(4 334)">
<title>%3</title>
<polygon fill="white" stroke="transparent" points="-4,4 -4,-334 334,-334 334,4 -4,4"/>
<!-- 127589636296416 -->
<g id="node1" class="node">
<title>127589636296416</title>
<polygon fill="aliceblue" stroke="skyblue" points="319.5,-184 257.5,-184 257.5,-146 319.5,-146 319.5,-184"/>
<text text-anchor="middle" x="288.5" y="-168.8" font-family="Sans-Serif" font-size="14.00">t1</text>
<text text-anchor="middle" x="288.5" y="-153.8" font-family="Sans-Serif" font-size="14.00">(3, 4, 5)</text>
</g>
<!-- 127587660993616 -->
<g id="node11" class="node">
<title>127587660993616</title>
<polygon fill="lightgray" stroke="darkslategray" points="207.5,-110 141.5,-110 141.5,-74 207.5,-74 207.5,-110"/>
<text text-anchor="middle" x="174.5" y="-88.3" font-family="Courier Bold" font-size="14.00">concat</text>
</g>
<!-- 127589636296416&#45;&gt;127587660993616 -->
<g id="edge8" class="edge">
<title>127589636296416&#45;&gt;127587660993616</title>
<path fill="none" stroke="#666666" stroke-width="1.2" d="M259.44,-145.9C244.11,-136.35 225.19,-124.57 209.11,-114.55"/>
<polygon fill="#666666" stroke="#666666" stroke-width="1.2" points="210.21,-111.94 201.94,-110.09 207.25,-116.7 210.21,-111.94"/>
</g>
<!-- 127587660992560 -->
<g id="node2" class="node">
<title>127587660992560</title>
<polygon fill="lightgray" stroke="darkslategray" points="330,-256 247,-256 247,-220 330,-220 330,-256"/>
<text text-anchor="middle" x="288.5" y="-234.3" font-family="Courier Bold" font-size="14.00">constant</text>
</g>
<!-- 127587660992560&#45;&gt;127589636296416 -->
<g id="edge1" class="edge">
<title>127587660992560&#45;&gt;127589636296416</title>
<path fill="none" stroke="#666666" stroke-width="1.2" d="M288.5,-219.81C288.5,-211.52 288.5,-201.39 288.5,-192.16"/>
<polygon fill="#666666" stroke="#666666" stroke-width="1.2" points="291.3,-192.02 288.5,-184.02 285.7,-192.02 291.3,-192.02"/>
</g>
<!-- 127587662470000 -->
<g id="node3" class="node">
<title>127587662470000</title>
<polygon fill="moccasin" stroke="orange" points="315.5,-330 261.5,-330 261.5,-292 315.5,-292 315.5,-330"/>
<text text-anchor="middle" x="288.5" y="-314.8" font-family="Sans-Serif" font-size="14.00">var_1</text>
<text text-anchor="middle" x="288.5" y="-299.8" font-family="Sans-Serif" font-size="14.00">1</text>
</g>
<!-- 127587662470000&#45;&gt;127587660992560 -->
<g id="edge2" class="edge">
<title>127587662470000&#45;&gt;127587660992560</title>
<path fill="none" stroke="#666666" stroke-width="1.2" d="M288.5,-291.72C288.5,-283.29 288.5,-273.15 288.5,-264.02"/>
<polygon fill="#666666" stroke="#666666" stroke-width="1.2" points="291.3,-264 288.5,-256 285.7,-264 291.3,-264"/>
</g>
<!-- 127587662471056 -->
<g id="node4" class="node">
<title>127587662471056</title>
<polygon fill="aliceblue" stroke="skyblue" points="82.5,-184 20.5,-184 20.5,-146 82.5,-146 82.5,-184"/>
<text text-anchor="middle" x="51.5" y="-168.8" font-family="Sans-Serif" font-size="14.00">t2</text>
<text text-anchor="middle" x="51.5" y="-153.8" font-family="Sans-Serif" font-size="14.00">(3, 4, 5)</text>
</g>
<!-- 127587662471056&#45;&gt;127587660993616 -->
<g id="edge9" class="edge">
<title>127587662471056&#45;&gt;127587660993616</title>
<path fill="none" stroke="#666666" stroke-width="1.2" d="M82.54,-146.08C99.23,-136.45 119.92,-124.51 137.45,-114.39"/>
<polygon fill="#666666" stroke="#666666" stroke-width="1.2" points="139.22,-116.6 144.74,-110.18 136.42,-111.75 139.22,-116.6"/>
</g>
<!-- 127587660992704 -->
<g id="node5" class="node">
<title>127587660992704</title>
<polygon fill="lightgray" stroke="darkslategray" points="83,-256 0,-256 0,-220 83,-220 83,-256"/>
<text text-anchor="middle" x="41.5" y="-234.3" font-family="Courier Bold" font-size="14.00">constant</text>
</g>
<!-- 127587660992704&#45;&gt;127587662471056 -->
<g id="edge3" class="edge">
<title>127587660992704&#45;&gt;127587662471056</title>
<path fill="none" stroke="#666666" stroke-width="1.2" d="M43.92,-219.81C45.09,-211.52 46.52,-201.39 47.82,-192.16"/>
<polygon fill="#666666" stroke="#666666" stroke-width="1.2" points="50.62,-192.33 48.96,-184.02 45.07,-191.55 50.62,-192.33"/>
</g>
<!-- 127587660992848 -->
<g id="node6" class="node">
<title>127587660992848</title>
<polygon fill="moccasin" stroke="orange" points="68.5,-330 14.5,-330 14.5,-292 68.5,-292 68.5,-330"/>
<text text-anchor="middle" x="41.5" y="-314.8" font-family="Sans-Serif" font-size="14.00">var_2</text>
<text text-anchor="middle" x="41.5" y="-299.8" font-family="Sans-Serif" font-size="14.00">1</text>
</g>
<!-- 127587660992848&#45;&gt;127587660992704 -->
<g id="edge4" class="edge">
<title>127587660992848&#45;&gt;127587660992704</title>
<path fill="none" stroke="#666666" stroke-width="1.2" d="M41.5,-291.72C41.5,-283.29 41.5,-273.15 41.5,-264.02"/>
<polygon fill="#666666" stroke="#666666" stroke-width="1.2" points="44.3,-264 41.5,-256 38.7,-264 44.3,-264"/>
</g>
<!-- 127587660992368 -->
<g id="node7" class="node">
<title>127587660992368</title>
<polygon fill="aliceblue" stroke="skyblue" points="167.5,-184 105.5,-184 105.5,-146 167.5,-146 167.5,-184"/>
<text text-anchor="middle" x="136.5" y="-168.8" font-family="Sans-Serif" font-size="14.00">t3</text>
<text text-anchor="middle" x="136.5" y="-153.8" font-family="Sans-Serif" font-size="14.00">(3, 4, 5)</text>
</g>
<!-- 127587660992368&#45;&gt;127587660993616 -->
<g id="edge10" class="edge">
<title>127587660992368&#45;&gt;127587660993616</title>
<path fill="none" stroke="#666666" stroke-width="1.2" d="M146.29,-145.72C150.94,-137.03 156.56,-126.52 161.56,-117.19"/>
<polygon fill="#666666" stroke="#666666" stroke-width="1.2" points="164.09,-118.38 165.4,-110 159.16,-115.74 164.09,-118.38"/>
</g>
<!-- 127587660992992 -->
<g id="node8" class="node">
<title>127587660992992</title>
<polygon fill="lightgray" stroke="darkslategray" points="184,-256 101,-256 101,-220 184,-220 184,-256"/>
<text text-anchor="middle" x="142.5" y="-234.3" font-family="Courier Bold" font-size="14.00">constant</text>
</g>
<!-- 127587660992992&#45;&gt;127587660992368 -->
<g id="edge5" class="edge">
<title>127587660992992&#45;&gt;127587660992368</title>
<path fill="none" stroke="#666666" stroke-width="1.2" d="M141.05,-219.81C140.35,-211.52 139.49,-201.39 138.71,-192.16"/>
<polygon fill="#666666" stroke="#666666" stroke-width="1.2" points="141.49,-191.76 138.02,-184.02 135.91,-192.23 141.49,-191.76"/>
</g>
<!-- 127587660993232 -->
<g id="node9" class="node">
<title>127587660993232</title>
<polygon fill="moccasin" stroke="orange" points="169.5,-330 115.5,-330 115.5,-292 169.5,-292 169.5,-330"/>
<text text-anchor="middle" x="142.5" y="-314.8" font-family="Sans-Serif" font-size="14.00">var_3</text>
<text text-anchor="middle" x="142.5" y="-299.8" font-family="Sans-Serif" font-size="14.00">1</text>
</g>
<!-- 127587660993232&#45;&gt;127587660992992 -->
<g id="edge6" class="edge">
<title>127587660993232&#45;&gt;127587660992992</title>
<path fill="none" stroke="#666666" stroke-width="1.2" d="M142.5,-291.72C142.5,-283.29 142.5,-273.15 142.5,-264.02"/>
<polygon fill="#666666" stroke="#666666" stroke-width="1.2" points="145.3,-264 142.5,-256 139.7,-264 145.3,-264"/>
</g>
<!-- 127587660993184 -->
<g id="node10" class="node">
<title>127587660993184</title>
<polygon fill="aliceblue" stroke="skyblue" points="209,-38 140,-38 140,0 209,0 209,-38"/>
<text text-anchor="middle" x="174.5" y="-22.8" font-family="Sans-Serif" font-size="14.00">t</text>
<text text-anchor="middle" x="174.5" y="-7.8" font-family="Sans-Serif" font-size="14.00">(3, 12, 5)</text>
</g>
<!-- 127587660993616&#45;&gt;127587660993184 -->
<g id="edge7" class="edge">
<title>127587660993616&#45;&gt;127587660993184</title>
<path fill="none" stroke="#666666" stroke-width="1.2" d="M174.5,-73.81C174.5,-65.52 174.5,-55.39 174.5,-46.16"/>
<polygon fill="#666666" stroke="#666666" stroke-width="1.2" points="177.3,-46.02 174.5,-38.02 171.7,-46.02 177.3,-46.02"/>
</g>
<!-- 127587660993568 -->
<g id="node12" class="node">
<title>127587660993568</title>
<polygon fill="moccasin" stroke="orange" points="239.5,-184 185.5,-184 185.5,-146 239.5,-146 239.5,-184"/>
<text text-anchor="middle" x="212.5" y="-168.8" font-family="Sans-Serif" font-size="14.00">var_4</text>
<text text-anchor="middle" x="212.5" y="-153.8" font-family="Sans-Serif" font-size="14.00">1</text>
</g>
<!-- 127587660993568&#45;&gt;127587660993616 -->
<g id="edge11" class="edge">
<title>127587660993568&#45;&gt;127587660993616</title>
<path fill="none" stroke="#666666" stroke-width="1.2" d="M202.71,-145.72C198.06,-137.03 192.44,-126.52 187.44,-117.19"/>
<polygon fill="#666666" stroke="#666666" stroke-width="1.2" points="189.84,-115.74 183.6,-110 184.91,-118.38 189.84,-115.74"/>
</g>
</g>
</svg>
