<?xml version="1.0" encoding="UTF-8" standalone="no"?>
<!DOCTYPE svg PUBLIC "-//W3C//DTD SVG 1.1//EN"
 "http://www.w3.org/Graphics/SVG/1.1/DTD/svg11.dtd">
<!-- Generated by graphviz version 2.43.0 (0)
 -->
<!-- Title: %3 Pages: 1 -->
<svg width="315pt" height="630pt"
 viewBox="0.00 0.00 315.00 630.00" xmlns="http://www.w3.org/2000/svg" xmlns:xlink="http://www.w3.org/1999/xlink">
<g id="graph0" class="graph" transform="scale(1 1) rotate(0) translate(4 626)">
<title>%3</title>
<polygon fill="white" stroke="transparent" points="-4,4 -4,-626 311,-626 311,4 -4,4"/>
<!-- 128096220888320 -->
<g id="node1" class="node">
<title>128096220888320</title>
<polygon fill="aliceblue" stroke="skyblue" points="296.5,-184 234.5,-184 234.5,-146 296.5,-146 296.5,-184"/>
<text text-anchor="middle" x="265.5" y="-168.8" font-family="Sans-Serif" font-size="14.00">a</text>
<text text-anchor="middle" x="265.5" y="-153.8" font-family="Sans-Serif" font-size="14.00">(4, 2, 3)</text>
</g>
<!-- 128096220883472 -->
<g id="node13" class="node">
<title>128096220883472</title>
<polygon fill="lightgray" stroke="darkslategray" points="239.5,-110 185.5,-110 185.5,-74 239.5,-74 239.5,-110"/>
<text text-anchor="middle" x="212.5" y="-88.3" font-family="Courier Bold" font-size="14.00">add</text>
</g>
<!-- 128096220888320&#45;&gt;128096220883472 -->
<g id="edge11" class="edge">
<title>128096220888320&#45;&gt;128096220883472</title>
<path fill="none" stroke="#666666" stroke-width="1.2" d="M251.85,-145.72C245.24,-136.85 237.21,-126.11 230.14,-116.63"/>
<polygon fill="#666666" stroke="#666666" stroke-width="1.2" points="232.22,-114.74 225.19,-110 227.73,-118.09 232.22,-114.74"/>
</g>
<!-- 128096220884576 -->
<g id="node2" class="node">
<title>128096220884576</title>
<polygon fill="lightgray" stroke="darkslategray" points="307,-256 224,-256 224,-220 307,-220 307,-256"/>
<text text-anchor="middle" x="265.5" y="-234.3" font-family="Courier Bold" font-size="14.00">constant</text>
</g>
<!-- 128096220884576&#45;&gt;128096220888320 -->
<g id="edge1" class="edge">
<title>128096220884576&#45;&gt;128096220888320</title>
<path fill="none" stroke="#666666" stroke-width="1.2" d="M265.5,-219.81C265.5,-211.52 265.5,-201.39 265.5,-192.16"/>
<polygon fill="#666666" stroke="#666666" stroke-width="1.2" points="268.3,-192.02 265.5,-184.02 262.7,-192.02 268.3,-192.02"/>
</g>
<!-- 128096220884528 -->
<g id="node3" class="node">
<title>128096220884528</title>
<polygon fill="moccasin" stroke="orange" points="292.5,-330 238.5,-330 238.5,-292 292.5,-292 292.5,-330"/>
<text text-anchor="middle" x="265.5" y="-314.8" font-family="Sans-Serif" font-size="14.00">var_1</text>
<text text-anchor="middle" x="265.5" y="-299.8" font-family="Sans-Serif" font-size="14.00">1</text>
</g>
<!-- 128096220884528&#45;&gt;128096220884576 -->
<g id="edge2" class="edge">
<title>128096220884528&#45;&gt;128096220884576</title>
<path fill="none" stroke="#666666" stroke-width="1.2" d="M265.5,-291.72C265.5,-283.29 265.5,-273.15 265.5,-264.02"/>
<polygon fill="#666666" stroke="#666666" stroke-width="1.2" points="268.3,-264 265.5,-256 262.7,-264 268.3,-264"/>
</g>
<!-- 128096220884624 -->
<g id="node4" class="node">
<title>128096220884624</title>
<polygon fill="aliceblue" stroke="skyblue" points="68.5,-476 14.5,-476 14.5,-438 68.5,-438 68.5,-476"/>
<text text-anchor="middle" x="41.5" y="-460.8" font-family="Sans-Serif" font-size="14.00">b</text>
<text text-anchor="middle" x="41.5" y="-445.8" font-family="Sans-Serif" font-size="14.00">(2, 1)</text>
</g>
<!-- 128096220884048 -->
<g id="node8" class="node">
<title>128096220884048</title>
<polygon fill="lightgray" stroke="darkslategray" points="118.5,-402 44.5,-402 44.5,-366 118.5,-366 118.5,-402"/>
<text text-anchor="middle" x="81.5" y="-380.3" font-family="Courier Bold" font-size="14.00">reshape</text>
</g>
<!-- 128096220884624&#45;&gt;128096220884048 -->
<g id="edge6" class="edge">
<title>128096220884624&#45;&gt;128096220884048</title>
<path fill="none" stroke="#666666" stroke-width="1.2" d="M51.8,-437.72C56.7,-429.03 62.61,-418.52 67.87,-409.19"/>
<polygon fill="#666666" stroke="#666666" stroke-width="1.2" points="70.43,-410.35 71.92,-402 65.55,-407.6 70.43,-410.35"/>
</g>
<!-- 128096220884432 -->
<g id="node5" class="node">
<title>128096220884432</title>
<polygon fill="lightgray" stroke="darkslategray" points="83,-548 0,-548 0,-512 83,-512 83,-548"/>
<text text-anchor="middle" x="41.5" y="-526.3" font-family="Courier Bold" font-size="14.00">constant</text>
</g>
<!-- 128096220884432&#45;&gt;128096220884624 -->
<g id="edge3" class="edge">
<title>128096220884432&#45;&gt;128096220884624</title>
<path fill="none" stroke="#666666" stroke-width="1.2" d="M41.5,-511.81C41.5,-503.52 41.5,-493.39 41.5,-484.16"/>
<polygon fill="#666666" stroke="#666666" stroke-width="1.2" points="44.3,-484.02 41.5,-476.02 38.7,-484.02 44.3,-484.02"/>
</g>
<!-- 128096220884480 -->
<g id="node6" class="node">
<title>128096220884480</title>
<polygon fill="moccasin" stroke="orange" points="68.5,-622 14.5,-622 14.5,-584 68.5,-584 68.5,-622"/>
<text text-anchor="middle" x="41.5" y="-606.8" font-family="Sans-Serif" font-size="14.00">var_2</text>
<text text-anchor="middle" x="41.5" y="-591.8" font-family="Sans-Serif" font-size="14.00">1</text>
</g>
<!-- 128096220884480&#45;&gt;128096220884432 -->
<g id="edge4" class="edge">
<title>128096220884480&#45;&gt;128096220884432</title>
<path fill="none" stroke="#666666" stroke-width="1.2" d="M41.5,-583.72C41.5,-575.29 41.5,-565.15 41.5,-556.02"/>
<polygon fill="#666666" stroke="#666666" stroke-width="1.2" points="44.3,-556 41.5,-548 38.7,-556 44.3,-556"/>
</g>
<!-- 128096220884336 -->
<g id="node7" class="node">
<title>128096220884336</title>
<polygon fill="aliceblue" stroke="skyblue" points="118,-330 45,-330 45,-292 118,-292 118,-330"/>
<text text-anchor="middle" x="81.5" y="-314.8" font-family="Sans-Serif" font-size="14.00">tensor_3</text>
<text text-anchor="middle" x="81.5" y="-299.8" font-family="Sans-Serif" font-size="14.00">(1, 2, 1)</text>
</g>
<!-- 128096220883664 -->
<g id="node11" class="node">
<title>128096220883664</title>
<polygon fill="lightgray" stroke="darkslategray" points="193.5,-256 127.5,-256 127.5,-220 193.5,-220 193.5,-256"/>
<text text-anchor="middle" x="160.5" y="-234.3" font-family="Courier Bold" font-size="14.00">expand</text>
</g>
<!-- 128096220884336&#45;&gt;128096220883664 -->
<g id="edge9" class="edge">
<title>128096220884336&#45;&gt;128096220883664</title>
<path fill="none" stroke="#666666" stroke-width="1.2" d="M101.84,-291.72C112.09,-282.51 124.6,-271.27 135.43,-261.53"/>
<polygon fill="#666666" stroke="#666666" stroke-width="1.2" points="137.5,-263.43 141.58,-256 133.76,-259.27 137.5,-263.43"/>
</g>
<!-- 128096220884048&#45;&gt;128096220884336 -->
<g id="edge5" class="edge">
<title>128096220884048&#45;&gt;128096220884336</title>
<path fill="none" stroke="#666666" stroke-width="1.2" d="M81.5,-365.81C81.5,-357.52 81.5,-347.39 81.5,-338.16"/>
<polygon fill="#666666" stroke="#666666" stroke-width="1.2" points="84.3,-338.02 81.5,-330.02 78.7,-338.02 84.3,-338.02"/>
</g>
<!-- 128096220884096 -->
<g id="node9" class="node">
<title>128096220884096</title>
<polygon fill="honeydew" stroke="darkseagreen" points="158.5,-476 86.5,-476 86.5,-438 158.5,-438 158.5,-476"/>
<text text-anchor="middle" x="122.5" y="-460.8" font-family="Sans-Serif" font-size="14.00">vector_1</text>
<text text-anchor="middle" x="122.5" y="-445.8" font-family="Sans-Serif" font-size="14.00">[1, 2, 1]</text>
</g>
<!-- 128096220884096&#45;&gt;128096220884048 -->
<g id="edge7" class="edge">
<title>128096220884096&#45;&gt;128096220884048</title>
<path fill="none" stroke="#666666" stroke-width="1.2" d="M111.94,-437.72C106.92,-429.03 100.86,-418.52 95.47,-409.19"/>
<polygon fill="#666666" stroke="#666666" stroke-width="1.2" points="97.74,-407.53 91.32,-402 92.89,-410.33 97.74,-407.53"/>
</g>
<!-- 128096220883952 -->
<g id="node10" class="node">
<title>128096220883952</title>
<polygon fill="aliceblue" stroke="skyblue" points="216,-184 105,-184 105,-146 216,-146 216,-184"/>
<text text-anchor="middle" x="160.5" y="-168.8" font-family="Sans-Serif" font-size="14.00">b.broadcasted</text>
<text text-anchor="middle" x="160.5" y="-153.8" font-family="Sans-Serif" font-size="14.00">(4, 2, 3)</text>
</g>
<!-- 128096220883952&#45;&gt;128096220883472 -->
<g id="edge12" class="edge">
<title>128096220883952&#45;&gt;128096220883472</title>
<path fill="none" stroke="#666666" stroke-width="1.2" d="M173.89,-145.72C180.38,-136.85 188.25,-126.11 195.19,-116.63"/>
<polygon fill="#666666" stroke="#666666" stroke-width="1.2" points="197.58,-118.11 200.05,-110 193.06,-114.8 197.58,-118.11"/>
</g>
<!-- 128096220883664&#45;&gt;128096220883952 -->
<g id="edge8" class="edge">
<title>128096220883664&#45;&gt;128096220883952</title>
<path fill="none" stroke="#666666" stroke-width="1.2" d="M160.5,-219.81C160.5,-211.52 160.5,-201.39 160.5,-192.16"/>
<polygon fill="#666666" stroke="#666666" stroke-width="1.2" points="163.3,-192.02 160.5,-184.02 157.7,-192.02 163.3,-192.02"/>
</g>
<!-- 128096220883712 -->
<g id="node12" class="node">
<title>128096220883712</title>
<polygon fill="honeydew" stroke="darkseagreen" points="208.5,-330 136.5,-330 136.5,-292 208.5,-292 208.5,-330"/>
<text text-anchor="middle" x="172.5" y="-314.8" font-family="Sans-Serif" font-size="14.00">vector_2</text>
<text text-anchor="middle" x="172.5" y="-299.8" font-family="Sans-Serif" font-size="14.00">(4, 2, 3)</text>
</g>
<!-- 128096220883712&#45;&gt;128096220883664 -->
<g id="edge10" class="edge">
<title>128096220883712&#45;&gt;128096220883664</title>
<path fill="none" stroke="#666666" stroke-width="1.2" d="M169.41,-291.72C167.98,-283.29 166.27,-273.15 164.73,-264.02"/>
<polygon fill="#666666" stroke="#666666" stroke-width="1.2" points="167.47,-263.42 163.37,-256 161.95,-264.36 167.47,-263.42"/>
</g>
<!-- 128096220883376 -->
<g id="node14" class="node">
<title>128096220883376</title>
<polygon fill="aliceblue" stroke="skyblue" points="249,-38 176,-38 176,0 249,0 249,-38"/>
<text text-anchor="middle" x="212.5" y="-22.8" font-family="Sans-Serif" font-size="14.00">tensor_5</text>
<text text-anchor="middle" x="212.5" y="-7.8" font-family="Sans-Serif" font-size="14.00">(4, 2, 3)</text>
</g>
<!-- 128096220883472&#45;&gt;128096220883376 -->
<g id="edge13" class="edge">
<title>128096220883472&#45;&gt;128096220883376</title>
<path fill="none" stroke="#666666" stroke-width="1.2" d="M212.5,-73.81C212.5,-65.52 212.5,-55.39 212.5,-46.16"/>
<polygon fill="#666666" stroke="#666666" stroke-width="1.2" points="215.3,-46.02 212.5,-38.02 209.7,-46.02 215.3,-46.02"/>
</g>
</g>
</svg>
