<?xml version="1.0" encoding="UTF-8" standalone="no"?>
<!DOCTYPE svg PUBLIC "-//W3C//DTD SVG 1.1//EN"
 "http://www.w3.org/Graphics/SVG/1.1/DTD/svg11.dtd">
<!-- Generated by graphviz version 2.43.0 (0)
 -->
<!-- Title: %3 Pages: 1 -->
<svg width="257pt" height="484pt"
 viewBox="0.00 0.00 257.00 484.00" xmlns="http://www.w3.org/2000/svg" xmlns:xlink="http://www.w3.org/1999/xlink">
<g id="graph0" class="graph" transform="scale(1 1) rotate(0) translate(4 480)">
<title>%3</title>
<polygon fill="white" stroke="transparent" points="-4,4 -4,-480 253,-480 253,4 -4,4"/>
<!-- 139089324388896 -->
<g id="node1" class="node">
<title>139089324388896</title>
<polygon fill="aliceblue" stroke="skyblue" points="72.5,-330 10.5,-330 10.5,-292 72.5,-292 72.5,-330"/>
<text text-anchor="middle" x="41.5" y="-314.8" font-family="Sans-Serif" font-size="14.00">a</text>
<text text-anchor="middle" x="41.5" y="-299.8" font-family="Sans-Serif" font-size="14.00">(4, 2, 3)</text>
</g>
<!-- 139089324378240 -->
<g id="node2" class="node">
<title>139089324378240</title>
<polygon fill="lightgray" stroke="darkslategray" points="83,-402 0,-402 0,-366 83,-366 83,-402"/>
<text text-anchor="middle" x="41.5" y="-380.3" font-family="Courier Bold" font-size="14.00">constant</text>
</g>
<!-- 139089324378240&#45;&gt;139089324388896 -->
<g id="edge1" class="edge">
<title>139089324378240&#45;&gt;139089324388896</title>
<path fill="none" stroke="#666666" stroke-width="1.2" d="M41.5,-365.81C41.5,-357.52 41.5,-347.39 41.5,-338.16"/>
<polygon fill="#666666" stroke="#666666" stroke-width="1.2" points="44.3,-338.02 41.5,-330.02 38.7,-338.02 44.3,-338.02"/>
</g>
<!-- 139089324389088 -->
<g id="node3" class="node">
<title>139089324389088</title>
<polygon fill="moccasin" stroke="orange" points="68.5,-476 14.5,-476 14.5,-438 68.5,-438 68.5,-476"/>
<text text-anchor="middle" x="41.5" y="-460.8" font-family="Sans-Serif" font-size="14.00">var_1</text>
<text text-anchor="middle" x="41.5" y="-445.8" font-family="Sans-Serif" font-size="14.00">1</text>
</g>
<!-- 139089324389088&#45;&gt;139089324378240 -->
<g id="edge2" class="edge">
<title>139089324389088&#45;&gt;139089324378240</title>
<path fill="none" stroke="#666666" stroke-width="1.2" d="M41.5,-437.72C41.5,-429.29 41.5,-419.15 41.5,-410.02"/>
<polygon fill="#666666" stroke="#666666" stroke-width="1.2" points="44.3,-410 41.5,-402 38.7,-410 44.3,-410"/>
</g>
<!-- 139089324621536 -->
<g id="node4" class="node">
<title>139089324621536</title>
<polygon fill="aliceblue" stroke="skyblue" points="234.5,-330 180.5,-330 180.5,-292 234.5,-292 234.5,-330"/>
<text text-anchor="middle" x="207.5" y="-314.8" font-family="Sans-Serif" font-size="14.00">b</text>
<text text-anchor="middle" x="207.5" y="-299.8" font-family="Sans-Serif" font-size="14.00">(2, 1)</text>
</g>
<!-- 139089325015488 -->
<g id="node8" class="node">
<title>139089325015488</title>
<polygon fill="lightgray" stroke="darkslategray" points="203.5,-256 129.5,-256 129.5,-220 203.5,-220 203.5,-256"/>
<text text-anchor="middle" x="166.5" y="-234.3" font-family="Courier Bold" font-size="14.00">reshape</text>
</g>
<!-- 139089324621536&#45;&gt;139089325015488 -->
<g id="edge6" class="edge">
<title>139089324621536&#45;&gt;139089325015488</title>
<path fill="none" stroke="#666666" stroke-width="1.2" d="M196.94,-291.72C191.92,-283.03 185.86,-272.52 180.47,-263.19"/>
<polygon fill="#666666" stroke="#666666" stroke-width="1.2" points="182.74,-261.53 176.32,-256 177.89,-264.33 182.74,-261.53"/>
</g>
<!-- 139089325015104 -->
<g id="node5" class="node">
<title>139089325015104</title>
<polygon fill="lightgray" stroke="darkslategray" points="249,-402 166,-402 166,-366 249,-366 249,-402"/>
<text text-anchor="middle" x="207.5" y="-380.3" font-family="Courier Bold" font-size="14.00">constant</text>
</g>
<!-- 139089325015104&#45;&gt;139089324621536 -->
<g id="edge3" class="edge">
<title>139089325015104&#45;&gt;139089324621536</title>
<path fill="none" stroke="#666666" stroke-width="1.2" d="M207.5,-365.81C207.5,-357.52 207.5,-347.39 207.5,-338.16"/>
<polygon fill="#666666" stroke="#666666" stroke-width="1.2" points="210.3,-338.02 207.5,-330.02 204.7,-338.02 210.3,-338.02"/>
</g>
<!-- 139089324621584 -->
<g id="node6" class="node">
<title>139089324621584</title>
<polygon fill="moccasin" stroke="orange" points="234.5,-476 180.5,-476 180.5,-438 234.5,-438 234.5,-476"/>
<text text-anchor="middle" x="207.5" y="-460.8" font-family="Sans-Serif" font-size="14.00">var_2</text>
<text text-anchor="middle" x="207.5" y="-445.8" font-family="Sans-Serif" font-size="14.00">1</text>
</g>
<!-- 139089324621584&#45;&gt;139089325015104 -->
<g id="edge4" class="edge">
<title>139089324621584&#45;&gt;139089325015104</title>
<path fill="none" stroke="#666666" stroke-width="1.2" d="M207.5,-437.72C207.5,-429.29 207.5,-419.15 207.5,-410.02"/>
<polygon fill="#666666" stroke="#666666" stroke-width="1.2" points="210.3,-410 207.5,-402 204.7,-410 210.3,-410"/>
</g>
<!-- 139089325015200 -->
<g id="node7" class="node">
<title>139089325015200</title>
<polygon fill="aliceblue" stroke="skyblue" points="203,-184 130,-184 130,-146 203,-146 203,-184"/>
<text text-anchor="middle" x="166.5" y="-168.8" font-family="Sans-Serif" font-size="14.00">tensor_3</text>
<text text-anchor="middle" x="166.5" y="-153.8" font-family="Sans-Serif" font-size="14.00">(1, 2, 1)</text>
</g>
<!-- 139089325015872 -->
<g id="node11" class="node">
<title>139089325015872</title>
<polygon fill="lightgray" stroke="darkslategray" points="153.5,-110 87.5,-110 87.5,-74 153.5,-74 153.5,-110"/>
<text text-anchor="middle" x="120.5" y="-88.3" font-family="Courier Bold" font-size="14.00">expand</text>
</g>
<!-- 139089325015200&#45;&gt;139089325015872 -->
<g id="edge9" class="edge">
<title>139089325015200&#45;&gt;139089325015872</title>
<path fill="none" stroke="#666666" stroke-width="1.2" d="M154.65,-145.72C148.97,-136.94 142.08,-126.31 135.99,-116.91"/>
<polygon fill="#666666" stroke="#666666" stroke-width="1.2" points="138.22,-115.19 131.52,-110 133.52,-118.24 138.22,-115.19"/>
</g>
<!-- 139089325015488&#45;&gt;139089325015200 -->
<g id="edge5" class="edge">
<title>139089325015488&#45;&gt;139089325015200</title>
<path fill="none" stroke="#666666" stroke-width="1.2" d="M166.5,-219.81C166.5,-211.52 166.5,-201.39 166.5,-192.16"/>
<polygon fill="#666666" stroke="#666666" stroke-width="1.2" points="169.3,-192.02 166.5,-184.02 163.7,-192.02 169.3,-192.02"/>
</g>
<!-- 139089325015440 -->
<g id="node9" class="node">
<title>139089325015440</title>
<polygon fill="honeydew" stroke="darkseagreen" points="162.5,-330 90.5,-330 90.5,-292 162.5,-292 162.5,-330"/>
<text text-anchor="middle" x="126.5" y="-314.8" font-family="Sans-Serif" font-size="14.00">vector_1</text>
<text text-anchor="middle" x="126.5" y="-299.8" font-family="Sans-Serif" font-size="14.00">[1, 2, 1]</text>
</g>
<!-- 139089325015440&#45;&gt;139089325015488 -->
<g id="edge7" class="edge">
<title>139089325015440&#45;&gt;139089325015488</title>
<path fill="none" stroke="#666666" stroke-width="1.2" d="M136.8,-291.72C141.7,-283.03 147.61,-272.52 152.87,-263.19"/>
<polygon fill="#666666" stroke="#666666" stroke-width="1.2" points="155.43,-264.35 156.92,-256 150.55,-261.6 155.43,-264.35"/>
</g>
<!-- 139089325015584 -->
<g id="node10" class="node">
<title>139089325015584</title>
<polygon fill="aliceblue" stroke="skyblue" points="176,-38 65,-38 65,0 176,0 176,-38"/>
<text text-anchor="middle" x="120.5" y="-22.8" font-family="Sans-Serif" font-size="14.00">b.broadcasted</text>
<text text-anchor="middle" x="120.5" y="-7.8" font-family="Sans-Serif" font-size="14.00">(4, 2, 3)</text>
</g>
<!-- 139089325015872&#45;&gt;139089325015584 -->
<g id="edge8" class="edge">
<title>139089325015872&#45;&gt;139089325015584</title>
<path fill="none" stroke="#666666" stroke-width="1.2" d="M120.5,-73.81C120.5,-65.52 120.5,-55.39 120.5,-46.16"/>
<polygon fill="#666666" stroke="#666666" stroke-width="1.2" points="123.3,-46.02 120.5,-38.02 117.7,-46.02 123.3,-46.02"/>
</g>
<!-- 139089325015824 -->
<g id="node12" class="node">
<title>139089325015824</title>
<polygon fill="honeydew" stroke="darkseagreen" points="111.5,-184 39.5,-184 39.5,-146 111.5,-146 111.5,-184"/>
<text text-anchor="middle" x="75.5" y="-168.8" font-family="Sans-Serif" font-size="14.00">vector_2</text>
<text text-anchor="middle" x="75.5" y="-153.8" font-family="Sans-Serif" font-size="14.00">(4, 2, 3)</text>
</g>
<!-- 139089325015824&#45;&gt;139089325015872 -->
<g id="edge10" class="edge">
<title>139089325015824&#45;&gt;139089325015872</title>
<path fill="none" stroke="#666666" stroke-width="1.2" d="M87.09,-145.72C92.65,-136.94 99.39,-126.31 105.35,-116.91"/>
<polygon fill="#666666" stroke="#666666" stroke-width="1.2" points="107.81,-118.26 109.72,-110 103.08,-115.26 107.81,-118.26"/>
</g>
</g>
</svg>
