<?xml version="1.0" encoding="UTF-8" standalone="no"?>
<!DOCTYPE svg PUBLIC "-//W3C//DTD SVG 1.1//EN"
 "http://www.w3.org/Graphics/SVG/1.1/DTD/svg11.dtd">
<!-- Generated by graphviz version 2.43.0 (0)
 -->
<!-- Title: %3 Pages: 1 -->
<svg width="339pt" height="338pt"
 viewBox="0.00 0.00 338.50 338.00" xmlns="http://www.w3.org/2000/svg" xmlns:xlink="http://www.w3.org/1999/xlink">
<g id="graph0" class="graph" transform="scale(1 1) rotate(0) translate(4 334)">
<title>%3</title>
<polygon fill="white" stroke="transparent" points="-4,4 -4,-334 334.5,-334 334.5,4 -4,4"/>
<!-- 127712357453152 -->
<g id="node1" class="node">
<title>127712357453152</title>
<polygon fill="aliceblue" stroke="skyblue" points="144,-184 90,-184 90,-146 144,-146 144,-184"/>
<text text-anchor="middle" x="117" y="-168.8" font-family="Sans-Serif" font-size="14.00">t1</text>
<text text-anchor="middle" x="117" y="-153.8" font-family="Sans-Serif" font-size="14.00">(3, 4)</text>
</g>
<!-- 127710097780224 -->
<g id="node5" class="node">
<title>127710097780224</title>
<polygon fill="lightgray" stroke="darkslategray" points="114,-110 40,-110 40,-74 114,-74 114,-110"/>
<text text-anchor="middle" x="77" y="-88.3" font-family="Courier Bold" font-size="14.00">reshape</text>
</g>
<!-- 127712357453152&#45;&gt;127710097780224 -->
<g id="edge4" class="edge">
<title>127712357453152&#45;&gt;127710097780224</title>
<path fill="none" stroke="#666666" stroke-width="1.2" d="M106.7,-145.72C101.8,-137.03 95.89,-126.52 90.63,-117.19"/>
<polygon fill="#666666" stroke="#666666" stroke-width="1.2" points="92.95,-115.6 86.58,-110 88.07,-118.35 92.95,-115.6"/>
</g>
<!-- 127710098912688 -->
<g id="node2" class="node">
<title>127710098912688</title>
<polygon fill="lightgray" stroke="darkslategray" points="158.5,-256 75.5,-256 75.5,-220 158.5,-220 158.5,-256"/>
<text text-anchor="middle" x="117" y="-234.3" font-family="Courier Bold" font-size="14.00">constant</text>
</g>
<!-- 127710098912688&#45;&gt;127712357453152 -->
<g id="edge1" class="edge">
<title>127710098912688&#45;&gt;127712357453152</title>
<path fill="none" stroke="#666666" stroke-width="1.2" d="M117,-219.81C117,-211.52 117,-201.39 117,-192.16"/>
<polygon fill="#666666" stroke="#666666" stroke-width="1.2" points="119.8,-192.02 117,-184.02 114.2,-192.02 119.8,-192.02"/>
</g>
<!-- 127710099610912 -->
<g id="node3" class="node">
<title>127710099610912</title>
<polygon fill="moccasin" stroke="orange" points="144,-330 90,-330 90,-292 144,-292 144,-330"/>
<text text-anchor="middle" x="117" y="-314.8" font-family="Sans-Serif" font-size="14.00">var_1</text>
<text text-anchor="middle" x="117" y="-299.8" font-family="Sans-Serif" font-size="14.00">1</text>
</g>
<!-- 127710099610912&#45;&gt;127710098912688 -->
<g id="edge2" class="edge">
<title>127710099610912&#45;&gt;127710098912688</title>
<path fill="none" stroke="#666666" stroke-width="1.2" d="M117,-291.72C117,-283.29 117,-273.15 117,-264.02"/>
<polygon fill="#666666" stroke="#666666" stroke-width="1.2" points="119.8,-264 117,-256 114.2,-264 119.8,-264"/>
</g>
<!-- 127710097780080 -->
<g id="node4" class="node">
<title>127710097780080</title>
<polygon fill="aliceblue" stroke="skyblue" points="113.5,-38 40.5,-38 40.5,0 113.5,0 113.5,-38"/>
<text text-anchor="middle" x="77" y="-22.8" font-family="Sans-Serif" font-size="14.00">tensor_2</text>
<text text-anchor="middle" x="77" y="-7.8" font-family="Sans-Serif" font-size="14.00">(3, 2, 2)</text>
</g>
<!-- 127710097780224&#45;&gt;127710097780080 -->
<g id="edge3" class="edge">
<title>127710097780224&#45;&gt;127710097780080</title>
<path fill="none" stroke="#666666" stroke-width="1.2" d="M77,-73.81C77,-65.52 77,-55.39 77,-46.16"/>
<polygon fill="#666666" stroke="#666666" stroke-width="1.2" points="79.8,-46.02 77,-38.02 74.2,-46.02 79.8,-46.02"/>
</g>
<!-- 127710097780176 -->
<g id="node6" class="node">
<title>127710097780176</title>
<polygon fill="honeydew" stroke="darkseagreen" points="72,-184 0,-184 0,-146 72,-146 72,-184"/>
<text text-anchor="middle" x="36" y="-168.8" font-family="Sans-Serif" font-size="14.00">vector_1</text>
<text text-anchor="middle" x="36" y="-153.8" font-family="Sans-Serif" font-size="14.00">(3, 2, 2)</text>
</g>
<!-- 127710097780176&#45;&gt;127710097780224 -->
<g id="edge5" class="edge">
<title>127710097780176&#45;&gt;127710097780224</title>
<path fill="none" stroke="#666666" stroke-width="1.2" d="M46.56,-145.72C51.58,-137.03 57.64,-126.52 63.03,-117.19"/>
<polygon fill="#666666" stroke="#666666" stroke-width="1.2" points="65.61,-118.33 67.18,-110 60.76,-115.53 65.61,-118.33"/>
</g>
<!-- 127710097780320 -->
<g id="node7" class="node">
<title>127710097780320</title>
<polygon fill="aliceblue" stroke="skyblue" points="325.5,-184 252.5,-184 252.5,-146 325.5,-146 325.5,-184"/>
<text text-anchor="middle" x="289" y="-168.8" font-family="Sans-Serif" font-size="14.00">tensor_3</text>
<text text-anchor="middle" x="289" y="-153.8" font-family="Sans-Serif" font-size="14.00">(20,)</text>
</g>
<!-- 127710097780464 -->
<g id="node10" class="node">
<title>127710097780464</title>
<polygon fill="lightgray" stroke="darkslategray" points="326,-110 252,-110 252,-74 326,-74 326,-110"/>
<text text-anchor="middle" x="289" y="-88.3" font-family="Courier Bold" font-size="14.00">reshape</text>
</g>
<!-- 127710097780320&#45;&gt;127710097780464 -->
<g id="edge9" class="edge">
<title>127710097780320&#45;&gt;127710097780464</title>
<path fill="none" stroke="#666666" stroke-width="1.2" d="M283.01,-145.72C282.2,-137.29 282.04,-127.15 282.52,-118.02"/>
<polygon fill="#666666" stroke="#666666" stroke-width="1.2" points="285.31,-118.2 283.14,-110 279.73,-117.76 285.31,-118.2"/>
</g>
<!-- 127710097780560 -->
<g id="node8" class="node">
<title>127710097780560</title>
<polygon fill="lightgray" stroke="darkslategray" points="330.5,-256 247.5,-256 247.5,-220 330.5,-220 330.5,-256"/>
<text text-anchor="middle" x="289" y="-234.3" font-family="Courier Bold" font-size="14.00">constant</text>
</g>
<!-- 127710097780560&#45;&gt;127710097780320 -->
<g id="edge6" class="edge">
<title>127710097780560&#45;&gt;127710097780320</title>
<path fill="none" stroke="#666666" stroke-width="1.2" d="M289,-219.81C289,-211.52 289,-201.39 289,-192.16"/>
<polygon fill="#666666" stroke="#666666" stroke-width="1.2" points="291.8,-192.02 289,-184.02 286.2,-192.02 291.8,-192.02"/>
</g>
<!-- 127710097780512 -->
<g id="node9" class="node">
<title>127710097780512</title>
<polygon fill="moccasin" stroke="orange" points="316,-330 262,-330 262,-292 316,-292 316,-330"/>
<text text-anchor="middle" x="289" y="-314.8" font-family="Sans-Serif" font-size="14.00">var_2</text>
<text text-anchor="middle" x="289" y="-299.8" font-family="Sans-Serif" font-size="14.00">1</text>
</g>
<!-- 127710097780512&#45;&gt;127710097780560 -->
<g id="edge8" class="edge">
<title>127710097780512&#45;&gt;127710097780560</title>
<path fill="none" stroke="#666666" stroke-width="1.2" d="M289,-291.72C289,-283.29 289,-273.15 289,-264.02"/>
<polygon fill="#666666" stroke="#666666" stroke-width="1.2" points="291.8,-264 289,-256 286.2,-264 291.8,-264"/>
</g>
<!-- 127710097780464&#45;&gt;127710097780320 -->
<g id="edge7" class="edge">
<title>127710097780464&#45;&gt;127710097780320</title>
<path fill="none" stroke="#666666" stroke-width="1.2" d="M294.86,-110C295.73,-118.25 295.96,-128.35 295.55,-137.57"/>
<polygon fill="#666666" stroke="#666666" stroke-width="1.2" points="292.75,-137.54 294.99,-145.72 298.33,-137.93 292.75,-137.54"/>
</g>
<!-- 127710097780416 -->
<g id="node11" class="node">
<title>127710097780416</title>
<polygon fill="honeydew" stroke="darkseagreen" points="234,-184 162,-184 162,-146 234,-146 234,-184"/>
<text text-anchor="middle" x="198" y="-168.8" font-family="Sans-Serif" font-size="14.00">vector_2</text>
<text text-anchor="middle" x="198" y="-153.8" font-family="Sans-Serif" font-size="14.00">(20,)</text>
</g>
<!-- 127710097780416&#45;&gt;127710097780464 -->
<g id="edge10" class="edge">
<title>127710097780416&#45;&gt;127710097780464</title>
<path fill="none" stroke="#666666" stroke-width="1.2" d="M221.43,-145.72C233.45,-136.34 248.18,-124.85 260.82,-114.99"/>
<polygon fill="#666666" stroke="#666666" stroke-width="1.2" points="262.62,-117.13 267.21,-110 259.18,-112.72 262.62,-117.13"/>
</g>
</g>
</svg>
