<?xml version="1.0" encoding="UTF-8" standalone="no"?>
<!DOCTYPE svg PUBLIC "-//W3C//DTD SVG 1.1//EN"
 "http://www.w3.org/Graphics/SVG/1.1/DTD/svg11.dtd">
<!-- Generated by graphviz version 2.43.0 (0)
 -->
<!-- Title: %3 Pages: 1 -->
<svg width="167pt" height="338pt"
 viewBox="0.00 0.00 166.50 338.00" xmlns="http://www.w3.org/2000/svg" xmlns:xlink="http://www.w3.org/1999/xlink">
<g id="graph0" class="graph" transform="scale(1 1) rotate(0) translate(4 334)">
<title>%3</title>
<polygon fill="white" stroke="transparent" points="-4,4 -4,-334 162.5,-334 162.5,4 -4,4"/>
<!-- 129492947520000 -->
<g id="node1" class="node">
<title>129492947520000</title>
<polygon fill="aliceblue" stroke="skyblue" points="144,-184 90,-184 90,-146 144,-146 144,-184"/>
<text text-anchor="middle" x="117" y="-168.8" font-family="Sans-Serif" font-size="14.00">t1</text>
<text text-anchor="middle" x="117" y="-153.8" font-family="Sans-Serif" font-size="14.00">(3, 4)</text>
</g>
<!-- 129492948007328 -->
<g id="node6" class="node">
<title>129492948007328</title>
<polygon fill="lightgray" stroke="darkslategray" points="121.5,-110 30.5,-110 30.5,-74 121.5,-74 121.5,-110"/>
<text text-anchor="middle" x="76" y="-88.3" font-family="Courier Bold" font-size="14.00">transpose</text>
</g>
<!-- 129492947520000&#45;&gt;129492948007328 -->
<g id="edge4" class="edge">
<title>129492947520000&#45;&gt;129492948007328</title>
<path fill="none" stroke="#666666" stroke-width="1.2" d="M106.44,-145.72C101.42,-137.03 95.36,-126.52 89.97,-117.19"/>
<polygon fill="#666666" stroke="#666666" stroke-width="1.2" points="92.24,-115.53 85.82,-110 87.39,-118.33 92.24,-115.53"/>
</g>
<!-- 129492947528256 -->
<g id="node2" class="node">
<title>129492947528256</title>
<polygon fill="lightgray" stroke="darkslategray" points="158.5,-256 75.5,-256 75.5,-220 158.5,-220 158.5,-256"/>
<text text-anchor="middle" x="117" y="-234.3" font-family="Courier Bold" font-size="14.00">constant</text>
</g>
<!-- 129492947528256&#45;&gt;129492947520000 -->
<g id="edge1" class="edge">
<title>129492947528256&#45;&gt;129492947520000</title>
<path fill="none" stroke="#666666" stroke-width="1.2" d="M117,-219.81C117,-211.52 117,-201.39 117,-192.16"/>
<polygon fill="#666666" stroke="#666666" stroke-width="1.2" points="119.8,-192.02 117,-184.02 114.2,-192.02 119.8,-192.02"/>
</g>
<!-- 129492947528016 -->
<g id="node3" class="node">
<title>129492947528016</title>
<polygon fill="moccasin" stroke="orange" points="144,-330 90,-330 90,-292 144,-292 144,-330"/>
<text text-anchor="middle" x="117" y="-314.8" font-family="Sans-Serif" font-size="14.00">var_1</text>
<text text-anchor="middle" x="117" y="-299.8" font-family="Sans-Serif" font-size="14.00">1</text>
</g>
<!-- 129492947528016&#45;&gt;129492947528256 -->
<g id="edge2" class="edge">
<title>129492947528016&#45;&gt;129492947528256</title>
<path fill="none" stroke="#666666" stroke-width="1.2" d="M117,-291.72C117,-283.29 117,-273.15 117,-264.02"/>
<polygon fill="#666666" stroke="#666666" stroke-width="1.2" points="119.8,-264 117,-256 114.2,-264 119.8,-264"/>
</g>
<!-- 129492948007568 -->
<g id="node4" class="node">
<title>129492948007568</title>
<polygon fill="aliceblue" stroke="skyblue" points="103,-38 49,-38 49,0 103,0 103,-38"/>
<text text-anchor="middle" x="76" y="-22.8" font-family="Sans-Serif" font-size="14.00">t2</text>
<text text-anchor="middle" x="76" y="-7.8" font-family="Sans-Serif" font-size="14.00">(4, 3)</text>
</g>
<!-- 129492948007616 -->
<g id="node5" class="node">
<title>129492948007616</title>
<polygon fill="honeydew" stroke="darkseagreen" points="72,-184 0,-184 0,-146 72,-146 72,-184"/>
<text text-anchor="middle" x="36" y="-168.8" font-family="Sans-Serif" font-size="14.00">vector_1</text>
<text text-anchor="middle" x="36" y="-153.8" font-family="Sans-Serif" font-size="14.00">(1, 0)</text>
</g>
<!-- 129492948007616&#45;&gt;129492948007328 -->
<g id="edge5" class="edge">
<title>129492948007616&#45;&gt;129492948007328</title>
<path fill="none" stroke="#666666" stroke-width="1.2" d="M46.3,-145.72C51.2,-137.03 57.11,-126.52 62.37,-117.19"/>
<polygon fill="#666666" stroke="#666666" stroke-width="1.2" points="64.93,-118.35 66.42,-110 60.05,-115.6 64.93,-118.35"/>
</g>
<!-- 129492948007328&#45;&gt;129492948007568 -->
<g id="edge3" class="edge">
<title>129492948007328&#45;&gt;129492948007568</title>
<path fill="none" stroke="#666666" stroke-width="1.2" d="M76,-73.81C76,-65.52 76,-55.39 76,-46.16"/>
<polygon fill="#666666" stroke="#666666" stroke-width="1.2" points="78.8,-46.02 76,-38.02 73.2,-46.02 78.8,-46.02"/>
</g>
</g>
</svg>
