<?xml version="1.0" encoding="UTF-8" standalone="no"?>
<!DOCTYPE svg PUBLIC "-//W3C//DTD SVG 1.1//EN"
 "http://www.w3.org/Graphics/SVG/1.1/DTD/svg11.dtd">
<!-- Generated by graphviz version 2.43.0 (0)
 -->
<!-- Title: %3 Pages: 1 -->
<svg width="356pt" height="338pt"
 viewBox="0.00 0.00 355.50 338.00" xmlns="http://www.w3.org/2000/svg" xmlns:xlink="http://www.w3.org/1999/xlink">
<g id="graph0" class="graph" transform="scale(1 1) rotate(0) translate(4 334)">
<title>%3</title>
<polygon fill="white" stroke="transparent" points="-4,4 -4,-334 351.5,-334 351.5,4 -4,4"/>
<!-- 124044458592768 -->
<g id="node1" class="node">
<title>124044458592768</title>
<polygon fill="aliceblue" stroke="skyblue" points="144,-184 90,-184 90,-146 144,-146 144,-184"/>
<text text-anchor="middle" x="117" y="-168.8" font-family="Sans-Serif" font-size="14.00">t1</text>
<text text-anchor="middle" x="117" y="-153.8" font-family="Sans-Serif" font-size="14.00">(3, 4)</text>
</g>
<!-- 124042483245904 -->
<g id="node6" class="node">
<title>124042483245904</title>
<polygon fill="lightgray" stroke="darkslategray" points="138.5,-110 47.5,-110 47.5,-74 138.5,-74 138.5,-110"/>
<text text-anchor="middle" x="93" y="-88.3" font-family="Courier Bold" font-size="14.00">transpose</text>
</g>
<!-- 124044458592768&#45;&gt;124042483245904 -->
<g id="edge4" class="edge">
<title>124044458592768&#45;&gt;124042483245904</title>
<path fill="none" stroke="#666666" stroke-width="1.2" d="M110.82,-145.72C107.94,-137.2 104.47,-126.94 101.36,-117.74"/>
<polygon fill="#666666" stroke="#666666" stroke-width="1.2" points="103.96,-116.69 98.75,-110 98.66,-118.48 103.96,-116.69"/>
</g>
<!-- 124042484217168 -->
<g id="node2" class="node">
<title>124042484217168</title>
<polygon fill="lightgray" stroke="darkslategray" points="158.5,-256 75.5,-256 75.5,-220 158.5,-220 158.5,-256"/>
<text text-anchor="middle" x="117" y="-234.3" font-family="Courier Bold" font-size="14.00">constant</text>
</g>
<!-- 124042484217168&#45;&gt;124044458592768 -->
<g id="edge1" class="edge">
<title>124042484217168&#45;&gt;124044458592768</title>
<path fill="none" stroke="#666666" stroke-width="1.2" d="M117,-219.81C117,-211.52 117,-201.39 117,-192.16"/>
<polygon fill="#666666" stroke="#666666" stroke-width="1.2" points="119.8,-192.02 117,-184.02 114.2,-192.02 119.8,-192.02"/>
</g>
<!-- 124042484866432 -->
<g id="node3" class="node">
<title>124042484866432</title>
<polygon fill="moccasin" stroke="orange" points="144,-330 90,-330 90,-292 144,-292 144,-330"/>
<text text-anchor="middle" x="117" y="-314.8" font-family="Sans-Serif" font-size="14.00">var_1</text>
<text text-anchor="middle" x="117" y="-299.8" font-family="Sans-Serif" font-size="14.00">1</text>
</g>
<!-- 124042484866432&#45;&gt;124042484217168 -->
<g id="edge2" class="edge">
<title>124042484866432&#45;&gt;124042484217168</title>
<path fill="none" stroke="#666666" stroke-width="1.2" d="M117,-291.72C117,-283.29 117,-273.15 117,-264.02"/>
<polygon fill="#666666" stroke="#666666" stroke-width="1.2" points="119.8,-264 117,-256 114.2,-264 119.8,-264"/>
</g>
<!-- 124042483246096 -->
<g id="node4" class="node">
<title>124042483246096</title>
<polygon fill="aliceblue" stroke="skyblue" points="129.5,-38 56.5,-38 56.5,0 129.5,0 129.5,-38"/>
<text text-anchor="middle" x="93" y="-22.8" font-family="Sans-Serif" font-size="14.00">tensor_2</text>
<text text-anchor="middle" x="93" y="-7.8" font-family="Sans-Serif" font-size="14.00">(4, 3)</text>
</g>
<!-- 124042483246192 -->
<g id="node5" class="node">
<title>124042483246192</title>
<polygon fill="honeydew" stroke="darkseagreen" points="72,-184 0,-184 0,-146 72,-146 72,-184"/>
<text text-anchor="middle" x="36" y="-168.8" font-family="Sans-Serif" font-size="14.00">vector_1</text>
<text text-anchor="middle" x="36" y="-153.8" font-family="Sans-Serif" font-size="14.00">[1, 0]</text>
</g>
<!-- 124042483246192&#45;&gt;124042483245904 -->
<g id="edge5" class="edge">
<title>124042483246192&#45;&gt;124042483245904</title>
<path fill="none" stroke="#666666" stroke-width="1.2" d="M50.68,-145.72C57.86,-136.77 66.59,-125.9 74.25,-116.36"/>
<polygon fill="#666666" stroke="#666666" stroke-width="1.2" points="76.52,-117.99 79.35,-110 72.16,-114.49 76.52,-117.99"/>
</g>
<!-- 124042483245904&#45;&gt;124042483246096 -->
<g id="edge3" class="edge">
<title>124042483245904&#45;&gt;124042483246096</title>
<path fill="none" stroke="#666666" stroke-width="1.2" d="M93,-73.81C93,-65.52 93,-55.39 93,-46.16"/>
<polygon fill="#666666" stroke="#666666" stroke-width="1.2" points="95.8,-46.02 93,-38.02 90.2,-46.02 95.8,-46.02"/>
</g>
<!-- 124042483245952 -->
<g id="node7" class="node">
<title>124042483245952</title>
<polygon fill="aliceblue" stroke="skyblue" points="337,-184 275,-184 275,-146 337,-146 337,-184"/>
<text text-anchor="middle" x="306" y="-168.8" font-family="Sans-Serif" font-size="14.00">t3</text>
<text text-anchor="middle" x="306" y="-153.8" font-family="Sans-Serif" font-size="14.00">(2, 3, 4)</text>
</g>
<!-- 124042483244848 -->
<g id="node12" class="node">
<title>124042483244848</title>
<polygon fill="lightgray" stroke="darkslategray" points="280.5,-110 189.5,-110 189.5,-74 280.5,-74 280.5,-110"/>
<text text-anchor="middle" x="235" y="-88.3" font-family="Courier Bold" font-size="14.00">transpose</text>
</g>
<!-- 124042483245952&#45;&gt;124042483244848 -->
<g id="edge9" class="edge">
<title>124042483245952&#45;&gt;124042483244848</title>
<path fill="none" stroke="#666666" stroke-width="1.2" d="M287.72,-145.72C278.6,-136.6 267.48,-125.48 257.81,-115.81"/>
<polygon fill="#666666" stroke="#666666" stroke-width="1.2" points="259.64,-113.68 252,-110 255.68,-117.64 259.64,-113.68"/>
</g>
<!-- 124042483246528 -->
<g id="node8" class="node">
<title>124042483246528</title>
<polygon fill="lightgray" stroke="darkslategray" points="347.5,-256 264.5,-256 264.5,-220 347.5,-220 347.5,-256"/>
<text text-anchor="middle" x="306" y="-234.3" font-family="Courier Bold" font-size="14.00">constant</text>
</g>
<!-- 124042483246528&#45;&gt;124042483245952 -->
<g id="edge6" class="edge">
<title>124042483246528&#45;&gt;124042483245952</title>
<path fill="none" stroke="#666666" stroke-width="1.2" d="M306,-219.81C306,-211.52 306,-201.39 306,-192.16"/>
<polygon fill="#666666" stroke="#666666" stroke-width="1.2" points="308.8,-192.02 306,-184.02 303.2,-192.02 308.8,-192.02"/>
</g>
<!-- 124042483246480 -->
<g id="node9" class="node">
<title>124042483246480</title>
<polygon fill="moccasin" stroke="orange" points="333,-330 279,-330 279,-292 333,-292 333,-330"/>
<text text-anchor="middle" x="306" y="-314.8" font-family="Sans-Serif" font-size="14.00">var_2</text>
<text text-anchor="middle" x="306" y="-299.8" font-family="Sans-Serif" font-size="14.00">1</text>
</g>
<!-- 124042483246480&#45;&gt;124042483246528 -->
<g id="edge7" class="edge">
<title>124042483246480&#45;&gt;124042483246528</title>
<path fill="none" stroke="#666666" stroke-width="1.2" d="M306,-291.72C306,-283.29 306,-273.15 306,-264.02"/>
<polygon fill="#666666" stroke="#666666" stroke-width="1.2" points="308.8,-264 306,-256 303.2,-264 308.8,-264"/>
</g>
<!-- 124042483247008 -->
<g id="node10" class="node">
<title>124042483247008</title>
<polygon fill="aliceblue" stroke="skyblue" points="271.5,-38 198.5,-38 198.5,0 271.5,0 271.5,-38"/>
<text text-anchor="middle" x="235" y="-22.8" font-family="Sans-Serif" font-size="14.00">tensor_4</text>
<text text-anchor="middle" x="235" y="-7.8" font-family="Sans-Serif" font-size="14.00">(2, 4, 3)</text>
</g>
<!-- 124042483248448 -->
<g id="node11" class="node">
<title>124042483248448</title>
<polygon fill="honeydew" stroke="darkseagreen" points="257,-184 185,-184 185,-146 257,-146 257,-184"/>
<text text-anchor="middle" x="221" y="-168.8" font-family="Sans-Serif" font-size="14.00">vector_2</text>
<text text-anchor="middle" x="221" y="-153.8" font-family="Sans-Serif" font-size="14.00">[0, 2, 1]</text>
</g>
<!-- 124042483248448&#45;&gt;124042483244848 -->
<g id="edge10" class="edge">
<title>124042483248448&#45;&gt;124042483244848</title>
<path fill="none" stroke="#666666" stroke-width="1.2" d="M224.61,-145.72C226.27,-137.29 228.27,-127.15 230.07,-118.02"/>
<polygon fill="#666666" stroke="#666666" stroke-width="1.2" points="232.85,-118.39 231.65,-110 227.35,-117.31 232.85,-118.39"/>
</g>
<!-- 124042483244848&#45;&gt;124042483247008 -->
<g id="edge8" class="edge">
<title>124042483244848&#45;&gt;124042483247008</title>
<path fill="none" stroke="#666666" stroke-width="1.2" d="M235,-73.81C235,-65.52 235,-55.39 235,-46.16"/>
<polygon fill="#666666" stroke="#666666" stroke-width="1.2" points="237.8,-46.02 235,-38.02 232.2,-46.02 237.8,-46.02"/>
</g>
</g>
</svg>
