<?xml version="1.0" encoding="UTF-8" standalone="no"?>
<!DOCTYPE svg PUBLIC "-//W3C//DTD SVG 1.1//EN"
 "http://www.w3.org/Graphics/SVG/1.1/DTD/svg11.dtd">
<!-- Generated by graphviz version 2.43.0 (0)
 -->
<!-- Title: %3 Pages: 1 -->
<svg width="262pt" height="192pt"
 viewBox="0.00 0.00 262.00 192.00" xmlns="http://www.w3.org/2000/svg" xmlns:xlink="http://www.w3.org/1999/xlink">
<g id="graph0" class="graph" transform="scale(1 1) rotate(0) translate(4 188)">
<title>%3</title>
<polygon fill="white" stroke="transparent" points="-4,4 -4,-188 258,-188 258,4 -4,4"/>
<!-- 138334896593968 -->
<g id="node1" class="node">
<title>138334896593968</title>
<polygon fill="aliceblue" stroke="skyblue" points="163.5,-184 90.5,-184 90.5,-146 163.5,-146 163.5,-184"/>
<text text-anchor="middle" x="127" y="-168.8" font-family="Sans-Serif" font-size="14.00">tensor_1</text>
<text text-anchor="middle" x="127" y="-153.8" font-family="Sans-Serif" font-size="14.00">(3, 4, 5)</text>
</g>
<!-- 138336870303440 -->
<g id="node2" class="node">
<title>138336870303440</title>
<polygon fill="lightgray" stroke="darkslategray" points="164,-110 90,-110 90,-74 164,-74 164,-110"/>
<text text-anchor="middle" x="127" y="-88.3" font-family="Courier Bold" font-size="14.00">reshape</text>
</g>
<!-- 138334896593968&#45;&gt;138336870303440 -->
<g id="edge2" class="edge">
<title>138334896593968&#45;&gt;138336870303440</title>
<path fill="none" stroke="#666666" stroke-width="1.2" d="M121.01,-145.72C120.2,-137.29 120.04,-127.15 120.52,-118.02"/>
<polygon fill="#666666" stroke="#666666" stroke-width="1.2" points="123.31,-118.2 121.14,-110 117.73,-117.76 123.31,-118.2"/>
</g>
<!-- 138334610649536 -->
<g id="node6" class="node">
<title>138334610649536</title>
<polygon fill="lightgray" stroke="darkslategray" points="240,-110 186,-110 186,-74 240,-74 240,-110"/>
<text text-anchor="middle" x="213" y="-88.3" font-family="Courier Bold" font-size="14.00">sum</text>
</g>
<!-- 138334896593968&#45;&gt;138334610649536 -->
<g id="edge5" class="edge">
<title>138334896593968&#45;&gt;138334610649536</title>
<path fill="none" stroke="#666666" stroke-width="1.2" d="M149.15,-145.72C160.4,-136.42 174.17,-125.06 186.04,-115.26"/>
<polygon fill="#666666" stroke="#666666" stroke-width="1.2" points="188.02,-117.26 192.4,-110 184.45,-112.94 188.02,-117.26"/>
</g>
<!-- 138336870303440&#45;&gt;138334896593968 -->
<g id="edge1" class="edge">
<title>138336870303440&#45;&gt;138334896593968</title>
<path fill="none" stroke="#666666" stroke-width="1.2" d="M132.86,-110C133.73,-118.25 133.96,-128.35 133.55,-137.57"/>
<polygon fill="#666666" stroke="#666666" stroke-width="1.2" points="130.75,-137.54 132.99,-145.72 136.33,-137.93 130.75,-137.54"/>
</g>
<!-- 138336870304208 -->
<g id="node3" class="node">
<title>138336870304208</title>
<polygon fill="honeydew" stroke="darkseagreen" points="72,-184 0,-184 0,-146 72,-146 72,-184"/>
<text text-anchor="middle" x="36" y="-168.8" font-family="Sans-Serif" font-size="14.00">vector_1</text>
<text text-anchor="middle" x="36" y="-153.8" font-family="Sans-Serif" font-size="14.00">(3, 4, 5)</text>
</g>
<!-- 138336870304208&#45;&gt;138336870303440 -->
<g id="edge3" class="edge">
<title>138336870304208&#45;&gt;138336870303440</title>
<path fill="none" stroke="#666666" stroke-width="1.2" d="M59.43,-145.72C71.45,-136.34 86.18,-124.85 98.82,-114.99"/>
<polygon fill="#666666" stroke="#666666" stroke-width="1.2" points="100.62,-117.13 105.21,-110 97.18,-112.72 100.62,-117.13"/>
</g>
<!-- 138334610649632 -->
<g id="node4" class="node">
<title>138334610649632</title>
<polygon fill="aliceblue" stroke="skyblue" points="244,-38 182,-38 182,0 244,0 244,-38"/>
<text text-anchor="middle" x="213" y="-22.8" font-family="Sans-Serif" font-size="14.00">s1</text>
<text text-anchor="middle" x="213" y="-7.8" font-family="Sans-Serif" font-size="14.00">(1, 4, 1)</text>
</g>
<!-- 138334610649680 -->
<g id="node5" class="node">
<title>138334610649680</title>
<polygon fill="honeydew" stroke="darkseagreen" points="254,-184 182,-184 182,-146 254,-146 254,-184"/>
<text text-anchor="middle" x="218" y="-168.8" font-family="Sans-Serif" font-size="14.00">vector_2</text>
<text text-anchor="middle" x="218" y="-153.8" font-family="Sans-Serif" font-size="14.00">[0, 2]</text>
</g>
<!-- 138334610649680&#45;&gt;138334610649536 -->
<g id="edge6" class="edge">
<title>138334610649680&#45;&gt;138334610649536</title>
<path fill="none" stroke="#666666" stroke-width="1.2" d="M216.71,-145.72C216.12,-137.29 215.4,-127.15 214.76,-118.02"/>
<polygon fill="#666666" stroke="#666666" stroke-width="1.2" points="217.55,-117.79 214.2,-110 211.97,-118.18 217.55,-117.79"/>
</g>
<!-- 138334610649536&#45;&gt;138334610649632 -->
<g id="edge4" class="edge">
<title>138334610649536&#45;&gt;138334610649632</title>
<path fill="none" stroke="#666666" stroke-width="1.2" d="M213,-73.81C213,-65.52 213,-55.39 213,-46.16"/>
<polygon fill="#666666" stroke="#666666" stroke-width="1.2" points="215.8,-46.02 213,-38.02 210.2,-46.02 215.8,-46.02"/>
</g>
</g>
</svg>
