<?xml version="1.0" encoding="UTF-8" standalone="no"?>
<!DOCTYPE svg PUBLIC "-//W3C//DTD SVG 1.1//EN"
 "http://www.w3.org/Graphics/SVG/1.1/DTD/svg11.dtd">
<!-- Generated by graphviz version 2.43.0 (0)
 -->
<!-- Title: %3 Pages: 1 -->
<svg width="341pt" height="338pt"
 viewBox="0.00 0.00 340.50 338.00" xmlns="http://www.w3.org/2000/svg" xmlns:xlink="http://www.w3.org/1999/xlink">
<g id="graph0" class="graph" transform="scale(1 1) rotate(0) translate(4 334)">
<title>%3</title>
<polygon fill="white" stroke="transparent" points="-4,4 -4,-334 336.5,-334 336.5,4 -4,4"/>
<!-- 137431348365008 -->
<g id="node1" class="node">
<title>137431348365008</title>
<polygon fill="aliceblue" stroke="skyblue" points="152,-184 90,-184 90,-146 152,-146 152,-184"/>
<text text-anchor="middle" x="121" y="-168.8" font-family="Sans-Serif" font-size="14.00">t</text>
<text text-anchor="middle" x="121" y="-153.8" font-family="Sans-Serif" font-size="14.00">(3, 4, 5)</text>
</g>
<!-- 137429050979232 -->
<g id="node8" class="node">
<title>137429050979232</title>
<polygon fill="lightgray" stroke="darkslategray" points="106,-110 52,-110 52,-74 106,-74 106,-110"/>
<text text-anchor="middle" x="79" y="-88.3" font-family="Courier Bold" font-size="14.00">sum</text>
</g>
<!-- 137431348365008&#45;&gt;137429050979232 -->
<g id="edge6" class="edge">
<title>137431348365008&#45;&gt;137429050979232</title>
<path fill="none" stroke="#666666" stroke-width="1.2" d="M110.18,-145.72C104.99,-136.94 98.71,-126.31 93.14,-116.91"/>
<polygon fill="#666666" stroke="#666666" stroke-width="1.2" points="95.54,-115.46 89.06,-110 90.72,-118.31 95.54,-115.46"/>
</g>
<!-- 137429052759232 -->
<g id="node2" class="node">
<title>137429052759232</title>
<polygon fill="lightgray" stroke="darkslategray" points="158,-256 84,-256 84,-220 158,-220 158,-256"/>
<text text-anchor="middle" x="121" y="-234.3" font-family="Courier Bold" font-size="14.00">uniform</text>
</g>
<!-- 137429052759232&#45;&gt;137431348365008 -->
<g id="edge1" class="edge">
<title>137429052759232&#45;&gt;137431348365008</title>
<path fill="none" stroke="#666666" stroke-width="1.2" d="M121,-219.81C121,-211.52 121,-201.39 121,-192.16"/>
<polygon fill="#666666" stroke="#666666" stroke-width="1.2" points="123.8,-192.02 121,-184.02 118.2,-192.02 123.8,-192.02"/>
</g>
<!-- 137431348378688 -->
<g id="node3" class="node">
<title>137431348378688</title>
<polygon fill="moccasin" stroke="orange" points="76,-330 22,-330 22,-292 76,-292 76,-330"/>
<text text-anchor="middle" x="49" y="-314.8" font-family="Sans-Serif" font-size="14.00">var_1</text>
<text text-anchor="middle" x="49" y="-299.8" font-family="Sans-Serif" font-size="14.00">&#45;1</text>
</g>
<!-- 137431348378688&#45;&gt;137429052759232 -->
<g id="edge2" class="edge">
<title>137431348378688&#45;&gt;137429052759232</title>
<path fill="none" stroke="#666666" stroke-width="1.2" d="M67.54,-291.72C76.79,-282.6 88.06,-271.48 97.87,-261.81"/>
<polygon fill="#666666" stroke="#666666" stroke-width="1.2" points="100.03,-263.61 103.76,-256 96.09,-259.63 100.03,-263.61"/>
</g>
<!-- 137429052765232 -->
<g id="node4" class="node">
<title>137429052765232</title>
<polygon fill="moccasin" stroke="orange" points="148,-330 94,-330 94,-292 148,-292 148,-330"/>
<text text-anchor="middle" x="121" y="-314.8" font-family="Sans-Serif" font-size="14.00">var_2</text>
<text text-anchor="middle" x="121" y="-299.8" font-family="Sans-Serif" font-size="14.00">1</text>
</g>
<!-- 137429052765232&#45;&gt;137429052759232 -->
<g id="edge3" class="edge">
<title>137429052765232&#45;&gt;137429052759232</title>
<path fill="none" stroke="#666666" stroke-width="1.2" d="M121,-291.72C121,-283.29 121,-273.15 121,-264.02"/>
<polygon fill="#666666" stroke="#666666" stroke-width="1.2" points="123.8,-264 121,-256 118.2,-264 123.8,-264"/>
</g>
<!-- 137429050978992 -->
<g id="node5" class="node">
<title>137429050978992</title>
<polygon fill="moccasin" stroke="orange" points="220,-330 166,-330 166,-292 220,-292 220,-330"/>
<text text-anchor="middle" x="193" y="-314.8" font-family="Sans-Serif" font-size="14.00">var_3</text>
<text text-anchor="middle" x="193" y="-299.8" font-family="Sans-Serif" font-size="14.00">0</text>
</g>
<!-- 137429050978992&#45;&gt;137429052759232 -->
<g id="edge4" class="edge">
<title>137429050978992&#45;&gt;137429052759232</title>
<path fill="none" stroke="#666666" stroke-width="1.2" d="M174.46,-291.72C165.21,-282.6 153.94,-271.48 144.13,-261.81"/>
<polygon fill="#666666" stroke="#666666" stroke-width="1.2" points="145.91,-259.63 138.24,-256 141.97,-263.61 145.91,-259.63"/>
</g>
<!-- 137429050978752 -->
<g id="node6" class="node">
<title>137429050978752</title>
<polygon fill="aliceblue" stroke="skyblue" points="106,-38 52,-38 52,0 106,0 106,-38"/>
<text text-anchor="middle" x="79" y="-22.8" font-family="Sans-Serif" font-size="14.00">s</text>
<text text-anchor="middle" x="79" y="-7.8" font-family="Sans-Serif" font-size="14.00">(4,)</text>
</g>
<!-- 137429050978800 -->
<g id="node7" class="node">
<title>137429050978800</title>
<polygon fill="honeydew" stroke="darkseagreen" points="72,-184 0,-184 0,-146 72,-146 72,-184"/>
<text text-anchor="middle" x="36" y="-168.8" font-family="Sans-Serif" font-size="14.00">vector_1</text>
<text text-anchor="middle" x="36" y="-153.8" font-family="Sans-Serif" font-size="14.00">[0, 2]</text>
</g>
<!-- 137429050978800&#45;&gt;137429050979232 -->
<g id="edge7" class="edge">
<title>137429050978800&#45;&gt;137429050979232</title>
<path fill="none" stroke="#666666" stroke-width="1.2" d="M47.07,-145.72C52.39,-136.94 58.82,-126.31 64.52,-116.91"/>
<polygon fill="#666666" stroke="#666666" stroke-width="1.2" points="66.95,-118.3 68.7,-110 62.16,-115.4 66.95,-118.3"/>
</g>
<!-- 137429050979232&#45;&gt;137429050978752 -->
<g id="edge5" class="edge">
<title>137429050979232&#45;&gt;137429050978752</title>
<path fill="none" stroke="#666666" stroke-width="1.2" d="M79,-73.81C79,-65.52 79,-55.39 79,-46.16"/>
<polygon fill="#666666" stroke="#666666" stroke-width="1.2" points="81.8,-46.02 79,-38.02 76.2,-46.02 81.8,-46.02"/>
</g>
<!-- 137429050979184 -->
<g id="node9" class="node">
<title>137429050979184</title>
<polygon fill="aliceblue" stroke="skyblue" points="322,-184 260,-184 260,-146 322,-146 322,-184"/>
<text text-anchor="middle" x="291" y="-168.8" font-family="Sans-Serif" font-size="14.00">t1</text>
<text text-anchor="middle" x="291" y="-153.8" font-family="Sans-Serif" font-size="14.00">(4, 5, 6)</text>
</g>
<!-- 137429050980048 -->
<g id="node14" class="node">
<title>137429050980048</title>
<polygon fill="lightgray" stroke="darkslategray" points="275,-110 221,-110 221,-74 275,-74 275,-110"/>
<text text-anchor="middle" x="248" y="-88.3" font-family="Courier Bold" font-size="14.00">sum</text>
</g>
<!-- 137429050979184&#45;&gt;137429050980048 -->
<g id="edge11" class="edge">
<title>137429050979184&#45;&gt;137429050980048</title>
<path fill="none" stroke="#666666" stroke-width="1.2" d="M279.93,-145.72C274.61,-136.94 268.18,-126.31 262.48,-116.91"/>
<polygon fill="#666666" stroke="#666666" stroke-width="1.2" points="264.84,-115.4 258.3,-110 260.05,-118.3 264.84,-115.4"/>
</g>
<!-- 137429050979568 -->
<g id="node10" class="node">
<title>137429050979568</title>
<polygon fill="lightgray" stroke="darkslategray" points="332.5,-256 249.5,-256 249.5,-220 332.5,-220 332.5,-256"/>
<text text-anchor="middle" x="291" y="-234.3" font-family="Courier Bold" font-size="14.00">constant</text>
</g>
<!-- 137429050979568&#45;&gt;137429050979184 -->
<g id="edge8" class="edge">
<title>137429050979568&#45;&gt;137429050979184</title>
<path fill="none" stroke="#666666" stroke-width="1.2" d="M291,-219.81C291,-211.52 291,-201.39 291,-192.16"/>
<polygon fill="#666666" stroke="#666666" stroke-width="1.2" points="293.8,-192.02 291,-184.02 288.2,-192.02 293.8,-192.02"/>
</g>
<!-- 137429050979520 -->
<g id="node11" class="node">
<title>137429050979520</title>
<polygon fill="moccasin" stroke="orange" points="318,-330 264,-330 264,-292 318,-292 318,-330"/>
<text text-anchor="middle" x="291" y="-314.8" font-family="Sans-Serif" font-size="14.00">var_4</text>
<text text-anchor="middle" x="291" y="-299.8" font-family="Sans-Serif" font-size="14.00">1</text>
</g>
<!-- 137429050979520&#45;&gt;137429050979568 -->
<g id="edge9" class="edge">
<title>137429050979520&#45;&gt;137429050979568</title>
<path fill="none" stroke="#666666" stroke-width="1.2" d="M291,-291.72C291,-283.29 291,-273.15 291,-264.02"/>
<polygon fill="#666666" stroke="#666666" stroke-width="1.2" points="293.8,-264 291,-256 288.2,-264 293.8,-264"/>
</g>
<!-- 137429050979664 -->
<g id="node12" class="node">
<title>137429050979664</title>
<polygon fill="aliceblue" stroke="skyblue" points="275,-38 221,-38 221,0 275,0 275,-38"/>
<text text-anchor="middle" x="248" y="-22.8" font-family="Sans-Serif" font-size="14.00">t2</text>
<text text-anchor="middle" x="248" y="-7.8" font-family="Sans-Serif" font-size="14.00">(6,)</text>
</g>
<!-- 137429050979952 -->
<g id="node13" class="node">
<title>137429050979952</title>
<polygon fill="honeydew" stroke="darkseagreen" points="242,-184 170,-184 170,-146 242,-146 242,-184"/>
<text text-anchor="middle" x="206" y="-168.8" font-family="Sans-Serif" font-size="14.00">vector_2</text>
<text text-anchor="middle" x="206" y="-153.8" font-family="Sans-Serif" font-size="14.00">[0, 1]</text>
</g>
<!-- 137429050979952&#45;&gt;137429050980048 -->
<g id="edge12" class="edge">
<title>137429050979952&#45;&gt;137429050980048</title>
<path fill="none" stroke="#666666" stroke-width="1.2" d="M216.82,-145.72C222.01,-136.94 228.29,-126.31 233.86,-116.91"/>
<polygon fill="#666666" stroke="#666666" stroke-width="1.2" points="236.28,-118.31 237.94,-110 231.46,-115.46 236.28,-118.31"/>
</g>
<!-- 137429050980048&#45;&gt;137429050979664 -->
<g id="edge10" class="edge">
<title>137429050980048&#45;&gt;137429050979664</title>
<path fill="none" stroke="#666666" stroke-width="1.2" d="M248,-73.81C248,-65.52 248,-55.39 248,-46.16"/>
<polygon fill="#666666" stroke="#666666" stroke-width="1.2" points="250.8,-46.02 248,-38.02 245.2,-46.02 250.8,-46.02"/>
</g>
</g>
</svg>
