<?xml version="1.0" encoding="UTF-8" standalone="no"?>
<!DOCTYPE svg PUBLIC "-//W3C//DTD SVG 1.1//EN"
 "http://www.w3.org/Graphics/SVG/1.1/DTD/svg11.dtd">
<!-- Generated by graphviz version 2.43.0 (0)
 -->
<!-- Title: %3 Pages: 1 -->
<svg width="376pt" height="338pt"
 viewBox="0.00 0.00 375.50 338.00" xmlns="http://www.w3.org/2000/svg" xmlns:xlink="http://www.w3.org/1999/xlink">
<g id="graph0" class="graph" transform="scale(1 1) rotate(0) translate(4 334)">
<title>%3</title>
<polygon fill="white" stroke="transparent" points="-4,4 -4,-334 371.5,-334 371.5,4 -4,4"/>
<!-- 133977343199552 -->
<g id="node1" class="node">
<title>133977343199552</title>
<polygon fill="aliceblue" stroke="skyblue" points="152,-330 90,-330 90,-292 152,-292 152,-330"/>
<text text-anchor="middle" x="121" y="-314.8" font-family="Sans-Serif" font-size="14.00">t</text>
<text text-anchor="middle" x="121" y="-299.8" font-family="Sans-Serif" font-size="14.00">(3, 4, 5)</text>
</g>
<!-- 133975083685520 -->
<g id="node4" class="node">
<title>133975083685520</title>
<polygon fill="lightgray" stroke="darkslategray" points="109,-256 55,-256 55,-220 109,-220 109,-256"/>
<text text-anchor="middle" x="82" y="-234.3" font-family="Courier Bold" font-size="14.00">sum</text>
</g>
<!-- 133977343199552&#45;&gt;133975083685520 -->
<g id="edge2" class="edge">
<title>133977343199552&#45;&gt;133975083685520</title>
<path fill="none" stroke="#666666" stroke-width="1.2" d="M110.96,-291.72C106.18,-283.03 100.41,-272.52 95.28,-263.19"/>
<polygon fill="#666666" stroke="#666666" stroke-width="1.2" points="97.65,-261.67 91.34,-256 92.74,-264.36 97.65,-261.67"/>
</g>
<!-- 133975083686096 -->
<g id="node7" class="node">
<title>133975083686096</title>
<polygon fill="lightgray" stroke="darkslategray" points="187,-256 133,-256 133,-220 187,-220 187,-256"/>
<text text-anchor="middle" x="160" y="-234.3" font-family="Courier Bold" font-size="14.00">prod</text>
</g>
<!-- 133977343199552&#45;&gt;133975083686096 -->
<g id="edge5" class="edge">
<title>133977343199552&#45;&gt;133975083686096</title>
<path fill="none" stroke="#666666" stroke-width="1.2" d="M131.04,-291.72C135.82,-283.03 141.59,-272.52 146.72,-263.19"/>
<polygon fill="#666666" stroke="#666666" stroke-width="1.2" points="149.26,-264.36 150.66,-256 144.35,-261.67 149.26,-264.36"/>
</g>
<!-- 133975085212112 -->
<g id="node2" class="node">
<title>133975085212112</title>
<polygon fill="aliceblue" stroke="skyblue" points="109,-184 55,-184 55,-146 109,-146 109,-184"/>
<text text-anchor="middle" x="82" y="-168.8" font-family="Sans-Serif" font-size="14.00">s</text>
<text text-anchor="middle" x="82" y="-153.8" font-family="Sans-Serif" font-size="14.00">(4,)</text>
</g>
<!-- 133975083685904 -->
<g id="node3" class="node">
<title>133975083685904</title>
<polygon fill="honeydew" stroke="darkseagreen" points="72,-330 0,-330 0,-292 72,-292 72,-330"/>
<text text-anchor="middle" x="36" y="-314.8" font-family="Sans-Serif" font-size="14.00">vector_1</text>
<text text-anchor="middle" x="36" y="-299.8" font-family="Sans-Serif" font-size="14.00">[0, 2]</text>
</g>
<!-- 133975083685904&#45;&gt;133975083685520 -->
<g id="edge3" class="edge">
<title>133975083685904&#45;&gt;133975083685520</title>
<path fill="none" stroke="#666666" stroke-width="1.2" d="M47.85,-291.72C53.53,-282.94 60.42,-272.31 66.51,-262.91"/>
<polygon fill="#666666" stroke="#666666" stroke-width="1.2" points="68.98,-264.24 70.98,-256 64.28,-261.19 68.98,-264.24"/>
</g>
<!-- 133975083685520&#45;&gt;133975085212112 -->
<g id="edge1" class="edge">
<title>133975083685520&#45;&gt;133975085212112</title>
<path fill="none" stroke="#666666" stroke-width="1.2" d="M82,-219.81C82,-211.52 82,-201.39 82,-192.16"/>
<polygon fill="#666666" stroke="#666666" stroke-width="1.2" points="84.8,-192.02 82,-184.02 79.2,-192.02 84.8,-192.02"/>
</g>
<!-- 133975083685760 -->
<g id="node5" class="node">
<title>133975083685760</title>
<polygon fill="aliceblue" stroke="skyblue" points="187,-184 133,-184 133,-146 187,-146 187,-184"/>
<text text-anchor="middle" x="160" y="-168.8" font-family="Sans-Serif" font-size="14.00">p</text>
<text text-anchor="middle" x="160" y="-153.8" font-family="Sans-Serif" font-size="14.00">(3, 5)</text>
</g>
<!-- 133975083686048 -->
<g id="node6" class="node">
<title>133975083686048</title>
<polygon fill="honeydew" stroke="darkseagreen" points="242,-330 170,-330 170,-292 242,-292 242,-330"/>
<text text-anchor="middle" x="206" y="-314.8" font-family="Sans-Serif" font-size="14.00">vector_2</text>
<text text-anchor="middle" x="206" y="-299.8" font-family="Sans-Serif" font-size="14.00">[1]</text>
</g>
<!-- 133975083686048&#45;&gt;133975083686096 -->
<g id="edge6" class="edge">
<title>133975083686048&#45;&gt;133975083686096</title>
<path fill="none" stroke="#666666" stroke-width="1.2" d="M194.15,-291.72C188.47,-282.94 181.58,-272.31 175.49,-262.91"/>
<polygon fill="#666666" stroke="#666666" stroke-width="1.2" points="177.72,-261.19 171.02,-256 173.02,-264.24 177.72,-261.19"/>
</g>
<!-- 133975083686096&#45;&gt;133975083685760 -->
<g id="edge4" class="edge">
<title>133975083686096&#45;&gt;133975083685760</title>
<path fill="none" stroke="#666666" stroke-width="1.2" d="M160,-219.81C160,-211.52 160,-201.39 160,-192.16"/>
<polygon fill="#666666" stroke="#666666" stroke-width="1.2" points="162.8,-192.02 160,-184.02 157.2,-192.02 162.8,-192.02"/>
</g>
<!-- 133977343199120 -->
<g id="node8" class="node">
<title>133977343199120</title>
<polygon fill="aliceblue" stroke="skyblue" points="357,-184 295,-184 295,-146 357,-146 357,-184"/>
<text text-anchor="middle" x="326" y="-168.8" font-family="Sans-Serif" font-size="14.00">t1</text>
<text text-anchor="middle" x="326" y="-153.8" font-family="Sans-Serif" font-size="14.00">(4, 5, 6)</text>
</g>
<!-- 133975083686576 -->
<g id="node13" class="node">
<title>133975083686576</title>
<polygon fill="lightgray" stroke="darkslategray" points="310,-110 256,-110 256,-74 310,-74 310,-110"/>
<text text-anchor="middle" x="283" y="-88.3" font-family="Courier Bold" font-size="14.00">sum</text>
</g>
<!-- 133977343199120&#45;&gt;133975083686576 -->
<g id="edge10" class="edge">
<title>133977343199120&#45;&gt;133975083686576</title>
<path fill="none" stroke="#666666" stroke-width="1.2" d="M314.93,-145.72C309.61,-136.94 303.18,-126.31 297.48,-116.91"/>
<polygon fill="#666666" stroke="#666666" stroke-width="1.2" points="299.84,-115.4 293.3,-110 295.05,-118.3 299.84,-115.4"/>
</g>
<!-- 133975083686528 -->
<g id="node9" class="node">
<title>133975083686528</title>
<polygon fill="lightgray" stroke="darkslategray" points="367.5,-256 284.5,-256 284.5,-220 367.5,-220 367.5,-256"/>
<text text-anchor="middle" x="326" y="-234.3" font-family="Courier Bold" font-size="14.00">constant</text>
</g>
<!-- 133975083686528&#45;&gt;133977343199120 -->
<g id="edge7" class="edge">
<title>133975083686528&#45;&gt;133977343199120</title>
<path fill="none" stroke="#666666" stroke-width="1.2" d="M326,-219.81C326,-211.52 326,-201.39 326,-192.16"/>
<polygon fill="#666666" stroke="#666666" stroke-width="1.2" points="328.8,-192.02 326,-184.02 323.2,-192.02 328.8,-192.02"/>
</g>
<!-- 133975083686288 -->
<g id="node10" class="node">
<title>133975083686288</title>
<polygon fill="moccasin" stroke="orange" points="353,-330 299,-330 299,-292 353,-292 353,-330"/>
<text text-anchor="middle" x="326" y="-314.8" font-family="Sans-Serif" font-size="14.00">var_1</text>
<text text-anchor="middle" x="326" y="-299.8" font-family="Sans-Serif" font-size="14.00">1</text>
</g>
<!-- 133975083686288&#45;&gt;133975083686528 -->
<g id="edge8" class="edge">
<title>133975083686288&#45;&gt;133975083686528</title>
<path fill="none" stroke="#666666" stroke-width="1.2" d="M326,-291.72C326,-283.29 326,-273.15 326,-264.02"/>
<polygon fill="#666666" stroke="#666666" stroke-width="1.2" points="328.8,-264 326,-256 323.2,-264 328.8,-264"/>
</g>
<!-- 133975083686240 -->
<g id="node11" class="node">
<title>133975083686240</title>
<polygon fill="aliceblue" stroke="skyblue" points="310,-38 256,-38 256,0 310,0 310,-38"/>
<text text-anchor="middle" x="283" y="-22.8" font-family="Sans-Serif" font-size="14.00">t2</text>
<text text-anchor="middle" x="283" y="-7.8" font-family="Sans-Serif" font-size="14.00">(6,)</text>
</g>
<!-- 133975083686768 -->
<g id="node12" class="node">
<title>133975083686768</title>
<polygon fill="honeydew" stroke="darkseagreen" points="277,-184 205,-184 205,-146 277,-146 277,-184"/>
<text text-anchor="middle" x="241" y="-168.8" font-family="Sans-Serif" font-size="14.00">vector_3</text>
<text text-anchor="middle" x="241" y="-153.8" font-family="Sans-Serif" font-size="14.00">[0, 1]</text>
</g>
<!-- 133975083686768&#45;&gt;133975083686576 -->
<g id="edge11" class="edge">
<title>133975083686768&#45;&gt;133975083686576</title>
<path fill="none" stroke="#666666" stroke-width="1.2" d="M251.82,-145.72C257.01,-136.94 263.29,-126.31 268.86,-116.91"/>
<polygon fill="#666666" stroke="#666666" stroke-width="1.2" points="271.28,-118.31 272.94,-110 266.46,-115.46 271.28,-118.31"/>
</g>
<!-- 133975083686576&#45;&gt;133975083686240 -->
<g id="edge9" class="edge">
<title>133975083686576&#45;&gt;133975083686240</title>
<path fill="none" stroke="#666666" stroke-width="1.2" d="M283,-73.81C283,-65.52 283,-55.39 283,-46.16"/>
<polygon fill="#666666" stroke="#666666" stroke-width="1.2" points="285.8,-46.02 283,-38.02 280.2,-46.02 285.8,-46.02"/>
</g>
</g>
</svg>
