<?xml version="1.0" encoding="UTF-8" standalone="no"?>
<!DOCTYPE svg PUBLIC "-//W3C//DTD SVG 1.1//EN"
 "http://www.w3.org/Graphics/SVG/1.1/DTD/svg11.dtd">
<!-- Generated by graphviz version 2.43.0 (0)
 -->
<!-- Title: %3 Pages: 1 -->
<svg width="382pt" height="338pt"
 viewBox="0.00 0.00 381.50 338.00" xmlns="http://www.w3.org/2000/svg" xmlns:xlink="http://www.w3.org/1999/xlink">
<g id="graph0" class="graph" transform="scale(1 1) rotate(0) translate(4 334)">
<title>%3</title>
<polygon fill="white" stroke="transparent" points="-4,4 -4,-334 377.5,-334 377.5,4 -4,4"/>
<!-- 134483478251840 -->
<g id="node1" class="node">
<title>134483478251840</title>
<polygon fill="aliceblue" stroke="skyblue" points="152,-330 90,-330 90,-292 152,-292 152,-330"/>
<text text-anchor="middle" x="121" y="-314.8" font-family="Sans-Serif" font-size="14.00">t</text>
<text text-anchor="middle" x="121" y="-299.8" font-family="Sans-Serif" font-size="14.00">(3, 4, 5)</text>
</g>
<!-- 134481218754576 -->
<g id="node4" class="node">
<title>134481218754576</title>
<polygon fill="lightgray" stroke="darkslategray" points="107,-256 53,-256 53,-220 107,-220 107,-256"/>
<text text-anchor="middle" x="80" y="-234.3" font-family="Courier Bold" font-size="14.00">sum</text>
</g>
<!-- 134483478251840&#45;&gt;134481218754576 -->
<g id="edge2" class="edge">
<title>134483478251840&#45;&gt;134481218754576</title>
<path fill="none" stroke="#666666" stroke-width="1.2" d="M110.44,-291.72C105.42,-283.03 99.36,-272.52 93.97,-263.19"/>
<polygon fill="#666666" stroke="#666666" stroke-width="1.2" points="96.24,-261.53 89.82,-256 91.39,-264.33 96.24,-261.53"/>
</g>
<!-- 134481218754720 -->
<g id="node7" class="node">
<title>134481218754720</title>
<polygon fill="lightgray" stroke="darkslategray" points="189,-256 135,-256 135,-220 189,-220 189,-256"/>
<text text-anchor="middle" x="162" y="-234.3" font-family="Courier Bold" font-size="14.00">prod</text>
</g>
<!-- 134483478251840&#45;&gt;134481218754720 -->
<g id="edge5" class="edge">
<title>134483478251840&#45;&gt;134481218754720</title>
<path fill="none" stroke="#666666" stroke-width="1.2" d="M131.56,-291.72C136.58,-283.03 142.64,-272.52 148.03,-263.19"/>
<polygon fill="#666666" stroke="#666666" stroke-width="1.2" points="150.61,-264.33 152.18,-256 145.76,-261.53 150.61,-264.33"/>
</g>
<!-- 134481220276224 -->
<g id="node2" class="node">
<title>134481220276224</title>
<polygon fill="aliceblue" stroke="skyblue" points="111,-184 49,-184 49,-146 111,-146 111,-184"/>
<text text-anchor="middle" x="80" y="-168.8" font-family="Sans-Serif" font-size="14.00">s</text>
<text text-anchor="middle" x="80" y="-153.8" font-family="Sans-Serif" font-size="14.00">(1, 4, 1)</text>
</g>
<!-- 134481218754432 -->
<g id="node3" class="node">
<title>134481218754432</title>
<polygon fill="honeydew" stroke="darkseagreen" points="72,-330 0,-330 0,-292 72,-292 72,-330"/>
<text text-anchor="middle" x="36" y="-314.8" font-family="Sans-Serif" font-size="14.00">vector_1</text>
<text text-anchor="middle" x="36" y="-299.8" font-family="Sans-Serif" font-size="14.00">[0, 2]</text>
</g>
<!-- 134481218754432&#45;&gt;134481218754576 -->
<g id="edge3" class="edge">
<title>134481218754432&#45;&gt;134481218754576</title>
<path fill="none" stroke="#666666" stroke-width="1.2" d="M47.33,-291.72C52.77,-282.94 59.35,-272.31 65.18,-262.91"/>
<polygon fill="#666666" stroke="#666666" stroke-width="1.2" points="67.63,-264.28 69.46,-256 62.87,-261.33 67.63,-264.28"/>
</g>
<!-- 134481218754576&#45;&gt;134481220276224 -->
<g id="edge1" class="edge">
<title>134481218754576&#45;&gt;134481220276224</title>
<path fill="none" stroke="#666666" stroke-width="1.2" d="M80,-219.81C80,-211.52 80,-201.39 80,-192.16"/>
<polygon fill="#666666" stroke="#666666" stroke-width="1.2" points="82.8,-192.02 80,-184.02 77.2,-192.02 82.8,-192.02"/>
</g>
<!-- 134481218754336 -->
<g id="node5" class="node">
<title>134481218754336</title>
<polygon fill="aliceblue" stroke="skyblue" points="193,-184 131,-184 131,-146 193,-146 193,-184"/>
<text text-anchor="middle" x="162" y="-168.8" font-family="Sans-Serif" font-size="14.00">p</text>
<text text-anchor="middle" x="162" y="-153.8" font-family="Sans-Serif" font-size="14.00">(3, 1, 5)</text>
</g>
<!-- 134481218754672 -->
<g id="node6" class="node">
<title>134481218754672</title>
<polygon fill="honeydew" stroke="darkseagreen" points="242,-330 170,-330 170,-292 242,-292 242,-330"/>
<text text-anchor="middle" x="206" y="-314.8" font-family="Sans-Serif" font-size="14.00">vector_2</text>
<text text-anchor="middle" x="206" y="-299.8" font-family="Sans-Serif" font-size="14.00">[1]</text>
</g>
<!-- 134481218754672&#45;&gt;134481218754720 -->
<g id="edge6" class="edge">
<title>134481218754672&#45;&gt;134481218754720</title>
<path fill="none" stroke="#666666" stroke-width="1.2" d="M194.67,-291.72C189.23,-282.94 182.65,-272.31 176.82,-262.91"/>
<polygon fill="#666666" stroke="#666666" stroke-width="1.2" points="179.13,-261.33 172.54,-256 174.37,-264.28 179.13,-261.33"/>
</g>
<!-- 134481218754720&#45;&gt;134481218754336 -->
<g id="edge4" class="edge">
<title>134481218754720&#45;&gt;134481218754336</title>
<path fill="none" stroke="#666666" stroke-width="1.2" d="M162,-219.81C162,-211.52 162,-201.39 162,-192.16"/>
<polygon fill="#666666" stroke="#666666" stroke-width="1.2" points="164.8,-192.02 162,-184.02 159.2,-192.02 164.8,-192.02"/>
</g>
<!-- 134483478251408 -->
<g id="node8" class="node">
<title>134483478251408</title>
<polygon fill="aliceblue" stroke="skyblue" points="363,-184 301,-184 301,-146 363,-146 363,-184"/>
<text text-anchor="middle" x="332" y="-168.8" font-family="Sans-Serif" font-size="14.00">t1</text>
<text text-anchor="middle" x="332" y="-153.8" font-family="Sans-Serif" font-size="14.00">(4, 5, 6)</text>
</g>
<!-- 134481218755392 -->
<g id="node13" class="node">
<title>134481218755392</title>
<polygon fill="lightgray" stroke="darkslategray" points="316,-110 262,-110 262,-74 316,-74 316,-110"/>
<text text-anchor="middle" x="289" y="-88.3" font-family="Courier Bold" font-size="14.00">sum</text>
</g>
<!-- 134483478251408&#45;&gt;134481218755392 -->
<g id="edge10" class="edge">
<title>134483478251408&#45;&gt;134481218755392</title>
<path fill="none" stroke="#666666" stroke-width="1.2" d="M320.93,-145.72C315.61,-136.94 309.18,-126.31 303.48,-116.91"/>
<polygon fill="#666666" stroke="#666666" stroke-width="1.2" points="305.84,-115.4 299.3,-110 301.05,-118.3 305.84,-115.4"/>
</g>
<!-- 134481218755152 -->
<g id="node9" class="node">
<title>134481218755152</title>
<polygon fill="lightgray" stroke="darkslategray" points="373.5,-256 290.5,-256 290.5,-220 373.5,-220 373.5,-256"/>
<text text-anchor="middle" x="332" y="-234.3" font-family="Courier Bold" font-size="14.00">constant</text>
</g>
<!-- 134481218755152&#45;&gt;134483478251408 -->
<g id="edge7" class="edge">
<title>134481218755152&#45;&gt;134483478251408</title>
<path fill="none" stroke="#666666" stroke-width="1.2" d="M332,-219.81C332,-211.52 332,-201.39 332,-192.16"/>
<polygon fill="#666666" stroke="#666666" stroke-width="1.2" points="334.8,-192.02 332,-184.02 329.2,-192.02 334.8,-192.02"/>
</g>
<!-- 134481218754912 -->
<g id="node10" class="node">
<title>134481218754912</title>
<polygon fill="moccasin" stroke="orange" points="359,-330 305,-330 305,-292 359,-292 359,-330"/>
<text text-anchor="middle" x="332" y="-314.8" font-family="Sans-Serif" font-size="14.00">var_1</text>
<text text-anchor="middle" x="332" y="-299.8" font-family="Sans-Serif" font-size="14.00">1</text>
</g>
<!-- 134481218754912&#45;&gt;134481218755152 -->
<g id="edge8" class="edge">
<title>134481218754912&#45;&gt;134481218755152</title>
<path fill="none" stroke="#666666" stroke-width="1.2" d="M332,-291.72C332,-283.29 332,-273.15 332,-264.02"/>
<polygon fill="#666666" stroke="#666666" stroke-width="1.2" points="334.8,-264 332,-256 329.2,-264 334.8,-264"/>
</g>
<!-- 134481218754864 -->
<g id="node11" class="node">
<title>134481218754864</title>
<polygon fill="aliceblue" stroke="skyblue" points="320,-38 258,-38 258,0 320,0 320,-38"/>
<text text-anchor="middle" x="289" y="-22.8" font-family="Sans-Serif" font-size="14.00">t2</text>
<text text-anchor="middle" x="289" y="-7.8" font-family="Sans-Serif" font-size="14.00">(1, 1, 6)</text>
</g>
<!-- 134481218754528 -->
<g id="node12" class="node">
<title>134481218754528</title>
<polygon fill="honeydew" stroke="darkseagreen" points="283,-184 211,-184 211,-146 283,-146 283,-184"/>
<text text-anchor="middle" x="247" y="-168.8" font-family="Sans-Serif" font-size="14.00">vector_3</text>
<text text-anchor="middle" x="247" y="-153.8" font-family="Sans-Serif" font-size="14.00">[0, 1]</text>
</g>
<!-- 134481218754528&#45;&gt;134481218755392 -->
<g id="edge11" class="edge">
<title>134481218754528&#45;&gt;134481218755392</title>
<path fill="none" stroke="#666666" stroke-width="1.2" d="M257.82,-145.72C263.01,-136.94 269.29,-126.31 274.86,-116.91"/>
<polygon fill="#666666" stroke="#666666" stroke-width="1.2" points="277.28,-118.31 278.94,-110 272.46,-115.46 277.28,-118.31"/>
</g>
<!-- 134481218755392&#45;&gt;134481218754864 -->
<g id="edge9" class="edge">
<title>134481218755392&#45;&gt;134481218754864</title>
<path fill="none" stroke="#666666" stroke-width="1.2" d="M289,-73.81C289,-65.52 289,-55.39 289,-46.16"/>
<polygon fill="#666666" stroke="#666666" stroke-width="1.2" points="291.8,-46.02 289,-38.02 286.2,-46.02 291.8,-46.02"/>
</g>
</g>
</svg>
