<?xml version="1.0" encoding="UTF-8" standalone="no"?>
<!DOCTYPE svg PUBLIC "-//W3C//DTD SVG 1.1//EN"
 "http://www.w3.org/Graphics/SVG/1.1/DTD/svg11.dtd">
<!-- Generated by graphviz version 2.43.0 (0)
 -->
<!-- Title: %3 Pages: 1 -->
<svg width="199pt" height="338pt"
 viewBox="0.00 0.00 198.50 338.00" xmlns="http://www.w3.org/2000/svg" xmlns:xlink="http://www.w3.org/1999/xlink">
<g id="graph0" class="graph" transform="scale(1 1) rotate(0) translate(4 334)">
<title>%3</title>
<polygon fill="white" stroke="transparent" points="-4,4 -4,-334 194.5,-334 194.5,4 -4,4"/>
<!-- 127069798491920 -->
<g id="node1" class="node">
<title>127069798491920</title>
<polygon fill="aliceblue" stroke="skyblue" points="73,-330 0,-330 0,-292 73,-292 73,-330"/>
<text text-anchor="middle" x="36.5" y="-314.8" font-family="Sans-Serif" font-size="14.00">tensor_1</text>
<text text-anchor="middle" x="36.5" y="-299.8" font-family="Sans-Serif" font-size="14.00">(2, 3, 4)</text>
</g>
<!-- 127069798971664 -->
<g id="node4" class="node">
<title>127069798971664</title>
<polygon fill="lightgray" stroke="darkslategray" points="108.5,-256 54.5,-256 54.5,-220 108.5,-220 108.5,-256"/>
<text text-anchor="middle" x="81.5" y="-234.3" font-family="Courier Bold" font-size="14.00">add</text>
</g>
<!-- 127069798491920&#45;&gt;127069798971664 -->
<g id="edge2" class="edge">
<title>127069798491920&#45;&gt;127069798971664</title>
<path fill="none" stroke="#666666" stroke-width="1.2" d="M48.09,-291.72C53.65,-282.94 60.39,-272.31 66.35,-262.91"/>
<polygon fill="#666666" stroke="#666666" stroke-width="1.2" points="68.81,-264.26 70.72,-256 64.08,-261.26 68.81,-264.26"/>
</g>
<!-- 127069798486976 -->
<g id="node2" class="node">
<title>127069798486976</title>
<polygon fill="aliceblue" stroke="skyblue" points="164,-330 91,-330 91,-292 164,-292 164,-330"/>
<text text-anchor="middle" x="127.5" y="-314.8" font-family="Sans-Serif" font-size="14.00">tensor_2</text>
<text text-anchor="middle" x="127.5" y="-299.8" font-family="Sans-Serif" font-size="14.00">(2, 3, 4)</text>
</g>
<!-- 127069798486976&#45;&gt;127069798971664 -->
<g id="edge3" class="edge">
<title>127069798486976&#45;&gt;127069798971664</title>
<path fill="none" stroke="#666666" stroke-width="1.2" d="M115.65,-291.72C109.97,-282.94 103.08,-272.31 96.99,-262.91"/>
<polygon fill="#666666" stroke="#666666" stroke-width="1.2" points="99.22,-261.19 92.52,-256 94.52,-264.24 99.22,-261.19"/>
</g>
<!-- 127069798971424 -->
<g id="node3" class="node">
<title>127069798971424</title>
<polygon fill="aliceblue" stroke="skyblue" points="118,-184 45,-184 45,-146 118,-146 118,-184"/>
<text text-anchor="middle" x="81.5" y="-168.8" font-family="Sans-Serif" font-size="14.00">tensor_3</text>
<text text-anchor="middle" x="81.5" y="-153.8" font-family="Sans-Serif" font-size="14.00">(2, 3, 4)</text>
</g>
<!-- 127069798971952 -->
<g id="node6" class="node">
<title>127069798971952</title>
<polygon fill="lightgray" stroke="darkslategray" points="172,-110 73,-110 73,-74 172,-74 172,-110"/>
<text text-anchor="middle" x="122.5" y="-88.3" font-family="Courier Bold" font-size="14.00">add_scalar</text>
</g>
<!-- 127069798971424&#45;&gt;127069798971952 -->
<g id="edge5" class="edge">
<title>127069798971424&#45;&gt;127069798971952</title>
<path fill="none" stroke="#666666" stroke-width="1.2" d="M92.06,-145.72C97.08,-137.03 103.14,-126.52 108.53,-117.19"/>
<polygon fill="#666666" stroke="#666666" stroke-width="1.2" points="111.11,-118.33 112.68,-110 106.26,-115.53 111.11,-118.33"/>
</g>
<!-- 127069798971664&#45;&gt;127069798971424 -->
<g id="edge1" class="edge">
<title>127069798971664&#45;&gt;127069798971424</title>
<path fill="none" stroke="#666666" stroke-width="1.2" d="M81.5,-219.81C81.5,-211.52 81.5,-201.39 81.5,-192.16"/>
<polygon fill="#666666" stroke="#666666" stroke-width="1.2" points="84.3,-192.02 81.5,-184.02 78.7,-192.02 84.3,-192.02"/>
</g>
<!-- 127069798971856 -->
<g id="node5" class="node">
<title>127069798971856</title>
<polygon fill="aliceblue" stroke="skyblue" points="159,-38 86,-38 86,0 159,0 159,-38"/>
<text text-anchor="middle" x="122.5" y="-22.8" font-family="Sans-Serif" font-size="14.00">tensor_4</text>
<text text-anchor="middle" x="122.5" y="-7.8" font-family="Sans-Serif" font-size="14.00">(2, 3, 4)</text>
</g>
<!-- 127069798971952&#45;&gt;127069798971856 -->
<g id="edge4" class="edge">
<title>127069798971952&#45;&gt;127069798971856</title>
<path fill="none" stroke="#666666" stroke-width="1.2" d="M122.5,-73.81C122.5,-65.52 122.5,-55.39 122.5,-46.16"/>
<polygon fill="#666666" stroke="#666666" stroke-width="1.2" points="125.3,-46.02 122.5,-38.02 119.7,-46.02 125.3,-46.02"/>
</g>
<!-- 127069798971904 -->
<g id="node7" class="node">
<title>127069798971904</title>
<polygon fill="moccasin" stroke="orange" points="190.5,-184 136.5,-184 136.5,-146 190.5,-146 190.5,-184"/>
<text text-anchor="middle" x="163.5" y="-168.8" font-family="Sans-Serif" font-size="14.00">var_1</text>
<text text-anchor="middle" x="163.5" y="-153.8" font-family="Sans-Serif" font-size="14.00">0.5</text>
</g>
<!-- 127069798971904&#45;&gt;127069798971952 -->
<g id="edge6" class="edge">
<title>127069798971904&#45;&gt;127069798971952</title>
<path fill="none" stroke="#666666" stroke-width="1.2" d="M152.94,-145.72C147.92,-137.03 141.86,-126.52 136.47,-117.19"/>
<polygon fill="#666666" stroke="#666666" stroke-width="1.2" points="138.74,-115.53 132.32,-110 133.89,-118.33 138.74,-115.53"/>
</g>
</g>
</svg>
