<?xml version="1.0" encoding="UTF-8" standalone="no"?>
<!DOCTYPE svg PUBLIC "-//W3C//DTD SVG 1.1//EN"
 "http://www.w3.org/Graphics/SVG/1.1/DTD/svg11.dtd">
<!-- Generated by graphviz version 2.43.0 (0)
 -->
<!-- Title: %3 Pages: 1 -->
<svg width="687pt" height="484pt"
 viewBox="0.00 0.00 686.50 484.00" xmlns="http://www.w3.org/2000/svg" xmlns:xlink="http://www.w3.org/1999/xlink">
<g id="graph0" class="graph" transform="scale(1 1) rotate(0) translate(4 480)">
<title>%3</title>
<polygon fill="white" stroke="transparent" points="-4,4 -4,-480 682.5,-480 682.5,4 -4,4"/>
<!-- 128356847915584 -->
<g id="node1" class="node">
<title>128356847915584</title>
<polygon fill="aliceblue" stroke="skyblue" points="258,-330 185,-330 185,-292 258,-292 258,-330"/>
<text text-anchor="middle" x="221.5" y="-314.8" font-family="Sans-Serif" font-size="14.00">tensor_1</text>
<text text-anchor="middle" x="221.5" y="-299.8" font-family="Sans-Serif" font-size="14.00">(3, 4, 5)</text>
</g>
<!-- 128356847915200 -->
<g id="node8" class="node">
<title>128356847915200</title>
<polygon fill="lightgray" stroke="darkslategray" points="159.5,-256 105.5,-256 105.5,-220 159.5,-220 159.5,-256"/>
<text text-anchor="middle" x="132.5" y="-234.3" font-family="Courier Bold" font-size="14.00">add</text>
</g>
<!-- 128356847915584&#45;&gt;128356847915200 -->
<g id="edge6" class="edge">
<title>128356847915584&#45;&gt;128356847915200</title>
<path fill="none" stroke="#666666" stroke-width="1.2" d="M198.58,-291.72C186.93,-282.42 172.69,-271.06 160.41,-261.26"/>
<polygon fill="#666666" stroke="#666666" stroke-width="1.2" points="161.81,-258.8 153.81,-256 158.32,-263.18 161.81,-258.8"/>
</g>
<!-- 128356847915680 -->
<g id="node2" class="node">
<title>128356847915680</title>
<polygon fill="lightgray" stroke="darkslategray" points="268,-402 185,-402 185,-366 268,-366 268,-402"/>
<text text-anchor="middle" x="226.5" y="-380.3" font-family="Courier Bold" font-size="14.00">constant</text>
</g>
<!-- 128356847915680&#45;&gt;128356847915584 -->
<g id="edge1" class="edge">
<title>128356847915680&#45;&gt;128356847915584</title>
<path fill="none" stroke="#666666" stroke-width="1.2" d="M225.29,-365.81C224.71,-357.52 223.99,-347.39 223.34,-338.16"/>
<polygon fill="#666666" stroke="#666666" stroke-width="1.2" points="226.12,-337.8 222.77,-330.02 220.54,-338.2 226.12,-337.8"/>
</g>
<!-- 128356848020080 -->
<g id="node3" class="node">
<title>128356848020080</title>
<polygon fill="moccasin" stroke="orange" points="253.5,-476 199.5,-476 199.5,-438 253.5,-438 253.5,-476"/>
<text text-anchor="middle" x="226.5" y="-460.8" font-family="Sans-Serif" font-size="14.00">var_1</text>
<text text-anchor="middle" x="226.5" y="-445.8" font-family="Sans-Serif" font-size="14.00">0</text>
</g>
<!-- 128356848020080&#45;&gt;128356847915680 -->
<g id="edge2" class="edge">
<title>128356848020080&#45;&gt;128356847915680</title>
<path fill="none" stroke="#666666" stroke-width="1.2" d="M226.5,-437.72C226.5,-429.29 226.5,-419.15 226.5,-410.02"/>
<polygon fill="#666666" stroke="#666666" stroke-width="1.2" points="229.3,-410 226.5,-402 223.7,-410 229.3,-410"/>
</g>
<!-- 128356847915488 -->
<g id="node4" class="node">
<title>128356847915488</title>
<polygon fill="aliceblue" stroke="skyblue" points="164,-330 91,-330 91,-292 164,-292 164,-330"/>
<text text-anchor="middle" x="127.5" y="-314.8" font-family="Sans-Serif" font-size="14.00">tensor_2</text>
<text text-anchor="middle" x="127.5" y="-299.8" font-family="Sans-Serif" font-size="14.00">(3, 4, 5)</text>
</g>
<!-- 128356847915488&#45;&gt;128356847915200 -->
<g id="edge7" class="edge">
<title>128356847915488&#45;&gt;128356847915200</title>
<path fill="none" stroke="#666666" stroke-width="1.2" d="M128.79,-291.72C129.38,-283.29 130.1,-273.15 130.74,-264.02"/>
<polygon fill="#666666" stroke="#666666" stroke-width="1.2" points="133.53,-264.18 131.3,-256 127.95,-263.79 133.53,-264.18"/>
</g>
<!-- 128356847915728 -->
<g id="node5" class="node">
<title>128356847915728</title>
<polygon fill="lightgray" stroke="darkslategray" points="167,-402 84,-402 84,-366 167,-366 167,-402"/>
<text text-anchor="middle" x="125.5" y="-380.3" font-family="Courier Bold" font-size="14.00">constant</text>
</g>
<!-- 128356847915728&#45;&gt;128356847915488 -->
<g id="edge3" class="edge">
<title>128356847915728&#45;&gt;128356847915488</title>
<path fill="none" stroke="#666666" stroke-width="1.2" d="M125.98,-365.81C126.22,-357.52 126.5,-347.39 126.76,-338.16"/>
<polygon fill="#666666" stroke="#666666" stroke-width="1.2" points="129.57,-338.1 126.99,-330.02 123.97,-337.94 129.57,-338.1"/>
</g>
<!-- 128356847915536 -->
<g id="node6" class="node">
<title>128356847915536</title>
<polygon fill="moccasin" stroke="orange" points="152.5,-476 98.5,-476 98.5,-438 152.5,-438 152.5,-476"/>
<text text-anchor="middle" x="125.5" y="-460.8" font-family="Sans-Serif" font-size="14.00">var_2</text>
<text text-anchor="middle" x="125.5" y="-445.8" font-family="Sans-Serif" font-size="14.00">1</text>
</g>
<!-- 128356847915536&#45;&gt;128356847915728 -->
<g id="edge4" class="edge">
<title>128356847915536&#45;&gt;128356847915728</title>
<path fill="none" stroke="#666666" stroke-width="1.2" d="M125.5,-437.72C125.5,-429.29 125.5,-419.15 125.5,-410.02"/>
<polygon fill="#666666" stroke="#666666" stroke-width="1.2" points="128.3,-410 125.5,-402 122.7,-410 128.3,-410"/>
</g>
<!-- 128356847915296 -->
<g id="node7" class="node">
<title>128356847915296</title>
<polygon fill="aliceblue" stroke="skyblue" points="169,-184 96,-184 96,-146 169,-146 169,-184"/>
<text text-anchor="middle" x="132.5" y="-168.8" font-family="Sans-Serif" font-size="14.00">tensor_3</text>
<text text-anchor="middle" x="132.5" y="-153.8" font-family="Sans-Serif" font-size="14.00">(3, 4, 5)</text>
</g>
<!-- 128356847914480 -->
<g id="node13" class="node">
<title>128356847914480</title>
<polygon fill="lightgray" stroke="darkslategray" points="113.5,-110 59.5,-110 59.5,-74 113.5,-74 113.5,-110"/>
<text text-anchor="middle" x="86.5" y="-88.3" font-family="Courier Bold" font-size="14.00">add</text>
</g>
<!-- 128356847915296&#45;&gt;128356847914480 -->
<g id="edge12" class="edge">
<title>128356847915296&#45;&gt;128356847914480</title>
<path fill="none" stroke="#666666" stroke-width="1.2" d="M120.65,-145.72C114.97,-136.94 108.08,-126.31 101.99,-116.91"/>
<polygon fill="#666666" stroke="#666666" stroke-width="1.2" points="104.22,-115.19 97.52,-110 99.52,-118.24 104.22,-115.19"/>
</g>
<!-- 128356847915200&#45;&gt;128356847915296 -->
<g id="edge5" class="edge">
<title>128356847915200&#45;&gt;128356847915296</title>
<path fill="none" stroke="#666666" stroke-width="1.2" d="M132.5,-219.81C132.5,-211.52 132.5,-201.39 132.5,-192.16"/>
<polygon fill="#666666" stroke="#666666" stroke-width="1.2" points="135.3,-192.02 132.5,-184.02 129.7,-192.02 135.3,-192.02"/>
</g>
<!-- 128356847914912 -->
<g id="node9" class="node">
<title>128356847914912</title>
<polygon fill="aliceblue" stroke="skyblue" points="78,-184 5,-184 5,-146 78,-146 78,-184"/>
<text text-anchor="middle" x="41.5" y="-168.8" font-family="Sans-Serif" font-size="14.00">tensor_4</text>
<text text-anchor="middle" x="41.5" y="-153.8" font-family="Sans-Serif" font-size="14.00">(3, 4, 5)</text>
</g>
<!-- 128356847914912&#45;&gt;128356847914480 -->
<g id="edge11" class="edge">
<title>128356847914912&#45;&gt;128356847914480</title>
<path fill="none" stroke="#666666" stroke-width="1.2" d="M53.09,-145.72C58.65,-136.94 65.39,-126.31 71.35,-116.91"/>
<polygon fill="#666666" stroke="#666666" stroke-width="1.2" points="73.81,-118.26 75.72,-110 69.08,-115.26 73.81,-118.26"/>
</g>
<!-- 128356847914864 -->
<g id="node10" class="node">
<title>128356847914864</title>
<polygon fill="lightgray" stroke="darkslategray" points="83,-256 0,-256 0,-220 83,-220 83,-256"/>
<text text-anchor="middle" x="41.5" y="-234.3" font-family="Courier Bold" font-size="14.00">constant</text>
</g>
<!-- 128356847914864&#45;&gt;128356847914912 -->
<g id="edge8" class="edge">
<title>128356847914864&#45;&gt;128356847914912</title>
<path fill="none" stroke="#666666" stroke-width="1.2" d="M41.5,-219.81C41.5,-211.52 41.5,-201.39 41.5,-192.16"/>
<polygon fill="#666666" stroke="#666666" stroke-width="1.2" points="44.3,-192.02 41.5,-184.02 38.7,-192.02 44.3,-192.02"/>
</g>
<!-- 128356847915104 -->
<g id="node11" class="node">
<title>128356847915104</title>
<polygon fill="moccasin" stroke="orange" points="68.5,-330 14.5,-330 14.5,-292 68.5,-292 68.5,-330"/>
<text text-anchor="middle" x="41.5" y="-314.8" font-family="Sans-Serif" font-size="14.00">var_3</text>
<text text-anchor="middle" x="41.5" y="-299.8" font-family="Sans-Serif" font-size="14.00">0.5</text>
</g>
<!-- 128356847915104&#45;&gt;128356847914864 -->
<g id="edge9" class="edge">
<title>128356847915104&#45;&gt;128356847914864</title>
<path fill="none" stroke="#666666" stroke-width="1.2" d="M41.5,-291.72C41.5,-283.29 41.5,-273.15 41.5,-264.02"/>
<polygon fill="#666666" stroke="#666666" stroke-width="1.2" points="44.3,-264 41.5,-256 38.7,-264 44.3,-264"/>
</g>
<!-- 128356847914576 -->
<g id="node12" class="node">
<title>128356847914576</title>
<polygon fill="aliceblue" stroke="skyblue" points="123,-38 50,-38 50,0 123,0 123,-38"/>
<text text-anchor="middle" x="86.5" y="-22.8" font-family="Sans-Serif" font-size="14.00">tensor_5</text>
<text text-anchor="middle" x="86.5" y="-7.8" font-family="Sans-Serif" font-size="14.00">(3, 4, 5)</text>
</g>
<!-- 128356847914480&#45;&gt;128356847914576 -->
<g id="edge10" class="edge">
<title>128356847914480&#45;&gt;128356847914576</title>
<path fill="none" stroke="#666666" stroke-width="1.2" d="M86.5,-73.81C86.5,-65.52 86.5,-55.39 86.5,-46.16"/>
<polygon fill="#666666" stroke="#666666" stroke-width="1.2" points="89.3,-46.02 86.5,-38.02 83.7,-46.02 89.3,-46.02"/>
</g>
<!-- 128356847913952 -->
<g id="node14" class="node">
<title>128356847913952</title>
<polygon fill="aliceblue" stroke="skyblue" points="418,-330 345,-330 345,-292 418,-292 418,-330"/>
<text text-anchor="middle" x="381.5" y="-314.8" font-family="Sans-Serif" font-size="14.00">tensor_6</text>
<text text-anchor="middle" x="381.5" y="-299.8" font-family="Sans-Serif" font-size="14.00">(3, 4, 5)</text>
</g>
<!-- 128356847913904 -->
<g id="node15" class="node">
<title>128356847913904</title>
<polygon fill="lightgray" stroke="darkslategray" points="369,-402 286,-402 286,-366 369,-366 369,-402"/>
<text text-anchor="middle" x="327.5" y="-380.3" font-family="Courier Bold" font-size="14.00">constant</text>
</g>
<!-- 128356847913904&#45;&gt;128356847913952 -->
<g id="edge13" class="edge">
<title>128356847913904&#45;&gt;128356847913952</title>
<path fill="none" stroke="#666666" stroke-width="1.2" d="M340.57,-365.81C347.27,-357.01 355.54,-346.14 362.88,-336.48"/>
<polygon fill="#666666" stroke="#666666" stroke-width="1.2" points="365.18,-338.08 367.79,-330.02 360.72,-334.69 365.18,-338.08"/>
</g>
<!-- 128356847914144 -->
<g id="node16" class="node">
<title>128356847914144</title>
<polygon fill="moccasin" stroke="orange" points="342.5,-476 288.5,-476 288.5,-438 342.5,-438 342.5,-476"/>
<text text-anchor="middle" x="315.5" y="-460.8" font-family="Sans-Serif" font-size="14.00">var_4</text>
<text text-anchor="middle" x="315.5" y="-445.8" font-family="Sans-Serif" font-size="14.00">0</text>
</g>
<!-- 128356847914144&#45;&gt;128356847913904 -->
<g id="edge15" class="edge">
<title>128356847914144&#45;&gt;128356847913904</title>
<path fill="none" stroke="#666666" stroke-width="1.2" d="M318.59,-437.72C320.02,-429.29 321.73,-419.15 323.27,-410.02"/>
<polygon fill="#666666" stroke="#666666" stroke-width="1.2" points="326.05,-410.36 324.63,-402 320.53,-409.42 326.05,-410.36"/>
</g>
<!-- 128356847913808 -->
<g id="node17" class="node">
<title>128356847913808</title>
<polygon fill="moccasin" stroke="orange" points="512.5,-476 360.5,-476 360.5,-438 512.5,-438 512.5,-476"/>
<text text-anchor="middle" x="436.5" y="-460.8" font-family="Sans-Serif" font-size="14.00">var_5</text>
<text text-anchor="middle" x="436.5" y="-445.8" font-family="Sans-Serif" font-size="14.00">&#45;0.5477225575051661</text>
</g>
<!-- 128356847926144 -->
<g id="node19" class="node">
<title>128356847926144</title>
<polygon fill="lightgray" stroke="darkslategray" points="473.5,-402 399.5,-402 399.5,-366 473.5,-366 473.5,-402"/>
<text text-anchor="middle" x="436.5" y="-380.3" font-family="Courier Bold" font-size="14.00">uniform</text>
</g>
<!-- 128356847913808&#45;&gt;128356847926144 -->
<g id="edge16" class="edge">
<title>128356847913808&#45;&gt;128356847926144</title>
<path fill="none" stroke="#666666" stroke-width="1.2" d="M436.5,-437.72C436.5,-429.29 436.5,-419.15 436.5,-410.02"/>
<polygon fill="#666666" stroke="#666666" stroke-width="1.2" points="439.3,-410 436.5,-402 433.7,-410 439.3,-410"/>
</g>
<!-- 128356847913760 -->
<g id="node18" class="node">
<title>128356847913760</title>
<polygon fill="moccasin" stroke="orange" points="678.5,-476 530.5,-476 530.5,-438 678.5,-438 678.5,-476"/>
<text text-anchor="middle" x="604.5" y="-460.8" font-family="Sans-Serif" font-size="14.00">var_6</text>
<text text-anchor="middle" x="604.5" y="-445.8" font-family="Sans-Serif" font-size="14.00">0.5477225575051661</text>
</g>
<!-- 128356847913760&#45;&gt;128356847926144 -->
<g id="edge17" class="edge">
<title>128356847913760&#45;&gt;128356847926144</title>
<path fill="none" stroke="#666666" stroke-width="1.2" d="M561.67,-437.9C537,-427.47 506.04,-414.39 481.08,-403.84"/>
<polygon fill="#666666" stroke="#666666" stroke-width="1.2" points="482,-401.19 473.54,-400.66 479.82,-406.35 482,-401.19"/>
</g>
<!-- 128356847926144&#45;&gt;128356847913952 -->
<g id="edge14" class="edge">
<title>128356847926144&#45;&gt;128356847913952</title>
<path fill="none" stroke="#666666" stroke-width="1.2" d="M423.19,-365.81C416.37,-357.01 407.94,-346.14 400.46,-336.48"/>
<polygon fill="#666666" stroke="#666666" stroke-width="1.2" points="402.57,-334.63 395.46,-330.02 398.14,-338.06 402.57,-334.63"/>
</g>
</g>
</svg>
