<?xml version="1.0" encoding="UTF-8" standalone="no"?>
<!DOCTYPE svg PUBLIC "-//W3C//DTD SVG 1.1//EN"
 "http://www.w3.org/Graphics/SVG/1.1/DTD/svg11.dtd">
<!-- Generated by graphviz version 2.43.0 (0)
 -->
<!-- Title: %3 Pages: 1 -->
<svg width="245pt" height="630pt"
 viewBox="0.00 0.00 244.50 630.00" xmlns="http://www.w3.org/2000/svg" xmlns:xlink="http://www.w3.org/1999/xlink">
<g id="graph0" class="graph" transform="scale(1 1) rotate(0) translate(4 626)">
<title>%3</title>
<polygon fill="white" stroke="transparent" points="-4,4 -4,-626 240.5,-626 240.5,4 -4,4"/>
<!-- 125020155357376 -->
<g id="node1" class="node">
<title>125020155357376</title>
<polygon fill="aliceblue" stroke="skyblue" points="231.5,-476 158.5,-476 158.5,-438 231.5,-438 231.5,-476"/>
<text text-anchor="middle" x="195" y="-460.8" font-family="Sans-Serif" font-size="14.00">tensor_1</text>
<text text-anchor="middle" x="195" y="-445.8" font-family="Sans-Serif" font-size="14.00">(2, 3)</text>
</g>
<!-- 125020155836256 -->
<g id="node5" class="node">
<title>125020155836256</title>
<polygon fill="lightgray" stroke="darkslategray" points="203.5,-402 104.5,-402 104.5,-366 203.5,-366 203.5,-402"/>
<text text-anchor="middle" x="154" y="-380.3" font-family="Courier Bold" font-size="14.00">add_scalar</text>
</g>
<!-- 125020155357376&#45;&gt;125020155836256 -->
<g id="edge4" class="edge">
<title>125020155357376&#45;&gt;125020155836256</title>
<path fill="none" stroke="#666666" stroke-width="1.2" d="M184.44,-437.72C179.42,-429.03 173.36,-418.52 167.97,-409.19"/>
<polygon fill="#666666" stroke="#666666" stroke-width="1.2" points="170.24,-407.53 163.82,-402 165.39,-410.33 170.24,-407.53"/>
</g>
<!-- 125020155356608 -->
<g id="node2" class="node">
<title>125020155356608</title>
<polygon fill="lightgray" stroke="darkslategray" points="236.5,-548 153.5,-548 153.5,-512 236.5,-512 236.5,-548"/>
<text text-anchor="middle" x="195" y="-526.3" font-family="Courier Bold" font-size="14.00">constant</text>
</g>
<!-- 125020155356608&#45;&gt;125020155357376 -->
<g id="edge1" class="edge">
<title>125020155356608&#45;&gt;125020155357376</title>
<path fill="none" stroke="#666666" stroke-width="1.2" d="M195,-511.81C195,-503.52 195,-493.39 195,-484.16"/>
<polygon fill="#666666" stroke="#666666" stroke-width="1.2" points="197.8,-484.02 195,-476.02 192.2,-484.02 197.8,-484.02"/>
</g>
<!-- 125020155349360 -->
<g id="node3" class="node">
<title>125020155349360</title>
<polygon fill="moccasin" stroke="orange" points="222,-622 168,-622 168,-584 222,-584 222,-622"/>
<text text-anchor="middle" x="195" y="-606.8" font-family="Sans-Serif" font-size="14.00">var_1</text>
<text text-anchor="middle" x="195" y="-591.8" font-family="Sans-Serif" font-size="14.00">1</text>
</g>
<!-- 125020155349360&#45;&gt;125020155356608 -->
<g id="edge2" class="edge">
<title>125020155349360&#45;&gt;125020155356608</title>
<path fill="none" stroke="#666666" stroke-width="1.2" d="M195,-583.72C195,-575.29 195,-565.15 195,-556.02"/>
<polygon fill="#666666" stroke="#666666" stroke-width="1.2" points="197.8,-556 195,-548 192.2,-556 197.8,-556"/>
</g>
<!-- 125020155836160 -->
<g id="node4" class="node">
<title>125020155836160</title>
<polygon fill="aliceblue" stroke="skyblue" points="190.5,-330 117.5,-330 117.5,-292 190.5,-292 190.5,-330"/>
<text text-anchor="middle" x="154" y="-314.8" font-family="Sans-Serif" font-size="14.00">tensor_2</text>
<text text-anchor="middle" x="154" y="-299.8" font-family="Sans-Serif" font-size="14.00">(2, 3)</text>
</g>
<!-- 125020155836640 -->
<g id="node8" class="node">
<title>125020155836640</title>
<polygon fill="lightgray" stroke="darkslategray" points="145,-256 91,-256 91,-220 145,-220 145,-256"/>
<text text-anchor="middle" x="118" y="-234.3" font-family="Courier Bold" font-size="14.00">sqrt</text>
</g>
<!-- 125020155836160&#45;&gt;125020155836640 -->
<g id="edge7" class="edge">
<title>125020155836160&#45;&gt;125020155836640</title>
<path fill="none" stroke="#666666" stroke-width="1.2" d="M144.73,-291.72C140.32,-283.03 135,-272.52 130.26,-263.19"/>
<polygon fill="#666666" stroke="#666666" stroke-width="1.2" points="132.74,-261.87 126.62,-256 127.74,-264.4 132.74,-261.87"/>
</g>
<!-- 125020155836976 -->
<g id="node10" class="node">
<title>125020155836976</title>
<polygon fill="lightgray" stroke="darkslategray" points="222,-256 168,-256 168,-220 222,-220 222,-256"/>
<text text-anchor="middle" x="195" y="-234.3" font-family="Courier Bold" font-size="14.00">sqrt</text>
</g>
<!-- 125020155836160&#45;&gt;125020155836976 -->
<g id="edge9" class="edge">
<title>125020155836160&#45;&gt;125020155836976</title>
<path fill="none" stroke="#666666" stroke-width="1.2" d="M164.56,-291.72C169.58,-283.03 175.64,-272.52 181.03,-263.19"/>
<polygon fill="#666666" stroke="#666666" stroke-width="1.2" points="183.61,-264.33 185.18,-256 178.76,-261.53 183.61,-264.33"/>
</g>
<!-- 125020155836256&#45;&gt;125020155836160 -->
<g id="edge3" class="edge">
<title>125020155836256&#45;&gt;125020155836160</title>
<path fill="none" stroke="#666666" stroke-width="1.2" d="M154,-365.81C154,-357.52 154,-347.39 154,-338.16"/>
<polygon fill="#666666" stroke="#666666" stroke-width="1.2" points="156.8,-338.02 154,-330.02 151.2,-338.02 156.8,-338.02"/>
</g>
<!-- 125020155835824 -->
<g id="node6" class="node">
<title>125020155835824</title>
<polygon fill="moccasin" stroke="orange" points="140,-476 86,-476 86,-438 140,-438 140,-476"/>
<text text-anchor="middle" x="113" y="-460.8" font-family="Sans-Serif" font-size="14.00">var_2</text>
<text text-anchor="middle" x="113" y="-445.8" font-family="Sans-Serif" font-size="14.00">3</text>
</g>
<!-- 125020155835824&#45;&gt;125020155836256 -->
<g id="edge5" class="edge">
<title>125020155835824&#45;&gt;125020155836256</title>
<path fill="none" stroke="#666666" stroke-width="1.2" d="M123.56,-437.72C128.58,-429.03 134.64,-418.52 140.03,-409.19"/>
<polygon fill="#666666" stroke="#666666" stroke-width="1.2" points="142.61,-410.33 144.18,-402 137.76,-407.53 142.61,-410.33"/>
</g>
<!-- 125020155836592 -->
<g id="node7" class="node">
<title>125020155836592</title>
<polygon fill="aliceblue" stroke="skyblue" points="145.5,-184 72.5,-184 72.5,-146 145.5,-146 145.5,-184"/>
<text text-anchor="middle" x="109" y="-168.8" font-family="Sans-Serif" font-size="14.00">tensor_3</text>
<text text-anchor="middle" x="109" y="-153.8" font-family="Sans-Serif" font-size="14.00">(2, 3)</text>
</g>
<!-- 125020155836640&#45;&gt;125020155836592 -->
<g id="edge6" class="edge">
<title>125020155836640&#45;&gt;125020155836592</title>
<path fill="none" stroke="#666666" stroke-width="1.2" d="M115.82,-219.81C114.77,-211.52 113.49,-201.39 112.32,-192.16"/>
<polygon fill="#666666" stroke="#666666" stroke-width="1.2" points="115.07,-191.6 111.28,-184.02 109.51,-192.31 115.07,-191.6"/>
</g>
<!-- 125020155836928 -->
<g id="node9" class="node">
<title>125020155836928</title>
<polygon fill="aliceblue" stroke="skyblue" points="236.5,-184 163.5,-184 163.5,-146 236.5,-146 236.5,-184"/>
<text text-anchor="middle" x="200" y="-168.8" font-family="Sans-Serif" font-size="14.00">tensor_4</text>
<text text-anchor="middle" x="200" y="-153.8" font-family="Sans-Serif" font-size="14.00">(2, 3)</text>
</g>
<!-- 125020155837312 -->
<g id="node12" class="node">
<title>125020155837312</title>
<polygon fill="lightgray" stroke="darkslategray" points="166.5,-110 59.5,-110 59.5,-74 166.5,-74 166.5,-110"/>
<text text-anchor="middle" x="113" y="-88.3" font-family="Courier Bold" font-size="14.00">rdiv_scalar</text>
</g>
<!-- 125020155836928&#45;&gt;125020155837312 -->
<g id="edge12" class="edge">
<title>125020155836928&#45;&gt;125020155837312</title>
<path fill="none" stroke="#666666" stroke-width="1.2" d="M177.6,-145.72C166.21,-136.42 152.28,-125.06 140.28,-115.26"/>
<polygon fill="#666666" stroke="#666666" stroke-width="1.2" points="141.8,-112.89 133.84,-110 138.26,-117.23 141.8,-112.89"/>
</g>
<!-- 125020155836976&#45;&gt;125020155836928 -->
<g id="edge8" class="edge">
<title>125020155836976&#45;&gt;125020155836928</title>
<path fill="none" stroke="#666666" stroke-width="1.2" d="M196.21,-219.81C196.79,-211.52 197.51,-201.39 198.16,-192.16"/>
<polygon fill="#666666" stroke="#666666" stroke-width="1.2" points="200.96,-192.2 198.73,-184.02 195.38,-191.8 200.96,-192.2"/>
</g>
<!-- 125020155837216 -->
<g id="node11" class="node">
<title>125020155837216</title>
<polygon fill="aliceblue" stroke="skyblue" points="149.5,-38 76.5,-38 76.5,0 149.5,0 149.5,-38"/>
<text text-anchor="middle" x="113" y="-22.8" font-family="Sans-Serif" font-size="14.00">tensor_5</text>
<text text-anchor="middle" x="113" y="-7.8" font-family="Sans-Serif" font-size="14.00">(2, 3)</text>
</g>
<!-- 125020155837312&#45;&gt;125020155837216 -->
<g id="edge10" class="edge">
<title>125020155837312&#45;&gt;125020155837216</title>
<path fill="none" stroke="#666666" stroke-width="1.2" d="M113,-73.81C113,-65.52 113,-55.39 113,-46.16"/>
<polygon fill="#666666" stroke="#666666" stroke-width="1.2" points="115.8,-46.02 113,-38.02 110.2,-46.02 115.8,-46.02"/>
</g>
<!-- 125020155837264 -->
<g id="node13" class="node">
<title>125020155837264</title>
<polygon fill="moccasin" stroke="orange" points="54,-184 0,-184 0,-146 54,-146 54,-184"/>
<text text-anchor="middle" x="27" y="-168.8" font-family="Sans-Serif" font-size="14.00">var_3</text>
<text text-anchor="middle" x="27" y="-153.8" font-family="Sans-Serif" font-size="14.00">1</text>
</g>
<!-- 125020155837264&#45;&gt;125020155837312 -->
<g id="edge11" class="edge">
<title>125020155837264&#45;&gt;125020155837312</title>
<path fill="none" stroke="#666666" stroke-width="1.2" d="M49.15,-145.72C60.4,-136.42 74.17,-125.06 86.04,-115.26"/>
<polygon fill="#666666" stroke="#666666" stroke-width="1.2" points="88.02,-117.26 92.4,-110 84.45,-112.94 88.02,-117.26"/>
</g>
</g>
</svg>
