<?xml version="1.0" encoding="UTF-8" standalone="no"?>
<!DOCTYPE svg PUBLIC "-//W3C//DTD SVG 1.1//EN"
 "http://www.w3.org/Graphics/SVG/1.1/DTD/svg11.dtd">
<!-- Generated by graphviz version 2.43.0 (0)
 -->
<!-- Title: %3 Pages: 1 -->
<svg width="276pt" height="484pt"
 viewBox="0.00 0.00 276.00 484.00" xmlns="http://www.w3.org/2000/svg" xmlns:xlink="http://www.w3.org/1999/xlink">
<g id="graph0" class="graph" transform="scale(1 1) rotate(0) translate(4 480)">
<title>%3</title>
<polygon fill="white" stroke="transparent" points="-4,4 -4,-480 272,-480 272,4 -4,4"/>
<!-- 137458680532176 -->
<g id="node1" class="node">
<title>137458680532176</title>
<polygon fill="aliceblue" stroke="skyblue" points="260,-330 187,-330 187,-292 260,-292 260,-330"/>
<text text-anchor="middle" x="223.5" y="-314.8" font-family="Sans-Serif" font-size="14.00">tensor_1</text>
<text text-anchor="middle" x="223.5" y="-299.8" font-family="Sans-Serif" font-size="14.00">(3, 4, 5)</text>
</g>
<!-- 137458681019168 -->
<g id="node8" class="node">
<title>137458681019168</title>
<polygon fill="lightgray" stroke="darkslategray" points="159.5,-256 105.5,-256 105.5,-220 159.5,-220 159.5,-256"/>
<text text-anchor="middle" x="132.5" y="-234.3" font-family="Courier Bold" font-size="14.00">add</text>
</g>
<!-- 137458680532176&#45;&gt;137458681019168 -->
<g id="edge6" class="edge">
<title>137458680532176&#45;&gt;137458681019168</title>
<path fill="none" stroke="#666666" stroke-width="1.2" d="M200.07,-291.72C188.05,-282.34 173.32,-270.85 160.68,-260.99"/>
<polygon fill="#666666" stroke="#666666" stroke-width="1.2" points="162.32,-258.72 154.29,-256 158.88,-263.13 162.32,-258.72"/>
</g>
<!-- 137458680539088 -->
<g id="node2" class="node">
<title>137458680539088</title>
<polygon fill="lightgray" stroke="darkslategray" points="268,-402 185,-402 185,-366 268,-366 268,-402"/>
<text text-anchor="middle" x="226.5" y="-380.3" font-family="Courier Bold" font-size="14.00">constant</text>
</g>
<!-- 137458680539088&#45;&gt;137458680532176 -->
<g id="edge1" class="edge">
<title>137458680539088&#45;&gt;137458680532176</title>
<path fill="none" stroke="#666666" stroke-width="1.2" d="M225.77,-365.81C225.42,-357.52 225,-347.39 224.61,-338.16"/>
<polygon fill="#666666" stroke="#666666" stroke-width="1.2" points="227.4,-337.89 224.26,-330.02 221.8,-338.13 227.4,-337.89"/>
</g>
<!-- 137458680539856 -->
<g id="node3" class="node">
<title>137458680539856</title>
<polygon fill="moccasin" stroke="orange" points="253.5,-476 199.5,-476 199.5,-438 253.5,-438 253.5,-476"/>
<text text-anchor="middle" x="226.5" y="-460.8" font-family="Sans-Serif" font-size="14.00">var_1</text>
<text text-anchor="middle" x="226.5" y="-445.8" font-family="Sans-Serif" font-size="14.00">0</text>
</g>
<!-- 137458680539856&#45;&gt;137458680539088 -->
<g id="edge2" class="edge">
<title>137458680539856&#45;&gt;137458680539088</title>
<path fill="none" stroke="#666666" stroke-width="1.2" d="M226.5,-437.72C226.5,-429.29 226.5,-419.15 226.5,-410.02"/>
<polygon fill="#666666" stroke="#666666" stroke-width="1.2" points="229.3,-410 226.5,-402 223.7,-410 229.3,-410"/>
</g>
<!-- 137458681018640 -->
<g id="node4" class="node">
<title>137458681018640</title>
<polygon fill="aliceblue" stroke="skyblue" points="164,-330 91,-330 91,-292 164,-292 164,-330"/>
<text text-anchor="middle" x="127.5" y="-314.8" font-family="Sans-Serif" font-size="14.00">tensor_2</text>
<text text-anchor="middle" x="127.5" y="-299.8" font-family="Sans-Serif" font-size="14.00">(3, 4, 5)</text>
</g>
<!-- 137458681018640&#45;&gt;137458681019168 -->
<g id="edge7" class="edge">
<title>137458681018640&#45;&gt;137458681019168</title>
<path fill="none" stroke="#666666" stroke-width="1.2" d="M128.79,-291.72C129.38,-283.29 130.1,-273.15 130.74,-264.02"/>
<polygon fill="#666666" stroke="#666666" stroke-width="1.2" points="133.53,-264.18 131.3,-256 127.95,-263.79 133.53,-264.18"/>
</g>
<!-- 137458681018496 -->
<g id="node5" class="node">
<title>137458681018496</title>
<polygon fill="lightgray" stroke="darkslategray" points="167,-402 84,-402 84,-366 167,-366 167,-402"/>
<text text-anchor="middle" x="125.5" y="-380.3" font-family="Courier Bold" font-size="14.00">constant</text>
</g>
<!-- 137458681018496&#45;&gt;137458681018640 -->
<g id="edge3" class="edge">
<title>137458681018496&#45;&gt;137458681018640</title>
<path fill="none" stroke="#666666" stroke-width="1.2" d="M125.98,-365.81C126.22,-357.52 126.5,-347.39 126.76,-338.16"/>
<polygon fill="#666666" stroke="#666666" stroke-width="1.2" points="129.57,-338.1 126.99,-330.02 123.97,-337.94 129.57,-338.1"/>
</g>
<!-- 137458681018448 -->
<g id="node6" class="node">
<title>137458681018448</title>
<polygon fill="moccasin" stroke="orange" points="152.5,-476 98.5,-476 98.5,-438 152.5,-438 152.5,-476"/>
<text text-anchor="middle" x="125.5" y="-460.8" font-family="Sans-Serif" font-size="14.00">var_2</text>
<text text-anchor="middle" x="125.5" y="-445.8" font-family="Sans-Serif" font-size="14.00">1</text>
</g>
<!-- 137458681018448&#45;&gt;137458681018496 -->
<g id="edge4" class="edge">
<title>137458681018448&#45;&gt;137458681018496</title>
<path fill="none" stroke="#666666" stroke-width="1.2" d="M125.5,-437.72C125.5,-429.29 125.5,-419.15 125.5,-410.02"/>
<polygon fill="#666666" stroke="#666666" stroke-width="1.2" points="128.3,-410 125.5,-402 122.7,-410 128.3,-410"/>
</g>
<!-- 137458681019072 -->
<g id="node7" class="node">
<title>137458681019072</title>
<polygon fill="aliceblue" stroke="skyblue" points="169,-184 96,-184 96,-146 169,-146 169,-184"/>
<text text-anchor="middle" x="132.5" y="-168.8" font-family="Sans-Serif" font-size="14.00">tensor_3</text>
<text text-anchor="middle" x="132.5" y="-153.8" font-family="Sans-Serif" font-size="14.00">(3, 4, 5)</text>
</g>
<!-- 137458681019888 -->
<g id="node13" class="node">
<title>137458681019888</title>
<polygon fill="lightgray" stroke="darkslategray" points="113.5,-110 59.5,-110 59.5,-74 113.5,-74 113.5,-110"/>
<text text-anchor="middle" x="86.5" y="-88.3" font-family="Courier Bold" font-size="14.00">add</text>
</g>
<!-- 137458681019072&#45;&gt;137458681019888 -->
<g id="edge12" class="edge">
<title>137458681019072&#45;&gt;137458681019888</title>
<path fill="none" stroke="#666666" stroke-width="1.2" d="M120.65,-145.72C114.97,-136.94 108.08,-126.31 101.99,-116.91"/>
<polygon fill="#666666" stroke="#666666" stroke-width="1.2" points="104.22,-115.19 97.52,-110 99.52,-118.24 104.22,-115.19"/>
</g>
<!-- 137458681019168&#45;&gt;137458681019072 -->
<g id="edge5" class="edge">
<title>137458681019168&#45;&gt;137458681019072</title>
<path fill="none" stroke="#666666" stroke-width="1.2" d="M132.5,-219.81C132.5,-211.52 132.5,-201.39 132.5,-192.16"/>
<polygon fill="#666666" stroke="#666666" stroke-width="1.2" points="135.3,-192.02 132.5,-184.02 129.7,-192.02 135.3,-192.02"/>
</g>
<!-- 137458681019264 -->
<g id="node9" class="node">
<title>137458681019264</title>
<polygon fill="aliceblue" stroke="skyblue" points="78,-184 5,-184 5,-146 78,-146 78,-184"/>
<text text-anchor="middle" x="41.5" y="-168.8" font-family="Sans-Serif" font-size="14.00">tensor_4</text>
<text text-anchor="middle" x="41.5" y="-153.8" font-family="Sans-Serif" font-size="14.00">(3, 4, 5)</text>
</g>
<!-- 137458681019264&#45;&gt;137458681019888 -->
<g id="edge11" class="edge">
<title>137458681019264&#45;&gt;137458681019888</title>
<path fill="none" stroke="#666666" stroke-width="1.2" d="M53.09,-145.72C58.65,-136.94 65.39,-126.31 71.35,-116.91"/>
<polygon fill="#666666" stroke="#666666" stroke-width="1.2" points="73.81,-118.26 75.72,-110 69.08,-115.26 73.81,-118.26"/>
</g>
<!-- 137458681019504 -->
<g id="node10" class="node">
<title>137458681019504</title>
<polygon fill="lightgray" stroke="darkslategray" points="83,-256 0,-256 0,-220 83,-220 83,-256"/>
<text text-anchor="middle" x="41.5" y="-234.3" font-family="Courier Bold" font-size="14.00">constant</text>
</g>
<!-- 137458681019504&#45;&gt;137458681019264 -->
<g id="edge8" class="edge">
<title>137458681019504&#45;&gt;137458681019264</title>
<path fill="none" stroke="#666666" stroke-width="1.2" d="M41.5,-219.81C41.5,-211.52 41.5,-201.39 41.5,-192.16"/>
<polygon fill="#666666" stroke="#666666" stroke-width="1.2" points="44.3,-192.02 41.5,-184.02 38.7,-192.02 44.3,-192.02"/>
</g>
<!-- 137458681019456 -->
<g id="node11" class="node">
<title>137458681019456</title>
<polygon fill="moccasin" stroke="orange" points="68.5,-330 14.5,-330 14.5,-292 68.5,-292 68.5,-330"/>
<text text-anchor="middle" x="41.5" y="-314.8" font-family="Sans-Serif" font-size="14.00">var_3</text>
<text text-anchor="middle" x="41.5" y="-299.8" font-family="Sans-Serif" font-size="14.00">0.5</text>
</g>
<!-- 137458681019456&#45;&gt;137458681019504 -->
<g id="edge9" class="edge">
<title>137458681019456&#45;&gt;137458681019504</title>
<path fill="none" stroke="#666666" stroke-width="1.2" d="M41.5,-291.72C41.5,-283.29 41.5,-273.15 41.5,-264.02"/>
<polygon fill="#666666" stroke="#666666" stroke-width="1.2" points="44.3,-264 41.5,-256 38.7,-264 44.3,-264"/>
</g>
<!-- 137458681019792 -->
<g id="node12" class="node">
<title>137458681019792</title>
<polygon fill="aliceblue" stroke="skyblue" points="123,-38 50,-38 50,0 123,0 123,-38"/>
<text text-anchor="middle" x="86.5" y="-22.8" font-family="Sans-Serif" font-size="14.00">tensor_5</text>
<text text-anchor="middle" x="86.5" y="-7.8" font-family="Sans-Serif" font-size="14.00">(3, 4, 5)</text>
</g>
<!-- 137458681019888&#45;&gt;137458681019792 -->
<g id="edge10" class="edge">
<title>137458681019888&#45;&gt;137458681019792</title>
<path fill="none" stroke="#666666" stroke-width="1.2" d="M86.5,-73.81C86.5,-65.52 86.5,-55.39 86.5,-46.16"/>
<polygon fill="#666666" stroke="#666666" stroke-width="1.2" points="89.3,-46.02 86.5,-38.02 83.7,-46.02 89.3,-46.02"/>
</g>
</g>
</svg>
