<?xml version="1.0" encoding="UTF-8" standalone="no"?>
<!DOCTYPE svg PUBLIC "-//W3C//DTD SVG 1.1//EN"
 "http://www.w3.org/Graphics/SVG/1.1/DTD/svg11.dtd">
<!-- Generated by graphviz version 2.43.0 (0)
 -->
<!-- Title: %3 Pages: 1 -->
<svg width="180pt" height="338pt"
 viewBox="0.00 0.00 180.00 338.00" xmlns="http://www.w3.org/2000/svg" xmlns:xlink="http://www.w3.org/1999/xlink">
<g id="graph0" class="graph" transform="scale(1 1) rotate(0) translate(4 334)">
<title>%3</title>
<polygon fill="white" stroke="transparent" points="-4,4 -4,-334 176,-334 176,4 -4,4"/>
<!-- 134789190584880 -->
<g id="node1" class="node">
<title>134789190584880</title>
<polygon fill="aliceblue" stroke="skyblue" points="145.5,-184 72.5,-184 72.5,-146 145.5,-146 145.5,-184"/>
<text text-anchor="middle" x="109" y="-168.8" font-family="Sans-Serif" font-size="14.00">tensor_1</text>
<text text-anchor="middle" x="109" y="-153.8" font-family="Sans-Serif" font-size="14.00">(10, 10)</text>
</g>
<!-- 134789191070672 -->
<g id="node7" class="node">
<title>134789191070672</title>
<polygon fill="lightgray" stroke="darkslategray" points="117.5,-110 18.5,-110 18.5,-74 117.5,-74 117.5,-110"/>
<text text-anchor="middle" x="68" y="-88.3" font-family="Courier Bold" font-size="14.00">max_scalar</text>
</g>
<!-- 134789190584880&#45;&gt;134789191070672 -->
<g id="edge5" class="edge">
<title>134789190584880&#45;&gt;134789191070672</title>
<path fill="none" stroke="#666666" stroke-width="1.2" d="M98.44,-145.72C93.42,-137.03 87.36,-126.52 81.97,-117.19"/>
<polygon fill="#666666" stroke="#666666" stroke-width="1.2" points="84.24,-115.53 77.82,-110 79.39,-118.33 84.24,-115.53"/>
</g>
<!-- 134789190592032 -->
<g id="node2" class="node">
<title>134789190592032</title>
<polygon fill="moccasin" stroke="orange" points="100,-330 46,-330 46,-292 100,-292 100,-330"/>
<text text-anchor="middle" x="73" y="-314.8" font-family="Sans-Serif" font-size="14.00">var_1</text>
<text text-anchor="middle" x="73" y="-299.8" font-family="Sans-Serif" font-size="14.00">&#45;1</text>
</g>
<!-- 134789190584784 -->
<g id="node4" class="node">
<title>134789190584784</title>
<polygon fill="lightgray" stroke="darkslategray" points="146,-256 72,-256 72,-220 146,-220 146,-256"/>
<text text-anchor="middle" x="109" y="-234.3" font-family="Courier Bold" font-size="14.00">uniform</text>
</g>
<!-- 134789190592032&#45;&gt;134789190584784 -->
<g id="edge2" class="edge">
<title>134789190592032&#45;&gt;134789190584784</title>
<path fill="none" stroke="#666666" stroke-width="1.2" d="M82.27,-291.72C86.68,-283.03 92,-272.52 96.74,-263.19"/>
<polygon fill="#666666" stroke="#666666" stroke-width="1.2" points="99.26,-264.4 100.38,-256 94.26,-261.87 99.26,-264.4"/>
</g>
<!-- 134789190592512 -->
<g id="node3" class="node">
<title>134789190592512</title>
<polygon fill="moccasin" stroke="orange" points="172,-330 118,-330 118,-292 172,-292 172,-330"/>
<text text-anchor="middle" x="145" y="-314.8" font-family="Sans-Serif" font-size="14.00">var_2</text>
<text text-anchor="middle" x="145" y="-299.8" font-family="Sans-Serif" font-size="14.00">1</text>
</g>
<!-- 134789190592512&#45;&gt;134789190584784 -->
<g id="edge3" class="edge">
<title>134789190592512&#45;&gt;134789190584784</title>
<path fill="none" stroke="#666666" stroke-width="1.2" d="M135.73,-291.72C131.32,-283.03 126,-272.52 121.26,-263.19"/>
<polygon fill="#666666" stroke="#666666" stroke-width="1.2" points="123.74,-261.87 117.62,-256 118.74,-264.4 123.74,-261.87"/>
</g>
<!-- 134789190584784&#45;&gt;134789190584880 -->
<g id="edge1" class="edge">
<title>134789190584784&#45;&gt;134789190584880</title>
<path fill="none" stroke="#666666" stroke-width="1.2" d="M109,-219.81C109,-211.52 109,-201.39 109,-192.16"/>
<polygon fill="#666666" stroke="#666666" stroke-width="1.2" points="111.8,-192.02 109,-184.02 106.2,-192.02 111.8,-192.02"/>
</g>
<!-- 134789191071248 -->
<g id="node5" class="node">
<title>134789191071248</title>
<polygon fill="aliceblue" stroke="skyblue" points="104.5,-38 31.5,-38 31.5,0 104.5,0 104.5,-38"/>
<text text-anchor="middle" x="68" y="-22.8" font-family="Sans-Serif" font-size="14.00">tensor_2</text>
<text text-anchor="middle" x="68" y="-7.8" font-family="Sans-Serif" font-size="14.00">(10, 10)</text>
</g>
<!-- 134789191071056 -->
<g id="node6" class="node">
<title>134789191071056</title>
<polygon fill="moccasin" stroke="orange" points="54,-184 0,-184 0,-146 54,-146 54,-184"/>
<text text-anchor="middle" x="27" y="-168.8" font-family="Sans-Serif" font-size="14.00">var_3</text>
<text text-anchor="middle" x="27" y="-153.8" font-family="Sans-Serif" font-size="14.00">0</text>
</g>
<!-- 134789191071056&#45;&gt;134789191070672 -->
<g id="edge6" class="edge">
<title>134789191071056&#45;&gt;134789191070672</title>
<path fill="none" stroke="#666666" stroke-width="1.2" d="M37.56,-145.72C42.58,-137.03 48.64,-126.52 54.03,-117.19"/>
<polygon fill="#666666" stroke="#666666" stroke-width="1.2" points="56.61,-118.33 58.18,-110 51.76,-115.53 56.61,-118.33"/>
</g>
<!-- 134789191070672&#45;&gt;134789191071248 -->
<g id="edge4" class="edge">
<title>134789191070672&#45;&gt;134789191071248</title>
<path fill="none" stroke="#666666" stroke-width="1.2" d="M68,-73.81C68,-65.52 68,-55.39 68,-46.16"/>
<polygon fill="#666666" stroke="#666666" stroke-width="1.2" points="70.8,-46.02 68,-38.02 65.2,-46.02 70.8,-46.02"/>
</g>
</g>
</svg>
