<?xml version="1.0" encoding="UTF-8" standalone="no"?>
<!DOCTYPE svg PUBLIC "-//W3C//DTD SVG 1.1//EN"
 "http://www.w3.org/Graphics/SVG/1.1/DTD/svg11.dtd">
<!-- Generated by graphviz version 2.43.0 (0)
 -->
<!-- Title: %3 Pages: 1 -->
<svg width="359pt" height="264pt"
 viewBox="0.00 0.00 358.50 264.00" xmlns="http://www.w3.org/2000/svg" xmlns:xlink="http://www.w3.org/1999/xlink">
<g id="graph0" class="graph" transform="scale(1 1) rotate(0) translate(4 260)">
<title>%3</title>
<polygon fill="white" stroke="transparent" points="-4,4 -4,-260 354.5,-260 354.5,4 -4,4"/>
<!-- 123795422808480 -->
<g id="node1" class="node">
<title>123795422808480</title>
<polygon fill="aliceblue" stroke="skyblue" points="163.5,-110 90.5,-110 90.5,-72 163.5,-72 163.5,-110"/>
<text text-anchor="middle" x="127" y="-94.8" font-family="Sans-Serif" font-size="14.00">tensor_1</text>
<text text-anchor="middle" x="127" y="-79.8" font-family="Sans-Serif" font-size="14.00">(3, 4)</text>
</g>
<!-- 123795423295760 -->
<g id="node4" class="node">
<title>123795423295760</title>
<polygon fill="lightgray" stroke="darkslategray" points="164,-36 90,-36 90,0 164,0 164,-36"/>
<text text-anchor="middle" x="127" y="-14.3" font-family="Courier Bold" font-size="14.00">reshape</text>
</g>
<!-- 123795422808480&#45;&gt;123795423295760 -->
<g id="edge4" class="edge">
<title>123795422808480&#45;&gt;123795423295760</title>
<path fill="none" stroke="#666666" stroke-width="1.2" d="M121.01,-71.72C120.2,-63.29 120.04,-53.15 120.52,-44.02"/>
<polygon fill="#666666" stroke="#666666" stroke-width="1.2" points="123.31,-44.2 121.14,-36 117.73,-43.76 123.31,-44.2"/>
</g>
<!-- 123795422816160 -->
<g id="node2" class="node">
<title>123795422816160</title>
<polygon fill="lightgray" stroke="darkslategray" points="168.5,-182 85.5,-182 85.5,-146 168.5,-146 168.5,-182"/>
<text text-anchor="middle" x="127" y="-160.3" font-family="Courier Bold" font-size="14.00">constant</text>
</g>
<!-- 123795422816160&#45;&gt;123795422808480 -->
<g id="edge1" class="edge">
<title>123795422816160&#45;&gt;123795422808480</title>
<path fill="none" stroke="#666666" stroke-width="1.2" d="M127,-145.81C127,-137.52 127,-127.39 127,-118.16"/>
<polygon fill="#666666" stroke="#666666" stroke-width="1.2" points="129.8,-118.02 127,-110.02 124.2,-118.02 129.8,-118.02"/>
</g>
<!-- 123795422816928 -->
<g id="node3" class="node">
<title>123795422816928</title>
<polygon fill="moccasin" stroke="orange" points="154,-256 100,-256 100,-218 154,-218 154,-256"/>
<text text-anchor="middle" x="127" y="-240.8" font-family="Sans-Serif" font-size="14.00">var_1</text>
<text text-anchor="middle" x="127" y="-225.8" font-family="Sans-Serif" font-size="14.00">1</text>
</g>
<!-- 123795422816928&#45;&gt;123795422816160 -->
<g id="edge3" class="edge">
<title>123795422816928&#45;&gt;123795422816160</title>
<path fill="none" stroke="#666666" stroke-width="1.2" d="M127,-217.72C127,-209.29 127,-199.15 127,-190.02"/>
<polygon fill="#666666" stroke="#666666" stroke-width="1.2" points="129.8,-190 127,-182 124.2,-190 129.8,-190"/>
</g>
<!-- 123795423295760&#45;&gt;123795422808480 -->
<g id="edge2" class="edge">
<title>123795423295760&#45;&gt;123795422808480</title>
<path fill="none" stroke="#666666" stroke-width="1.2" d="M132.86,-36C133.73,-44.25 133.96,-54.35 133.55,-63.57"/>
<polygon fill="#666666" stroke="#666666" stroke-width="1.2" points="130.75,-63.54 132.99,-71.72 136.33,-63.93 130.75,-63.54"/>
</g>
<!-- 123795422807952 -->
<g id="node5" class="node">
<title>123795422807952</title>
<polygon fill="honeydew" stroke="darkseagreen" points="72,-110 0,-110 0,-72 72,-72 72,-110"/>
<text text-anchor="middle" x="36" y="-94.8" font-family="Sans-Serif" font-size="14.00">vector_1</text>
<text text-anchor="middle" x="36" y="-79.8" font-family="Sans-Serif" font-size="14.00">(3, 2, 2)</text>
</g>
<!-- 123795422807952&#45;&gt;123795423295760 -->
<g id="edge5" class="edge">
<title>123795422807952&#45;&gt;123795423295760</title>
<path fill="none" stroke="#666666" stroke-width="1.2" d="M59.43,-71.72C71.45,-62.34 86.18,-50.85 98.82,-40.99"/>
<polygon fill="#666666" stroke="#666666" stroke-width="1.2" points="100.62,-43.13 105.21,-36 97.18,-38.72 100.62,-43.13"/>
</g>
<!-- 123795423295856 -->
<g id="node6" class="node">
<title>123795423295856</title>
<polygon fill="aliceblue" stroke="skyblue" points="345.5,-110 272.5,-110 272.5,-72 345.5,-72 345.5,-110"/>
<text text-anchor="middle" x="309" y="-94.8" font-family="Sans-Serif" font-size="14.00">tensor_2</text>
<text text-anchor="middle" x="309" y="-79.8" font-family="Sans-Serif" font-size="14.00">(4, 5)</text>
</g>
<!-- 123795423296144 -->
<g id="node9" class="node">
<title>123795423296144</title>
<polygon fill="lightgray" stroke="darkslategray" points="346,-36 272,-36 272,0 346,0 346,-36"/>
<text text-anchor="middle" x="309" y="-14.3" font-family="Courier Bold" font-size="14.00">reshape</text>
</g>
<!-- 123795423295856&#45;&gt;123795423296144 -->
<g id="edge9" class="edge">
<title>123795423295856&#45;&gt;123795423296144</title>
<path fill="none" stroke="#666666" stroke-width="1.2" d="M303.01,-71.72C302.2,-63.29 302.04,-53.15 302.52,-44.02"/>
<polygon fill="#666666" stroke="#666666" stroke-width="1.2" points="305.31,-44.2 303.14,-36 299.73,-43.76 305.31,-44.2"/>
</g>
<!-- 123795423296048 -->
<g id="node7" class="node">
<title>123795423296048</title>
<polygon fill="lightgray" stroke="darkslategray" points="350.5,-182 267.5,-182 267.5,-146 350.5,-146 350.5,-182"/>
<text text-anchor="middle" x="309" y="-160.3" font-family="Courier Bold" font-size="14.00">constant</text>
</g>
<!-- 123795423296048&#45;&gt;123795423295856 -->
<g id="edge6" class="edge">
<title>123795423296048&#45;&gt;123795423295856</title>
<path fill="none" stroke="#666666" stroke-width="1.2" d="M309,-145.81C309,-137.52 309,-127.39 309,-118.16"/>
<polygon fill="#666666" stroke="#666666" stroke-width="1.2" points="311.8,-118.02 309,-110.02 306.2,-118.02 311.8,-118.02"/>
</g>
<!-- 123795423296000 -->
<g id="node8" class="node">
<title>123795423296000</title>
<polygon fill="moccasin" stroke="orange" points="336,-256 282,-256 282,-218 336,-218 336,-256"/>
<text text-anchor="middle" x="309" y="-240.8" font-family="Sans-Serif" font-size="14.00">var_2</text>
<text text-anchor="middle" x="309" y="-225.8" font-family="Sans-Serif" font-size="14.00">0</text>
</g>
<!-- 123795423296000&#45;&gt;123795423296048 -->
<g id="edge8" class="edge">
<title>123795423296000&#45;&gt;123795423296048</title>
<path fill="none" stroke="#666666" stroke-width="1.2" d="M309,-217.72C309,-209.29 309,-199.15 309,-190.02"/>
<polygon fill="#666666" stroke="#666666" stroke-width="1.2" points="311.8,-190 309,-182 306.2,-190 311.8,-190"/>
</g>
<!-- 123795423296144&#45;&gt;123795423295856 -->
<g id="edge7" class="edge">
<title>123795423296144&#45;&gt;123795423295856</title>
<path fill="none" stroke="#666666" stroke-width="1.2" d="M314.86,-36C315.73,-44.25 315.96,-54.35 315.55,-63.57"/>
<polygon fill="#666666" stroke="#666666" stroke-width="1.2" points="312.75,-63.54 314.99,-71.72 318.33,-63.93 312.75,-63.54"/>
</g>
<!-- 123795423295904 -->
<g id="node10" class="node">
<title>123795423295904</title>
<polygon fill="honeydew" stroke="darkseagreen" points="254,-110 182,-110 182,-72 254,-72 254,-110"/>
<text text-anchor="middle" x="218" y="-94.8" font-family="Sans-Serif" font-size="14.00">vector_2</text>
<text text-anchor="middle" x="218" y="-79.8" font-family="Sans-Serif" font-size="14.00">(20,)</text>
</g>
<!-- 123795423295904&#45;&gt;123795423296144 -->
<g id="edge10" class="edge">
<title>123795423295904&#45;&gt;123795423296144</title>
<path fill="none" stroke="#666666" stroke-width="1.2" d="M241.43,-71.72C253.45,-62.34 268.18,-50.85 280.82,-40.99"/>
<polygon fill="#666666" stroke="#666666" stroke-width="1.2" points="282.62,-43.13 287.21,-36 279.18,-38.72 282.62,-43.13"/>
</g>
</g>
</svg>
