<?xml version="1.0" encoding="UTF-8" standalone="no"?>
<!DOCTYPE svg PUBLIC "-//W3C//DTD SVG 1.1//EN"
 "http://www.w3.org/Graphics/SVG/1.1/DTD/svg11.dtd">
<!-- Generated by graphviz version 2.43.0 (0)
 -->
<!-- Title: %3 Pages: 1 -->
<svg width="511pt" height="484pt"
 viewBox="0.00 0.00 510.50 484.00" xmlns="http://www.w3.org/2000/svg" xmlns:xlink="http://www.w3.org/1999/xlink">
<g id="graph0" class="graph" transform="scale(1 1) rotate(0) translate(4 480)">
<title>%3</title>
<polygon fill="white" stroke="transparent" points="-4,4 -4,-480 506.5,-480 506.5,4 -4,4"/>
<!-- 130244339246288 -->
<g id="node1" class="node">
<title>130244339246288</title>
<polygon fill="aliceblue" stroke="skyblue" points="152,-330 90,-330 90,-292 152,-292 152,-330"/>
<text text-anchor="middle" x="121" y="-314.8" font-family="Sans-Serif" font-size="14.00">t</text>
<text text-anchor="middle" x="121" y="-299.8" font-family="Sans-Serif" font-size="14.00">(3, 4, 5)</text>
</g>
<!-- 130244339970112 -->
<g id="node7" class="node">
<title>130244339970112</title>
<polygon fill="lightgray" stroke="darkslategray" points="106,-256 52,-256 52,-220 106,-220 106,-256"/>
<text text-anchor="middle" x="79" y="-234.3" font-family="Courier Bold" font-size="14.00">sum</text>
</g>
<!-- 130244339246288&#45;&gt;130244339970112 -->
<g id="edge5" class="edge">
<title>130244339246288&#45;&gt;130244339970112</title>
<path fill="none" stroke="#666666" stroke-width="1.2" d="M110.18,-291.72C104.99,-282.94 98.71,-272.31 93.14,-262.91"/>
<polygon fill="#666666" stroke="#666666" stroke-width="1.2" points="95.54,-261.46 89.06,-256 90.72,-264.31 95.54,-261.46"/>
</g>
<!-- 130244339240384 -->
<g id="node2" class="node">
<title>130244339240384</title>
<polygon fill="moccasin" stroke="orange" points="112,-476 58,-476 58,-438 112,-438 112,-476"/>
<text text-anchor="middle" x="85" y="-460.8" font-family="Sans-Serif" font-size="14.00">var_1</text>
<text text-anchor="middle" x="85" y="-445.8" font-family="Sans-Serif" font-size="14.00">&#45;1</text>
</g>
<!-- 130244339239376 -->
<g id="node4" class="node">
<title>130244339239376</title>
<polygon fill="lightgray" stroke="darkslategray" points="158,-402 84,-402 84,-366 158,-366 158,-402"/>
<text text-anchor="middle" x="121" y="-380.3" font-family="Courier Bold" font-size="14.00">uniform</text>
</g>
<!-- 130244339240384&#45;&gt;130244339239376 -->
<g id="edge2" class="edge">
<title>130244339240384&#45;&gt;130244339239376</title>
<path fill="none" stroke="#666666" stroke-width="1.2" d="M94.27,-437.72C98.68,-429.03 104,-418.52 108.74,-409.19"/>
<polygon fill="#666666" stroke="#666666" stroke-width="1.2" points="111.26,-410.4 112.38,-402 106.26,-407.87 111.26,-410.4"/>
</g>
<!-- 130244339245136 -->
<g id="node3" class="node">
<title>130244339245136</title>
<polygon fill="moccasin" stroke="orange" points="184,-476 130,-476 130,-438 184,-438 184,-476"/>
<text text-anchor="middle" x="157" y="-460.8" font-family="Sans-Serif" font-size="14.00">var_2</text>
<text text-anchor="middle" x="157" y="-445.8" font-family="Sans-Serif" font-size="14.00">1</text>
</g>
<!-- 130244339245136&#45;&gt;130244339239376 -->
<g id="edge3" class="edge">
<title>130244339245136&#45;&gt;130244339239376</title>
<path fill="none" stroke="#666666" stroke-width="1.2" d="M147.73,-437.72C143.32,-429.03 138,-418.52 133.26,-409.19"/>
<polygon fill="#666666" stroke="#666666" stroke-width="1.2" points="135.74,-407.87 129.62,-402 130.74,-410.4 135.74,-407.87"/>
</g>
<!-- 130244339239376&#45;&gt;130244339246288 -->
<g id="edge1" class="edge">
<title>130244339239376&#45;&gt;130244339246288</title>
<path fill="none" stroke="#666666" stroke-width="1.2" d="M121,-365.81C121,-357.52 121,-347.39 121,-338.16"/>
<polygon fill="#666666" stroke="#666666" stroke-width="1.2" points="123.8,-338.02 121,-330.02 118.2,-338.02 123.8,-338.02"/>
</g>
<!-- 130244339969440 -->
<g id="node5" class="node">
<title>130244339969440</title>
<polygon fill="aliceblue" stroke="skyblue" points="106,-184 52,-184 52,-146 106,-146 106,-184"/>
<text text-anchor="middle" x="79" y="-168.8" font-family="Sans-Serif" font-size="14.00">s</text>
<text text-anchor="middle" x="79" y="-153.8" font-family="Sans-Serif" font-size="14.00">(4,)</text>
</g>
<!-- 130244339969680 -->
<g id="node6" class="node">
<title>130244339969680</title>
<polygon fill="honeydew" stroke="darkseagreen" points="72,-330 0,-330 0,-292 72,-292 72,-330"/>
<text text-anchor="middle" x="36" y="-314.8" font-family="Sans-Serif" font-size="14.00">vector_1</text>
<text text-anchor="middle" x="36" y="-299.8" font-family="Sans-Serif" font-size="14.00">[0, 2]</text>
</g>
<!-- 130244339969680&#45;&gt;130244339970112 -->
<g id="edge6" class="edge">
<title>130244339969680&#45;&gt;130244339970112</title>
<path fill="none" stroke="#666666" stroke-width="1.2" d="M47.07,-291.72C52.39,-282.94 58.82,-272.31 64.52,-262.91"/>
<polygon fill="#666666" stroke="#666666" stroke-width="1.2" points="66.95,-264.3 68.7,-256 62.16,-261.4 66.95,-264.3"/>
</g>
<!-- 130244339970112&#45;&gt;130244339969440 -->
<g id="edge4" class="edge">
<title>130244339970112&#45;&gt;130244339969440</title>
<path fill="none" stroke="#666666" stroke-width="1.2" d="M79,-219.81C79,-211.52 79,-201.39 79,-192.16"/>
<polygon fill="#666666" stroke="#666666" stroke-width="1.2" points="81.8,-192.02 79,-184.02 76.2,-192.02 81.8,-192.02"/>
</g>
<!-- 130244339970064 -->
<g id="node8" class="node">
<title>130244339970064</title>
<polygon fill="aliceblue" stroke="skyblue" points="322,-330 260,-330 260,-292 322,-292 322,-330"/>
<text text-anchor="middle" x="291" y="-314.8" font-family="Sans-Serif" font-size="14.00">t1</text>
<text text-anchor="middle" x="291" y="-299.8" font-family="Sans-Serif" font-size="14.00">(4, 5, 6)</text>
</g>
<!-- 130244339970928 -->
<g id="node13" class="node">
<title>130244339970928</title>
<polygon fill="lightgray" stroke="darkslategray" points="237,-256 183,-256 183,-220 237,-220 237,-256"/>
<text text-anchor="middle" x="210" y="-234.3" font-family="Courier Bold" font-size="14.00">sum</text>
</g>
<!-- 130244339970064&#45;&gt;130244339970928 -->
<g id="edge10" class="edge">
<title>130244339970064&#45;&gt;130244339970928</title>
<path fill="none" stroke="#666666" stroke-width="1.2" d="M270.14,-291.72C259.64,-282.51 246.81,-271.27 235.71,-261.53"/>
<polygon fill="#666666" stroke="#666666" stroke-width="1.2" points="237.26,-259.17 229.4,-256 233.57,-263.38 237.26,-259.17"/>
</g>
<!-- 130244339971792 -->
<g id="node19" class="node">
<title>130244339971792</title>
<polygon fill="lightgray" stroke="darkslategray" points="399,-256 345,-256 345,-220 399,-220 399,-256"/>
<text text-anchor="middle" x="372" y="-234.3" font-family="Courier Bold" font-size="14.00">sum</text>
</g>
<!-- 130244339970064&#45;&gt;130244339971792 -->
<g id="edge15" class="edge">
<title>130244339970064&#45;&gt;130244339971792</title>
<path fill="none" stroke="#666666" stroke-width="1.2" d="M311.86,-291.72C322.36,-282.51 335.19,-271.27 346.29,-261.53"/>
<polygon fill="#666666" stroke="#666666" stroke-width="1.2" points="348.43,-263.38 352.6,-256 344.74,-259.17 348.43,-263.38"/>
</g>
<!-- 130244339970448 -->
<g id="node9" class="node">
<title>130244339970448</title>
<polygon fill="lightgray" stroke="darkslategray" points="332.5,-402 249.5,-402 249.5,-366 332.5,-366 332.5,-402"/>
<text text-anchor="middle" x="291" y="-380.3" font-family="Courier Bold" font-size="14.00">constant</text>
</g>
<!-- 130244339970448&#45;&gt;130244339970064 -->
<g id="edge7" class="edge">
<title>130244339970448&#45;&gt;130244339970064</title>
<path fill="none" stroke="#666666" stroke-width="1.2" d="M291,-365.81C291,-357.52 291,-347.39 291,-338.16"/>
<polygon fill="#666666" stroke="#666666" stroke-width="1.2" points="293.8,-338.02 291,-330.02 288.2,-338.02 293.8,-338.02"/>
</g>
<!-- 130244339970400 -->
<g id="node10" class="node">
<title>130244339970400</title>
<polygon fill="moccasin" stroke="orange" points="318,-476 264,-476 264,-438 318,-438 318,-476"/>
<text text-anchor="middle" x="291" y="-460.8" font-family="Sans-Serif" font-size="14.00">var_3</text>
<text text-anchor="middle" x="291" y="-445.8" font-family="Sans-Serif" font-size="14.00">1</text>
</g>
<!-- 130244339970400&#45;&gt;130244339970448 -->
<g id="edge8" class="edge">
<title>130244339970400&#45;&gt;130244339970448</title>
<path fill="none" stroke="#666666" stroke-width="1.2" d="M291,-437.72C291,-429.29 291,-419.15 291,-410.02"/>
<polygon fill="#666666" stroke="#666666" stroke-width="1.2" points="293.8,-410 291,-402 288.2,-410 293.8,-410"/>
</g>
<!-- 130244339970544 -->
<g id="node11" class="node">
<title>130244339970544</title>
<polygon fill="aliceblue" stroke="skyblue" points="237,-184 183,-184 183,-146 237,-146 237,-184"/>
<text text-anchor="middle" x="210" y="-168.8" font-family="Sans-Serif" font-size="14.00">t2</text>
<text text-anchor="middle" x="210" y="-153.8" font-family="Sans-Serif" font-size="14.00">(6,)</text>
</g>
<!-- 130244339970832 -->
<g id="node12" class="node">
<title>130244339970832</title>
<polygon fill="honeydew" stroke="darkseagreen" points="242,-330 170,-330 170,-292 242,-292 242,-330"/>
<text text-anchor="middle" x="206" y="-314.8" font-family="Sans-Serif" font-size="14.00">vector_2</text>
<text text-anchor="middle" x="206" y="-299.8" font-family="Sans-Serif" font-size="14.00">[0, 1]</text>
</g>
<!-- 130244339970832&#45;&gt;130244339970928 -->
<g id="edge11" class="edge">
<title>130244339970832&#45;&gt;130244339970928</title>
<path fill="none" stroke="#666666" stroke-width="1.2" d="M207.03,-291.72C207.51,-283.29 208.08,-273.15 208.59,-264.02"/>
<polygon fill="#666666" stroke="#666666" stroke-width="1.2" points="211.39,-264.15 209.04,-256 205.8,-263.83 211.39,-264.15"/>
</g>
<!-- 130244339970928&#45;&gt;130244339970544 -->
<g id="edge9" class="edge">
<title>130244339970928&#45;&gt;130244339970544</title>
<path fill="none" stroke="#666666" stroke-width="1.2" d="M210,-219.81C210,-211.52 210,-201.39 210,-192.16"/>
<polygon fill="#666666" stroke="#666666" stroke-width="1.2" points="212.8,-192.02 210,-184.02 207.2,-192.02 212.8,-192.02"/>
</g>
<!-- 130244339970880 -->
<g id="node14" class="node">
<title>130244339970880</title>
<polygon fill="aliceblue" stroke="skyblue" points="492,-330 430,-330 430,-292 492,-292 492,-330"/>
<text text-anchor="middle" x="461" y="-314.8" font-family="Sans-Serif" font-size="14.00">t3</text>
<text text-anchor="middle" x="461" y="-299.8" font-family="Sans-Serif" font-size="14.00">(4, 5, 6)</text>
</g>
<!-- 130244339971264 -->
<g id="node15" class="node">
<title>130244339971264</title>
<polygon fill="lightgray" stroke="darkslategray" points="502.5,-402 419.5,-402 419.5,-366 502.5,-366 502.5,-402"/>
<text text-anchor="middle" x="461" y="-380.3" font-family="Courier Bold" font-size="14.00">constant</text>
</g>
<!-- 130244339971264&#45;&gt;130244339970880 -->
<g id="edge12" class="edge">
<title>130244339971264&#45;&gt;130244339970880</title>
<path fill="none" stroke="#666666" stroke-width="1.2" d="M461,-365.81C461,-357.52 461,-347.39 461,-338.16"/>
<polygon fill="#666666" stroke="#666666" stroke-width="1.2" points="463.8,-338.02 461,-330.02 458.2,-338.02 463.8,-338.02"/>
</g>
<!-- 130244339971216 -->
<g id="node16" class="node">
<title>130244339971216</title>
<polygon fill="moccasin" stroke="orange" points="488,-476 434,-476 434,-438 488,-438 488,-476"/>
<text text-anchor="middle" x="461" y="-460.8" font-family="Sans-Serif" font-size="14.00">var_4</text>
<text text-anchor="middle" x="461" y="-445.8" font-family="Sans-Serif" font-size="14.00">1</text>
</g>
<!-- 130244339971216&#45;&gt;130244339971264 -->
<g id="edge13" class="edge">
<title>130244339971216&#45;&gt;130244339971264</title>
<path fill="none" stroke="#666666" stroke-width="1.2" d="M461,-437.72C461,-429.29 461,-419.15 461,-410.02"/>
<polygon fill="#666666" stroke="#666666" stroke-width="1.2" points="463.8,-410 461,-402 458.2,-410 463.8,-410"/>
</g>
<!-- 130244339971408 -->
<g id="node17" class="node">
<title>130244339971408</title>
<polygon fill="aliceblue" stroke="skyblue" points="409,-184 335,-184 335,-146 409,-146 409,-184"/>
<text text-anchor="middle" x="372" y="-168.8" font-family="Sans-Serif" font-size="14.00">t3_mean</text>
<text text-anchor="middle" x="372" y="-153.8" font-family="Sans-Serif" font-size="14.00">(6,)</text>
</g>
<!-- 130244339972128 -->
<g id="node21" class="node">
<title>130244339972128</title>
<polygon fill="lightgray" stroke="darkslategray" points="380.5,-110 281.5,-110 281.5,-74 380.5,-74 380.5,-110"/>
<text text-anchor="middle" x="331" y="-88.3" font-family="Courier Bold" font-size="14.00">div_scalar</text>
</g>
<!-- 130244339971408&#45;&gt;130244339972128 -->
<g id="edge18" class="edge">
<title>130244339971408&#45;&gt;130244339972128</title>
<path fill="none" stroke="#666666" stroke-width="1.2" d="M361.44,-145.72C356.42,-137.03 350.36,-126.52 344.97,-117.19"/>
<polygon fill="#666666" stroke="#666666" stroke-width="1.2" points="347.24,-115.53 340.82,-110 342.39,-118.33 347.24,-115.53"/>
</g>
<!-- 130244339971696 -->
<g id="node18" class="node">
<title>130244339971696</title>
<polygon fill="honeydew" stroke="darkseagreen" points="412,-330 340,-330 340,-292 412,-292 412,-330"/>
<text text-anchor="middle" x="376" y="-314.8" font-family="Sans-Serif" font-size="14.00">vector_3</text>
<text text-anchor="middle" x="376" y="-299.8" font-family="Sans-Serif" font-size="14.00">[0, 1]</text>
</g>
<!-- 130244339971696&#45;&gt;130244339971792 -->
<g id="edge16" class="edge">
<title>130244339971696&#45;&gt;130244339971792</title>
<path fill="none" stroke="#666666" stroke-width="1.2" d="M374.97,-291.72C374.49,-283.29 373.92,-273.15 373.41,-264.02"/>
<polygon fill="#666666" stroke="#666666" stroke-width="1.2" points="376.2,-263.83 372.96,-256 370.61,-264.15 376.2,-263.83"/>
</g>
<!-- 130244339971792&#45;&gt;130244339971408 -->
<g id="edge14" class="edge">
<title>130244339971792&#45;&gt;130244339971408</title>
<path fill="none" stroke="#666666" stroke-width="1.2" d="M372,-219.81C372,-211.52 372,-201.39 372,-192.16"/>
<polygon fill="#666666" stroke="#666666" stroke-width="1.2" points="374.8,-192.02 372,-184.02 369.2,-192.02 374.8,-192.02"/>
</g>
<!-- 130244339972032 -->
<g id="node20" class="node">
<title>130244339972032</title>
<polygon fill="aliceblue" stroke="skyblue" points="367.5,-38 294.5,-38 294.5,0 367.5,0 367.5,-38"/>
<text text-anchor="middle" x="331" y="-22.8" font-family="Sans-Serif" font-size="14.00">tensor_7</text>
<text text-anchor="middle" x="331" y="-7.8" font-family="Sans-Serif" font-size="14.00">(6,)</text>
</g>
<!-- 130244339972128&#45;&gt;130244339972032 -->
<g id="edge17" class="edge">
<title>130244339972128&#45;&gt;130244339972032</title>
<path fill="none" stroke="#666666" stroke-width="1.2" d="M331,-73.81C331,-65.52 331,-55.39 331,-46.16"/>
<polygon fill="#666666" stroke="#666666" stroke-width="1.2" points="333.8,-46.02 331,-38.02 328.2,-46.02 333.8,-46.02"/>
</g>
<!-- 130244339972080 -->
<g id="node22" class="node">
<title>130244339972080</title>
<polygon fill="moccasin" stroke="orange" points="317,-184 263,-184 263,-146 317,-146 317,-184"/>
<text text-anchor="middle" x="290" y="-168.8" font-family="Sans-Serif" font-size="14.00">var_5</text>
<text text-anchor="middle" x="290" y="-153.8" font-family="Sans-Serif" font-size="14.00">20</text>
</g>
<!-- 130244339972080&#45;&gt;130244339972128 -->
<g id="edge19" class="edge">
<title>130244339972080&#45;&gt;130244339972128</title>
<path fill="none" stroke="#666666" stroke-width="1.2" d="M300.56,-145.72C305.58,-137.03 311.64,-126.52 317.03,-117.19"/>
<polygon fill="#666666" stroke="#666666" stroke-width="1.2" points="319.61,-118.33 321.18,-110 314.76,-115.53 319.61,-118.33"/>
</g>
</g>
</svg>
