<?xml version="1.0" encoding="UTF-8" standalone="no"?>
<!DOCTYPE svg PUBLIC "-//W3C//DTD SVG 1.1//EN"
 "http://www.w3.org/Graphics/SVG/1.1/DTD/svg11.dtd">
<!-- Generated by graphviz version 2.43.0 (0)
 -->
<!-- Title: %3 Pages: 1 -->
<svg width="192pt" height="338pt"
 viewBox="0.00 0.00 192.00 338.00" xmlns="http://www.w3.org/2000/svg" xmlns:xlink="http://www.w3.org/1999/xlink">
<g id="graph0" class="graph" transform="scale(1 1) rotate(0) translate(4 334)">
<title>%3</title>
<polygon fill="white" stroke="transparent" points="-4,4 -4,-334 188,-334 188,4 -4,4"/>
<!-- 123157773232032 -->
<g id="node1" class="node">
<title>123157773232032</title>
<polygon fill="aliceblue" stroke="skyblue" points="152,-184 90,-184 90,-146 152,-146 152,-184"/>
<text text-anchor="middle" x="121" y="-168.8" font-family="Sans-Serif" font-size="14.00">t</text>
<text text-anchor="middle" x="121" y="-153.8" font-family="Sans-Serif" font-size="14.00">(3, 4, 5)</text>
</g>
<!-- 123157773955136 -->
<g id="node7" class="node">
<title>123157773955136</title>
<polygon fill="lightgray" stroke="darkslategray" points="105,-110 51,-110 51,-74 105,-74 105,-110"/>
<text text-anchor="middle" x="78" y="-88.3" font-family="Courier Bold" font-size="14.00">sum</text>
</g>
<!-- 123157773232032&#45;&gt;123157773955136 -->
<g id="edge5" class="edge">
<title>123157773232032&#45;&gt;123157773955136</title>
<path fill="none" stroke="#666666" stroke-width="1.2" d="M109.93,-145.72C104.61,-136.94 98.18,-126.31 92.48,-116.91"/>
<polygon fill="#666666" stroke="#666666" stroke-width="1.2" points="94.84,-115.4 88.3,-110 90.05,-118.3 94.84,-115.4"/>
</g>
<!-- 123157773226992 -->
<g id="node2" class="node">
<title>123157773226992</title>
<polygon fill="moccasin" stroke="orange" points="112,-330 58,-330 58,-292 112,-292 112,-330"/>
<text text-anchor="middle" x="85" y="-314.8" font-family="Sans-Serif" font-size="14.00">var_1</text>
<text text-anchor="middle" x="85" y="-299.8" font-family="Sans-Serif" font-size="14.00">&#45;1</text>
</g>
<!-- 123157773224400 -->
<g id="node4" class="node">
<title>123157773224400</title>
<polygon fill="lightgray" stroke="darkslategray" points="158,-256 84,-256 84,-220 158,-220 158,-256"/>
<text text-anchor="middle" x="121" y="-234.3" font-family="Courier Bold" font-size="14.00">uniform</text>
</g>
<!-- 123157773226992&#45;&gt;123157773224400 -->
<g id="edge2" class="edge">
<title>123157773226992&#45;&gt;123157773224400</title>
<path fill="none" stroke="#666666" stroke-width="1.2" d="M94.27,-291.72C98.68,-283.03 104,-272.52 108.74,-263.19"/>
<polygon fill="#666666" stroke="#666666" stroke-width="1.2" points="111.26,-264.4 112.38,-256 106.26,-261.87 111.26,-264.4"/>
</g>
<!-- 123157773232320 -->
<g id="node3" class="node">
<title>123157773232320</title>
<polygon fill="moccasin" stroke="orange" points="184,-330 130,-330 130,-292 184,-292 184,-330"/>
<text text-anchor="middle" x="157" y="-314.8" font-family="Sans-Serif" font-size="14.00">var_2</text>
<text text-anchor="middle" x="157" y="-299.8" font-family="Sans-Serif" font-size="14.00">1</text>
</g>
<!-- 123157773232320&#45;&gt;123157773224400 -->
<g id="edge3" class="edge">
<title>123157773232320&#45;&gt;123157773224400</title>
<path fill="none" stroke="#666666" stroke-width="1.2" d="M147.73,-291.72C143.32,-283.03 138,-272.52 133.26,-263.19"/>
<polygon fill="#666666" stroke="#666666" stroke-width="1.2" points="135.74,-261.87 129.62,-256 130.74,-264.4 135.74,-261.87"/>
</g>
<!-- 123157773224400&#45;&gt;123157773232032 -->
<g id="edge1" class="edge">
<title>123157773224400&#45;&gt;123157773232032</title>
<path fill="none" stroke="#666666" stroke-width="1.2" d="M121,-219.81C121,-211.52 121,-201.39 121,-192.16"/>
<polygon fill="#666666" stroke="#666666" stroke-width="1.2" points="123.8,-192.02 121,-184.02 118.2,-192.02 123.8,-192.02"/>
</g>
<!-- 123157773954464 -->
<g id="node5" class="node">
<title>123157773954464</title>
<polygon fill="aliceblue" stroke="skyblue" points="105,-38 51,-38 51,0 105,0 105,-38"/>
<text text-anchor="middle" x="78" y="-22.8" font-family="Sans-Serif" font-size="14.00">s</text>
<text text-anchor="middle" x="78" y="-7.8" font-family="Sans-Serif" font-size="14.00">(4,)</text>
</g>
<!-- 123157773954704 -->
<g id="node6" class="node">
<title>123157773954704</title>
<polygon fill="honeydew" stroke="darkseagreen" points="72,-184 0,-184 0,-146 72,-146 72,-184"/>
<text text-anchor="middle" x="36" y="-168.8" font-family="Sans-Serif" font-size="14.00">vector_1</text>
<text text-anchor="middle" x="36" y="-153.8" font-family="Sans-Serif" font-size="14.00">[0, 2]</text>
</g>
<!-- 123157773954704&#45;&gt;123157773955136 -->
<g id="edge6" class="edge">
<title>123157773954704&#45;&gt;123157773955136</title>
<path fill="none" stroke="#666666" stroke-width="1.2" d="M46.82,-145.72C52.01,-136.94 58.29,-126.31 63.86,-116.91"/>
<polygon fill="#666666" stroke="#666666" stroke-width="1.2" points="66.28,-118.31 67.94,-110 61.46,-115.46 66.28,-118.31"/>
</g>
<!-- 123157773955136&#45;&gt;123157773954464 -->
<g id="edge4" class="edge">
<title>123157773955136&#45;&gt;123157773954464</title>
<path fill="none" stroke="#666666" stroke-width="1.2" d="M78,-73.81C78,-65.52 78,-55.39 78,-46.16"/>
<polygon fill="#666666" stroke="#666666" stroke-width="1.2" points="80.8,-46.02 78,-38.02 75.2,-46.02 80.8,-46.02"/>
</g>
</g>
</svg>
