<?xml version="1.0" encoding="UTF-8" standalone="no"?>
<!DOCTYPE svg PUBLIC "-//W3C//DTD SVG 1.1//EN"
 "http://www.w3.org/Graphics/SVG/1.1/DTD/svg11.dtd">
<!-- Generated by graphviz version 2.43.0 (0)
 -->
<!-- Title: %3 Pages: 1 -->
<svg width="359pt" height="338pt"
 viewBox="0.00 0.00 358.50 338.00" xmlns="http://www.w3.org/2000/svg" xmlns:xlink="http://www.w3.org/1999/xlink">
<g id="graph0" class="graph" transform="scale(1 1) rotate(0) translate(4 334)">
<title>%3</title>
<polygon fill="white" stroke="transparent" points="-4,4 -4,-334 354.5,-334 354.5,4 -4,4"/>
<!-- 131859906553472 -->
<g id="node1" class="node">
<title>131859906553472</title>
<polygon fill="aliceblue" stroke="skyblue" points="163.5,-184 90.5,-184 90.5,-146 163.5,-146 163.5,-184"/>
<text text-anchor="middle" x="127" y="-168.8" font-family="Sans-Serif" font-size="14.00">tensor_1</text>
<text text-anchor="middle" x="127" y="-153.8" font-family="Sans-Serif" font-size="14.00">(3, 4)</text>
</g>
<!-- 131859907032784 -->
<g id="node5" class="node">
<title>131859907032784</title>
<polygon fill="lightgray" stroke="darkslategray" points="119,-110 45,-110 45,-74 119,-74 119,-110"/>
<text text-anchor="middle" x="82" y="-88.3" font-family="Courier Bold" font-size="14.00">reshape</text>
</g>
<!-- 131859906553472&#45;&gt;131859907032784 -->
<g id="edge4" class="edge">
<title>131859906553472&#45;&gt;131859907032784</title>
<path fill="none" stroke="#666666" stroke-width="1.2" d="M115.41,-145.72C109.85,-136.94 103.11,-126.31 97.15,-116.91"/>
<polygon fill="#666666" stroke="#666666" stroke-width="1.2" points="99.42,-115.26 92.78,-110 94.69,-118.26 99.42,-115.26"/>
</g>
<!-- 131859906553712 -->
<g id="node2" class="node">
<title>131859906553712</title>
<polygon fill="lightgray" stroke="darkslategray" points="168.5,-256 85.5,-256 85.5,-220 168.5,-220 168.5,-256"/>
<text text-anchor="middle" x="127" y="-234.3" font-family="Courier Bold" font-size="14.00">constant</text>
</g>
<!-- 131859906553712&#45;&gt;131859906553472 -->
<g id="edge1" class="edge">
<title>131859906553712&#45;&gt;131859906553472</title>
<path fill="none" stroke="#666666" stroke-width="1.2" d="M127,-219.81C127,-211.52 127,-201.39 127,-192.16"/>
<polygon fill="#666666" stroke="#666666" stroke-width="1.2" points="129.8,-192.02 127,-184.02 124.2,-192.02 129.8,-192.02"/>
</g>
<!-- 131859906546944 -->
<g id="node3" class="node">
<title>131859906546944</title>
<polygon fill="moccasin" stroke="orange" points="154,-330 100,-330 100,-292 154,-292 154,-330"/>
<text text-anchor="middle" x="127" y="-314.8" font-family="Sans-Serif" font-size="14.00">var_1</text>
<text text-anchor="middle" x="127" y="-299.8" font-family="Sans-Serif" font-size="14.00">1</text>
</g>
<!-- 131859906546944&#45;&gt;131859906553712 -->
<g id="edge2" class="edge">
<title>131859906546944&#45;&gt;131859906553712</title>
<path fill="none" stroke="#666666" stroke-width="1.2" d="M127,-291.72C127,-283.29 127,-273.15 127,-264.02"/>
<polygon fill="#666666" stroke="#666666" stroke-width="1.2" points="129.8,-264 127,-256 124.2,-264 129.8,-264"/>
</g>
<!-- 131859907032352 -->
<g id="node4" class="node">
<title>131859907032352</title>
<polygon fill="aliceblue" stroke="skyblue" points="118.5,-38 45.5,-38 45.5,0 118.5,0 118.5,-38"/>
<text text-anchor="middle" x="82" y="-22.8" font-family="Sans-Serif" font-size="14.00">tensor_2</text>
<text text-anchor="middle" x="82" y="-7.8" font-family="Sans-Serif" font-size="14.00">(3, 2, 2)</text>
</g>
<!-- 131859907032784&#45;&gt;131859907032352 -->
<g id="edge3" class="edge">
<title>131859907032784&#45;&gt;131859907032352</title>
<path fill="none" stroke="#666666" stroke-width="1.2" d="M82,-73.81C82,-65.52 82,-55.39 82,-46.16"/>
<polygon fill="#666666" stroke="#666666" stroke-width="1.2" points="84.8,-46.02 82,-38.02 79.2,-46.02 84.8,-46.02"/>
</g>
<!-- 131859907032832 -->
<g id="node6" class="node">
<title>131859907032832</title>
<polygon fill="honeydew" stroke="darkseagreen" points="72,-184 0,-184 0,-146 72,-146 72,-184"/>
<text text-anchor="middle" x="36" y="-168.8" font-family="Sans-Serif" font-size="14.00">vector_1</text>
<text text-anchor="middle" x="36" y="-153.8" font-family="Sans-Serif" font-size="14.00">(3, 2, 2)</text>
</g>
<!-- 131859907032832&#45;&gt;131859907032784 -->
<g id="edge5" class="edge">
<title>131859907032832&#45;&gt;131859907032784</title>
<path fill="none" stroke="#666666" stroke-width="1.2" d="M47.85,-145.72C53.53,-136.94 60.42,-126.31 66.51,-116.91"/>
<polygon fill="#666666" stroke="#666666" stroke-width="1.2" points="68.98,-118.24 70.98,-110 64.28,-115.19 68.98,-118.24"/>
</g>
<!-- 131859907033120 -->
<g id="node7" class="node">
<title>131859907033120</title>
<polygon fill="aliceblue" stroke="skyblue" points="345.5,-184 272.5,-184 272.5,-146 345.5,-146 345.5,-184"/>
<text text-anchor="middle" x="309" y="-168.8" font-family="Sans-Serif" font-size="14.00">tensor_3</text>
<text text-anchor="middle" x="309" y="-153.8" font-family="Sans-Serif" font-size="14.00">(4, 5)</text>
</g>
<!-- 131859907033264 -->
<g id="node10" class="node">
<title>131859907033264</title>
<polygon fill="lightgray" stroke="darkslategray" points="346,-110 272,-110 272,-74 346,-74 346,-110"/>
<text text-anchor="middle" x="309" y="-88.3" font-family="Courier Bold" font-size="14.00">reshape</text>
</g>
<!-- 131859907033120&#45;&gt;131859907033264 -->
<g id="edge9" class="edge">
<title>131859907033120&#45;&gt;131859907033264</title>
<path fill="none" stroke="#666666" stroke-width="1.2" d="M303.01,-145.72C302.2,-137.29 302.04,-127.15 302.52,-118.02"/>
<polygon fill="#666666" stroke="#666666" stroke-width="1.2" points="305.31,-118.2 303.14,-110 299.73,-117.76 305.31,-118.2"/>
</g>
<!-- 131859907033168 -->
<g id="node8" class="node">
<title>131859907033168</title>
<polygon fill="lightgray" stroke="darkslategray" points="350.5,-256 267.5,-256 267.5,-220 350.5,-220 350.5,-256"/>
<text text-anchor="middle" x="309" y="-234.3" font-family="Courier Bold" font-size="14.00">constant</text>
</g>
<!-- 131859907033168&#45;&gt;131859907033120 -->
<g id="edge6" class="edge">
<title>131859907033168&#45;&gt;131859907033120</title>
<path fill="none" stroke="#666666" stroke-width="1.2" d="M309,-219.81C309,-211.52 309,-201.39 309,-192.16"/>
<polygon fill="#666666" stroke="#666666" stroke-width="1.2" points="311.8,-192.02 309,-184.02 306.2,-192.02 311.8,-192.02"/>
</g>
<!-- 131859907032928 -->
<g id="node9" class="node">
<title>131859907032928</title>
<polygon fill="moccasin" stroke="orange" points="336,-330 282,-330 282,-292 336,-292 336,-330"/>
<text text-anchor="middle" x="309" y="-314.8" font-family="Sans-Serif" font-size="14.00">var_2</text>
<text text-anchor="middle" x="309" y="-299.8" font-family="Sans-Serif" font-size="14.00">0</text>
</g>
<!-- 131859907032928&#45;&gt;131859907033168 -->
<g id="edge8" class="edge">
<title>131859907032928&#45;&gt;131859907033168</title>
<path fill="none" stroke="#666666" stroke-width="1.2" d="M309,-291.72C309,-283.29 309,-273.15 309,-264.02"/>
<polygon fill="#666666" stroke="#666666" stroke-width="1.2" points="311.8,-264 309,-256 306.2,-264 311.8,-264"/>
</g>
<!-- 131859907033264&#45;&gt;131859907033120 -->
<g id="edge7" class="edge">
<title>131859907033264&#45;&gt;131859907033120</title>
<path fill="none" stroke="#666666" stroke-width="1.2" d="M314.86,-110C315.73,-118.25 315.96,-128.35 315.55,-137.57"/>
<polygon fill="#666666" stroke="#666666" stroke-width="1.2" points="312.75,-137.54 314.99,-145.72 318.33,-137.93 312.75,-137.54"/>
</g>
<!-- 131859907032592 -->
<g id="node11" class="node">
<title>131859907032592</title>
<polygon fill="honeydew" stroke="darkseagreen" points="254,-184 182,-184 182,-146 254,-146 254,-184"/>
<text text-anchor="middle" x="218" y="-168.8" font-family="Sans-Serif" font-size="14.00">vector_2</text>
<text text-anchor="middle" x="218" y="-153.8" font-family="Sans-Serif" font-size="14.00">(20,)</text>
</g>
<!-- 131859907032592&#45;&gt;131859907033264 -->
<g id="edge10" class="edge">
<title>131859907032592&#45;&gt;131859907033264</title>
<path fill="none" stroke="#666666" stroke-width="1.2" d="M241.43,-145.72C253.45,-136.34 268.18,-124.85 280.82,-114.99"/>
<polygon fill="#666666" stroke="#666666" stroke-width="1.2" points="282.62,-117.13 287.21,-110 279.18,-112.72 282.62,-117.13"/>
</g>
</g>
</svg>
