<?xml version="1.0" encoding="UTF-8" standalone="no"?>
<!DOCTYPE svg PUBLIC "-//W3C//DTD SVG 1.1//EN"
 "http://www.w3.org/Graphics/SVG/1.1/DTD/svg11.dtd">
<!-- Generated by graphviz version 2.43.0 (0)
 -->
<!-- Title: %3 Pages: 1 -->
<svg width="177pt" height="338pt"
 viewBox="0.00 0.00 176.50 338.00" xmlns="http://www.w3.org/2000/svg" xmlns:xlink="http://www.w3.org/1999/xlink">
<g id="graph0" class="graph" transform="scale(1 1) rotate(0) translate(4 334)">
<title>%3</title>
<polygon fill="white" stroke="transparent" points="-4,4 -4,-334 172.5,-334 172.5,4 -4,4"/>
<!-- 134609485662672 -->
<g id="node1" class="node">
<title>134609485662672</title>
<polygon fill="aliceblue" stroke="skyblue" points="163.5,-184 90.5,-184 90.5,-146 163.5,-146 163.5,-184"/>
<text text-anchor="middle" x="127" y="-168.8" font-family="Sans-Serif" font-size="14.00">tensor_1</text>
<text text-anchor="middle" x="127" y="-153.8" font-family="Sans-Serif" font-size="14.00">(3, 4)</text>
</g>
<!-- 134609486149808 -->
<g id="node6" class="node">
<title>134609486149808</title>
<polygon fill="lightgray" stroke="darkslategray" points="126.5,-110 35.5,-110 35.5,-74 126.5,-74 126.5,-110"/>
<text text-anchor="middle" x="81" y="-88.3" font-family="Courier Bold" font-size="14.00">transpose</text>
</g>
<!-- 134609485662672&#45;&gt;134609486149808 -->
<g id="edge4" class="edge">
<title>134609485662672&#45;&gt;134609486149808</title>
<path fill="none" stroke="#666666" stroke-width="1.2" d="M115.15,-145.72C109.47,-136.94 102.58,-126.31 96.49,-116.91"/>
<polygon fill="#666666" stroke="#666666" stroke-width="1.2" points="98.72,-115.19 92.02,-110 94.02,-118.24 98.72,-115.19"/>
</g>
<!-- 134609485670352 -->
<g id="node2" class="node">
<title>134609485670352</title>
<polygon fill="lightgray" stroke="darkslategray" points="168.5,-256 85.5,-256 85.5,-220 168.5,-220 168.5,-256"/>
<text text-anchor="middle" x="127" y="-234.3" font-family="Courier Bold" font-size="14.00">constant</text>
</g>
<!-- 134609485670352&#45;&gt;134609485662672 -->
<g id="edge1" class="edge">
<title>134609485670352&#45;&gt;134609485662672</title>
<path fill="none" stroke="#666666" stroke-width="1.2" d="M127,-219.81C127,-211.52 127,-201.39 127,-192.16"/>
<polygon fill="#666666" stroke="#666666" stroke-width="1.2" points="129.8,-192.02 127,-184.02 124.2,-192.02 129.8,-192.02"/>
</g>
<!-- 134609485671120 -->
<g id="node3" class="node">
<title>134609485671120</title>
<polygon fill="moccasin" stroke="orange" points="154,-330 100,-330 100,-292 154,-292 154,-330"/>
<text text-anchor="middle" x="127" y="-314.8" font-family="Sans-Serif" font-size="14.00">var_1</text>
<text text-anchor="middle" x="127" y="-299.8" font-family="Sans-Serif" font-size="14.00">1</text>
</g>
<!-- 134609485671120&#45;&gt;134609485670352 -->
<g id="edge2" class="edge">
<title>134609485671120&#45;&gt;134609485670352</title>
<path fill="none" stroke="#666666" stroke-width="1.2" d="M127,-291.72C127,-283.29 127,-273.15 127,-264.02"/>
<polygon fill="#666666" stroke="#666666" stroke-width="1.2" points="129.8,-264 127,-256 124.2,-264 129.8,-264"/>
</g>
<!-- 134609486150048 -->
<g id="node4" class="node">
<title>134609486150048</title>
<polygon fill="aliceblue" stroke="skyblue" points="117.5,-38 44.5,-38 44.5,0 117.5,0 117.5,-38"/>
<text text-anchor="middle" x="81" y="-22.8" font-family="Sans-Serif" font-size="14.00">tensor_2</text>
<text text-anchor="middle" x="81" y="-7.8" font-family="Sans-Serif" font-size="14.00">(4, 3)</text>
</g>
<!-- 134609486150096 -->
<g id="node5" class="node">
<title>134609486150096</title>
<polygon fill="honeydew" stroke="darkseagreen" points="72,-184 0,-184 0,-146 72,-146 72,-184"/>
<text text-anchor="middle" x="36" y="-168.8" font-family="Sans-Serif" font-size="14.00">vector_1</text>
<text text-anchor="middle" x="36" y="-153.8" font-family="Sans-Serif" font-size="14.00">(1, 0)</text>
</g>
<!-- 134609486150096&#45;&gt;134609486149808 -->
<g id="edge5" class="edge">
<title>134609486150096&#45;&gt;134609486149808</title>
<path fill="none" stroke="#666666" stroke-width="1.2" d="M47.59,-145.72C53.15,-136.94 59.89,-126.31 65.85,-116.91"/>
<polygon fill="#666666" stroke="#666666" stroke-width="1.2" points="68.31,-118.26 70.22,-110 63.58,-115.26 68.31,-118.26"/>
</g>
<!-- 134609486149808&#45;&gt;134609486150048 -->
<g id="edge3" class="edge">
<title>134609486149808&#45;&gt;134609486150048</title>
<path fill="none" stroke="#666666" stroke-width="1.2" d="M81,-73.81C81,-65.52 81,-55.39 81,-46.16"/>
<polygon fill="#666666" stroke="#666666" stroke-width="1.2" points="83.8,-46.02 81,-38.02 78.2,-46.02 83.8,-46.02"/>
</g>
</g>
</svg>
