<?xml version="1.0" encoding="UTF-8" standalone="no"?>
<!DOCTYPE svg PUBLIC "-//W3C//DTD SVG 1.1//EN"
 "http://www.w3.org/Graphics/SVG/1.1/DTD/svg11.dtd">
<!-- Generated by graphviz version 2.43.0 (0)
 -->
<!-- Title: computational_graph Pages: 1 -->
<svg width="873pt" height="186pt"
 viewBox="0.00 0.00 873.00 186.00" xmlns="http://www.w3.org/2000/svg" xmlns:xlink="http://www.w3.org/1999/xlink">
<g id="graph0" class="graph" transform="scale(1 1) rotate(0) translate(4 182)">
<title>computational_graph</title>
<polygon fill="white" stroke="transparent" points="-4,4 -4,-182 869,-182 869,4 -4,4"/>
<!-- 0xc000102150 -->
<g id="node1" class="node">
<title>0xc000102150</title>
<polygon fill="aliceblue" stroke="skyblue" points="57,-178 0,-178 0,-140 57,-140 57,-178"/>
<text text-anchor="middle" x="28.5" y="-162.8" font-family="Sans-Serif" font-size="14.00">Input </text>
<text text-anchor="middle" x="28.5" y="-147.8" font-family="Sans-Serif" font-size="14.00"> [1 2 3]</text>
</g>
<!-- 0xc000102270 -->
<g id="node4" class="node">
<title>0xc000102270</title>
<polygon fill="lightgray" stroke="darkslategray" points="147,-149 93,-149 93,-113 147,-113 147,-149"/>
<text text-anchor="middle" x="120" y="-127.3" font-family="Courier Bold" font-size="14.00">⊗</text>
</g>
<!-- 0xc000102150&#45;&gt;0xc000102270 -->
<g id="edge2" class="edge">
<title>0xc000102150&#45;&gt;0xc000102270</title>
<path fill="none" stroke="#666666" stroke-width="1.2" d="M57.33,-150.29C66.06,-147.56 75.8,-144.52 84.91,-141.66"/>
<polygon fill="#666666" stroke="#666666" stroke-width="1.2" points="85.92,-144.28 92.72,-139.22 84.25,-138.94 85.92,-144.28"/>
</g>
<!-- 0xc0001021b0 -->
<g id="node2" class="node">
<title>0xc0001021b0</title>
<polygon fill="aliceblue" stroke="skyblue" points="57,-122 0,-122 0,-84 57,-84 57,-122"/>
<text text-anchor="middle" x="28.5" y="-106.8" font-family="Sans-Serif" font-size="14.00">W </text>
<text text-anchor="middle" x="28.5" y="-91.8" font-family="Sans-Serif" font-size="14.00"> [3 4 5]</text>
</g>
<!-- 0xc0001021b0&#45;&gt;0xc000102270 -->
<g id="edge3" class="edge">
<title>0xc0001021b0&#45;&gt;0xc000102270</title>
<path fill="none" stroke="#666666" stroke-width="1.2" d="M57.33,-111.71C66.06,-114.44 75.8,-117.48 84.91,-120.34"/>
<polygon fill="#666666" stroke="#666666" stroke-width="1.2" points="84.25,-123.06 92.72,-122.78 85.92,-117.72 84.25,-123.06"/>
</g>
<!-- 0xc000102210 -->
<g id="node3" class="node">
<title>0xc000102210</title>
<polygon fill="aliceblue" stroke="skyblue" points="259,-150 183,-150 183,-112 259,-112 259,-150"/>
<text text-anchor="middle" x="221" y="-134.8" font-family="Sans-Serif" font-size="14.00">tensor_0 </text>
<text text-anchor="middle" x="221" y="-119.8" font-family="Sans-Serif" font-size="14.00"> [1 2 3]</text>
</g>
<!-- 0xc000102390 -->
<g id="node7" class="node">
<title>0xc000102390</title>
<polygon fill="lightgray" stroke="darkslategray" points="349,-121 295,-121 295,-85 349,-85 349,-121"/>
<text text-anchor="middle" x="322" y="-99.3" font-family="Courier Bold" font-size="14.00">+</text>
</g>
<!-- 0xc000102210&#45;&gt;0xc000102390 -->
<g id="edge5" class="edge">
<title>0xc000102210&#45;&gt;0xc000102390</title>
<path fill="none" stroke="#666666" stroke-width="1.2" d="M259.15,-120.49C268.22,-117.93 277.88,-115.19 286.81,-112.67"/>
<polygon fill="#666666" stroke="#666666" stroke-width="1.2" points="287.83,-115.29 294.77,-110.42 286.31,-109.9 287.83,-115.29"/>
</g>
<!-- 0xc000102270&#45;&gt;0xc000102210 -->
<g id="edge1" class="edge">
<title>0xc000102270&#45;&gt;0xc000102210</title>
<path fill="none" stroke="#666666" stroke-width="1.2" d="M147.01,-131C155.52,-131 165.23,-131 174.73,-131"/>
<polygon fill="#666666" stroke="#666666" stroke-width="1.2" points="175,-133.8 183,-131 175,-128.2 175,-133.8"/>
</g>
<!-- 0xc0001022d0 -->
<g id="node5" class="node">
<title>0xc0001022d0</title>
<polygon fill="aliceblue" stroke="skyblue" points="249.5,-94 192.5,-94 192.5,-56 249.5,-56 249.5,-94"/>
<text text-anchor="middle" x="221" y="-78.8" font-family="Sans-Serif" font-size="14.00">b </text>
<text text-anchor="middle" x="221" y="-63.8" font-family="Sans-Serif" font-size="14.00"> [1 4 5]</text>
</g>
<!-- 0xc0001022d0&#45;&gt;0xc000102390 -->
<g id="edge6" class="edge">
<title>0xc0001022d0&#45;&gt;0xc000102390</title>
<path fill="none" stroke="#666666" stroke-width="1.2" d="M249.58,-82.8C261.22,-86.09 274.88,-89.96 287.13,-93.42"/>
<polygon fill="#666666" stroke="#666666" stroke-width="1.2" points="286.47,-96.14 294.93,-95.63 288,-90.76 286.47,-96.14"/>
</g>
<!-- 0xc000102330 -->
<g id="node6" class="node">
<title>0xc000102330</title>
<polygon fill="aliceblue" stroke="skyblue" points="461,-122 385,-122 385,-84 461,-84 461,-122"/>
<text text-anchor="middle" x="423" y="-106.8" font-family="Sans-Serif" font-size="14.00">tensor_1 </text>
<text text-anchor="middle" x="423" y="-91.8" font-family="Sans-Serif" font-size="14.00"> [1 2 3]</text>
</g>
<!-- 0xc0001024b0 -->
<g id="node10" class="node">
<title>0xc0001024b0</title>
<polygon fill="lightgray" stroke="darkslategray" points="551,-93 497,-93 497,-57 551,-57 551,-93"/>
<text text-anchor="middle" x="524" y="-71.3" font-family="Courier Bold" font-size="14.00">⊗</text>
</g>
<!-- 0xc000102330&#45;&gt;0xc0001024b0 -->
<g id="edge9" class="edge">
<title>0xc000102330&#45;&gt;0xc0001024b0</title>
<path fill="none" stroke="#666666" stroke-width="1.2" d="M461.15,-92.49C470.22,-89.93 479.88,-87.19 488.81,-84.67"/>
<polygon fill="#666666" stroke="#666666" stroke-width="1.2" points="489.83,-87.29 496.77,-82.42 488.31,-81.9 489.83,-87.29"/>
</g>
<!-- 0xc000102390&#45;&gt;0xc000102330 -->
<g id="edge4" class="edge">
<title>0xc000102390&#45;&gt;0xc000102330</title>
<path fill="none" stroke="#666666" stroke-width="1.2" d="M349.01,-103C357.52,-103 367.23,-103 376.73,-103"/>
<polygon fill="#666666" stroke="#666666" stroke-width="1.2" points="377,-105.8 385,-103 377,-100.2 377,-105.8"/>
</g>
<!-- 0xc0001023f0 -->
<g id="node8" class="node">
<title>0xc0001023f0</title>
<polygon fill="aliceblue" stroke="skyblue" points="451.5,-66 394.5,-66 394.5,-28 451.5,-28 451.5,-66"/>
<text text-anchor="middle" x="423" y="-50.8" font-family="Sans-Serif" font-size="14.00">W </text>
<text text-anchor="middle" x="423" y="-35.8" font-family="Sans-Serif" font-size="14.00"> [3 4 5]</text>
</g>
<!-- 0xc0001023f0&#45;&gt;0xc0001024b0 -->
<g id="edge8" class="edge">
<title>0xc0001023f0&#45;&gt;0xc0001024b0</title>
<path fill="none" stroke="#666666" stroke-width="1.2" d="M451.58,-54.8C463.22,-58.09 476.88,-61.96 489.13,-65.42"/>
<polygon fill="#666666" stroke="#666666" stroke-width="1.2" points="488.47,-68.14 496.93,-67.63 490,-62.76 488.47,-68.14"/>
</g>
<!-- 0xc000102450 -->
<g id="node9" class="node">
<title>0xc000102450</title>
<polygon fill="aliceblue" stroke="skyblue" points="663,-94 587,-94 587,-56 663,-56 663,-94"/>
<text text-anchor="middle" x="625" y="-78.8" font-family="Sans-Serif" font-size="14.00">tensor_2 </text>
<text text-anchor="middle" x="625" y="-63.8" font-family="Sans-Serif" font-size="14.00"> [1 2 3]</text>
</g>
<!-- 0xc0001025d0 -->
<g id="node13" class="node">
<title>0xc0001025d0</title>
<polygon fill="lightgray" stroke="darkslategray" points="753,-65 699,-65 699,-29 753,-29 753,-65"/>
<text text-anchor="middle" x="726" y="-43.3" font-family="Courier Bold" font-size="14.00">+</text>
</g>
<!-- 0xc000102450&#45;&gt;0xc0001025d0 -->
<g id="edge11" class="edge">
<title>0xc000102450&#45;&gt;0xc0001025d0</title>
<path fill="none" stroke="#666666" stroke-width="1.2" d="M663.15,-64.49C672.22,-61.93 681.88,-59.19 690.81,-56.67"/>
<polygon fill="#666666" stroke="#666666" stroke-width="1.2" points="691.83,-59.29 698.77,-54.42 690.31,-53.9 691.83,-59.29"/>
</g>
<!-- 0xc0001024b0&#45;&gt;0xc000102450 -->
<g id="edge7" class="edge">
<title>0xc0001024b0&#45;&gt;0xc000102450</title>
<path fill="none" stroke="#666666" stroke-width="1.2" d="M551.01,-75C559.52,-75 569.23,-75 578.73,-75"/>
<polygon fill="#666666" stroke="#666666" stroke-width="1.2" points="579,-77.8 587,-75 579,-72.2 579,-77.8"/>
</g>
<!-- 0xc000102510 -->
<g id="node11" class="node">
<title>0xc000102510</title>
<polygon fill="aliceblue" stroke="skyblue" points="653.5,-38 596.5,-38 596.5,0 653.5,0 653.5,-38"/>
<text text-anchor="middle" x="625" y="-22.8" font-family="Sans-Serif" font-size="14.00">b </text>
<text text-anchor="middle" x="625" y="-7.8" font-family="Sans-Serif" font-size="14.00"> [1 4 5]</text>
</g>
<!-- 0xc000102510&#45;&gt;0xc0001025d0 -->
<g id="edge12" class="edge">
<title>0xc000102510&#45;&gt;0xc0001025d0</title>
<path fill="none" stroke="#666666" stroke-width="1.2" d="M653.58,-26.8C665.22,-30.09 678.88,-33.96 691.13,-37.42"/>
<polygon fill="#666666" stroke="#666666" stroke-width="1.2" points="690.47,-40.14 698.93,-39.63 692,-34.76 690.47,-40.14"/>
</g>
<!-- 0xc000102570 -->
<g id="node12" class="node">
<title>0xc000102570</title>
<polygon fill="aliceblue" stroke="skyblue" points="865,-66 789,-66 789,-28 865,-28 865,-66"/>
<text text-anchor="middle" x="827" y="-50.8" font-family="Sans-Serif" font-size="14.00">tensor_3 </text>
<text text-anchor="middle" x="827" y="-35.8" font-family="Sans-Serif" font-size="14.00"> [1 2 3]</text>
</g>
<!-- 0xc0001025d0&#45;&gt;0xc000102570 -->
<g id="edge10" class="edge">
<title>0xc0001025d0&#45;&gt;0xc000102570</title>
<path fill="none" stroke="#666666" stroke-width="1.2" d="M753.01,-47C761.52,-47 771.23,-47 780.73,-47"/>
<polygon fill="#666666" stroke="#666666" stroke-width="1.2" points="781,-49.8 789,-47 781,-44.2 781,-49.8"/>
</g>
</g>
</svg>
