<?xml version="1.0" encoding="UTF-8" standalone="no"?>
<!DOCTYPE svg PUBLIC "-//W3C//DTD SVG 1.1//EN"
 "http://www.w3.org/Graphics/SVG/1.1/DTD/svg11.dtd">
<!-- Generated by graphviz version 2.43.0 (0)
 -->
<!-- Title: %3 Pages: 1 -->
<svg width="611pt" height="630pt"
 viewBox="0.00 0.00 610.50 630.00" xmlns="http://www.w3.org/2000/svg" xmlns:xlink="http://www.w3.org/1999/xlink">
<g id="graph0" class="graph" transform="scale(1 1) rotate(0) translate(4 626)">
<title>%3</title>
<polygon fill="white" stroke="transparent" points="-4,4 -4,-626 606.5,-626 606.5,4 -4,4"/>
<!-- 127326766696240 -->
<g id="node1" class="node">
<title>127326766696240</title>
<polygon fill="aliceblue" stroke="skyblue" points="510.5,-476 394.5,-476 394.5,-438 510.5,-438 510.5,-476"/>
<text text-anchor="middle" x="452.5" y="-460.8" font-family="Sans-Serif" font-size="14.00">linear_0.weight</text>
<text text-anchor="middle" x="452.5" y="-445.8" font-family="Sans-Serif" font-size="14.00">(4, 64)</text>
</g>
<!-- 127324471099456 -->
<g id="node16" class="node">
<title>127324471099456</title>
<polygon fill="lightgray" stroke="darkslategray" points="400,-402 309,-402 309,-366 400,-366 400,-402"/>
<text text-anchor="middle" x="354.5" y="-380.3" font-family="Courier Bold" font-size="14.00">transpose</text>
</g>
<!-- 127326766696240&#45;&gt;127324471099456 -->
<g id="edge12" class="edge">
<title>127326766696240&#45;&gt;127324471099456</title>
<path fill="none" stroke="#666666" stroke-width="1.2" d="M427.52,-437.9C414.46,-428.44 398.37,-416.78 384.62,-406.83"/>
<polygon fill="#666666" stroke="#666666" stroke-width="1.2" points="386.21,-404.52 378.09,-402.09 382.92,-409.05 386.21,-404.52"/>
</g>
<!-- 127324469312480 -->
<g id="node2" class="node">
<title>127324469312480</title>
<polygon fill="aliceblue" stroke="skyblue" points="165.5,-184 65.5,-184 65.5,-146 165.5,-146 165.5,-184"/>
<text text-anchor="middle" x="115.5" y="-168.8" font-family="Sans-Serif" font-size="14.00">linear_0.bias</text>
<text text-anchor="middle" x="115.5" y="-153.8" font-family="Sans-Serif" font-size="14.00">(4,)</text>
</g>
<!-- 127324471099840 -->
<g id="node19" class="node">
<title>127324471099840</title>
<polygon fill="lightgray" stroke="darkslategray" points="194.5,-110 140.5,-110 140.5,-74 194.5,-74 194.5,-110"/>
<text text-anchor="middle" x="167.5" y="-88.3" font-family="Courier Bold" font-size="14.00">add</text>
</g>
<!-- 127324469312480&#45;&gt;127324471099840 -->
<g id="edge18" class="edge">
<title>127324469312480&#45;&gt;127324471099840</title>
<path fill="none" stroke="#666666" stroke-width="1.2" d="M128.89,-145.72C135.38,-136.85 143.25,-126.11 150.19,-116.63"/>
<polygon fill="#666666" stroke="#666666" stroke-width="1.2" points="152.58,-118.11 155.05,-110 148.06,-114.8 152.58,-118.11"/>
</g>
<!-- 127324469310032 -->
<g id="node3" class="node">
<title>127324469310032</title>
<polygon fill="lightgray" stroke="darkslategray" points="489.5,-548 415.5,-548 415.5,-512 489.5,-512 489.5,-548"/>
<text text-anchor="middle" x="452.5" y="-526.3" font-family="Courier Bold" font-size="14.00">uniform</text>
</g>
<!-- 127324469310032&#45;&gt;127326766696240 -->
<g id="edge1" class="edge">
<title>127324469310032&#45;&gt;127326766696240</title>
<path fill="none" stroke="#666666" stroke-width="1.2" d="M452.5,-511.81C452.5,-503.52 452.5,-493.39 452.5,-484.16"/>
<polygon fill="#666666" stroke="#666666" stroke-width="1.2" points="455.3,-484.02 452.5,-476.02 449.7,-484.02 455.3,-484.02"/>
</g>
<!-- 127324469312384 -->
<g id="node4" class="node">
<title>127324469312384</title>
<polygon fill="moccasin" stroke="orange" points="356.5,-622 196.5,-622 196.5,-584 356.5,-584 356.5,-622"/>
<text text-anchor="middle" x="276.5" y="-606.8" font-family="Sans-Serif" font-size="14.00">var_1</text>
<text text-anchor="middle" x="276.5" y="-591.8" font-family="Sans-Serif" font-size="14.00">&#45;0.12499999999999999</text>
</g>
<!-- 127324469312384&#45;&gt;127324469310032 -->
<g id="edge3" class="edge">
<title>127324469312384&#45;&gt;127324469310032</title>
<path fill="none" stroke="#666666" stroke-width="1.2" d="M321.37,-583.9C347.88,-573.21 381.33,-559.71 407.81,-549.03"/>
<polygon fill="#666666" stroke="#666666" stroke-width="1.2" points="409.06,-551.54 415.43,-545.95 406.97,-546.35 409.06,-551.54"/>
</g>
<!-- 127324469312144 -->
<g id="node5" class="node">
<title>127324469312144</title>
<polygon fill="moccasin" stroke="orange" points="530,-622 375,-622 375,-584 530,-584 530,-622"/>
<text text-anchor="middle" x="452.5" y="-606.8" font-family="Sans-Serif" font-size="14.00">var_2</text>
<text text-anchor="middle" x="452.5" y="-591.8" font-family="Sans-Serif" font-size="14.00">0.12499999999999999</text>
</g>
<!-- 127324469312144&#45;&gt;127324469310032 -->
<g id="edge4" class="edge">
<title>127324469312144&#45;&gt;127324469310032</title>
<path fill="none" stroke="#666666" stroke-width="1.2" d="M452.5,-583.72C452.5,-575.29 452.5,-565.15 452.5,-556.02"/>
<polygon fill="#666666" stroke="#666666" stroke-width="1.2" points="455.3,-556 452.5,-548 449.7,-556 455.3,-556"/>
</g>
<!-- 127324469312528 -->
<g id="node6" class="node">
<title>127324469312528</title>
<polygon fill="moccasin" stroke="orange" points="602.5,-622 548.5,-622 548.5,-584 602.5,-584 602.5,-622"/>
<text text-anchor="middle" x="575.5" y="-606.8" font-family="Sans-Serif" font-size="14.00">var_3</text>
<text text-anchor="middle" x="575.5" y="-591.8" font-family="Sans-Serif" font-size="14.00">0</text>
</g>
<!-- 127324469312528&#45;&gt;127324469310032 -->
<g id="edge5" class="edge">
<title>127324469312528&#45;&gt;127324469310032</title>
<path fill="none" stroke="#666666" stroke-width="1.2" d="M548.2,-586.24C530.96,-576.29 508.45,-563.3 489.6,-552.41"/>
<polygon fill="#666666" stroke="#666666" stroke-width="1.2" points="490.63,-549.78 482.3,-548.2 487.83,-554.63 490.63,-549.78"/>
</g>
<!-- 127324469312624 -->
<g id="node7" class="node">
<title>127324469312624</title>
<polygon fill="lightgray" stroke="darkslategray" points="147.5,-256 73.5,-256 73.5,-220 147.5,-220 147.5,-256"/>
<text text-anchor="middle" x="110.5" y="-234.3" font-family="Courier Bold" font-size="14.00">uniform</text>
</g>
<!-- 127324469312624&#45;&gt;127324469312480 -->
<g id="edge2" class="edge">
<title>127324469312624&#45;&gt;127324469312480</title>
<path fill="none" stroke="#666666" stroke-width="1.2" d="M111.71,-219.81C112.29,-211.52 113.01,-201.39 113.66,-192.16"/>
<polygon fill="#666666" stroke="#666666" stroke-width="1.2" points="116.46,-192.2 114.23,-184.02 110.88,-191.8 116.46,-192.2"/>
</g>
<!-- 127324469312576 -->
<g id="node8" class="node">
<title>127324469312576</title>
<polygon fill="moccasin" stroke="orange" points="55,-330 0,-330 0,-292 55,-292 55,-330"/>
<text text-anchor="middle" x="27.5" y="-314.8" font-family="Sans-Serif" font-size="14.00">var_4</text>
<text text-anchor="middle" x="27.5" y="-299.8" font-family="Sans-Serif" font-size="14.00">&#45;0.125</text>
</g>
<!-- 127324469312576&#45;&gt;127324469312624 -->
<g id="edge6" class="edge">
<title>127324469312576&#45;&gt;127324469312624</title>
<path fill="none" stroke="#666666" stroke-width="1.2" d="M48.87,-291.72C59.74,-282.42 73.02,-271.06 84.48,-261.26"/>
<polygon fill="#666666" stroke="#666666" stroke-width="1.2" points="86.36,-263.33 90.62,-256 82.72,-259.08 86.36,-263.33"/>
</g>
<!-- 127324469312720 -->
<g id="node9" class="node">
<title>127324469312720</title>
<polygon fill="moccasin" stroke="orange" points="127.5,-330 73.5,-330 73.5,-292 127.5,-292 127.5,-330"/>
<text text-anchor="middle" x="100.5" y="-314.8" font-family="Sans-Serif" font-size="14.00">var_5</text>
<text text-anchor="middle" x="100.5" y="-299.8" font-family="Sans-Serif" font-size="14.00">0.125</text>
</g>
<!-- 127324469312720&#45;&gt;127324469312624 -->
<g id="edge7" class="edge">
<title>127324469312720&#45;&gt;127324469312624</title>
<path fill="none" stroke="#666666" stroke-width="1.2" d="M103.08,-291.72C104.26,-283.29 105.69,-273.15 106.98,-264.02"/>
<polygon fill="#666666" stroke="#666666" stroke-width="1.2" points="109.76,-264.32 108.11,-256 104.22,-263.53 109.76,-264.32"/>
</g>
<!-- 127324469312768 -->
<g id="node10" class="node">
<title>127324469312768</title>
<polygon fill="moccasin" stroke="orange" points="199.5,-330 145.5,-330 145.5,-292 199.5,-292 199.5,-330"/>
<text text-anchor="middle" x="172.5" y="-314.8" font-family="Sans-Serif" font-size="14.00">var_6</text>
<text text-anchor="middle" x="172.5" y="-299.8" font-family="Sans-Serif" font-size="14.00">0</text>
</g>
<!-- 127324469312768&#45;&gt;127324469312624 -->
<g id="edge8" class="edge">
<title>127324469312768&#45;&gt;127324469312624</title>
<path fill="none" stroke="#666666" stroke-width="1.2" d="M156.53,-291.72C148.65,-282.68 139.04,-271.69 130.66,-262.08"/>
<polygon fill="#666666" stroke="#666666" stroke-width="1.2" points="132.72,-260.19 125.35,-256 128.5,-263.87 132.72,-260.19"/>
</g>
<!-- 127324469312816 -->
<g id="node11" class="node">
<title>127324469312816</title>
<polygon fill="aliceblue" stroke="skyblue" points="273,-330 218,-330 218,-292 273,-292 273,-330"/>
<text text-anchor="middle" x="245.5" y="-314.8" font-family="Sans-Serif" font-size="14.00">input</text>
<text text-anchor="middle" x="245.5" y="-299.8" font-family="Sans-Serif" font-size="14.00">(1, 64)</text>
</g>
<!-- 127324469313488 -->
<g id="node17" class="node">
<title>127324469313488</title>
<polygon fill="lightgray" stroke="darkslategray" points="278.5,-256 212.5,-256 212.5,-220 278.5,-220 278.5,-256"/>
<text text-anchor="middle" x="245.5" y="-234.3" font-family="Courier Bold" font-size="14.00">matmul</text>
</g>
<!-- 127324469312816&#45;&gt;127324469313488 -->
<g id="edge14" class="edge">
<title>127324469312816&#45;&gt;127324469313488</title>
<path fill="none" stroke="#666666" stroke-width="1.2" d="M245.5,-291.72C245.5,-283.29 245.5,-273.15 245.5,-264.02"/>
<polygon fill="#666666" stroke="#666666" stroke-width="1.2" points="248.3,-264 245.5,-256 242.7,-264 248.3,-264"/>
</g>
<!-- 127324469313056 -->
<g id="node12" class="node">
<title>127324469313056</title>
<polygon fill="lightgray" stroke="darkslategray" points="287,-402 204,-402 204,-366 287,-366 287,-402"/>
<text text-anchor="middle" x="245.5" y="-380.3" font-family="Courier Bold" font-size="14.00">constant</text>
</g>
<!-- 127324469313056&#45;&gt;127324469312816 -->
<g id="edge9" class="edge">
<title>127324469313056&#45;&gt;127324469312816</title>
<path fill="none" stroke="#666666" stroke-width="1.2" d="M245.5,-365.81C245.5,-357.52 245.5,-347.39 245.5,-338.16"/>
<polygon fill="#666666" stroke="#666666" stroke-width="1.2" points="248.3,-338.02 245.5,-330.02 242.7,-338.02 248.3,-338.02"/>
</g>
<!-- 127324469313008 -->
<g id="node13" class="node">
<title>127324469313008</title>
<polygon fill="moccasin" stroke="orange" points="272.5,-476 218.5,-476 218.5,-438 272.5,-438 272.5,-476"/>
<text text-anchor="middle" x="245.5" y="-460.8" font-family="Sans-Serif" font-size="14.00">var_7</text>
<text text-anchor="middle" x="245.5" y="-445.8" font-family="Sans-Serif" font-size="14.00">1</text>
</g>
<!-- 127324469313008&#45;&gt;127324469313056 -->
<g id="edge10" class="edge">
<title>127324469313008&#45;&gt;127324469313056</title>
<path fill="none" stroke="#666666" stroke-width="1.2" d="M245.5,-437.72C245.5,-429.29 245.5,-419.15 245.5,-410.02"/>
<polygon fill="#666666" stroke="#666666" stroke-width="1.2" points="248.3,-410 245.5,-402 242.7,-410 248.3,-410"/>
</g>
<!-- 127324469313344 -->
<g id="node14" class="node">
<title>127324469313344</title>
<polygon fill="aliceblue" stroke="skyblue" points="418,-330 291,-330 291,-292 418,-292 418,-330"/>
<text text-anchor="middle" x="354.5" y="-314.8" font-family="Sans-Serif" font-size="14.00">linear_0.weight.T</text>
<text text-anchor="middle" x="354.5" y="-299.8" font-family="Sans-Serif" font-size="14.00">(64, 4)</text>
</g>
<!-- 127324469313344&#45;&gt;127324469313488 -->
<g id="edge15" class="edge">
<title>127324469313344&#45;&gt;127324469313488</title>
<path fill="none" stroke="#666666" stroke-width="1.2" d="M326.71,-291.9C312.05,-282.35 293.97,-270.57 278.59,-260.55"/>
<polygon fill="#666666" stroke="#666666" stroke-width="1.2" points="279.97,-258.11 271.74,-256.09 276.91,-262.8 279.97,-258.11"/>
</g>
<!-- 127324469313440 -->
<g id="node15" class="node">
<title>127324469313440</title>
<polygon fill="honeydew" stroke="darkseagreen" points="376.5,-476 304.5,-476 304.5,-438 376.5,-438 376.5,-476"/>
<text text-anchor="middle" x="340.5" y="-460.8" font-family="Sans-Serif" font-size="14.00">vector_1</text>
<text text-anchor="middle" x="340.5" y="-445.8" font-family="Sans-Serif" font-size="14.00">[1, 0]</text>
</g>
<!-- 127324469313440&#45;&gt;127324471099456 -->
<g id="edge13" class="edge">
<title>127324469313440&#45;&gt;127324471099456</title>
<path fill="none" stroke="#666666" stroke-width="1.2" d="M344.11,-437.72C345.77,-429.29 347.77,-419.15 349.57,-410.02"/>
<polygon fill="#666666" stroke="#666666" stroke-width="1.2" points="352.35,-410.39 351.15,-402 346.85,-409.31 352.35,-410.39"/>
</g>
<!-- 127324471099456&#45;&gt;127324469313344 -->
<g id="edge11" class="edge">
<title>127324471099456&#45;&gt;127324469313344</title>
<path fill="none" stroke="#666666" stroke-width="1.2" d="M354.5,-365.81C354.5,-357.52 354.5,-347.39 354.5,-338.16"/>
<polygon fill="#666666" stroke="#666666" stroke-width="1.2" points="357.3,-338.02 354.5,-330.02 351.7,-338.02 357.3,-338.02"/>
</g>
<!-- 127324471099696 -->
<g id="node18" class="node">
<title>127324471099696</title>
<polygon fill="aliceblue" stroke="skyblue" points="277,-184 204,-184 204,-146 277,-146 277,-184"/>
<text text-anchor="middle" x="240.5" y="-168.8" font-family="Sans-Serif" font-size="14.00">tensor_5</text>
<text text-anchor="middle" x="240.5" y="-153.8" font-family="Sans-Serif" font-size="14.00">(1, 4)</text>
</g>
<!-- 127324469313488&#45;&gt;127324471099696 -->
<g id="edge16" class="edge">
<title>127324469313488&#45;&gt;127324471099696</title>
<path fill="none" stroke="#666666" stroke-width="1.2" d="M244.29,-219.81C243.71,-211.52 242.99,-201.39 242.34,-192.16"/>
<polygon fill="#666666" stroke="#666666" stroke-width="1.2" points="245.12,-191.8 241.77,-184.02 239.54,-192.2 245.12,-191.8"/>
</g>
<!-- 127324471099696&#45;&gt;127324471099840 -->
<g id="edge17" class="edge">
<title>127324471099696&#45;&gt;127324471099840</title>
<path fill="none" stroke="#666666" stroke-width="1.2" d="M221.7,-145.72C212.32,-136.6 200.89,-125.48 190.95,-115.81"/>
<polygon fill="#666666" stroke="#666666" stroke-width="1.2" points="192.67,-113.57 184.98,-110 188.77,-117.59 192.67,-113.57"/>
</g>
<!-- 127324471099936 -->
<g id="node20" class="node">
<title>127324471099936</title>
<polygon fill="aliceblue" stroke="skyblue" points="204,-38 131,-38 131,0 204,0 204,-38"/>
<text text-anchor="middle" x="167.5" y="-22.8" font-family="Sans-Serif" font-size="14.00">tensor_6</text>
<text text-anchor="middle" x="167.5" y="-7.8" font-family="Sans-Serif" font-size="14.00">(1, 4)</text>
</g>
<!-- 127324471099840&#45;&gt;127324471099936 -->
<g id="edge19" class="edge">
<title>127324471099840&#45;&gt;127324471099936</title>
<path fill="none" stroke="#666666" stroke-width="1.2" d="M167.5,-73.81C167.5,-65.52 167.5,-55.39 167.5,-46.16"/>
<polygon fill="#666666" stroke="#666666" stroke-width="1.2" points="170.3,-46.02 167.5,-38.02 164.7,-46.02 170.3,-46.02"/>
</g>
</g>
</svg>
