<?xml version="1.0" encoding="UTF-8" standalone="no"?>
<!DOCTYPE svg PUBLIC "-//W3C//DTD SVG 1.1//EN"
 "http://www.w3.org/Graphics/SVG/1.1/DTD/svg11.dtd">
<!-- Generated by graphviz version 2.43.0 (0)
 -->
<!-- Title: %3 Pages: 1 -->
<svg width="656pt" height="630pt"
 viewBox="0.00 0.00 655.50 630.00" xmlns="http://www.w3.org/2000/svg" xmlns:xlink="http://www.w3.org/1999/xlink">
<g id="graph0" class="graph" transform="scale(1 1) rotate(0) translate(4 626)">
<title>%3</title>
<polygon fill="white" stroke="transparent" points="-4,4 -4,-626 651.5,-626 651.5,4 -4,4"/>
<!-- 126533329176464 -->
<g id="node1" class="node">
<title>126533329176464</title>
<polygon fill="aliceblue" stroke="skyblue" points="555.5,-476 439.5,-476 439.5,-438 555.5,-438 555.5,-476"/>
<text text-anchor="middle" x="497.5" y="-460.8" font-family="Sans-Serif" font-size="14.00">linear_0.weight</text>
<text text-anchor="middle" x="497.5" y="-445.8" font-family="Sans-Serif" font-size="14.00">(4, 64)</text>
</g>
<!-- 126531635944736 -->
<g id="node16" class="node">
<title>126531635944736</title>
<polygon fill="lightgray" stroke="darkslategray" points="445,-402 354,-402 354,-366 445,-366 445,-402"/>
<text text-anchor="middle" x="399.5" y="-380.3" font-family="Courier Bold" font-size="14.00">transpose</text>
</g>
<!-- 126533329176464&#45;&gt;126531635944736 -->
<g id="edge12" class="edge">
<title>126533329176464&#45;&gt;126531635944736</title>
<path fill="none" stroke="#666666" stroke-width="1.2" d="M472.52,-437.9C459.46,-428.44 443.37,-416.78 429.62,-406.83"/>
<polygon fill="#666666" stroke="#666666" stroke-width="1.2" points="431.21,-404.52 423.09,-402.09 427.92,-409.05 431.21,-404.52"/>
</g>
<!-- 126531635937968 -->
<g id="node2" class="node">
<title>126531635937968</title>
<polygon fill="aliceblue" stroke="skyblue" points="150.5,-330 50.5,-330 50.5,-292 150.5,-292 150.5,-330"/>
<text text-anchor="middle" x="100.5" y="-314.8" font-family="Sans-Serif" font-size="14.00">linear_0.bias</text>
<text text-anchor="middle" x="100.5" y="-299.8" font-family="Sans-Serif" font-size="14.00">(4,)</text>
</g>
<!-- 126531635945216 -->
<g id="node20" class="node">
<title>126531635945216</title>
<polygon fill="lightgray" stroke="darkslategray" points="238.5,-256 164.5,-256 164.5,-220 238.5,-220 238.5,-256"/>
<text text-anchor="middle" x="201.5" y="-234.3" font-family="Courier Bold" font-size="14.00">reshape</text>
</g>
<!-- 126531635937968&#45;&gt;126531635945216 -->
<g id="edge18" class="edge">
<title>126531635937968&#45;&gt;126531635945216</title>
<path fill="none" stroke="#666666" stroke-width="1.2" d="M126.25,-291.9C139.71,-282.44 156.29,-270.78 170.45,-260.83"/>
<polygon fill="#666666" stroke="#666666" stroke-width="1.2" points="172.26,-262.98 177.19,-256.09 169.03,-258.4 172.26,-262.98"/>
</g>
<!-- 126531635951984 -->
<g id="node3" class="node">
<title>126531635951984</title>
<polygon fill="lightgray" stroke="darkslategray" points="534.5,-548 460.5,-548 460.5,-512 534.5,-512 534.5,-548"/>
<text text-anchor="middle" x="497.5" y="-526.3" font-family="Courier Bold" font-size="14.00">uniform</text>
</g>
<!-- 126531635951984&#45;&gt;126533329176464 -->
<g id="edge1" class="edge">
<title>126531635951984&#45;&gt;126533329176464</title>
<path fill="none" stroke="#666666" stroke-width="1.2" d="M497.5,-511.81C497.5,-503.52 497.5,-493.39 497.5,-484.16"/>
<polygon fill="#666666" stroke="#666666" stroke-width="1.2" points="500.3,-484.02 497.5,-476.02 494.7,-484.02 500.3,-484.02"/>
</g>
<!-- 126531635938016 -->
<g id="node4" class="node">
<title>126531635938016</title>
<polygon fill="moccasin" stroke="orange" points="401.5,-622 241.5,-622 241.5,-584 401.5,-584 401.5,-622"/>
<text text-anchor="middle" x="321.5" y="-606.8" font-family="Sans-Serif" font-size="14.00">var_1</text>
<text text-anchor="middle" x="321.5" y="-591.8" font-family="Sans-Serif" font-size="14.00">&#45;0.12499999999999999</text>
</g>
<!-- 126531635938016&#45;&gt;126531635951984 -->
<g id="edge3" class="edge">
<title>126531635938016&#45;&gt;126531635951984</title>
<path fill="none" stroke="#666666" stroke-width="1.2" d="M366.37,-583.9C392.88,-573.21 426.33,-559.71 452.81,-549.03"/>
<polygon fill="#666666" stroke="#666666" stroke-width="1.2" points="454.06,-551.54 460.43,-545.95 451.97,-546.35 454.06,-551.54"/>
</g>
<!-- 126531635938976 -->
<g id="node5" class="node">
<title>126531635938976</title>
<polygon fill="moccasin" stroke="orange" points="575,-622 420,-622 420,-584 575,-584 575,-622"/>
<text text-anchor="middle" x="497.5" y="-606.8" font-family="Sans-Serif" font-size="14.00">var_2</text>
<text text-anchor="middle" x="497.5" y="-591.8" font-family="Sans-Serif" font-size="14.00">0.12499999999999999</text>
</g>
<!-- 126531635938976&#45;&gt;126531635951984 -->
<g id="edge4" class="edge">
<title>126531635938976&#45;&gt;126531635951984</title>
<path fill="none" stroke="#666666" stroke-width="1.2" d="M497.5,-583.72C497.5,-575.29 497.5,-565.15 497.5,-556.02"/>
<polygon fill="#666666" stroke="#666666" stroke-width="1.2" points="500.3,-556 497.5,-548 494.7,-556 500.3,-556"/>
</g>
<!-- 126531635937488 -->
<g id="node6" class="node">
<title>126531635937488</title>
<polygon fill="moccasin" stroke="orange" points="647.5,-622 593.5,-622 593.5,-584 647.5,-584 647.5,-622"/>
<text text-anchor="middle" x="620.5" y="-606.8" font-family="Sans-Serif" font-size="14.00">var_3</text>
<text text-anchor="middle" x="620.5" y="-591.8" font-family="Sans-Serif" font-size="14.00">0</text>
</g>
<!-- 126531635937488&#45;&gt;126531635951984 -->
<g id="edge5" class="edge">
<title>126531635937488&#45;&gt;126531635951984</title>
<path fill="none" stroke="#666666" stroke-width="1.2" d="M593.2,-586.24C575.96,-576.29 553.45,-563.3 534.6,-552.41"/>
<polygon fill="#666666" stroke="#666666" stroke-width="1.2" points="535.63,-549.78 527.3,-548.2 532.83,-554.63 535.63,-549.78"/>
</g>
<!-- 126531635939072 -->
<g id="node7" class="node">
<title>126531635939072</title>
<polygon fill="lightgray" stroke="darkslategray" points="137.5,-402 63.5,-402 63.5,-366 137.5,-366 137.5,-402"/>
<text text-anchor="middle" x="100.5" y="-380.3" font-family="Courier Bold" font-size="14.00">uniform</text>
</g>
<!-- 126531635939072&#45;&gt;126531635937968 -->
<g id="edge2" class="edge">
<title>126531635939072&#45;&gt;126531635937968</title>
<path fill="none" stroke="#666666" stroke-width="1.2" d="M100.5,-365.81C100.5,-357.52 100.5,-347.39 100.5,-338.16"/>
<polygon fill="#666666" stroke="#666666" stroke-width="1.2" points="103.3,-338.02 100.5,-330.02 97.7,-338.02 103.3,-338.02"/>
</g>
<!-- 126531635937536 -->
<g id="node8" class="node">
<title>126531635937536</title>
<polygon fill="moccasin" stroke="orange" points="55,-476 0,-476 0,-438 55,-438 55,-476"/>
<text text-anchor="middle" x="27.5" y="-460.8" font-family="Sans-Serif" font-size="14.00">var_4</text>
<text text-anchor="middle" x="27.5" y="-445.8" font-family="Sans-Serif" font-size="14.00">&#45;0.125</text>
</g>
<!-- 126531635937536&#45;&gt;126531635939072 -->
<g id="edge6" class="edge">
<title>126531635937536&#45;&gt;126531635939072</title>
<path fill="none" stroke="#666666" stroke-width="1.2" d="M46.3,-437.72C55.68,-428.6 67.11,-417.48 77.05,-407.81"/>
<polygon fill="#666666" stroke="#666666" stroke-width="1.2" points="79.23,-409.59 83.02,-402 75.33,-405.57 79.23,-409.59"/>
</g>
<!-- 126531635939216 -->
<g id="node9" class="node">
<title>126531635939216</title>
<polygon fill="moccasin" stroke="orange" points="127.5,-476 73.5,-476 73.5,-438 127.5,-438 127.5,-476"/>
<text text-anchor="middle" x="100.5" y="-460.8" font-family="Sans-Serif" font-size="14.00">var_5</text>
<text text-anchor="middle" x="100.5" y="-445.8" font-family="Sans-Serif" font-size="14.00">0.125</text>
</g>
<!-- 126531635939216&#45;&gt;126531635939072 -->
<g id="edge7" class="edge">
<title>126531635939216&#45;&gt;126531635939072</title>
<path fill="none" stroke="#666666" stroke-width="1.2" d="M100.5,-437.72C100.5,-429.29 100.5,-419.15 100.5,-410.02"/>
<polygon fill="#666666" stroke="#666666" stroke-width="1.2" points="103.3,-410 100.5,-402 97.7,-410 103.3,-410"/>
</g>
<!-- 126531635939168 -->
<g id="node10" class="node">
<title>126531635939168</title>
<polygon fill="moccasin" stroke="orange" points="199.5,-476 145.5,-476 145.5,-438 199.5,-438 199.5,-476"/>
<text text-anchor="middle" x="172.5" y="-460.8" font-family="Sans-Serif" font-size="14.00">var_6</text>
<text text-anchor="middle" x="172.5" y="-445.8" font-family="Sans-Serif" font-size="14.00">0</text>
</g>
<!-- 126531635939168&#45;&gt;126531635939072 -->
<g id="edge8" class="edge">
<title>126531635939168&#45;&gt;126531635939072</title>
<path fill="none" stroke="#666666" stroke-width="1.2" d="M153.96,-437.72C144.71,-428.6 133.44,-417.48 123.63,-407.81"/>
<polygon fill="#666666" stroke="#666666" stroke-width="1.2" points="125.41,-405.63 117.74,-402 121.47,-409.61 125.41,-405.63"/>
</g>
<!-- 126531635939120 -->
<g id="node11" class="node">
<title>126531635939120</title>
<polygon fill="aliceblue" stroke="skyblue" points="318,-330 263,-330 263,-292 318,-292 318,-330"/>
<text text-anchor="middle" x="290.5" y="-314.8" font-family="Sans-Serif" font-size="14.00">input</text>
<text text-anchor="middle" x="290.5" y="-299.8" font-family="Sans-Serif" font-size="14.00">(1, 64)</text>
</g>
<!-- 126531635944640 -->
<g id="node17" class="node">
<title>126531635944640</title>
<polygon fill="lightgray" stroke="darkslategray" points="325.5,-256 259.5,-256 259.5,-220 325.5,-220 325.5,-256"/>
<text text-anchor="middle" x="292.5" y="-234.3" font-family="Courier Bold" font-size="14.00">matmul</text>
</g>
<!-- 126531635939120&#45;&gt;126531635944640 -->
<g id="edge14" class="edge">
<title>126531635939120&#45;&gt;126531635944640</title>
<path fill="none" stroke="#666666" stroke-width="1.2" d="M291.02,-291.72C291.25,-283.29 291.54,-273.15 291.8,-264.02"/>
<polygon fill="#666666" stroke="#666666" stroke-width="1.2" points="294.59,-264.08 292.02,-256 289,-263.92 294.59,-264.08"/>
</g>
<!-- 126531635940896 -->
<g id="node12" class="node">
<title>126531635940896</title>
<polygon fill="lightgray" stroke="darkslategray" points="332,-402 249,-402 249,-366 332,-366 332,-402"/>
<text text-anchor="middle" x="290.5" y="-380.3" font-family="Courier Bold" font-size="14.00">constant</text>
</g>
<!-- 126531635940896&#45;&gt;126531635939120 -->
<g id="edge9" class="edge">
<title>126531635940896&#45;&gt;126531635939120</title>
<path fill="none" stroke="#666666" stroke-width="1.2" d="M290.5,-365.81C290.5,-357.52 290.5,-347.39 290.5,-338.16"/>
<polygon fill="#666666" stroke="#666666" stroke-width="1.2" points="293.3,-338.02 290.5,-330.02 287.7,-338.02 293.3,-338.02"/>
</g>
<!-- 126531635940944 -->
<g id="node13" class="node">
<title>126531635940944</title>
<polygon fill="moccasin" stroke="orange" points="317.5,-476 263.5,-476 263.5,-438 317.5,-438 317.5,-476"/>
<text text-anchor="middle" x="290.5" y="-460.8" font-family="Sans-Serif" font-size="14.00">var_7</text>
<text text-anchor="middle" x="290.5" y="-445.8" font-family="Sans-Serif" font-size="14.00">1</text>
</g>
<!-- 126531635940944&#45;&gt;126531635940896 -->
<g id="edge10" class="edge">
<title>126531635940944&#45;&gt;126531635940896</title>
<path fill="none" stroke="#666666" stroke-width="1.2" d="M290.5,-437.72C290.5,-429.29 290.5,-419.15 290.5,-410.02"/>
<polygon fill="#666666" stroke="#666666" stroke-width="1.2" points="293.3,-410 290.5,-402 287.7,-410 293.3,-410"/>
</g>
<!-- 126531635941280 -->
<g id="node14" class="node">
<title>126531635941280</title>
<polygon fill="aliceblue" stroke="skyblue" points="463,-330 336,-330 336,-292 463,-292 463,-330"/>
<text text-anchor="middle" x="399.5" y="-314.8" font-family="Sans-Serif" font-size="14.00">linear_0.weight.T</text>
<text text-anchor="middle" x="399.5" y="-299.8" font-family="Sans-Serif" font-size="14.00">(64, 4)</text>
</g>
<!-- 126531635941280&#45;&gt;126531635944640 -->
<g id="edge15" class="edge">
<title>126531635941280&#45;&gt;126531635944640</title>
<path fill="none" stroke="#666666" stroke-width="1.2" d="M372.22,-291.9C357.83,-282.35 340.08,-270.57 324.98,-260.55"/>
<polygon fill="#666666" stroke="#666666" stroke-width="1.2" points="326.47,-258.18 318.25,-256.09 323.37,-262.85 326.47,-258.18"/>
</g>
<!-- 126531635941424 -->
<g id="node15" class="node">
<title>126531635941424</title>
<polygon fill="honeydew" stroke="darkseagreen" points="421.5,-476 349.5,-476 349.5,-438 421.5,-438 421.5,-476"/>
<text text-anchor="middle" x="385.5" y="-460.8" font-family="Sans-Serif" font-size="14.00">vector_1</text>
<text text-anchor="middle" x="385.5" y="-445.8" font-family="Sans-Serif" font-size="14.00">[1, 0]</text>
</g>
<!-- 126531635941424&#45;&gt;126531635944736 -->
<g id="edge13" class="edge">
<title>126531635941424&#45;&gt;126531635944736</title>
<path fill="none" stroke="#666666" stroke-width="1.2" d="M389.11,-437.72C390.77,-429.29 392.77,-419.15 394.57,-410.02"/>
<polygon fill="#666666" stroke="#666666" stroke-width="1.2" points="397.35,-410.39 396.15,-402 391.85,-409.31 397.35,-410.39"/>
</g>
<!-- 126531635944736&#45;&gt;126531635941280 -->
<g id="edge11" class="edge">
<title>126531635944736&#45;&gt;126531635941280</title>
<path fill="none" stroke="#666666" stroke-width="1.2" d="M399.5,-365.81C399.5,-357.52 399.5,-347.39 399.5,-338.16"/>
<polygon fill="#666666" stroke="#666666" stroke-width="1.2" points="402.3,-338.02 399.5,-330.02 396.7,-338.02 402.3,-338.02"/>
</g>
<!-- 126531635944784 -->
<g id="node18" class="node">
<title>126531635944784</title>
<polygon fill="aliceblue" stroke="skyblue" points="329,-184 256,-184 256,-146 329,-146 329,-184"/>
<text text-anchor="middle" x="292.5" y="-168.8" font-family="Sans-Serif" font-size="14.00">tensor_5</text>
<text text-anchor="middle" x="292.5" y="-153.8" font-family="Sans-Serif" font-size="14.00">(1, 4)</text>
</g>
<!-- 126531635944640&#45;&gt;126531635944784 -->
<g id="edge16" class="edge">
<title>126531635944640&#45;&gt;126531635944784</title>
<path fill="none" stroke="#666666" stroke-width="1.2" d="M292.5,-219.81C292.5,-211.52 292.5,-201.39 292.5,-192.16"/>
<polygon fill="#666666" stroke="#666666" stroke-width="1.2" points="295.3,-192.02 292.5,-184.02 289.7,-192.02 295.3,-192.02"/>
</g>
<!-- 126531635945360 -->
<g id="node22" class="node">
<title>126531635945360</title>
<polygon fill="lightgray" stroke="darkslategray" points="273.5,-110 219.5,-110 219.5,-74 273.5,-74 273.5,-110"/>
<text text-anchor="middle" x="246.5" y="-88.3" font-family="Courier Bold" font-size="14.00">add</text>
</g>
<!-- 126531635944784&#45;&gt;126531635945360 -->
<g id="edge20" class="edge">
<title>126531635944784&#45;&gt;126531635945360</title>
<path fill="none" stroke="#666666" stroke-width="1.2" d="M280.65,-145.72C274.97,-136.94 268.08,-126.31 261.99,-116.91"/>
<polygon fill="#666666" stroke="#666666" stroke-width="1.2" points="264.22,-115.19 257.52,-110 259.52,-118.24 264.22,-115.19"/>
</g>
<!-- 126531635944976 -->
<g id="node19" class="node">
<title>126531635944976</title>
<polygon fill="aliceblue" stroke="skyblue" points="238,-184 165,-184 165,-146 238,-146 238,-184"/>
<text text-anchor="middle" x="201.5" y="-168.8" font-family="Sans-Serif" font-size="14.00">tensor_6</text>
<text text-anchor="middle" x="201.5" y="-153.8" font-family="Sans-Serif" font-size="14.00">(1, 4)</text>
</g>
<!-- 126531635944976&#45;&gt;126531635945360 -->
<g id="edge21" class="edge">
<title>126531635944976&#45;&gt;126531635945360</title>
<path fill="none" stroke="#666666" stroke-width="1.2" d="M213.09,-145.72C218.65,-136.94 225.39,-126.31 231.35,-116.91"/>
<polygon fill="#666666" stroke="#666666" stroke-width="1.2" points="233.81,-118.26 235.72,-110 229.08,-115.26 233.81,-118.26"/>
</g>
<!-- 126531635945216&#45;&gt;126531635944976 -->
<g id="edge17" class="edge">
<title>126531635945216&#45;&gt;126531635944976</title>
<path fill="none" stroke="#666666" stroke-width="1.2" d="M201.5,-219.81C201.5,-211.52 201.5,-201.39 201.5,-192.16"/>
<polygon fill="#666666" stroke="#666666" stroke-width="1.2" points="204.3,-192.02 201.5,-184.02 198.7,-192.02 204.3,-192.02"/>
</g>
<!-- 126531635945168 -->
<g id="node21" class="node">
<title>126531635945168</title>
<polygon fill="honeydew" stroke="darkseagreen" points="240.5,-330 168.5,-330 168.5,-292 240.5,-292 240.5,-330"/>
<text text-anchor="middle" x="204.5" y="-314.8" font-family="Sans-Serif" font-size="14.00">vector_2</text>
<text text-anchor="middle" x="204.5" y="-299.8" font-family="Sans-Serif" font-size="14.00">[1, 4]</text>
</g>
<!-- 126531635945168&#45;&gt;126531635945216 -->
<g id="edge19" class="edge">
<title>126531635945168&#45;&gt;126531635945216</title>
<path fill="none" stroke="#666666" stroke-width="1.2" d="M203.73,-291.72C203.37,-283.29 202.94,-273.15 202.56,-264.02"/>
<polygon fill="#666666" stroke="#666666" stroke-width="1.2" points="205.35,-263.88 202.22,-256 199.76,-264.11 205.35,-263.88"/>
</g>
<!-- 126531635945504 -->
<g id="node23" class="node">
<title>126531635945504</title>
<polygon fill="aliceblue" stroke="skyblue" points="283,-38 210,-38 210,0 283,0 283,-38"/>
<text text-anchor="middle" x="246.5" y="-22.8" font-family="Sans-Serif" font-size="14.00">tensor_7</text>
<text text-anchor="middle" x="246.5" y="-7.8" font-family="Sans-Serif" font-size="14.00">(1, 4)</text>
</g>
<!-- 126531635945360&#45;&gt;126531635945504 -->
<g id="edge22" class="edge">
<title>126531635945360&#45;&gt;126531635945504</title>
<path fill="none" stroke="#666666" stroke-width="1.2" d="M246.5,-73.81C246.5,-65.52 246.5,-55.39 246.5,-46.16"/>
<polygon fill="#666666" stroke="#666666" stroke-width="1.2" points="249.3,-46.02 246.5,-38.02 243.7,-46.02 249.3,-46.02"/>
</g>
</g>
</svg>
