<?xml version="1.0" encoding="UTF-8" standalone="no"?>
<!DOCTYPE svg PUBLIC "-//W3C//DTD SVG 1.1//EN"
 "http://www.w3.org/Graphics/SVG/1.1/DTD/svg11.dtd">
<!-- Generated by graphviz version 2.43.0 (0)
 -->
<!-- Title: %3 Pages: 1 -->
<svg width="354pt" height="46pt"
 viewBox="0.00 0.00 354.00 46.00" xmlns="http://www.w3.org/2000/svg" xmlns:xlink="http://www.w3.org/1999/xlink">
<g id="graph0" class="graph" transform="scale(1 1) rotate(0) translate(4 42)">
<title>%3</title>
<polygon fill="white" stroke="transparent" points="-4,4 -4,-42 350,-42 350,4 -4,4"/>
<!-- 125633308838112 -->
<g id="node1" class="node">
<title>125633308838112</title>
<polygon fill="aliceblue" stroke="skyblue" points="73,-38 0,-38 0,0 73,0 73,-38"/>
<text text-anchor="middle" x="36.5" y="-22.8" font-family="Sans-Serif" font-size="14.00">tensor_1</text>
<text text-anchor="middle" x="36.5" y="-7.8" font-family="Sans-Serif" font-size="14.00">(5, 10)</text>
</g>
<!-- 125633308837296 -->
<g id="node2" class="node">
<title>125633308837296</title>
<polygon fill="aliceblue" stroke="skyblue" points="164,-38 91,-38 91,0 164,0 164,-38"/>
<text text-anchor="middle" x="127.5" y="-22.8" font-family="Sans-Serif" font-size="14.00">tensor_2</text>
<text text-anchor="middle" x="127.5" y="-7.8" font-family="Sans-Serif" font-size="14.00">(5,)</text>
</g>
<!-- 125633308838160 -->
<g id="node3" class="node">
<title>125633308838160</title>
<polygon fill="aliceblue" stroke="skyblue" points="255,-38 182,-38 182,0 255,0 255,-38"/>
<text text-anchor="middle" x="218.5" y="-22.8" font-family="Sans-Serif" font-size="14.00">tensor_3</text>
<text text-anchor="middle" x="218.5" y="-7.8" font-family="Sans-Serif" font-size="14.00">(1, 5)</text>
</g>
<!-- 125633308838400 -->
<g id="node4" class="node">
<title>125633308838400</title>
<polygon fill="aliceblue" stroke="skyblue" points="346,-38 273,-38 273,0 346,0 346,-38"/>
<text text-anchor="middle" x="309.5" y="-22.8" font-family="Sans-Serif" font-size="14.00">tensor_4</text>
<text text-anchor="middle" x="309.5" y="-7.8" font-family="Sans-Serif" font-size="14.00">(1,)</text>
</g>
</g>
</svg>
