<?xml version="1.0" encoding="UTF-8" standalone="no"?>
<!DOCTYPE svg PUBLIC "-//W3C//DTD SVG 1.1//EN"
 "http://www.w3.org/Graphics/SVG/1.1/DTD/svg11.dtd">
<!-- Generated by graphviz version 2.43.0 (0)
 -->
<!-- Title: %3 Pages: 1 -->
<svg width="444pt" height="776pt"
 viewBox="0.00 0.00 443.50 776.00" xmlns="http://www.w3.org/2000/svg" xmlns:xlink="http://www.w3.org/1999/xlink">
<g id="graph0" class="graph" transform="scale(1 1) rotate(0) translate(4 772)">
<title>%3</title>
<polygon fill="white" stroke="transparent" points="-4,4 -4,-772 439.5,-772 439.5,4 -4,4"/>
<!-- 133920785826480 -->
<g id="node1" class="node">
<title>133920785826480</title>
<polygon fill="aliceblue" stroke="skyblue" points="73,-768 0,-768 0,-730 73,-730 73,-768"/>
<text text-anchor="middle" x="36.5" y="-752.8" font-family="Sans-Serif" font-size="14.00">tensor_1</text>
<text text-anchor="middle" x="36.5" y="-737.8" font-family="Sans-Serif" font-size="14.00">(32, 64)</text>
</g>
<!-- 133920785828160 -->
<g id="node8" class="node">
<title>133920785828160</title>
<polygon fill="lightgray" stroke="darkslategray" points="127,-694 36,-694 36,-658 127,-658 127,-694"/>
<text text-anchor="middle" x="81.5" y="-672.3" font-family="Courier Bold" font-size="14.00">transpose</text>
</g>
<!-- 133920785826480&#45;&gt;133920785828160 -->
<g id="edge2" class="edge">
<title>133920785826480&#45;&gt;133920785828160</title>
<path fill="none" stroke="#666666" stroke-width="1.2" d="M48.09,-729.72C53.65,-720.94 60.39,-710.31 66.35,-700.91"/>
<polygon fill="#666666" stroke="#666666" stroke-width="1.2" points="68.81,-702.26 70.72,-694 64.08,-699.26 68.81,-702.26"/>
</g>
<!-- 133920785827248 -->
<g id="node2" class="node">
<title>133920785827248</title>
<polygon fill="aliceblue" stroke="skyblue" points="254,-476 181,-476 181,-438 254,-438 254,-476"/>
<text text-anchor="middle" x="217.5" y="-460.8" font-family="Sans-Serif" font-size="14.00">tensor_2</text>
<text text-anchor="middle" x="217.5" y="-445.8" font-family="Sans-Serif" font-size="14.00">(32,)</text>
</g>
<!-- 133920785828736 -->
<g id="node12" class="node">
<title>133920785828736</title>
<polygon fill="lightgray" stroke="darkslategray" points="244.5,-402 190.5,-402 190.5,-366 244.5,-366 244.5,-402"/>
<text text-anchor="middle" x="217.5" y="-380.3" font-family="Courier Bold" font-size="14.00">add</text>
</g>
<!-- 133920785827248&#45;&gt;133920785828736 -->
<g id="edge9" class="edge">
<title>133920785827248&#45;&gt;133920785828736</title>
<path fill="none" stroke="#666666" stroke-width="1.2" d="M217.5,-437.72C217.5,-429.29 217.5,-419.15 217.5,-410.02"/>
<polygon fill="#666666" stroke="#666666" stroke-width="1.2" points="220.3,-410 217.5,-402 214.7,-410 220.3,-410"/>
</g>
<!-- 133920785827440 -->
<g id="node3" class="node">
<title>133920785827440</title>
<polygon fill="aliceblue" stroke="skyblue" points="345,-476 272,-476 272,-438 345,-438 345,-476"/>
<text text-anchor="middle" x="308.5" y="-460.8" font-family="Sans-Serif" font-size="14.00">tensor_3</text>
<text text-anchor="middle" x="308.5" y="-445.8" font-family="Sans-Serif" font-size="14.00">(2, 32)</text>
</g>
<!-- 133920785829072 -->
<g id="node15" class="node">
<title>133920785829072</title>
<polygon fill="lightgray" stroke="darkslategray" points="354,-402 263,-402 263,-366 354,-366 354,-402"/>
<text text-anchor="middle" x="308.5" y="-380.3" font-family="Courier Bold" font-size="14.00">transpose</text>
</g>
<!-- 133920785827440&#45;&gt;133920785829072 -->
<g id="edge11" class="edge">
<title>133920785827440&#45;&gt;133920785829072</title>
<path fill="none" stroke="#666666" stroke-width="1.2" d="M308.5,-437.72C308.5,-429.29 308.5,-419.15 308.5,-410.02"/>
<polygon fill="#666666" stroke="#666666" stroke-width="1.2" points="311.3,-410 308.5,-402 305.7,-410 311.3,-410"/>
</g>
<!-- 133920785827632 -->
<g id="node4" class="node">
<title>133920785827632</title>
<polygon fill="aliceblue" stroke="skyblue" points="394,-184 321,-184 321,-146 394,-146 394,-184"/>
<text text-anchor="middle" x="357.5" y="-168.8" font-family="Sans-Serif" font-size="14.00">tensor_4</text>
<text text-anchor="middle" x="357.5" y="-153.8" font-family="Sans-Serif" font-size="14.00">(2,)</text>
</g>
<!-- 133920785829648 -->
<g id="node19" class="node">
<title>133920785829648</title>
<polygon fill="lightgray" stroke="darkslategray" points="336.5,-110 282.5,-110 282.5,-74 336.5,-74 336.5,-110"/>
<text text-anchor="middle" x="309.5" y="-88.3" font-family="Courier Bold" font-size="14.00">add</text>
</g>
<!-- 133920785827632&#45;&gt;133920785829648 -->
<g id="edge18" class="edge">
<title>133920785827632&#45;&gt;133920785829648</title>
<path fill="none" stroke="#666666" stroke-width="1.2" d="M345.14,-145.72C339.15,-136.85 331.88,-126.11 325.48,-116.63"/>
<polygon fill="#666666" stroke="#666666" stroke-width="1.2" points="327.8,-115.06 321,-110 323.16,-118.2 327.8,-115.06"/>
</g>
<!-- 133920785827824 -->
<g id="node5" class="node">
<title>133920785827824</title>
<polygon fill="aliceblue" stroke="skyblue" points="209,-622 136,-622 136,-584 209,-584 209,-622"/>
<text text-anchor="middle" x="172.5" y="-606.8" font-family="Sans-Serif" font-size="14.00">tensor_5</text>
<text text-anchor="middle" x="172.5" y="-591.8" font-family="Sans-Serif" font-size="14.00">(1, 64)</text>
</g>
<!-- 133920785828448 -->
<g id="node10" class="node">
<title>133920785828448</title>
<polygon fill="lightgray" stroke="darkslategray" points="159.5,-548 93.5,-548 93.5,-512 159.5,-512 159.5,-548"/>
<text text-anchor="middle" x="126.5" y="-526.3" font-family="Courier Bold" font-size="14.00">matmul</text>
</g>
<!-- 133920785827824&#45;&gt;133920785828448 -->
<g id="edge5" class="edge">
<title>133920785827824&#45;&gt;133920785828448</title>
<path fill="none" stroke="#666666" stroke-width="1.2" d="M160.65,-583.72C154.97,-574.94 148.08,-564.31 141.99,-554.91"/>
<polygon fill="#666666" stroke="#666666" stroke-width="1.2" points="144.22,-553.19 137.52,-548 139.52,-556.24 144.22,-553.19"/>
</g>
<!-- 133920785828064 -->
<g id="node6" class="node">
<title>133920785828064</title>
<polygon fill="aliceblue" stroke="skyblue" points="118,-622 45,-622 45,-584 118,-584 118,-622"/>
<text text-anchor="middle" x="81.5" y="-606.8" font-family="Sans-Serif" font-size="14.00">tensor_6</text>
<text text-anchor="middle" x="81.5" y="-591.8" font-family="Sans-Serif" font-size="14.00">(64, 32)</text>
</g>
<!-- 133920785828064&#45;&gt;133920785828448 -->
<g id="edge6" class="edge">
<title>133920785828064&#45;&gt;133920785828448</title>
<path fill="none" stroke="#666666" stroke-width="1.2" d="M93.09,-583.72C98.65,-574.94 105.39,-564.31 111.35,-554.91"/>
<polygon fill="#666666" stroke="#666666" stroke-width="1.2" points="113.81,-556.26 115.72,-548 109.08,-553.26 113.81,-556.26"/>
</g>
<!-- 133920785828016 -->
<g id="node7" class="node">
<title>133920785828016</title>
<polygon fill="honeydew" stroke="darkseagreen" points="163.5,-768 91.5,-768 91.5,-730 163.5,-730 163.5,-768"/>
<text text-anchor="middle" x="127.5" y="-752.8" font-family="Sans-Serif" font-size="14.00">vector_1</text>
<text text-anchor="middle" x="127.5" y="-737.8" font-family="Sans-Serif" font-size="14.00">(1, 0)</text>
</g>
<!-- 133920785828016&#45;&gt;133920785828160 -->
<g id="edge3" class="edge">
<title>133920785828016&#45;&gt;133920785828160</title>
<path fill="none" stroke="#666666" stroke-width="1.2" d="M115.65,-729.72C109.97,-720.94 103.08,-710.31 96.99,-700.91"/>
<polygon fill="#666666" stroke="#666666" stroke-width="1.2" points="99.22,-699.19 92.52,-694 94.52,-702.24 99.22,-699.19"/>
</g>
<!-- 133920785828160&#45;&gt;133920785828064 -->
<g id="edge1" class="edge">
<title>133920785828160&#45;&gt;133920785828064</title>
<path fill="none" stroke="#666666" stroke-width="1.2" d="M81.5,-657.81C81.5,-649.52 81.5,-639.39 81.5,-630.16"/>
<polygon fill="#666666" stroke="#666666" stroke-width="1.2" points="84.3,-630.02 81.5,-622.02 78.7,-630.02 84.3,-630.02"/>
</g>
<!-- 133920785828352 -->
<g id="node9" class="node">
<title>133920785828352</title>
<polygon fill="aliceblue" stroke="skyblue" points="163,-476 90,-476 90,-438 163,-438 163,-476"/>
<text text-anchor="middle" x="126.5" y="-460.8" font-family="Sans-Serif" font-size="14.00">tensor_7</text>
<text text-anchor="middle" x="126.5" y="-445.8" font-family="Sans-Serif" font-size="14.00">(1, 32)</text>
</g>
<!-- 133920785828352&#45;&gt;133920785828736 -->
<g id="edge8" class="edge">
<title>133920785828352&#45;&gt;133920785828736</title>
<path fill="none" stroke="#666666" stroke-width="1.2" d="M149.93,-437.72C161.95,-428.34 176.68,-416.85 189.32,-406.99"/>
<polygon fill="#666666" stroke="#666666" stroke-width="1.2" points="191.12,-409.13 195.71,-402 187.68,-404.72 191.12,-409.13"/>
</g>
<!-- 133920785828448&#45;&gt;133920785828352 -->
<g id="edge4" class="edge">
<title>133920785828448&#45;&gt;133920785828352</title>
<path fill="none" stroke="#666666" stroke-width="1.2" d="M126.5,-511.81C126.5,-503.52 126.5,-493.39 126.5,-484.16"/>
<polygon fill="#666666" stroke="#666666" stroke-width="1.2" points="129.3,-484.02 126.5,-476.02 123.7,-484.02 129.3,-484.02"/>
</g>
<!-- 133920785828640 -->
<g id="node11" class="node">
<title>133920785828640</title>
<polygon fill="aliceblue" stroke="skyblue" points="254,-330 181,-330 181,-292 254,-292 254,-330"/>
<text text-anchor="middle" x="217.5" y="-314.8" font-family="Sans-Serif" font-size="14.00">tensor_8</text>
<text text-anchor="middle" x="217.5" y="-299.8" font-family="Sans-Serif" font-size="14.00">(1, 32)</text>
</g>
<!-- 133920785829360 -->
<g id="node17" class="node">
<title>133920785829360</title>
<polygon fill="lightgray" stroke="darkslategray" points="295.5,-256 229.5,-256 229.5,-220 295.5,-220 295.5,-256"/>
<text text-anchor="middle" x="262.5" y="-234.3" font-family="Courier Bold" font-size="14.00">matmul</text>
</g>
<!-- 133920785828640&#45;&gt;133920785829360 -->
<g id="edge14" class="edge">
<title>133920785828640&#45;&gt;133920785829360</title>
<path fill="none" stroke="#666666" stroke-width="1.2" d="M229.09,-291.72C234.65,-282.94 241.39,-272.31 247.35,-262.91"/>
<polygon fill="#666666" stroke="#666666" stroke-width="1.2" points="249.81,-264.26 251.72,-256 245.08,-261.26 249.81,-264.26"/>
</g>
<!-- 133920785828736&#45;&gt;133920785828640 -->
<g id="edge7" class="edge">
<title>133920785828736&#45;&gt;133920785828640</title>
<path fill="none" stroke="#666666" stroke-width="1.2" d="M217.5,-365.81C217.5,-357.52 217.5,-347.39 217.5,-338.16"/>
<polygon fill="#666666" stroke="#666666" stroke-width="1.2" points="220.3,-338.02 217.5,-330.02 214.7,-338.02 220.3,-338.02"/>
</g>
<!-- 133920785828976 -->
<g id="node13" class="node">
<title>133920785828976</title>
<polygon fill="aliceblue" stroke="skyblue" points="345,-330 272,-330 272,-292 345,-292 345,-330"/>
<text text-anchor="middle" x="308.5" y="-314.8" font-family="Sans-Serif" font-size="14.00">tensor_9</text>
<text text-anchor="middle" x="308.5" y="-299.8" font-family="Sans-Serif" font-size="14.00">(32, 2)</text>
</g>
<!-- 133920785828976&#45;&gt;133920785829360 -->
<g id="edge15" class="edge">
<title>133920785828976&#45;&gt;133920785829360</title>
<path fill="none" stroke="#666666" stroke-width="1.2" d="M296.65,-291.72C290.97,-282.94 284.08,-272.31 277.99,-262.91"/>
<polygon fill="#666666" stroke="#666666" stroke-width="1.2" points="280.22,-261.19 273.52,-256 275.52,-264.24 280.22,-261.19"/>
</g>
<!-- 133920785828928 -->
<g id="node14" class="node">
<title>133920785828928</title>
<polygon fill="honeydew" stroke="darkseagreen" points="435.5,-476 363.5,-476 363.5,-438 435.5,-438 435.5,-476"/>
<text text-anchor="middle" x="399.5" y="-460.8" font-family="Sans-Serif" font-size="14.00">vector_2</text>
<text text-anchor="middle" x="399.5" y="-445.8" font-family="Sans-Serif" font-size="14.00">(1, 0)</text>
</g>
<!-- 133920785828928&#45;&gt;133920785829072 -->
<g id="edge12" class="edge">
<title>133920785828928&#45;&gt;133920785829072</title>
<path fill="none" stroke="#666666" stroke-width="1.2" d="M376.07,-437.72C364.05,-428.34 349.32,-416.85 336.68,-406.99"/>
<polygon fill="#666666" stroke="#666666" stroke-width="1.2" points="338.32,-404.72 330.29,-402 334.88,-409.13 338.32,-404.72"/>
</g>
<!-- 133920785829072&#45;&gt;133920785828976 -->
<g id="edge10" class="edge">
<title>133920785829072&#45;&gt;133920785828976</title>
<path fill="none" stroke="#666666" stroke-width="1.2" d="M308.5,-365.81C308.5,-357.52 308.5,-347.39 308.5,-338.16"/>
<polygon fill="#666666" stroke="#666666" stroke-width="1.2" points="311.3,-338.02 308.5,-330.02 305.7,-338.02 311.3,-338.02"/>
</g>
<!-- 133920785829264 -->
<g id="node16" class="node">
<title>133920785829264</title>
<polygon fill="aliceblue" stroke="skyblue" points="302.5,-184 222.5,-184 222.5,-146 302.5,-146 302.5,-184"/>
<text text-anchor="middle" x="262.5" y="-168.8" font-family="Sans-Serif" font-size="14.00">tensor_10</text>
<text text-anchor="middle" x="262.5" y="-153.8" font-family="Sans-Serif" font-size="14.00">(1, 2)</text>
</g>
<!-- 133920785829264&#45;&gt;133920785829648 -->
<g id="edge17" class="edge">
<title>133920785829264&#45;&gt;133920785829648</title>
<path fill="none" stroke="#666666" stroke-width="1.2" d="M274.6,-145.72C280.41,-136.94 287.45,-126.31 293.67,-116.91"/>
<polygon fill="#666666" stroke="#666666" stroke-width="1.2" points="296.16,-118.22 298.24,-110 291.49,-115.13 296.16,-118.22"/>
</g>
<!-- 133920785829360&#45;&gt;133920785829264 -->
<g id="edge13" class="edge">
<title>133920785829360&#45;&gt;133920785829264</title>
<path fill="none" stroke="#666666" stroke-width="1.2" d="M262.5,-219.81C262.5,-211.52 262.5,-201.39 262.5,-192.16"/>
<polygon fill="#666666" stroke="#666666" stroke-width="1.2" points="265.3,-192.02 262.5,-184.02 259.7,-192.02 265.3,-192.02"/>
</g>
<!-- 133920785829552 -->
<g id="node18" class="node">
<title>133920785829552</title>
<polygon fill="aliceblue" stroke="skyblue" points="349.5,-38 269.5,-38 269.5,0 349.5,0 349.5,-38"/>
<text text-anchor="middle" x="309.5" y="-22.8" font-family="Sans-Serif" font-size="14.00">tensor_11</text>
<text text-anchor="middle" x="309.5" y="-7.8" font-family="Sans-Serif" font-size="14.00">(1, 2)</text>
</g>
<!-- 133920785829648&#45;&gt;133920785829552 -->
<g id="edge16" class="edge">
<title>133920785829648&#45;&gt;133920785829552</title>
<path fill="none" stroke="#666666" stroke-width="1.2" d="M309.5,-73.81C309.5,-65.52 309.5,-55.39 309.5,-46.16"/>
<polygon fill="#666666" stroke="#666666" stroke-width="1.2" points="312.3,-46.02 309.5,-38.02 306.7,-46.02 312.3,-46.02"/>
</g>
</g>
</svg>
