<?xml version="1.0" encoding="UTF-8" standalone="no"?>
<!DOCTYPE svg PUBLIC "-//W3C//DTD SVG 1.1//EN"
 "http://www.w3.org/Graphics/SVG/1.1/DTD/svg11.dtd">
<!-- Generated by graphviz version 2.43.0 (0)
 -->
<!-- Title: %3 Pages: 1 -->
<svg width="562pt" height="630pt"
 viewBox="0.00 0.00 562.00 630.00" xmlns="http://www.w3.org/2000/svg" xmlns:xlink="http://www.w3.org/1999/xlink">
<g id="graph0" class="graph" transform="scale(1 1) rotate(0) translate(4 626)">
<title>%3</title>
<polygon fill="white" stroke="transparent" points="-4,4 -4,-626 558,-626 558,4 -4,4"/>
<!-- 130161825760880 -->
<g id="node1" class="node">
<title>130161825760880</title>
<polygon fill="aliceblue" stroke="skyblue" points="446.5,-476 330.5,-476 330.5,-438 446.5,-438 446.5,-476"/>
<text text-anchor="middle" x="388.5" y="-460.8" font-family="Sans-Serif" font-size="14.00">linear_0.weight</text>
<text text-anchor="middle" x="388.5" y="-445.8" font-family="Sans-Serif" font-size="14.00">(4, 64)</text>
</g>
<!-- 130161826506320 -->
<g id="node14" class="node">
<title>130161826506320</title>
<polygon fill="lightgray" stroke="darkslategray" points="334,-402 243,-402 243,-366 334,-366 334,-402"/>
<text text-anchor="middle" x="288.5" y="-380.3" font-family="Courier Bold" font-size="14.00">transpose</text>
</g>
<!-- 130161825760880&#45;&gt;130161826506320 -->
<g id="edge10" class="edge">
<title>130161825760880&#45;&gt;130161826506320</title>
<path fill="none" stroke="#666666" stroke-width="1.2" d="M363.01,-437.9C349.68,-428.44 333.27,-416.78 319.24,-406.83"/>
<polygon fill="#666666" stroke="#666666" stroke-width="1.2" points="320.71,-404.44 312.57,-402.09 317.47,-409 320.71,-404.44"/>
</g>
<!-- 130161826498544 -->
<g id="node2" class="node">
<title>130161826498544</title>
<polygon fill="aliceblue" stroke="skyblue" points="142.5,-184 42.5,-184 42.5,-146 142.5,-146 142.5,-184"/>
<text text-anchor="middle" x="92.5" y="-168.8" font-family="Sans-Serif" font-size="14.00">linear_0.bias</text>
<text text-anchor="middle" x="92.5" y="-153.8" font-family="Sans-Serif" font-size="14.00">(4,)</text>
</g>
<!-- 130161826506944 -->
<g id="node18" class="node">
<title>130161826506944</title>
<polygon fill="lightgray" stroke="darkslategray" points="171.5,-110 117.5,-110 117.5,-74 171.5,-74 171.5,-110"/>
<text text-anchor="middle" x="144.5" y="-88.3" font-family="Courier Bold" font-size="14.00">add</text>
</g>
<!-- 130161826498544&#45;&gt;130161826506944 -->
<g id="edge17" class="edge">
<title>130161826498544&#45;&gt;130161826506944</title>
<path fill="none" stroke="#666666" stroke-width="1.2" d="M105.89,-145.72C112.38,-136.85 120.25,-126.11 127.19,-116.63"/>
<polygon fill="#666666" stroke="#666666" stroke-width="1.2" points="129.58,-118.11 132.05,-110 125.06,-114.8 129.58,-118.11"/>
</g>
<!-- 130161826498448 -->
<g id="node3" class="node">
<title>130161826498448</title>
<polygon fill="moccasin" stroke="orange" points="380.5,-622 220.5,-622 220.5,-584 380.5,-584 380.5,-622"/>
<text text-anchor="middle" x="300.5" y="-606.8" font-family="Sans-Serif" font-size="14.00">var_1</text>
<text text-anchor="middle" x="300.5" y="-591.8" font-family="Sans-Serif" font-size="14.00">&#45;0.12499999999999999</text>
</g>
<!-- 130161826498208 -->
<g id="node5" class="node">
<title>130161826498208</title>
<polygon fill="lightgray" stroke="darkslategray" points="425.5,-548 351.5,-548 351.5,-512 425.5,-512 425.5,-548"/>
<text text-anchor="middle" x="388.5" y="-526.3" font-family="Courier Bold" font-size="14.00">uniform</text>
</g>
<!-- 130161826498448&#45;&gt;130161826498208 -->
<g id="edge3" class="edge">
<title>130161826498448&#45;&gt;130161826498208</title>
<path fill="none" stroke="#666666" stroke-width="1.2" d="M323.16,-583.72C334.68,-574.42 348.77,-563.06 360.91,-553.26"/>
<polygon fill="#666666" stroke="#666666" stroke-width="1.2" points="362.96,-555.21 367.43,-548 359.44,-550.85 362.96,-555.21"/>
</g>
<!-- 130161826497632 -->
<g id="node4" class="node">
<title>130161826497632</title>
<polygon fill="moccasin" stroke="orange" points="554,-622 399,-622 399,-584 554,-584 554,-622"/>
<text text-anchor="middle" x="476.5" y="-606.8" font-family="Sans-Serif" font-size="14.00">var_2</text>
<text text-anchor="middle" x="476.5" y="-591.8" font-family="Sans-Serif" font-size="14.00">0.12499999999999999</text>
</g>
<!-- 130161826497632&#45;&gt;130161826498208 -->
<g id="edge4" class="edge">
<title>130161826497632&#45;&gt;130161826498208</title>
<path fill="none" stroke="#666666" stroke-width="1.2" d="M453.84,-583.72C442.32,-574.42 428.23,-563.06 416.09,-553.26"/>
<polygon fill="#666666" stroke="#666666" stroke-width="1.2" points="417.56,-550.85 409.57,-548 414.04,-555.21 417.56,-550.85"/>
</g>
<!-- 130161826498208&#45;&gt;130161825760880 -->
<g id="edge1" class="edge">
<title>130161826498208&#45;&gt;130161825760880</title>
<path fill="none" stroke="#666666" stroke-width="1.2" d="M388.5,-511.81C388.5,-503.52 388.5,-493.39 388.5,-484.16"/>
<polygon fill="#666666" stroke="#666666" stroke-width="1.2" points="391.3,-484.02 388.5,-476.02 385.7,-484.02 391.3,-484.02"/>
</g>
<!-- 130161826498304 -->
<g id="node6" class="node">
<title>130161826498304</title>
<polygon fill="moccasin" stroke="orange" points="55,-330 0,-330 0,-292 55,-292 55,-330"/>
<text text-anchor="middle" x="27.5" y="-314.8" font-family="Sans-Serif" font-size="14.00">var_3</text>
<text text-anchor="middle" x="27.5" y="-299.8" font-family="Sans-Serif" font-size="14.00">&#45;0.125</text>
</g>
<!-- 130161826498736 -->
<g id="node8" class="node">
<title>130161826498736</title>
<polygon fill="lightgray" stroke="darkslategray" points="129.5,-256 55.5,-256 55.5,-220 129.5,-220 129.5,-256"/>
<text text-anchor="middle" x="92.5" y="-234.3" font-family="Courier Bold" font-size="14.00">uniform</text>
</g>
<!-- 130161826498304&#45;&gt;130161826498736 -->
<g id="edge5" class="edge">
<title>130161826498304&#45;&gt;130161826498736</title>
<path fill="none" stroke="#666666" stroke-width="1.2" d="M44.24,-291.72C52.51,-282.68 62.57,-271.69 71.37,-262.08"/>
<polygon fill="#666666" stroke="#666666" stroke-width="1.2" points="73.6,-263.79 76.93,-256 69.47,-260.01 73.6,-263.79"/>
</g>
<!-- 130161826498640 -->
<g id="node7" class="node">
<title>130161826498640</title>
<polygon fill="moccasin" stroke="orange" points="127.5,-330 73.5,-330 73.5,-292 127.5,-292 127.5,-330"/>
<text text-anchor="middle" x="100.5" y="-314.8" font-family="Sans-Serif" font-size="14.00">var_4</text>
<text text-anchor="middle" x="100.5" y="-299.8" font-family="Sans-Serif" font-size="14.00">0.125</text>
</g>
<!-- 130161826498640&#45;&gt;130161826498736 -->
<g id="edge6" class="edge">
<title>130161826498640&#45;&gt;130161826498736</title>
<path fill="none" stroke="#666666" stroke-width="1.2" d="M98.44,-291.72C97.49,-283.29 96.35,-273.15 95.32,-264.02"/>
<polygon fill="#666666" stroke="#666666" stroke-width="1.2" points="98.09,-263.64 94.42,-256 92.53,-264.27 98.09,-263.64"/>
</g>
<!-- 130161826498736&#45;&gt;130161826498544 -->
<g id="edge2" class="edge">
<title>130161826498736&#45;&gt;130161826498544</title>
<path fill="none" stroke="#666666" stroke-width="1.2" d="M92.5,-219.81C92.5,-211.52 92.5,-201.39 92.5,-192.16"/>
<polygon fill="#666666" stroke="#666666" stroke-width="1.2" points="95.3,-192.02 92.5,-184.02 89.7,-192.02 95.3,-192.02"/>
</g>
<!-- 130161826498832 -->
<g id="node9" class="node">
<title>130161826498832</title>
<polygon fill="aliceblue" stroke="skyblue" points="217,-330 162,-330 162,-292 217,-292 217,-330"/>
<text text-anchor="middle" x="189.5" y="-314.8" font-family="Sans-Serif" font-size="14.00">input</text>
<text text-anchor="middle" x="189.5" y="-299.8" font-family="Sans-Serif" font-size="14.00">(1, 64)</text>
</g>
<!-- 130161826506608 -->
<g id="node16" class="node">
<title>130161826506608</title>
<polygon fill="lightgray" stroke="darkslategray" points="230.5,-256 164.5,-256 164.5,-220 230.5,-220 230.5,-256"/>
<text text-anchor="middle" x="197.5" y="-234.3" font-family="Courier Bold" font-size="14.00">matmul</text>
</g>
<!-- 130161826498832&#45;&gt;130161826506608 -->
<g id="edge13" class="edge">
<title>130161826498832&#45;&gt;130161826506608</title>
<path fill="none" stroke="#666666" stroke-width="1.2" d="M191.56,-291.72C192.51,-283.29 193.65,-273.15 194.68,-264.02"/>
<polygon fill="#666666" stroke="#666666" stroke-width="1.2" points="197.47,-264.27 195.58,-256 191.91,-263.64 197.47,-264.27"/>
</g>
<!-- 130161826499072 -->
<g id="node10" class="node">
<title>130161826499072</title>
<polygon fill="lightgray" stroke="darkslategray" points="225,-402 142,-402 142,-366 225,-366 225,-402"/>
<text text-anchor="middle" x="183.5" y="-380.3" font-family="Courier Bold" font-size="14.00">constant</text>
</g>
<!-- 130161826499072&#45;&gt;130161826498832 -->
<g id="edge7" class="edge">
<title>130161826499072&#45;&gt;130161826498832</title>
<path fill="none" stroke="#666666" stroke-width="1.2" d="M184.95,-365.81C185.65,-357.52 186.51,-347.39 187.29,-338.16"/>
<polygon fill="#666666" stroke="#666666" stroke-width="1.2" points="190.09,-338.23 187.98,-330.02 184.51,-337.76 190.09,-338.23"/>
</g>
<!-- 130161826499024 -->
<g id="node11" class="node">
<title>130161826499024</title>
<polygon fill="moccasin" stroke="orange" points="210.5,-476 156.5,-476 156.5,-438 210.5,-438 210.5,-476"/>
<text text-anchor="middle" x="183.5" y="-460.8" font-family="Sans-Serif" font-size="14.00">var_5</text>
<text text-anchor="middle" x="183.5" y="-445.8" font-family="Sans-Serif" font-size="14.00">1</text>
</g>
<!-- 130161826499024&#45;&gt;130161826499072 -->
<g id="edge8" class="edge">
<title>130161826499024&#45;&gt;130161826499072</title>
<path fill="none" stroke="#666666" stroke-width="1.2" d="M183.5,-437.72C183.5,-429.29 183.5,-419.15 183.5,-410.02"/>
<polygon fill="#666666" stroke="#666666" stroke-width="1.2" points="186.3,-410 183.5,-402 180.7,-410 186.3,-410"/>
</g>
<!-- 130161826504880 -->
<g id="node12" class="node">
<title>130161826504880</title>
<polygon fill="aliceblue" stroke="skyblue" points="319,-330 246,-330 246,-292 319,-292 319,-330"/>
<text text-anchor="middle" x="282.5" y="-314.8" font-family="Sans-Serif" font-size="14.00">tensor_4</text>
<text text-anchor="middle" x="282.5" y="-299.8" font-family="Sans-Serif" font-size="14.00">(64, 4)</text>
</g>
<!-- 130161826504880&#45;&gt;130161826506608 -->
<g id="edge14" class="edge">
<title>130161826504880&#45;&gt;130161826506608</title>
<path fill="none" stroke="#666666" stroke-width="1.2" d="M260.61,-291.72C249.49,-282.42 235.88,-271.06 224.15,-261.26"/>
<polygon fill="#666666" stroke="#666666" stroke-width="1.2" points="225.79,-258.98 217.86,-256 222.2,-263.28 225.79,-258.98"/>
</g>
<!-- 130161826505456 -->
<g id="node13" class="node">
<title>130161826505456</title>
<polygon fill="honeydew" stroke="darkseagreen" points="312.5,-476 240.5,-476 240.5,-438 312.5,-438 312.5,-476"/>
<text text-anchor="middle" x="276.5" y="-460.8" font-family="Sans-Serif" font-size="14.00">vector_1</text>
<text text-anchor="middle" x="276.5" y="-445.8" font-family="Sans-Serif" font-size="14.00">(1, 0)</text>
</g>
<!-- 130161826505456&#45;&gt;130161826506320 -->
<g id="edge11" class="edge">
<title>130161826505456&#45;&gt;130161826506320</title>
<path fill="none" stroke="#666666" stroke-width="1.2" d="M279.59,-437.72C281.02,-429.29 282.73,-419.15 284.27,-410.02"/>
<polygon fill="#666666" stroke="#666666" stroke-width="1.2" points="287.05,-410.36 285.63,-402 281.53,-409.42 287.05,-410.36"/>
</g>
<!-- 130161826506320&#45;&gt;130161826504880 -->
<g id="edge9" class="edge">
<title>130161826506320&#45;&gt;130161826504880</title>
<path fill="none" stroke="#666666" stroke-width="1.2" d="M287.05,-365.81C286.35,-357.52 285.49,-347.39 284.71,-338.16"/>
<polygon fill="#666666" stroke="#666666" stroke-width="1.2" points="287.49,-337.76 284.02,-330.02 281.91,-338.23 287.49,-337.76"/>
</g>
<!-- 130161826506512 -->
<g id="node15" class="node">
<title>130161826506512</title>
<polygon fill="aliceblue" stroke="skyblue" points="234,-184 161,-184 161,-146 234,-146 234,-184"/>
<text text-anchor="middle" x="197.5" y="-168.8" font-family="Sans-Serif" font-size="14.00">tensor_5</text>
<text text-anchor="middle" x="197.5" y="-153.8" font-family="Sans-Serif" font-size="14.00">(1, 4)</text>
</g>
<!-- 130161826506512&#45;&gt;130161826506944 -->
<g id="edge16" class="edge">
<title>130161826506512&#45;&gt;130161826506944</title>
<path fill="none" stroke="#666666" stroke-width="1.2" d="M183.85,-145.72C177.24,-136.85 169.21,-126.11 162.14,-116.63"/>
<polygon fill="#666666" stroke="#666666" stroke-width="1.2" points="164.22,-114.74 157.19,-110 159.73,-118.09 164.22,-114.74"/>
</g>
<!-- 130161826506608&#45;&gt;130161826506512 -->
<g id="edge12" class="edge">
<title>130161826506608&#45;&gt;130161826506512</title>
<path fill="none" stroke="#666666" stroke-width="1.2" d="M197.5,-219.81C197.5,-211.52 197.5,-201.39 197.5,-192.16"/>
<polygon fill="#666666" stroke="#666666" stroke-width="1.2" points="200.3,-192.02 197.5,-184.02 194.7,-192.02 200.3,-192.02"/>
</g>
<!-- 130161826506848 -->
<g id="node17" class="node">
<title>130161826506848</title>
<polygon fill="aliceblue" stroke="skyblue" points="181,-38 108,-38 108,0 181,0 181,-38"/>
<text text-anchor="middle" x="144.5" y="-22.8" font-family="Sans-Serif" font-size="14.00">tensor_6</text>
<text text-anchor="middle" x="144.5" y="-7.8" font-family="Sans-Serif" font-size="14.00">(1, 4)</text>
</g>
<!-- 130161826506944&#45;&gt;130161826506848 -->
<g id="edge15" class="edge">
<title>130161826506944&#45;&gt;130161826506848</title>
<path fill="none" stroke="#666666" stroke-width="1.2" d="M144.5,-73.81C144.5,-65.52 144.5,-55.39 144.5,-46.16"/>
<polygon fill="#666666" stroke="#666666" stroke-width="1.2" points="147.3,-46.02 144.5,-38.02 141.7,-46.02 147.3,-46.02"/>
</g>
</g>
</svg>
