<?xml version="1.0" encoding="UTF-8" standalone="no"?>
<!DOCTYPE svg PUBLIC "-//W3C//DTD SVG 1.1//EN"
 "http://www.w3.org/Graphics/SVG/1.1/DTD/svg11.dtd">
<!-- Generated by graphviz version 2.43.0 (0)
 -->
<!-- Title: %3 Pages: 1 -->
<svg width="497pt" height="630pt"
 viewBox="0.00 0.00 497.00 630.00" xmlns="http://www.w3.org/2000/svg" xmlns:xlink="http://www.w3.org/1999/xlink">
<g id="graph0" class="graph" transform="scale(1 1) rotate(0) translate(4 626)">
<title>%3</title>
<polygon fill="white" stroke="transparent" points="-4,4 -4,-626 493,-626 493,4 -4,4"/>
<!-- 126836298434400 -->
<g id="node1" class="node">
<title>126836298434400</title>
<polygon fill="aliceblue" stroke="skyblue" points="360,-476 287,-476 287,-438 360,-438 360,-476"/>
<text text-anchor="middle" x="323.5" y="-460.8" font-family="Sans-Serif" font-size="14.00">tensor_1</text>
<text text-anchor="middle" x="323.5" y="-445.8" font-family="Sans-Serif" font-size="14.00">(4, 64)</text>
</g>
<!-- 126836299155248 -->
<g id="node12" class="node">
<title>126836299155248</title>
<polygon fill="lightgray" stroke="darkslategray" points="323,-402 232,-402 232,-366 323,-366 323,-402"/>
<text text-anchor="middle" x="277.5" y="-380.3" font-family="Courier Bold" font-size="14.00">transpose</text>
</g>
<!-- 126836298434400&#45;&gt;126836299155248 -->
<g id="edge8" class="edge">
<title>126836298434400&#45;&gt;126836299155248</title>
<path fill="none" stroke="#666666" stroke-width="1.2" d="M311.65,-437.72C305.97,-428.94 299.08,-418.31 292.99,-408.91"/>
<polygon fill="#666666" stroke="#666666" stroke-width="1.2" points="295.22,-407.19 288.52,-402 290.52,-410.24 295.22,-407.19"/>
</g>
<!-- 126836299154480 -->
<g id="node2" class="node">
<title>126836299154480</title>
<polygon fill="aliceblue" stroke="skyblue" points="134,-184 61,-184 61,-146 134,-146 134,-184"/>
<text text-anchor="middle" x="97.5" y="-168.8" font-family="Sans-Serif" font-size="14.00">tensor_2</text>
<text text-anchor="middle" x="97.5" y="-153.8" font-family="Sans-Serif" font-size="14.00">(4,)</text>
</g>
<!-- 126836299155824 -->
<g id="node16" class="node">
<title>126836299155824</title>
<polygon fill="lightgray" stroke="darkslategray" points="169.5,-110 115.5,-110 115.5,-74 169.5,-74 169.5,-110"/>
<text text-anchor="middle" x="142.5" y="-88.3" font-family="Courier Bold" font-size="14.00">add</text>
</g>
<!-- 126836299154480&#45;&gt;126836299155824 -->
<g id="edge15" class="edge">
<title>126836299154480&#45;&gt;126836299155824</title>
<path fill="none" stroke="#666666" stroke-width="1.2" d="M109.09,-145.72C114.65,-136.94 121.39,-126.31 127.35,-116.91"/>
<polygon fill="#666666" stroke="#666666" stroke-width="1.2" points="129.81,-118.26 131.72,-110 125.08,-115.26 129.81,-118.26"/>
</g>
<!-- 126836299154432 -->
<g id="node3" class="node">
<title>126836299154432</title>
<polygon fill="moccasin" stroke="orange" points="315.5,-622 155.5,-622 155.5,-584 315.5,-584 315.5,-622"/>
<text text-anchor="middle" x="235.5" y="-606.8" font-family="Sans-Serif" font-size="14.00">var_1</text>
<text text-anchor="middle" x="235.5" y="-591.8" font-family="Sans-Serif" font-size="14.00">&#45;0.12499999999999999</text>
</g>
<!-- 126836299154000 -->
<g id="node5" class="node">
<title>126836299154000</title>
<polygon fill="lightgray" stroke="darkslategray" points="360.5,-548 286.5,-548 286.5,-512 360.5,-512 360.5,-548"/>
<text text-anchor="middle" x="323.5" y="-526.3" font-family="Courier Bold" font-size="14.00">uniform</text>
</g>
<!-- 126836299154432&#45;&gt;126836299154000 -->
<g id="edge3" class="edge">
<title>126836299154432&#45;&gt;126836299154000</title>
<path fill="none" stroke="#666666" stroke-width="1.2" d="M258.16,-583.72C269.68,-574.42 283.77,-563.06 295.91,-553.26"/>
<polygon fill="#666666" stroke="#666666" stroke-width="1.2" points="297.96,-555.21 302.43,-548 294.44,-550.85 297.96,-555.21"/>
</g>
<!-- 126836299154624 -->
<g id="node4" class="node">
<title>126836299154624</title>
<polygon fill="moccasin" stroke="orange" points="489,-622 334,-622 334,-584 489,-584 489,-622"/>
<text text-anchor="middle" x="411.5" y="-606.8" font-family="Sans-Serif" font-size="14.00">var_2</text>
<text text-anchor="middle" x="411.5" y="-591.8" font-family="Sans-Serif" font-size="14.00">0.12499999999999999</text>
</g>
<!-- 126836299154624&#45;&gt;126836299154000 -->
<g id="edge4" class="edge">
<title>126836299154624&#45;&gt;126836299154000</title>
<path fill="none" stroke="#666666" stroke-width="1.2" d="M388.84,-583.72C377.32,-574.42 363.23,-563.06 351.09,-553.26"/>
<polygon fill="#666666" stroke="#666666" stroke-width="1.2" points="352.56,-550.85 344.57,-548 349.04,-555.21 352.56,-550.85"/>
</g>
<!-- 126836299154000&#45;&gt;126836298434400 -->
<g id="edge1" class="edge">
<title>126836299154000&#45;&gt;126836298434400</title>
<path fill="none" stroke="#666666" stroke-width="1.2" d="M323.5,-511.81C323.5,-503.52 323.5,-493.39 323.5,-484.16"/>
<polygon fill="#666666" stroke="#666666" stroke-width="1.2" points="326.3,-484.02 323.5,-476.02 320.7,-484.02 326.3,-484.02"/>
</g>
<!-- 126836299154528 -->
<g id="node6" class="node">
<title>126836299154528</title>
<polygon fill="moccasin" stroke="orange" points="55,-330 0,-330 0,-292 55,-292 55,-330"/>
<text text-anchor="middle" x="27.5" y="-314.8" font-family="Sans-Serif" font-size="14.00">var_3</text>
<text text-anchor="middle" x="27.5" y="-299.8" font-family="Sans-Serif" font-size="14.00">&#45;0.125</text>
</g>
<!-- 126836299154720 -->
<g id="node8" class="node">
<title>126836299154720</title>
<polygon fill="lightgray" stroke="darkslategray" points="134.5,-256 60.5,-256 60.5,-220 134.5,-220 134.5,-256"/>
<text text-anchor="middle" x="97.5" y="-234.3" font-family="Courier Bold" font-size="14.00">uniform</text>
</g>
<!-- 126836299154528&#45;&gt;126836299154720 -->
<g id="edge5" class="edge">
<title>126836299154528&#45;&gt;126836299154720</title>
<path fill="none" stroke="#666666" stroke-width="1.2" d="M45.53,-291.72C54.52,-282.6 65.48,-271.48 75.01,-261.81"/>
<polygon fill="#666666" stroke="#666666" stroke-width="1.2" points="77.11,-263.67 80.74,-256 73.13,-259.73 77.11,-263.67"/>
</g>
<!-- 126836299154336 -->
<g id="node7" class="node">
<title>126836299154336</title>
<polygon fill="moccasin" stroke="orange" points="127.5,-330 73.5,-330 73.5,-292 127.5,-292 127.5,-330"/>
<text text-anchor="middle" x="100.5" y="-314.8" font-family="Sans-Serif" font-size="14.00">var_4</text>
<text text-anchor="middle" x="100.5" y="-299.8" font-family="Sans-Serif" font-size="14.00">0.125</text>
</g>
<!-- 126836299154336&#45;&gt;126836299154720 -->
<g id="edge6" class="edge">
<title>126836299154336&#45;&gt;126836299154720</title>
<path fill="none" stroke="#666666" stroke-width="1.2" d="M99.73,-291.72C99.37,-283.29 98.94,-273.15 98.56,-264.02"/>
<polygon fill="#666666" stroke="#666666" stroke-width="1.2" points="101.35,-263.88 98.22,-256 95.76,-264.11 101.35,-263.88"/>
</g>
<!-- 126836299154720&#45;&gt;126836299154480 -->
<g id="edge2" class="edge">
<title>126836299154720&#45;&gt;126836299154480</title>
<path fill="none" stroke="#666666" stroke-width="1.2" d="M97.5,-219.81C97.5,-211.52 97.5,-201.39 97.5,-192.16"/>
<polygon fill="#666666" stroke="#666666" stroke-width="1.2" points="100.3,-192.02 97.5,-184.02 94.7,-192.02 100.3,-192.02"/>
</g>
<!-- 126836299154912 -->
<g id="node9" class="node">
<title>126836299154912</title>
<polygon fill="aliceblue" stroke="skyblue" points="223,-330 150,-330 150,-292 223,-292 223,-330"/>
<text text-anchor="middle" x="186.5" y="-314.8" font-family="Sans-Serif" font-size="14.00">tensor_3</text>
<text text-anchor="middle" x="186.5" y="-299.8" font-family="Sans-Serif" font-size="14.00">(1, 64)</text>
</g>
<!-- 126836299155536 -->
<g id="node14" class="node">
<title>126836299155536</title>
<polygon fill="lightgray" stroke="darkslategray" points="221.5,-256 155.5,-256 155.5,-220 221.5,-220 221.5,-256"/>
<text text-anchor="middle" x="188.5" y="-234.3" font-family="Courier Bold" font-size="14.00">matmul</text>
</g>
<!-- 126836299154912&#45;&gt;126836299155536 -->
<g id="edge11" class="edge">
<title>126836299154912&#45;&gt;126836299155536</title>
<path fill="none" stroke="#666666" stroke-width="1.2" d="M187.02,-291.72C187.25,-283.29 187.54,-273.15 187.8,-264.02"/>
<polygon fill="#666666" stroke="#666666" stroke-width="1.2" points="190.59,-264.08 188.02,-256 185,-263.92 190.59,-264.08"/>
</g>
<!-- 126836299155152 -->
<g id="node10" class="node">
<title>126836299155152</title>
<polygon fill="aliceblue" stroke="skyblue" points="314,-330 241,-330 241,-292 314,-292 314,-330"/>
<text text-anchor="middle" x="277.5" y="-314.8" font-family="Sans-Serif" font-size="14.00">tensor_4</text>
<text text-anchor="middle" x="277.5" y="-299.8" font-family="Sans-Serif" font-size="14.00">(64, 4)</text>
</g>
<!-- 126836299155152&#45;&gt;126836299155536 -->
<g id="edge12" class="edge">
<title>126836299155152&#45;&gt;126836299155536</title>
<path fill="none" stroke="#666666" stroke-width="1.2" d="M254.58,-291.72C242.93,-282.42 228.69,-271.06 216.41,-261.26"/>
<polygon fill="#666666" stroke="#666666" stroke-width="1.2" points="217.81,-258.8 209.81,-256 214.32,-263.18 217.81,-258.8"/>
</g>
<!-- 126836299155104 -->
<g id="node11" class="node">
<title>126836299155104</title>
<polygon fill="honeydew" stroke="darkseagreen" points="268.5,-476 196.5,-476 196.5,-438 268.5,-438 268.5,-476"/>
<text text-anchor="middle" x="232.5" y="-460.8" font-family="Sans-Serif" font-size="14.00">vector_1</text>
<text text-anchor="middle" x="232.5" y="-445.8" font-family="Sans-Serif" font-size="14.00">(1, 0)</text>
</g>
<!-- 126836299155104&#45;&gt;126836299155248 -->
<g id="edge9" class="edge">
<title>126836299155104&#45;&gt;126836299155248</title>
<path fill="none" stroke="#666666" stroke-width="1.2" d="M244.09,-437.72C249.65,-428.94 256.39,-418.31 262.35,-408.91"/>
<polygon fill="#666666" stroke="#666666" stroke-width="1.2" points="264.81,-410.26 266.72,-402 260.08,-407.26 264.81,-410.26"/>
</g>
<!-- 126836299155248&#45;&gt;126836299155152 -->
<g id="edge7" class="edge">
<title>126836299155248&#45;&gt;126836299155152</title>
<path fill="none" stroke="#666666" stroke-width="1.2" d="M277.5,-365.81C277.5,-357.52 277.5,-347.39 277.5,-338.16"/>
<polygon fill="#666666" stroke="#666666" stroke-width="1.2" points="280.3,-338.02 277.5,-330.02 274.7,-338.02 280.3,-338.02"/>
</g>
<!-- 126836299155440 -->
<g id="node13" class="node">
<title>126836299155440</title>
<polygon fill="aliceblue" stroke="skyblue" points="225,-184 152,-184 152,-146 225,-146 225,-184"/>
<text text-anchor="middle" x="188.5" y="-168.8" font-family="Sans-Serif" font-size="14.00">tensor_5</text>
<text text-anchor="middle" x="188.5" y="-153.8" font-family="Sans-Serif" font-size="14.00">(1, 4)</text>
</g>
<!-- 126836299155440&#45;&gt;126836299155824 -->
<g id="edge14" class="edge">
<title>126836299155440&#45;&gt;126836299155824</title>
<path fill="none" stroke="#666666" stroke-width="1.2" d="M176.65,-145.72C170.97,-136.94 164.08,-126.31 157.99,-116.91"/>
<polygon fill="#666666" stroke="#666666" stroke-width="1.2" points="160.22,-115.19 153.52,-110 155.52,-118.24 160.22,-115.19"/>
</g>
<!-- 126836299155536&#45;&gt;126836299155440 -->
<g id="edge10" class="edge">
<title>126836299155536&#45;&gt;126836299155440</title>
<path fill="none" stroke="#666666" stroke-width="1.2" d="M188.5,-219.81C188.5,-211.52 188.5,-201.39 188.5,-192.16"/>
<polygon fill="#666666" stroke="#666666" stroke-width="1.2" points="191.3,-192.02 188.5,-184.02 185.7,-192.02 191.3,-192.02"/>
</g>
<!-- 126836299155728 -->
<g id="node15" class="node">
<title>126836299155728</title>
<polygon fill="aliceblue" stroke="skyblue" points="179,-38 106,-38 106,0 179,0 179,-38"/>
<text text-anchor="middle" x="142.5" y="-22.8" font-family="Sans-Serif" font-size="14.00">tensor_6</text>
<text text-anchor="middle" x="142.5" y="-7.8" font-family="Sans-Serif" font-size="14.00">(1, 4)</text>
</g>
<!-- 126836299155824&#45;&gt;126836299155728 -->
<g id="edge13" class="edge">
<title>126836299155824&#45;&gt;126836299155728</title>
<path fill="none" stroke="#666666" stroke-width="1.2" d="M142.5,-73.81C142.5,-65.52 142.5,-55.39 142.5,-46.16"/>
<polygon fill="#666666" stroke="#666666" stroke-width="1.2" points="145.3,-46.02 142.5,-38.02 139.7,-46.02 145.3,-46.02"/>
</g>
</g>
</svg>
