<?xml version="1.0" encoding="UTF-8" standalone="no"?>
<!DOCTYPE svg PUBLIC "-//W3C//DTD SVG 1.1//EN"
 "http://www.w3.org/Graphics/SVG/1.1/DTD/svg11.dtd">
<!-- Generated by graphviz version 2.43.0 (0)
 -->
<!-- Title: computational_graph Pages: 1 -->
<svg width="897pt" height="186pt"
 viewBox="0.00 0.00 897.00 186.00" xmlns="http://www.w3.org/2000/svg" xmlns:xlink="http://www.w3.org/1999/xlink">
<g id="graph0" class="graph" transform="scale(1 1) rotate(0) translate(4 182)">
<title>computational_graph</title>
<polygon fill="white" stroke="transparent" points="-4,4 -4,-182 893,-182 893,4 -4,4"/>
<!-- 0xc0000c2120 -->
<g id="node1" class="node">
<title>0xc0000c2120</title>
<polygon fill="aliceblue" stroke="skyblue" points="57,-178 0,-178 0,-140 57,-140 57,-178"/>
<text text-anchor="middle" x="28.5" y="-162.8" font-family="Sans-Serif" font-size="14.00">Input </text>
<text text-anchor="middle" x="28.5" y="-147.8" font-family="Sans-Serif" font-size="14.00"> [1 2 3]</text>
</g>
<!-- 0xc0000c2240 -->
<g id="node4" class="node">
<title>0xc0000c2240</title>
<polygon fill="lightgray" stroke="darkslategray" points="159,-149 93,-149 93,-113 159,-113 159,-149"/>
<text text-anchor="middle" x="126" y="-127.3" font-family="Courier Bold" font-size="14.00">matmul</text>
</g>
<!-- 0xc0000c2120&#45;&gt;0xc0000c2240 -->
<g id="edge2" class="edge">
<title>0xc0000c2120&#45;&gt;0xc0000c2240</title>
<path fill="none" stroke="#666666" stroke-width="1.2" d="M57.12,-150.9C65.82,-148.35 75.6,-145.48 84.97,-142.74"/>
<polygon fill="#666666" stroke="#666666" stroke-width="1.2" points="85.83,-145.4 92.72,-140.46 84.26,-140.03 85.83,-145.4"/>
</g>
<!-- 0xc0000c2180 -->
<g id="node2" class="node">
<title>0xc0000c2180</title>
<polygon fill="aliceblue" stroke="skyblue" points="57,-122 0,-122 0,-84 57,-84 57,-122"/>
<text text-anchor="middle" x="28.5" y="-106.8" font-family="Sans-Serif" font-size="14.00">W </text>
<text text-anchor="middle" x="28.5" y="-91.8" font-family="Sans-Serif" font-size="14.00"> [3 4 5]</text>
</g>
<!-- 0xc0000c2180&#45;&gt;0xc0000c2240 -->
<g id="edge3" class="edge">
<title>0xc0000c2180&#45;&gt;0xc0000c2240</title>
<path fill="none" stroke="#666666" stroke-width="1.2" d="M57.12,-111.1C65.82,-113.65 75.6,-116.52 84.97,-119.26"/>
<polygon fill="#666666" stroke="#666666" stroke-width="1.2" points="84.26,-121.97 92.72,-121.54 85.83,-116.6 84.26,-121.97"/>
</g>
<!-- 0xc0000c21e0 -->
<g id="node3" class="node">
<title>0xc0000c21e0</title>
<polygon fill="aliceblue" stroke="skyblue" points="271,-150 195,-150 195,-112 271,-112 271,-150"/>
<text text-anchor="middle" x="233" y="-134.8" font-family="Sans-Serif" font-size="14.00">tensor_0 </text>
<text text-anchor="middle" x="233" y="-119.8" font-family="Sans-Serif" font-size="14.00"> [1 2 3]</text>
</g>
<!-- 0xc0000c2360 -->
<g id="node7" class="node">
<title>0xc0000c2360</title>
<polygon fill="lightgray" stroke="darkslategray" points="361,-121 307,-121 307,-85 361,-85 361,-121"/>
<text text-anchor="middle" x="334" y="-99.3" font-family="Courier Bold" font-size="14.00">+</text>
</g>
<!-- 0xc0000c21e0&#45;&gt;0xc0000c2360 -->
<g id="edge5" class="edge">
<title>0xc0000c21e0&#45;&gt;0xc0000c2360</title>
<path fill="none" stroke="#666666" stroke-width="1.2" d="M271.15,-120.49C280.22,-117.93 289.88,-115.19 298.81,-112.67"/>
<polygon fill="#666666" stroke="#666666" stroke-width="1.2" points="299.83,-115.29 306.77,-110.42 298.31,-109.9 299.83,-115.29"/>
</g>
<!-- 0xc0000c2240&#45;&gt;0xc0000c21e0 -->
<g id="edge1" class="edge">
<title>0xc0000c2240&#45;&gt;0xc0000c21e0</title>
<path fill="none" stroke="#666666" stroke-width="1.2" d="M159.07,-131C167.84,-131 177.51,-131 186.87,-131"/>
<polygon fill="#666666" stroke="#666666" stroke-width="1.2" points="186.97,-133.8 194.97,-131 186.97,-128.2 186.97,-133.8"/>
</g>
<!-- 0xc0000c22a0 -->
<g id="node5" class="node">
<title>0xc0000c22a0</title>
<polygon fill="aliceblue" stroke="skyblue" points="261.5,-94 204.5,-94 204.5,-56 261.5,-56 261.5,-94"/>
<text text-anchor="middle" x="233" y="-78.8" font-family="Sans-Serif" font-size="14.00">b </text>
<text text-anchor="middle" x="233" y="-63.8" font-family="Sans-Serif" font-size="14.00"> [1 4 5]</text>
</g>
<!-- 0xc0000c22a0&#45;&gt;0xc0000c2360 -->
<g id="edge6" class="edge">
<title>0xc0000c22a0&#45;&gt;0xc0000c2360</title>
<path fill="none" stroke="#666666" stroke-width="1.2" d="M261.58,-82.8C273.22,-86.09 286.88,-89.96 299.13,-93.42"/>
<polygon fill="#666666" stroke="#666666" stroke-width="1.2" points="298.47,-96.14 306.93,-95.63 300,-90.76 298.47,-96.14"/>
</g>
<!-- 0xc0000c2300 -->
<g id="node6" class="node">
<title>0xc0000c2300</title>
<polygon fill="aliceblue" stroke="skyblue" points="473,-122 397,-122 397,-84 473,-84 473,-122"/>
<text text-anchor="middle" x="435" y="-106.8" font-family="Sans-Serif" font-size="14.00">tensor_1 </text>
<text text-anchor="middle" x="435" y="-91.8" font-family="Sans-Serif" font-size="14.00"> [1 2 3]</text>
</g>
<!-- 0xc0000c2480 -->
<g id="node10" class="node">
<title>0xc0000c2480</title>
<polygon fill="lightgray" stroke="darkslategray" points="575,-93 509,-93 509,-57 575,-57 575,-93"/>
<text text-anchor="middle" x="542" y="-71.3" font-family="Courier Bold" font-size="14.00">matmul</text>
</g>
<!-- 0xc0000c2300&#45;&gt;0xc0000c2480 -->
<g id="edge8" class="edge">
<title>0xc0000c2300&#45;&gt;0xc0000c2480</title>
<path fill="none" stroke="#666666" stroke-width="1.2" d="M473.02,-93.13C482.06,-90.72 491.78,-88.13 500.95,-85.68"/>
<polygon fill="#666666" stroke="#666666" stroke-width="1.2" points="501.84,-88.34 508.85,-83.57 500.4,-82.93 501.84,-88.34"/>
</g>
<!-- 0xc0000c2360&#45;&gt;0xc0000c2300 -->
<g id="edge4" class="edge">
<title>0xc0000c2360&#45;&gt;0xc0000c2300</title>
<path fill="none" stroke="#666666" stroke-width="1.2" d="M361.01,-103C369.52,-103 379.23,-103 388.73,-103"/>
<polygon fill="#666666" stroke="#666666" stroke-width="1.2" points="389,-105.8 397,-103 389,-100.2 389,-105.8"/>
</g>
<!-- 0xc0000c23c0 -->
<g id="node8" class="node">
<title>0xc0000c23c0</title>
<polygon fill="aliceblue" stroke="skyblue" points="463.5,-66 406.5,-66 406.5,-28 463.5,-28 463.5,-66"/>
<text text-anchor="middle" x="435" y="-50.8" font-family="Sans-Serif" font-size="14.00">W </text>
<text text-anchor="middle" x="435" y="-35.8" font-family="Sans-Serif" font-size="14.00"> [3 4 5]</text>
</g>
<!-- 0xc0000c23c0&#45;&gt;0xc0000c2480 -->
<g id="edge9" class="edge">
<title>0xc0000c23c0&#45;&gt;0xc0000c2480</title>
<path fill="none" stroke="#666666" stroke-width="1.2" d="M463.59,-54.36C474.95,-57.39 488.34,-60.96 500.76,-64.27"/>
<polygon fill="#666666" stroke="#666666" stroke-width="1.2" points="500.3,-67.05 508.76,-66.4 501.75,-61.63 500.3,-67.05"/>
</g>
<!-- 0xc0000c2420 -->
<g id="node9" class="node">
<title>0xc0000c2420</title>
<polygon fill="aliceblue" stroke="skyblue" points="687,-94 611,-94 611,-56 687,-56 687,-94"/>
<text text-anchor="middle" x="649" y="-78.8" font-family="Sans-Serif" font-size="14.00">tensor_2 </text>
<text text-anchor="middle" x="649" y="-63.8" font-family="Sans-Serif" font-size="14.00"> [1 2 3]</text>
</g>
<!-- 0xc0000c25a0 -->
<g id="node13" class="node">
<title>0xc0000c25a0</title>
<polygon fill="lightgray" stroke="darkslategray" points="777,-65 723,-65 723,-29 777,-29 777,-65"/>
<text text-anchor="middle" x="750" y="-43.3" font-family="Courier Bold" font-size="14.00">+</text>
</g>
<!-- 0xc0000c2420&#45;&gt;0xc0000c25a0 -->
<g id="edge11" class="edge">
<title>0xc0000c2420&#45;&gt;0xc0000c25a0</title>
<path fill="none" stroke="#666666" stroke-width="1.2" d="M687.15,-64.49C696.22,-61.93 705.88,-59.19 714.81,-56.67"/>
<polygon fill="#666666" stroke="#666666" stroke-width="1.2" points="715.83,-59.29 722.77,-54.42 714.31,-53.9 715.83,-59.29"/>
</g>
<!-- 0xc0000c2480&#45;&gt;0xc0000c2420 -->
<g id="edge7" class="edge">
<title>0xc0000c2480&#45;&gt;0xc0000c2420</title>
<path fill="none" stroke="#666666" stroke-width="1.2" d="M575.07,-75C583.84,-75 593.51,-75 602.87,-75"/>
<polygon fill="#666666" stroke="#666666" stroke-width="1.2" points="602.97,-77.8 610.97,-75 602.97,-72.2 602.97,-77.8"/>
</g>
<!-- 0xc0000c24e0 -->
<g id="node11" class="node">
<title>0xc0000c24e0</title>
<polygon fill="aliceblue" stroke="skyblue" points="677.5,-38 620.5,-38 620.5,0 677.5,0 677.5,-38"/>
<text text-anchor="middle" x="649" y="-22.8" font-family="Sans-Serif" font-size="14.00">b </text>
<text text-anchor="middle" x="649" y="-7.8" font-family="Sans-Serif" font-size="14.00"> [1 4 5]</text>
</g>
<!-- 0xc0000c24e0&#45;&gt;0xc0000c25a0 -->
<g id="edge12" class="edge">
<title>0xc0000c24e0&#45;&gt;0xc0000c25a0</title>
<path fill="none" stroke="#666666" stroke-width="1.2" d="M677.58,-26.8C689.22,-30.09 702.88,-33.96 715.13,-37.42"/>
<polygon fill="#666666" stroke="#666666" stroke-width="1.2" points="714.47,-40.14 722.93,-39.63 716,-34.76 714.47,-40.14"/>
</g>
<!-- 0xc0000c2540 -->
<g id="node12" class="node">
<title>0xc0000c2540</title>
<polygon fill="aliceblue" stroke="skyblue" points="889,-66 813,-66 813,-28 889,-28 889,-66"/>
<text text-anchor="middle" x="851" y="-50.8" font-family="Sans-Serif" font-size="14.00">tensor_3 </text>
<text text-anchor="middle" x="851" y="-35.8" font-family="Sans-Serif" font-size="14.00"> [1 2 3]</text>
</g>
<!-- 0xc0000c25a0&#45;&gt;0xc0000c2540 -->
<g id="edge10" class="edge">
<title>0xc0000c25a0&#45;&gt;0xc0000c2540</title>
<path fill="none" stroke="#666666" stroke-width="1.2" d="M777.01,-47C785.52,-47 795.23,-47 804.73,-47"/>
<polygon fill="#666666" stroke="#666666" stroke-width="1.2" points="805,-49.8 813,-47 805,-44.2 805,-49.8"/>
</g>
</g>
</svg>
