<?xml version="1.0" encoding="UTF-8" standalone="no"?>
<!DOCTYPE svg PUBLIC "-//W3C//DTD SVG 1.1//EN"
 "http://www.w3.org/Graphics/SVG/1.1/DTD/svg11.dtd">
<!-- Generated by graphviz version 2.43.0 (0)
 -->
<!-- Title: computational_graph Pages: 1 -->
<svg width="1090pt" height="240pt"
 viewBox="0.00 0.00 1090.00 240.00" xmlns="http://www.w3.org/2000/svg" xmlns:xlink="http://www.w3.org/1999/xlink">
<g id="graph0" class="graph" transform="scale(1 1) rotate(0) translate(4 236)">
<title>computational_graph</title>
<polygon fill="white" stroke="transparent" points="-4,4 -4,-236 1086,-236 1086,4 -4,4"/>
<!-- 0xc0000c2120 -->
<g id="node1" class="node">
<title>0xc0000c2120</title>
<polygon fill="aliceblue" stroke="skyblue" points="104,-232 0,-232 0,-179 104,-179 104,-232"/>
<text text-anchor="middle" x="52" y="-216.8" font-family="Sans-Serif" font-size="14.00">Input </text>
<text text-anchor="middle" x="52" y="-201.8" font-family="Sans-Serif" font-size="14.00"> [1 2 3]</text>
<text text-anchor="middle" x="52" y="-186.8" font-family="Sans-Serif" font-size="14.00"> require_grad</text>
</g>
<!-- 0xc0000c2240 -->
<g id="node4" class="node">
<title>0xc0000c2240</title>
<polygon fill="lightgray" stroke="darkslategray" points="223,-188.5 140,-188.5 140,-150.5 223,-150.5 223,-188.5"/>
<text text-anchor="middle" x="181.5" y="-173.3" font-family="Courier Bold" font-size="14.00">matmul</text>
<text text-anchor="middle" x="181.5" y="-158.3" font-family="Courier Bold" font-size="14.00">(matmul)</text>
</g>
<!-- 0xc0000c2120&#45;&gt;0xc0000c2240 -->
<g id="edge2" class="edge">
<title>0xc0000c2120&#45;&gt;0xc0000c2240</title>
<path fill="none" stroke="#666666" stroke-width="1.2" d="M104.12,-191.06C113.34,-188.46 122.92,-185.76 132.06,-183.18"/>
<polygon fill="#666666" stroke="#666666" stroke-width="1.2" points="133.02,-185.82 139.96,-180.95 131.5,-180.43 133.02,-185.82"/>
</g>
<!-- 0xc0000c2180 -->
<g id="node2" class="node">
<title>0xc0000c2180</title>
<polygon fill="aliceblue" stroke="skyblue" points="104,-161 0,-161 0,-108 104,-108 104,-161"/>
<text text-anchor="middle" x="52" y="-145.8" font-family="Sans-Serif" font-size="14.00">W </text>
<text text-anchor="middle" x="52" y="-130.8" font-family="Sans-Serif" font-size="14.00"> [3 4 5]</text>
<text text-anchor="middle" x="52" y="-115.8" font-family="Sans-Serif" font-size="14.00"> require_grad</text>
</g>
<!-- 0xc0000c2180&#45;&gt;0xc0000c2240 -->
<g id="edge3" class="edge">
<title>0xc0000c2180&#45;&gt;0xc0000c2240</title>
<path fill="none" stroke="#666666" stroke-width="1.2" d="M104.12,-148.53C113.34,-151.06 122.92,-153.69 132.06,-156.2"/>
<polygon fill="#666666" stroke="#666666" stroke-width="1.2" points="131.5,-158.95 139.96,-158.37 132.98,-153.55 131.5,-158.95"/>
</g>
<!-- 0xc0000c21e0 -->
<g id="node3" class="node">
<title>0xc0000c21e0</title>
<polygon fill="aliceblue" stroke="skyblue" points="363,-196 259,-196 259,-143 363,-143 363,-196"/>
<text text-anchor="middle" x="311" y="-180.8" font-family="Sans-Serif" font-size="14.00">tensor_0 </text>
<text text-anchor="middle" x="311" y="-165.8" font-family="Sans-Serif" font-size="14.00"> [1 2 3]</text>
<text text-anchor="middle" x="311" y="-150.8" font-family="Sans-Serif" font-size="14.00"> require_grad</text>
</g>
<!-- 0xc0000c2360 -->
<g id="node7" class="node">
<title>0xc0000c2360</title>
<polygon fill="lightgray" stroke="darkslategray" points="453,-152.5 399,-152.5 399,-114.5 453,-114.5 453,-152.5"/>
<text text-anchor="middle" x="426" y="-137.3" font-family="Courier Bold" font-size="14.00">add</text>
<text text-anchor="middle" x="426" y="-122.3" font-family="Courier Bold" font-size="14.00">(+)</text>
</g>
<!-- 0xc0000c21e0&#45;&gt;0xc0000c2360 -->
<g id="edge5" class="edge">
<title>0xc0000c21e0&#45;&gt;0xc0000c2360</title>
<path fill="none" stroke="#666666" stroke-width="1.2" d="M363.21,-153.19C372.69,-150.17 382.37,-147.08 391.17,-144.28"/>
<polygon fill="#666666" stroke="#666666" stroke-width="1.2" points="392.2,-146.89 398.97,-141.79 390.5,-141.55 392.2,-146.89"/>
</g>
<!-- 0xc0000c2240&#45;&gt;0xc0000c21e0 -->
<g id="edge1" class="edge">
<title>0xc0000c2240&#45;&gt;0xc0000c21e0</title>
<path fill="none" stroke="#666666" stroke-width="1.2" d="M223.19,-169.5C231.99,-169.5 241.46,-169.5 250.79,-169.5"/>
<polygon fill="#666666" stroke="#666666" stroke-width="1.2" points="250.95,-172.3 258.95,-169.5 250.95,-166.7 250.95,-172.3"/>
</g>
<!-- 0xc0000c22a0 -->
<g id="node5" class="node">
<title>0xc0000c22a0</title>
<polygon fill="aliceblue" stroke="skyblue" points="363,-125 259,-125 259,-72 363,-72 363,-125"/>
<text text-anchor="middle" x="311" y="-109.8" font-family="Sans-Serif" font-size="14.00">b </text>
<text text-anchor="middle" x="311" y="-94.8" font-family="Sans-Serif" font-size="14.00"> [1 4 5]</text>
<text text-anchor="middle" x="311" y="-79.8" font-family="Sans-Serif" font-size="14.00"> require_grad</text>
</g>
<!-- 0xc0000c22a0&#45;&gt;0xc0000c2360 -->
<g id="edge6" class="edge">
<title>0xc0000c22a0&#45;&gt;0xc0000c2360</title>
<path fill="none" stroke="#666666" stroke-width="1.2" d="M363.21,-114.36C372.69,-117.3 382.37,-120.3 391.17,-123.02"/>
<polygon fill="#666666" stroke="#666666" stroke-width="1.2" points="390.5,-125.74 398.97,-125.44 392.16,-120.4 390.5,-125.74"/>
</g>
<!-- 0xc0000c2300 -->
<g id="node6" class="node">
<title>0xc0000c2300</title>
<polygon fill="aliceblue" stroke="skyblue" points="593,-160 489,-160 489,-107 593,-107 593,-160"/>
<text text-anchor="middle" x="541" y="-144.8" font-family="Sans-Serif" font-size="14.00">tensor_1 </text>
<text text-anchor="middle" x="541" y="-129.8" font-family="Sans-Serif" font-size="14.00"> [1 2 3]</text>
<text text-anchor="middle" x="541" y="-114.8" font-family="Sans-Serif" font-size="14.00"> require_grad</text>
</g>
<!-- 0xc0000c2480 -->
<g id="node10" class="node">
<title>0xc0000c2480</title>
<polygon fill="lightgray" stroke="darkslategray" points="712,-116.5 629,-116.5 629,-78.5 712,-78.5 712,-116.5"/>
<text text-anchor="middle" x="670.5" y="-101.3" font-family="Courier Bold" font-size="14.00">matmul</text>
<text text-anchor="middle" x="670.5" y="-86.3" font-family="Courier Bold" font-size="14.00">(matmul)</text>
</g>
<!-- 0xc0000c2300&#45;&gt;0xc0000c2480 -->
<g id="edge8" class="edge">
<title>0xc0000c2300&#45;&gt;0xc0000c2480</title>
<path fill="none" stroke="#666666" stroke-width="1.2" d="M593.12,-119.06C602.34,-116.46 611.92,-113.76 621.06,-111.18"/>
<polygon fill="#666666" stroke="#666666" stroke-width="1.2" points="622.02,-113.82 628.96,-108.95 620.5,-108.43 622.02,-113.82"/>
</g>
<!-- 0xc0000c2360&#45;&gt;0xc0000c2300 -->
<g id="edge4" class="edge">
<title>0xc0000c2360&#45;&gt;0xc0000c2300</title>
<path fill="none" stroke="#666666" stroke-width="1.2" d="M453.21,-133.5C461.46,-133.5 470.94,-133.5 480.53,-133.5"/>
<polygon fill="#666666" stroke="#666666" stroke-width="1.2" points="480.58,-136.3 488.58,-133.5 480.58,-130.7 480.58,-136.3"/>
</g>
<!-- 0xc0000c23c0 -->
<g id="node8" class="node">
<title>0xc0000c23c0</title>
<polygon fill="aliceblue" stroke="skyblue" points="593,-89 489,-89 489,-36 593,-36 593,-89"/>
<text text-anchor="middle" x="541" y="-73.8" font-family="Sans-Serif" font-size="14.00">W </text>
<text text-anchor="middle" x="541" y="-58.8" font-family="Sans-Serif" font-size="14.00"> [3 4 5]</text>
<text text-anchor="middle" x="541" y="-43.8" font-family="Sans-Serif" font-size="14.00"> require_grad</text>
</g>
<!-- 0xc0000c23c0&#45;&gt;0xc0000c2480 -->
<g id="edge9" class="edge">
<title>0xc0000c23c0&#45;&gt;0xc0000c2480</title>
<path fill="none" stroke="#666666" stroke-width="1.2" d="M593.12,-76.53C602.34,-79.06 611.92,-81.69 621.06,-84.2"/>
<polygon fill="#666666" stroke="#666666" stroke-width="1.2" points="620.5,-86.95 628.96,-86.37 621.98,-81.55 620.5,-86.95"/>
</g>
<!-- 0xc0000c2420 -->
<g id="node9" class="node">
<title>0xc0000c2420</title>
<polygon fill="aliceblue" stroke="skyblue" points="852,-124 748,-124 748,-71 852,-71 852,-124"/>
<text text-anchor="middle" x="800" y="-108.8" font-family="Sans-Serif" font-size="14.00">tensor_2 </text>
<text text-anchor="middle" x="800" y="-93.8" font-family="Sans-Serif" font-size="14.00"> [1 2 3]</text>
<text text-anchor="middle" x="800" y="-78.8" font-family="Sans-Serif" font-size="14.00"> require_grad</text>
</g>
<!-- 0xc0000c25a0 -->
<g id="node13" class="node">
<title>0xc0000c25a0</title>
<polygon fill="lightgray" stroke="darkslategray" points="942,-80.5 888,-80.5 888,-42.5 942,-42.5 942,-80.5"/>
<text text-anchor="middle" x="915" y="-65.3" font-family="Courier Bold" font-size="14.00">add</text>
<text text-anchor="middle" x="915" y="-50.3" font-family="Courier Bold" font-size="14.00">(+)</text>
</g>
<!-- 0xc0000c2420&#45;&gt;0xc0000c25a0 -->
<g id="edge11" class="edge">
<title>0xc0000c2420&#45;&gt;0xc0000c25a0</title>
<path fill="none" stroke="#666666" stroke-width="1.2" d="M852.21,-81.19C861.69,-78.17 871.37,-75.08 880.17,-72.28"/>
<polygon fill="#666666" stroke="#666666" stroke-width="1.2" points="881.2,-74.89 887.97,-69.79 879.5,-69.55 881.2,-74.89"/>
</g>
<!-- 0xc0000c2480&#45;&gt;0xc0000c2420 -->
<g id="edge7" class="edge">
<title>0xc0000c2480&#45;&gt;0xc0000c2420</title>
<path fill="none" stroke="#666666" stroke-width="1.2" d="M712.19,-97.5C720.99,-97.5 730.46,-97.5 739.79,-97.5"/>
<polygon fill="#666666" stroke="#666666" stroke-width="1.2" points="739.95,-100.3 747.95,-97.5 739.95,-94.7 739.95,-100.3"/>
</g>
<!-- 0xc0000c24e0 -->
<g id="node11" class="node">
<title>0xc0000c24e0</title>
<polygon fill="aliceblue" stroke="skyblue" points="852,-53 748,-53 748,0 852,0 852,-53"/>
<text text-anchor="middle" x="800" y="-37.8" font-family="Sans-Serif" font-size="14.00">b </text>
<text text-anchor="middle" x="800" y="-22.8" font-family="Sans-Serif" font-size="14.00"> [1 4 5]</text>
<text text-anchor="middle" x="800" y="-7.8" font-family="Sans-Serif" font-size="14.00"> require_grad</text>
</g>
<!-- 0xc0000c24e0&#45;&gt;0xc0000c25a0 -->
<g id="edge12" class="edge">
<title>0xc0000c24e0&#45;&gt;0xc0000c25a0</title>
<path fill="none" stroke="#666666" stroke-width="1.2" d="M852.21,-42.36C861.69,-45.3 871.37,-48.3 880.17,-51.02"/>
<polygon fill="#666666" stroke="#666666" stroke-width="1.2" points="879.5,-53.74 887.97,-53.44 881.16,-48.4 879.5,-53.74"/>
</g>
<!-- 0xc0000c2540 -->
<g id="node12" class="node">
<title>0xc0000c2540</title>
<polygon fill="aliceblue" stroke="skyblue" points="1082,-88 978,-88 978,-35 1082,-35 1082,-88"/>
<text text-anchor="middle" x="1030" y="-72.8" font-family="Sans-Serif" font-size="14.00">tensor_3 </text>
<text text-anchor="middle" x="1030" y="-57.8" font-family="Sans-Serif" font-size="14.00"> [1 2 3]</text>
<text text-anchor="middle" x="1030" y="-42.8" font-family="Sans-Serif" font-size="14.00"> require_grad</text>
</g>
<!-- 0xc0000c25a0&#45;&gt;0xc0000c2540 -->
<g id="edge10" class="edge">
<title>0xc0000c25a0&#45;&gt;0xc0000c2540</title>
<path fill="none" stroke="#666666" stroke-width="1.2" d="M942.21,-61.5C950.46,-61.5 959.94,-61.5 969.53,-61.5"/>
<polygon fill="#666666" stroke="#666666" stroke-width="1.2" points="969.58,-64.3 977.58,-61.5 969.58,-58.7 969.58,-64.3"/>
</g>
</g>
</svg>
