<?xml version="1.0" encoding="UTF-8" standalone="no"?>
<!DOCTYPE svg PUBLIC "-//W3C//DTD SVG 1.1//EN"
 "http://www.w3.org/Graphics/SVG/1.1/DTD/svg11.dtd">
<!-- Generated by graphviz version 2.43.0 (0)
 -->
<!-- Title: computational_graph Pages: 1 -->
<svg width="1327pt" height="179pt"
 viewBox="0.00 0.00 1327.23 179.00" xmlns="http://www.w3.org/2000/svg" xmlns:xlink="http://www.w3.org/1999/xlink">
<g id="graph0" class="graph" transform="scale(1 1) rotate(0) translate(4 175)">
<title>computational_graph</title>
<polygon fill="white" stroke="transparent" points="-4,4 -4,-175 1323.23,-175 1323.23,4 -4,4"/>
<!-- 0xc0000c2120 -->
<g id="node1" class="node">
<title>0xc0000c2120</title>
<ellipse fill="none" stroke="black" cx="65.64" cy="-153" rx="65.79" ry="18"/>
<text text-anchor="middle" x="65.64" y="-149.3" font-family="Times,serif" font-size="14.00">Input[1 2 3]</text>
</g>
<!-- 0xc0000c2240 -->
<g id="node4" class="node">
<title>0xc0000c2240</title>
<polygon fill="none" stroke="black" points="238.29,-144 167.29,-144 167.29,-108 238.29,-108 238.29,-144"/>
<text text-anchor="middle" x="202.79" y="-122.3" font-family="Times,serif" font-size="14.00">matmul</text>
</g>
<!-- 0xc0000c2120&#45;&gt;0xc0000c2240 -->
<g id="edge2" class="edge">
<title>0xc0000c2120&#45;&gt;0xc0000c2240</title>
<path fill="none" stroke="black" d="M119.28,-142.48C131.79,-139.99 145.01,-137.34 157.12,-134.92"/>
<polygon fill="black" stroke="black" points="157.88,-138.34 167,-132.95 156.5,-131.48 157.88,-138.34"/>
</g>
<!-- 0xc0000c2180 -->
<g id="node2" class="node">
<title>0xc0000c2180</title>
<ellipse fill="none" stroke="black" cx="65.64" cy="-99" rx="50.09" ry="18"/>
<text text-anchor="middle" x="65.64" y="-95.3" font-family="Times,serif" font-size="14.00">W[3 4 5]</text>
</g>
<!-- 0xc0000c2180&#45;&gt;0xc0000c2240 -->
<g id="edge3" class="edge">
<title>0xc0000c2180&#45;&gt;0xc0000c2240</title>
<path fill="none" stroke="black" d="M109.78,-107.62C124.84,-110.63 141.78,-114.01 156.97,-117.05"/>
<polygon fill="black" stroke="black" points="156.68,-120.56 167.17,-119.08 158.05,-113.69 156.68,-120.56"/>
</g>
<!-- 0xc0000c21e0 -->
<g id="node3" class="node">
<title>0xc0000c21e0</title>
<ellipse fill="none" stroke="black" cx="355.53" cy="-126" rx="81.49" ry="18"/>
<text text-anchor="middle" x="355.53" y="-122.3" font-family="Times,serif" font-size="14.00">tensor_0[1 2 3]</text>
</g>
<!-- 0xc0000c2360 -->
<g id="node7" class="node">
<title>0xc0000c2360</title>
<polygon fill="none" stroke="black" points="526.77,-117 472.77,-117 472.77,-81 526.77,-81 526.77,-117"/>
<text text-anchor="middle" x="499.77" y="-95.3" font-family="Times,serif" font-size="14.00">add</text>
</g>
<!-- 0xc0000c21e0&#45;&gt;0xc0000c2360 -->
<g id="edge5" class="edge">
<title>0xc0000c21e0&#45;&gt;0xc0000c2360</title>
<path fill="none" stroke="black" d="M417.68,-114.39C433.04,-111.48 449.04,-108.44 462.72,-105.84"/>
<polygon fill="black" stroke="black" points="463.51,-109.26 472.68,-103.95 462.21,-102.38 463.51,-109.26"/>
</g>
<!-- 0xc0000c2240&#45;&gt;0xc0000c21e0 -->
<g id="edge1" class="edge">
<title>0xc0000c2240&#45;&gt;0xc0000c21e0</title>
<path fill="none" stroke="black" d="M238.37,-126C246.2,-126 254.87,-126 263.85,-126"/>
<polygon fill="black" stroke="black" points="264.08,-129.5 274.08,-126 264.08,-122.5 264.08,-129.5"/>
</g>
<!-- 0xc0000c22a0 -->
<g id="node5" class="node">
<title>0xc0000c22a0</title>
<ellipse fill="none" stroke="black" cx="355.53" cy="-72" rx="46.59" ry="18"/>
<text text-anchor="middle" x="355.53" y="-68.3" font-family="Times,serif" font-size="14.00">b[1 4 5]</text>
</g>
<!-- 0xc0000c22a0&#45;&gt;0xc0000c2360 -->
<g id="edge6" class="edge">
<title>0xc0000c22a0&#45;&gt;0xc0000c2360</title>
<path fill="none" stroke="black" d="M398.06,-79.88C418.49,-83.76 442.9,-88.39 462.56,-92.13"/>
<polygon fill="black" stroke="black" points="462.18,-95.62 472.66,-94.04 463.49,-88.74 462.18,-95.62"/>
</g>
<!-- 0xc0000c2300 -->
<g id="node6" class="node">
<title>0xc0000c2300</title>
<ellipse fill="none" stroke="black" cx="644.02" cy="-99" rx="81.49" ry="18"/>
<text text-anchor="middle" x="644.02" y="-95.3" font-family="Times,serif" font-size="14.00">tensor_1[1 2 3]</text>
</g>
<!-- 0xc0000c2480 -->
<g id="node10" class="node">
<title>0xc0000c2480</title>
<polygon fill="none" stroke="black" points="832.26,-90 761.26,-90 761.26,-54 832.26,-54 832.26,-90"/>
<text text-anchor="middle" x="796.76" y="-68.3" font-family="Times,serif" font-size="14.00">matmul</text>
</g>
<!-- 0xc0000c2300&#45;&gt;0xc0000c2480 -->
<g id="edge8" class="edge">
<title>0xc0000c2300&#45;&gt;0xc0000c2480</title>
<path fill="none" stroke="black" d="M707.64,-87.78C722.2,-85.17 737.43,-82.45 751.04,-80.01"/>
<polygon fill="black" stroke="black" points="751.87,-83.42 761.1,-78.21 750.64,-76.53 751.87,-83.42"/>
</g>
<!-- 0xc0000c2360&#45;&gt;0xc0000c2300 -->
<g id="edge4" class="edge">
<title>0xc0000c2360&#45;&gt;0xc0000c2300</title>
<path fill="none" stroke="black" d="M526.86,-99C534.46,-99 543.22,-99 552.46,-99"/>
<polygon fill="black" stroke="black" points="552.64,-102.5 562.64,-99 552.64,-95.5 552.64,-102.5"/>
</g>
<!-- 0xc0000c23c0 -->
<g id="node8" class="node">
<title>0xc0000c23c0</title>
<ellipse fill="none" stroke="black" cx="644.02" cy="-45" rx="50.09" ry="18"/>
<text text-anchor="middle" x="644.02" y="-41.3" font-family="Times,serif" font-size="14.00">W[3 4 5]</text>
</g>
<!-- 0xc0000c23c0&#45;&gt;0xc0000c2480 -->
<g id="edge9" class="edge">
<title>0xc0000c23c0&#45;&gt;0xc0000c2480</title>
<path fill="none" stroke="black" d="M689.02,-52.88C708.56,-56.38 731.52,-60.49 751.13,-64.01"/>
<polygon fill="black" stroke="black" points="750.58,-67.46 761.04,-65.78 751.81,-60.57 750.58,-67.46"/>
</g>
<!-- 0xc0000c2420 -->
<g id="node9" class="node">
<title>0xc0000c2420</title>
<ellipse fill="none" stroke="black" cx="949.5" cy="-72" rx="81.49" ry="18"/>
<text text-anchor="middle" x="949.5" y="-68.3" font-family="Times,serif" font-size="14.00">tensor_2[1 2 3]</text>
</g>
<!-- 0xc0000c25a0 -->
<g id="node13" class="node">
<title>0xc0000c25a0</title>
<polygon fill="none" stroke="black" points="1120.75,-63 1066.75,-63 1066.75,-27 1120.75,-27 1120.75,-63"/>
<text text-anchor="middle" x="1093.75" y="-41.3" font-family="Times,serif" font-size="14.00">add</text>
</g>
<!-- 0xc0000c2420&#45;&gt;0xc0000c25a0 -->
<g id="edge11" class="edge">
<title>0xc0000c2420&#45;&gt;0xc0000c25a0</title>
<path fill="none" stroke="black" d="M1011.65,-60.39C1027.01,-57.48 1043.01,-54.44 1056.69,-51.84"/>
<polygon fill="black" stroke="black" points="1057.48,-55.26 1066.66,-49.95 1056.18,-48.38 1057.48,-55.26"/>
</g>
<!-- 0xc0000c2480&#45;&gt;0xc0000c2420 -->
<g id="edge7" class="edge">
<title>0xc0000c2480&#45;&gt;0xc0000c2420</title>
<path fill="none" stroke="black" d="M832.34,-72C840.17,-72 848.85,-72 857.82,-72"/>
<polygon fill="black" stroke="black" points="858.05,-75.5 868.05,-72 858.05,-68.5 858.05,-75.5"/>
</g>
<!-- 0xc0000c24e0 -->
<g id="node11" class="node">
<title>0xc0000c24e0</title>
<ellipse fill="none" stroke="black" cx="949.5" cy="-18" rx="46.59" ry="18"/>
<text text-anchor="middle" x="949.5" y="-14.3" font-family="Times,serif" font-size="14.00">b[1 4 5]</text>
</g>
<!-- 0xc0000c24e0&#45;&gt;0xc0000c25a0 -->
<g id="edge12" class="edge">
<title>0xc0000c24e0&#45;&gt;0xc0000c25a0</title>
<path fill="none" stroke="black" d="M992.03,-25.88C1012.46,-29.76 1036.87,-34.39 1056.53,-38.13"/>
<polygon fill="black" stroke="black" points="1056.15,-41.62 1066.63,-40.04 1057.46,-34.74 1056.15,-41.62"/>
</g>
<!-- 0xc0000c2540 -->
<g id="node12" class="node">
<title>0xc0000c2540</title>
<ellipse fill="none" stroke="black" cx="1237.99" cy="-45" rx="81.49" ry="18"/>
<text text-anchor="middle" x="1237.99" y="-41.3" font-family="Times,serif" font-size="14.00">tensor_3[1 2 3]</text>
</g>
<!-- 0xc0000c25a0&#45;&gt;0xc0000c2540 -->
<g id="edge10" class="edge">
<title>0xc0000c25a0&#45;&gt;0xc0000c2540</title>
<path fill="none" stroke="black" d="M1120.83,-45C1128.43,-45 1137.2,-45 1146.43,-45"/>
<polygon fill="black" stroke="black" points="1146.61,-48.5 1156.61,-45 1146.61,-41.5 1146.61,-48.5"/>
</g>
</g>
</svg>
