<?xml version="1.0" encoding="UTF-8" standalone="no"?>
<!DOCTYPE svg PUBLIC "-//W3C//DTD SVG 1.1//EN"
 "http://www.w3.org/Graphics/SVG/1.1/DTD/svg11.dtd">
<!-- Generated by graphviz version 2.43.0 (0)
 -->
<!-- Title: computational_graph Pages: 1 -->
<svg width="764pt" height="125pt"
 viewBox="0.00 0.00 764.46 125.00" xmlns="http://www.w3.org/2000/svg" xmlns:xlink="http://www.w3.org/1999/xlink">
<g id="graph0" class="graph" transform="scale(1 1) rotate(0) translate(4 121)">
<title>computational_graph</title>
<polygon fill="white" stroke="transparent" points="-4,4 -4,-121 760.46,-121 760.46,4 -4,4"/>
<!-- 0xc000102120 -->
<g id="node1" class="node">
<title>0xc000102120</title>
<ellipse fill="none" stroke="black" cx="81.24" cy="-99" rx="81.49" ry="18"/>
<text text-anchor="middle" x="81.24" y="-95.3" font-family="Times,serif" font-size="14.00">tensor_0[1 2 3]</text>
</g>
<!-- 0xc000102240 -->
<g id="node4" class="node">
<title>0xc000102240</title>
<polygon fill="none" stroke="black" points="269.49,-90 198.49,-90 198.49,-54 269.49,-54 269.49,-90"/>
<text text-anchor="middle" x="233.99" y="-68.3" font-family="Times,serif" font-size="14.00">matmul</text>
</g>
<!-- 0xc000102120&#45;&gt;0xc000102240 -->
<g id="edge2" class="edge">
<title>0xc000102120&#45;&gt;0xc000102240</title>
<path fill="none" stroke="black" d="M144.86,-87.78C159.43,-85.17 174.65,-82.45 188.27,-80.01"/>
<polygon fill="black" stroke="black" points="189.1,-83.42 198.33,-78.21 187.87,-76.53 189.1,-83.42"/>
</g>
<!-- 0xc000102180 -->
<g id="node2" class="node">
<title>0xc000102180</title>
<ellipse fill="none" stroke="black" cx="81.24" cy="-45" rx="81.49" ry="18"/>
<text text-anchor="middle" x="81.24" y="-41.3" font-family="Times,serif" font-size="14.00">tensor_1[3 4 5]</text>
</g>
<!-- 0xc000102180&#45;&gt;0xc000102240 -->
<g id="edge3" class="edge">
<title>0xc000102180&#45;&gt;0xc000102240</title>
<path fill="none" stroke="black" d="M144.86,-56.22C159.43,-58.83 174.65,-61.55 188.27,-63.99"/>
<polygon fill="black" stroke="black" points="187.87,-67.47 198.33,-65.79 189.1,-60.58 187.87,-67.47"/>
</g>
<!-- 0xc0001021e0 -->
<g id="node3" class="node">
<title>0xc0001021e0</title>
<ellipse fill="none" stroke="black" cx="386.73" cy="-72" rx="81.49" ry="18"/>
<text text-anchor="middle" x="386.73" y="-68.3" font-family="Times,serif" font-size="14.00">tensor_2[1 2 3]</text>
</g>
<!-- 0xc000102360 -->
<g id="node7" class="node">
<title>0xc000102360</title>
<polygon fill="none" stroke="black" points="557.97,-63 503.97,-63 503.97,-27 557.97,-27 557.97,-63"/>
<text text-anchor="middle" x="530.97" y="-41.3" font-family="Times,serif" font-size="14.00">add</text>
</g>
<!-- 0xc0001021e0&#45;&gt;0xc000102360 -->
<g id="edge6" class="edge">
<title>0xc0001021e0&#45;&gt;0xc000102360</title>
<path fill="none" stroke="black" d="M448.88,-60.39C464.24,-57.48 480.23,-54.44 493.92,-51.84"/>
<polygon fill="black" stroke="black" points="494.71,-55.26 503.88,-49.95 493.4,-48.38 494.71,-55.26"/>
</g>
<!-- 0xc000102240&#45;&gt;0xc0001021e0 -->
<g id="edge1" class="edge">
<title>0xc000102240&#45;&gt;0xc0001021e0</title>
<path fill="none" stroke="black" d="M269.57,-72C277.4,-72 286.07,-72 295.05,-72"/>
<polygon fill="black" stroke="black" points="295.28,-75.5 305.28,-72 295.28,-68.5 295.28,-75.5"/>
</g>
<!-- 0xc0001022a0 -->
<g id="node5" class="node">
<title>0xc0001022a0</title>
<ellipse fill="none" stroke="black" cx="386.73" cy="-18" rx="81.49" ry="18"/>
<text text-anchor="middle" x="386.73" y="-14.3" font-family="Times,serif" font-size="14.00">tensor_3[1 4 5]</text>
</g>
<!-- 0xc0001022a0&#45;&gt;0xc000102360 -->
<g id="edge5" class="edge">
<title>0xc0001022a0&#45;&gt;0xc000102360</title>
<path fill="none" stroke="black" d="M448.88,-29.61C464.24,-32.52 480.23,-35.56 493.92,-38.16"/>
<polygon fill="black" stroke="black" points="493.4,-41.62 503.88,-40.05 494.71,-34.74 493.4,-41.62"/>
</g>
<!-- 0xc000102300 -->
<g id="node6" class="node">
<title>0xc000102300</title>
<ellipse fill="none" stroke="black" cx="675.21" cy="-45" rx="81.49" ry="18"/>
<text text-anchor="middle" x="675.21" y="-41.3" font-family="Times,serif" font-size="14.00">tensor_4[1 2 3]</text>
</g>
<!-- 0xc000102360&#45;&gt;0xc000102300 -->
<g id="edge4" class="edge">
<title>0xc000102360&#45;&gt;0xc000102300</title>
<path fill="none" stroke="black" d="M558.06,-45C565.66,-45 574.42,-45 583.66,-45"/>
<polygon fill="black" stroke="black" points="583.83,-48.5 593.83,-45 583.83,-41.5 583.83,-48.5"/>
</g>
</g>
</svg>
