<?xml version="1.0" encoding="UTF-8" standalone="no"?>
<!DOCTYPE svg PUBLIC "-//W3C//DTD SVG 1.1//EN"
 "http://www.w3.org/Graphics/SVG/1.1/DTD/svg11.dtd">
<!-- Generated by graphviz version 2.43.0 (0)
 -->
<!-- Title: computational_graph Pages: 1 -->
<svg width="624pt" height="125pt"
 viewBox="0.00 0.00 624.07 125.00" xmlns="http://www.w3.org/2000/svg" xmlns:xlink="http://www.w3.org/1999/xlink">
<g id="graph0" class="graph" transform="scale(1 1) rotate(0) translate(4 121)">
<title>computational_graph</title>
<polygon fill="white" stroke="transparent" points="-4,4 -4,-121 620.07,-121 620.07,4 -4,4"/>
<!-- 0xc0000c6120 -->
<g id="node1" class="node">
<title>0xc0000c6120</title>
<ellipse fill="none" stroke="black" cx="57.84" cy="-99" rx="57.69" ry="18"/>
<text text-anchor="middle" x="57.84" y="-95.3" font-family="Times,serif" font-size="14.00">tensor_0[]</text>
</g>
<!-- 0xc0000c6240 -->
<g id="node4" class="node">
<title>0xc0000c6240</title>
<polygon fill="none" stroke="black" points="222.69,-90 151.69,-90 151.69,-54 222.69,-54 222.69,-90"/>
<text text-anchor="middle" x="187.19" y="-68.3" font-family="Times,serif" font-size="14.00">matmul</text>
</g>
<!-- 0xc0000c6120&#45;&gt;0xc0000c6240 -->
<g id="edge1" class="edge">
<title>0xc0000c6120&#45;&gt;0xc0000c6240</title>
<path fill="none" stroke="black" d="M106.26,-88.95C117.86,-86.49 130.22,-83.87 141.68,-81.44"/>
<polygon fill="black" stroke="black" points="142.41,-84.86 151.47,-79.36 140.96,-78.01 142.41,-84.86"/>
</g>
<!-- 0xc0000c6180 -->
<g id="node2" class="node">
<title>0xc0000c6180</title>
<ellipse fill="none" stroke="black" cx="57.84" cy="-45" rx="57.69" ry="18"/>
<text text-anchor="middle" x="57.84" y="-41.3" font-family="Times,serif" font-size="14.00">tensor_1[]</text>
</g>
<!-- 0xc0000c6180&#45;&gt;0xc0000c6240 -->
<g id="edge2" class="edge">
<title>0xc0000c6180&#45;&gt;0xc0000c6240</title>
<path fill="none" stroke="black" d="M106.26,-55.05C117.86,-57.51 130.22,-60.13 141.68,-62.56"/>
<polygon fill="black" stroke="black" points="140.96,-65.99 151.47,-64.64 142.41,-59.14 140.96,-65.99"/>
</g>
<!-- 0xc0000c61e0 -->
<g id="node3" class="node">
<title>0xc0000c61e0</title>
<ellipse fill="none" stroke="black" cx="316.53" cy="-72" rx="57.69" ry="18"/>
<text text-anchor="middle" x="316.53" y="-68.3" font-family="Times,serif" font-size="14.00">tensor_2[]</text>
</g>
<!-- 0xc0000c6360 -->
<g id="node7" class="node">
<title>0xc0000c6360</title>
<polygon fill="none" stroke="black" points="464.38,-63 410.38,-63 410.38,-27 464.38,-27 464.38,-63"/>
<text text-anchor="middle" x="437.38" y="-41.3" font-family="Times,serif" font-size="14.00">add</text>
</g>
<!-- 0xc0000c61e0&#45;&gt;0xc0000c6360 -->
<g id="edge3" class="edge">
<title>0xc0000c61e0&#45;&gt;0xc0000c6360</title>
<path fill="none" stroke="black" d="M363.82,-61.48C375.9,-58.74 388.74,-55.82 400.2,-53.22"/>
<polygon fill="black" stroke="black" points="401.31,-56.56 410.29,-50.93 399.76,-49.73 401.31,-56.56"/>
</g>
<!-- 0xc0000c6240&#45;&gt;0xc0000c61e0 -->
<g id="edge4" class="edge">
<title>0xc0000c6240&#45;&gt;0xc0000c61e0</title>
<path fill="none" stroke="black" d="M222.99,-72C230.82,-72 239.39,-72 248.06,-72"/>
<polygon fill="black" stroke="black" points="248.24,-75.5 258.24,-72 248.24,-68.5 248.24,-75.5"/>
</g>
<!-- 0xc0000c62a0 -->
<g id="node5" class="node">
<title>0xc0000c62a0</title>
<ellipse fill="none" stroke="black" cx="316.53" cy="-18" rx="57.69" ry="18"/>
<text text-anchor="middle" x="316.53" y="-14.3" font-family="Times,serif" font-size="14.00">tensor_3[]</text>
</g>
<!-- 0xc0000c62a0&#45;&gt;0xc0000c6360 -->
<g id="edge5" class="edge">
<title>0xc0000c62a0&#45;&gt;0xc0000c6360</title>
<path fill="none" stroke="black" d="M363.82,-28.52C375.9,-31.26 388.74,-34.18 400.2,-36.78"/>
<polygon fill="black" stroke="black" points="399.76,-40.27 410.29,-39.07 401.31,-33.44 399.76,-40.27"/>
</g>
<!-- 0xc0000c6300 -->
<g id="node6" class="node">
<title>0xc0000c6300</title>
<ellipse fill="none" stroke="black" cx="558.22" cy="-45" rx="57.69" ry="18"/>
<text text-anchor="middle" x="558.22" y="-41.3" font-family="Times,serif" font-size="14.00">tensor_4[]</text>
</g>
<!-- 0xc0000c6360&#45;&gt;0xc0000c6300 -->
<g id="edge6" class="edge">
<title>0xc0000c6360&#45;&gt;0xc0000c6300</title>
<path fill="none" stroke="black" d="M464.46,-45C472.11,-45 480.84,-45 489.82,-45"/>
<polygon fill="black" stroke="black" points="490.02,-48.5 500.02,-45 490.02,-41.5 490.02,-48.5"/>
</g>
</g>
</svg>
