<?xml version="1.0" encoding="UTF-8" standalone="no"?>
<!DOCTYPE svg PUBLIC "-//W3C//DTD SVG 1.1//EN"
 "http://www.w3.org/Graphics/SVG/1.1/DTD/svg11.dtd">
<!-- Generated by graphviz version 2.43.0 (0)
 -->
<!-- Title: computational_graph Pages: 1 -->
<svg width="662pt" height="125pt"
 viewBox="0.00 0.00 661.76 125.00" xmlns="http://www.w3.org/2000/svg" xmlns:xlink="http://www.w3.org/1999/xlink">
<g id="graph0" class="graph" transform="scale(1 1) rotate(0) translate(4 121)">
<title>computational_graph</title>
<polygon fill="white" stroke="transparent" points="-4,4 -4,-121 657.76,-121 657.76,4 -4,4"/>
<!-- 0x1234 -->
<g id="node1" class="node">
<title>0x1234</title>
<ellipse fill="none" stroke="black" cx="108.54" cy="-99" rx="104.78" ry="18"/>
<text text-anchor="middle" x="108.54" y="-95.3" font-family="Times,serif" font-size="14.00">Tensor|x|shape [3 4]</text>
</g>
<!-- 0x9abc -->
<g id="node3" class="node">
<title>0x9abc</title>
<polygon fill="none" stroke="black" points="485.92,-90 353.92,-90 353.92,-54 485.92,-54 485.92,-90"/>
<text text-anchor="middle" x="419.92" y="-68.3" font-family="Times,serif" font-size="14.00">MatMul|matmul</text>
</g>
<!-- 0x1234&#45;&gt;0x9abc -->
<g id="edge1" class="edge">
<title>0x1234&#45;&gt;0x9abc</title>
<path fill="none" stroke="black" d="M202.36,-90.9C247.51,-86.96 301.08,-82.28 343.64,-78.57"/>
<polygon fill="black" stroke="black" points="344,-82.05 353.66,-77.7 343.39,-75.08 344,-82.05"/>
<text text-anchor="middle" x="263.58" y="-90.8" font-family="Times,serif" font-size="14.00">MatMul</text>
</g>
<!-- 0x5678 -->
<g id="node2" class="node">
<title>0x5678</title>
<ellipse fill="none" stroke="black" cx="108.54" cy="-45" rx="108.58" ry="18"/>
<text text-anchor="middle" x="108.54" y="-41.3" font-family="Times,serif" font-size="14.00">Tensor|W|shape [4 2]</text>
</g>
<!-- 0x5678&#45;&gt;0x9abc -->
<g id="edge2" class="edge">
<title>0x5678&#45;&gt;0x9abc</title>
<path fill="none" stroke="black" d="M204.89,-53.32C249.5,-57.21 301.88,-61.79 343.65,-65.43"/>
<polygon fill="black" stroke="black" points="343.49,-68.93 353.76,-66.31 344.1,-61.96 343.49,-68.93"/>
<text text-anchor="middle" x="263.58" y="-63.8" font-family="Times,serif" font-size="14.00">MatMul</text>
</g>
<!-- 0x1357 -->
<g id="node5" class="node">
<title>0x1357</title>
<polygon fill="none" stroke="black" points="653.76,-51 578.76,-51 578.76,-15 653.76,-15 653.76,-51"/>
<text text-anchor="middle" x="616.26" y="-29.3" font-family="Times,serif" font-size="14.00">Add|add</text>
</g>
<!-- 0x9abc&#45;&gt;0x1357 -->
<g id="edge3" class="edge">
<title>0x9abc&#45;&gt;0x1357</title>
<path fill="none" stroke="black" d="M486.16,-60.57C509.72,-56.26 536.48,-51.15 560.76,-46 563.39,-45.44 566.09,-44.85 568.81,-44.25"/>
<polygon fill="black" stroke="black" points="569.7,-47.63 578.67,-41.99 568.15,-40.81 569.7,-47.63"/>
</g>
<!-- 0xdef0 -->
<g id="node4" class="node">
<title>0xdef0</title>
<ellipse fill="none" stroke="black" cx="419.92" cy="-18" rx="109.68" ry="18"/>
<text text-anchor="middle" x="419.92" y="-14.3" font-family="Times,serif" font-size="14.00">Tensor|bias|shape [2]</text>
</g>
<!-- 0xdef0&#45;&gt;0x1357 -->
<g id="edge4" class="edge">
<title>0xdef0&#45;&gt;0x1357</title>
<path fill="none" stroke="black" d="M519.51,-25.61C536.45,-26.92 553.33,-28.22 568.09,-29.36"/>
<polygon fill="black" stroke="black" points="568.2,-32.88 578.44,-30.16 568.73,-25.9 568.2,-32.88"/>
<text text-anchor="middle" x="554.26" y="-32.8" font-family="Times,serif" font-size="14.00">+</text>
</g>
</g>
</svg>
