<?xml version="1.0" encoding="UTF-8" standalone="no"?>
<!DOCTYPE svg PUBLIC "-//W3C//DTD SVG 1.1//EN"
 "http://www.w3.org/Graphics/SVG/1.1/DTD/svg11.dtd">
<!-- Generated by graphviz version 2.43.0 (0)
 -->
<!-- Title: %3 Pages: 1 -->
<svg width="611pt" height="1214pt"
 viewBox="0.00 0.00 610.50 1214.00" xmlns="http://www.w3.org/2000/svg" xmlns:xlink="http://www.w3.org/1999/xlink">
<g id="graph0" class="graph" transform="scale(1 1) rotate(0) translate(4 1210)">
<title>%3</title>
<polygon fill="white" stroke="transparent" points="-4,4 -4,-1210 606.5,-1210 606.5,4 -4,4"/>
<!-- 137162162111728 -->
<g id="node1" class="node">
<title>137162162111728</title>
<polygon fill="aliceblue" stroke="skyblue" points="254.5,-1206 181.5,-1206 181.5,-1168 254.5,-1168 254.5,-1206"/>
<text text-anchor="middle" x="218" y="-1190.8" font-family="Sans-Serif" font-size="14.00">tensor_1</text>
<text text-anchor="middle" x="218" y="-1175.8" font-family="Sans-Serif" font-size="14.00">(2, 3, 8)</text>
</g>
<!-- 137158552588384 -->
<g id="node2" class="node">
<title>137158552588384</title>
<polygon fill="lightgray" stroke="darkslategray" points="74,-1132 0,-1132 0,-1096 74,-1096 74,-1132"/>
<text text-anchor="middle" x="37" y="-1110.3" font-family="Courier Bold" font-size="14.00">reshape</text>
</g>
<!-- 137162162111728&#45;&gt;137158552588384 -->
<g id="edge4" class="edge">
<title>137162162111728&#45;&gt;137158552588384</title>
<path fill="none" stroke="#666666" stroke-width="1.2" d="M181.21,-1173.63C152.41,-1162.97 112.39,-1147.39 81.76,-1134.96"/>
<polygon fill="#666666" stroke="#666666" stroke-width="1.2" points="82.65,-1132.31 74.19,-1131.88 80.54,-1137.49 82.65,-1132.31"/>
</g>
<!-- 137158552589680 -->
<g id="node4" class="node">
<title>137158552589680</title>
<polygon fill="lightgray" stroke="darkslategray" points="191.5,-1132 92.5,-1132 92.5,-1096 191.5,-1096 191.5,-1132"/>
<text text-anchor="middle" x="142" y="-1110.3" font-family="Courier Bold" font-size="14.00">div_scalar</text>
</g>
<!-- 137162162111728&#45;&gt;137158552589680 -->
<g id="edge6" class="edge">
<title>137162162111728&#45;&gt;137158552589680</title>
<path fill="none" stroke="#666666" stroke-width="1.2" d="M192.44,-1167.72C181.8,-1158.6 169.78,-1147.48 160.06,-1137.81"/>
<polygon fill="#666666" stroke="#666666" stroke-width="1.2" points="161.95,-1135.74 154.34,-1132 157.96,-1139.67 161.95,-1135.74"/>
</g>
<!-- 137158552589296 -->
<g id="node6" class="node">
<title>137158552589296</title>
<polygon fill="lightgray" stroke="darkslategray" points="347.5,-1132 248.5,-1132 248.5,-1096 347.5,-1096 347.5,-1132"/>
<text text-anchor="middle" x="298" y="-1110.3" font-family="Courier Bold" font-size="14.00">add_scalar</text>
</g>
<!-- 137162162111728&#45;&gt;137158552589296 -->
<g id="edge8" class="edge">
<title>137162162111728&#45;&gt;137158552589296</title>
<path fill="none" stroke="#666666" stroke-width="1.2" d="M232.61,-1167.72C242.19,-1158.42 254.89,-1147.06 266.6,-1137.26"/>
<polygon fill="#666666" stroke="#666666" stroke-width="1.2" points="268.59,-1139.25 272.98,-1132 265.03,-1134.93 268.59,-1139.25"/>
</g>
<!-- 137158552593280 -->
<g id="node14" class="node">
<title>137158552593280</title>
<polygon fill="lightgray" stroke="darkslategray" points="464.5,-1132 365.5,-1132 365.5,-1096 464.5,-1096 464.5,-1132"/>
<text text-anchor="middle" x="415" y="-1110.3" font-family="Courier Bold" font-size="14.00">pow_scalar</text>
</g>
<!-- 137162162111728&#45;&gt;137158552593280 -->
<g id="edge14" class="edge">
<title>137162162111728&#45;&gt;137158552593280</title>
<path fill="none" stroke="#666666" stroke-width="1.2" d="M254.61,-1171.54C257.78,-1170.33 260.94,-1169.13 264,-1168 294.71,-1156.6 329.17,-1144.46 357.4,-1134.68"/>
<polygon fill="#666666" stroke="#666666" stroke-width="1.2" points="358.55,-1137.25 365.19,-1131.98 356.72,-1131.95 358.55,-1137.25"/>
</g>
<!-- 137158552595536 -->
<g id="node31" class="node">
<title>137158552595536</title>
<polygon fill="lightgray" stroke="darkslategray" points="300,-256 246,-256 246,-220 300,-220 300,-256"/>
<text text-anchor="middle" x="273" y="-234.3" font-family="Courier Bold" font-size="14.00">mul</text>
</g>
<!-- 137162162111728&#45;&gt;137158552595536 -->
<g id="edge31" class="edge">
<title>137162162111728&#45;&gt;137158552595536</title>
<path fill="none" stroke="#666666" stroke-width="1.2" d="M218.41,-1167.82C219,-1140.5 220,-1087.25 220,-1042 220,-1042 220,-1042 220,-383 220,-338.74 242.33,-291.27 258,-263.41"/>
<polygon fill="#666666" stroke="#666666" stroke-width="1.2" points="260.45,-264.75 262.02,-256.42 255.6,-261.96 260.45,-264.75"/>
</g>
<!-- 137158552588384&#45;&gt;137162162111728 -->
<g id="edge1" class="edge">
<title>137158552588384&#45;&gt;137162162111728</title>
<path fill="none" stroke="#666666" stroke-width="1.2" d="M74.28,-1127.55C103.23,-1138.27 143.31,-1153.88 173.84,-1166.28"/>
<polygon fill="#666666" stroke="#666666" stroke-width="1.2" points="172.92,-1168.93 181.38,-1169.35 175.03,-1163.74 172.92,-1168.93"/>
</g>
<!-- 137158552589008 -->
<g id="node3" class="node">
<title>137158552589008</title>
<polygon fill="honeydew" stroke="darkseagreen" points="73,-1206 1,-1206 1,-1168 73,-1168 73,-1206"/>
<text text-anchor="middle" x="37" y="-1190.8" font-family="Sans-Serif" font-size="14.00">vector_1</text>
<text text-anchor="middle" x="37" y="-1175.8" font-family="Sans-Serif" font-size="14.00">(2, 3, 8)</text>
</g>
<!-- 137158552589008&#45;&gt;137158552588384 -->
<g id="edge5" class="edge">
<title>137158552589008&#45;&gt;137158552588384</title>
<path fill="none" stroke="#666666" stroke-width="1.2" d="M37,-1167.72C37,-1159.29 37,-1149.15 37,-1140.02"/>
<polygon fill="#666666" stroke="#666666" stroke-width="1.2" points="39.8,-1140 37,-1132 34.2,-1140 39.8,-1140"/>
</g>
<!-- 137158552589680&#45;&gt;137162162111728 -->
<g id="edge2" class="edge">
<title>137158552589680&#45;&gt;137162162111728</title>
<path fill="none" stroke="#666666" stroke-width="1.2" d="M166.06,-1132C176.56,-1140.93 188.61,-1152.01 198.54,-1161.81"/>
<polygon fill="#666666" stroke="#666666" stroke-width="1.2" points="196.79,-1164.02 204.42,-1167.72 200.76,-1160.07 196.79,-1164.02"/>
</g>
<!-- 137158552589776 -->
<g id="node5" class="node">
<title>137158552589776</title>
<polygon fill="moccasin" stroke="orange" points="163,-1206 109,-1206 109,-1168 163,-1168 163,-1206"/>
<text text-anchor="middle" x="136" y="-1190.8" font-family="Sans-Serif" font-size="14.00">var_1</text>
<text text-anchor="middle" x="136" y="-1175.8" font-family="Sans-Serif" font-size="14.00">10.0</text>
</g>
<!-- 137158552589776&#45;&gt;137158552589680 -->
<g id="edge7" class="edge">
<title>137158552589776&#45;&gt;137158552589680</title>
<path fill="none" stroke="#666666" stroke-width="1.2" d="M137.55,-1167.72C138.26,-1159.29 139.11,-1149.15 139.89,-1140.02"/>
<polygon fill="#666666" stroke="#666666" stroke-width="1.2" points="142.68,-1140.21 140.56,-1132 137.1,-1139.74 142.68,-1140.21"/>
</g>
<!-- 137158552589296&#45;&gt;137162162111728 -->
<g id="edge3" class="edge">
<title>137158552589296&#45;&gt;137162162111728</title>
<path fill="none" stroke="#666666" stroke-width="1.2" d="M284.7,-1132C275.42,-1141.09 262.83,-1152.43 251.04,-1162.36"/>
<polygon fill="#666666" stroke="#666666" stroke-width="1.2" points="248.96,-1160.45 244.59,-1167.72 252.53,-1164.76 248.96,-1160.45"/>
</g>
<!-- 137158552589488 -->
<g id="node7" class="node">
<title>137158552589488</title>
<polygon fill="moccasin" stroke="orange" points="327,-1206 273,-1206 273,-1168 327,-1168 327,-1206"/>
<text text-anchor="middle" x="300" y="-1190.8" font-family="Sans-Serif" font-size="14.00">var_2</text>
<text text-anchor="middle" x="300" y="-1175.8" font-family="Sans-Serif" font-size="14.00">&#45;2.0</text>
</g>
<!-- 137158552589488&#45;&gt;137158552589296 -->
<g id="edge9" class="edge">
<title>137158552589488&#45;&gt;137158552589296</title>
<path fill="none" stroke="#666666" stroke-width="1.2" d="M299.48,-1167.72C299.25,-1159.29 298.96,-1149.15 298.7,-1140.02"/>
<polygon fill="#666666" stroke="#666666" stroke-width="1.2" points="301.5,-1139.92 298.48,-1132 295.91,-1140.08 301.5,-1139.92"/>
</g>
<!-- 137158552592944 -->
<g id="node8" class="node">
<title>137158552592944</title>
<polygon fill="aliceblue" stroke="skyblue" points="597.5,-1060 524.5,-1060 524.5,-1022 597.5,-1022 597.5,-1060"/>
<text text-anchor="middle" x="561" y="-1044.8" font-family="Sans-Serif" font-size="14.00">tensor_2</text>
<text text-anchor="middle" x="561" y="-1029.8" font-family="Sans-Serif" font-size="14.00">(8,)</text>
</g>
<!-- 137158552592704 -->
<g id="node9" class="node">
<title>137158552592704</title>
<polygon fill="lightgray" stroke="darkslategray" points="602.5,-1132 519.5,-1132 519.5,-1096 602.5,-1096 602.5,-1132"/>
<text text-anchor="middle" x="561" y="-1110.3" font-family="Courier Bold" font-size="14.00">constant</text>
</g>
<!-- 137158552592704&#45;&gt;137158552592944 -->
<g id="edge10" class="edge">
<title>137158552592704&#45;&gt;137158552592944</title>
<path fill="none" stroke="#666666" stroke-width="1.2" d="M561,-1095.81C561,-1087.52 561,-1077.39 561,-1068.16"/>
<polygon fill="#666666" stroke="#666666" stroke-width="1.2" points="563.8,-1068.02 561,-1060.02 558.2,-1068.02 563.8,-1068.02"/>
</g>
<!-- 137158552593088 -->
<g id="node10" class="node">
<title>137158552593088</title>
<polygon fill="moccasin" stroke="orange" points="588,-1206 534,-1206 534,-1168 588,-1168 588,-1206"/>
<text text-anchor="middle" x="561" y="-1190.8" font-family="Sans-Serif" font-size="14.00">var_3</text>
<text text-anchor="middle" x="561" y="-1175.8" font-family="Sans-Serif" font-size="14.00">1</text>
</g>
<!-- 137158552593088&#45;&gt;137158552592704 -->
<g id="edge11" class="edge">
<title>137158552593088&#45;&gt;137158552592704</title>
<path fill="none" stroke="#666666" stroke-width="1.2" d="M561,-1167.72C561,-1159.29 561,-1149.15 561,-1140.02"/>
<polygon fill="#666666" stroke="#666666" stroke-width="1.2" points="563.8,-1140 561,-1132 558.2,-1140 563.8,-1140"/>
</g>
<!-- 137158552592848 -->
<g id="node11" class="node">
<title>137158552592848</title>
<polygon fill="aliceblue" stroke="skyblue" points="215,-184 9,-184 9,-146 215,-146 215,-184"/>
<text text-anchor="middle" x="112" y="-168.8" font-family="Sans-Serif" font-size="14.00">llama_r_m_s_norm_0.weight</text>
<text text-anchor="middle" x="112" y="-153.8" font-family="Sans-Serif" font-size="14.00">(8,)</text>
</g>
<!-- 137158552595872 -->
<g id="node33" class="node">
<title>137158552595872</title>
<polygon fill="lightgray" stroke="darkslategray" points="219,-110 165,-110 165,-74 219,-74 219,-110"/>
<text text-anchor="middle" x="192" y="-88.3" font-family="Courier Bold" font-size="14.00">mul</text>
</g>
<!-- 137158552592848&#45;&gt;137158552595872 -->
<g id="edge34" class="edge">
<title>137158552592848&#45;&gt;137158552595872</title>
<path fill="none" stroke="#666666" stroke-width="1.2" d="M132.6,-145.72C142.97,-136.51 155.64,-125.27 166.61,-115.53"/>
<polygon fill="#666666" stroke="#666666" stroke-width="1.2" points="168.72,-117.41 172.84,-110 165,-113.22 168.72,-117.41"/>
</g>
<!-- 137158552592800 -->
<g id="node12" class="node">
<title>137158552592800</title>
<polygon fill="lightgray" stroke="darkslategray" points="153.5,-256 70.5,-256 70.5,-220 153.5,-220 153.5,-256"/>
<text text-anchor="middle" x="112" y="-234.3" font-family="Courier Bold" font-size="14.00">constant</text>
</g>
<!-- 137158552592800&#45;&gt;137158552592848 -->
<g id="edge12" class="edge">
<title>137158552592800&#45;&gt;137158552592848</title>
<path fill="none" stroke="#666666" stroke-width="1.2" d="M112,-219.81C112,-211.52 112,-201.39 112,-192.16"/>
<polygon fill="#666666" stroke="#666666" stroke-width="1.2" points="114.8,-192.02 112,-184.02 109.2,-192.02 114.8,-192.02"/>
</g>
<!-- 137158552593184 -->
<g id="node13" class="node">
<title>137158552593184</title>
<polygon fill="moccasin" stroke="orange" points="139,-330 85,-330 85,-292 139,-292 139,-330"/>
<text text-anchor="middle" x="112" y="-314.8" font-family="Sans-Serif" font-size="14.00">var_4</text>
<text text-anchor="middle" x="112" y="-299.8" font-family="Sans-Serif" font-size="14.00">0.5</text>
</g>
<!-- 137158552593184&#45;&gt;137158552592800 -->
<g id="edge13" class="edge">
<title>137158552593184&#45;&gt;137158552592800</title>
<path fill="none" stroke="#666666" stroke-width="1.2" d="M112,-291.72C112,-283.29 112,-273.15 112,-264.02"/>
<polygon fill="#666666" stroke="#666666" stroke-width="1.2" points="114.8,-264 112,-256 109.2,-264 114.8,-264"/>
</g>
<!-- 137158552593424 -->
<g id="node16" class="node">
<title>137158552593424</title>
<polygon fill="aliceblue" stroke="skyblue" points="414.5,-1060 341.5,-1060 341.5,-1022 414.5,-1022 414.5,-1060"/>
<text text-anchor="middle" x="378" y="-1044.8" font-family="Sans-Serif" font-size="14.00">tensor_4</text>
<text text-anchor="middle" x="378" y="-1029.8" font-family="Sans-Serif" font-size="14.00">(2, 3, 8)</text>
</g>
<!-- 137158552593280&#45;&gt;137158552593424 -->
<g id="edge16" class="edge">
<title>137158552593280&#45;&gt;137158552593424</title>
<path fill="none" stroke="#666666" stroke-width="1.2" d="M406.04,-1095.81C401.59,-1087.26 396.12,-1076.76 391.19,-1067.31"/>
<polygon fill="#666666" stroke="#666666" stroke-width="1.2" points="393.57,-1065.82 387.39,-1060.02 388.6,-1068.41 393.57,-1065.82"/>
</g>
<!-- 137158552593232 -->
<g id="node15" class="node">
<title>137158552593232</title>
<polygon fill="moccasin" stroke="orange" points="442,-1206 388,-1206 388,-1168 442,-1168 442,-1206"/>
<text text-anchor="middle" x="415" y="-1190.8" font-family="Sans-Serif" font-size="14.00">var_5</text>
<text text-anchor="middle" x="415" y="-1175.8" font-family="Sans-Serif" font-size="14.00">2</text>
</g>
<!-- 137158552593232&#45;&gt;137158552593280 -->
<g id="edge15" class="edge">
<title>137158552593232&#45;&gt;137158552593280</title>
<path fill="none" stroke="#666666" stroke-width="1.2" d="M415,-1167.72C415,-1159.29 415,-1149.15 415,-1140.02"/>
<polygon fill="#666666" stroke="#666666" stroke-width="1.2" points="417.8,-1140 415,-1132 412.2,-1140 417.8,-1140"/>
</g>
<!-- 137158552593952 -->
<g id="node19" class="node">
<title>137158552593952</title>
<polygon fill="lightgray" stroke="darkslategray" points="405,-986 351,-986 351,-950 405,-950 405,-986"/>
<text text-anchor="middle" x="378" y="-964.3" font-family="Courier Bold" font-size="14.00">sum</text>
</g>
<!-- 137158552593424&#45;&gt;137158552593952 -->
<g id="edge18" class="edge">
<title>137158552593424&#45;&gt;137158552593952</title>
<path fill="none" stroke="#666666" stroke-width="1.2" d="M378,-1021.72C378,-1013.29 378,-1003.15 378,-994.02"/>
<polygon fill="#666666" stroke="#666666" stroke-width="1.2" points="380.8,-994 378,-986 375.2,-994 380.8,-994"/>
</g>
<!-- 137158552593616 -->
<g id="node17" class="node">
<title>137158552593616</title>
<polygon fill="aliceblue" stroke="skyblue" points="383.5,-914 310.5,-914 310.5,-876 383.5,-876 383.5,-914"/>
<text text-anchor="middle" x="347" y="-898.8" font-family="Sans-Serif" font-size="14.00">tensor_5</text>
<text text-anchor="middle" x="347" y="-883.8" font-family="Sans-Serif" font-size="14.00">(2, 3, 1)</text>
</g>
<!-- 137158552594288 -->
<g id="node21" class="node">
<title>137158552594288</title>
<polygon fill="lightgray" stroke="darkslategray" points="396.5,-840 297.5,-840 297.5,-804 396.5,-804 396.5,-840"/>
<text text-anchor="middle" x="347" y="-818.3" font-family="Courier Bold" font-size="14.00">div_scalar</text>
</g>
<!-- 137158552593616&#45;&gt;137158552594288 -->
<g id="edge21" class="edge">
<title>137158552593616&#45;&gt;137158552594288</title>
<path fill="none" stroke="#666666" stroke-width="1.2" d="M347,-875.72C347,-867.29 347,-857.15 347,-848.02"/>
<polygon fill="#666666" stroke="#666666" stroke-width="1.2" points="349.8,-848 347,-840 344.2,-848 349.8,-848"/>
</g>
<!-- 137158552593856 -->
<g id="node18" class="node">
<title>137158552593856</title>
<polygon fill="honeydew" stroke="darkseagreen" points="505,-1060 433,-1060 433,-1022 505,-1022 505,-1060"/>
<text text-anchor="middle" x="469" y="-1044.8" font-family="Sans-Serif" font-size="14.00">vector_2</text>
<text text-anchor="middle" x="469" y="-1029.8" font-family="Sans-Serif" font-size="14.00">[2]</text>
</g>
<!-- 137158552593856&#45;&gt;137158552593952 -->
<g id="edge19" class="edge">
<title>137158552593856&#45;&gt;137158552593952</title>
<path fill="none" stroke="#666666" stroke-width="1.2" d="M445.57,-1021.72C433.55,-1012.34 418.82,-1000.85 406.18,-990.99"/>
<polygon fill="#666666" stroke="#666666" stroke-width="1.2" points="407.82,-988.72 399.79,-986 404.38,-993.13 407.82,-988.72"/>
</g>
<!-- 137158552593952&#45;&gt;137158552593616 -->
<g id="edge17" class="edge">
<title>137158552593952&#45;&gt;137158552593616</title>
<path fill="none" stroke="#666666" stroke-width="1.2" d="M370.5,-949.81C366.8,-941.35 362.27,-930.97 358.18,-921.6"/>
<polygon fill="#666666" stroke="#666666" stroke-width="1.2" points="360.63,-920.23 354.87,-914.02 355.5,-922.47 360.63,-920.23"/>
</g>
<!-- 137158552594192 -->
<g id="node20" class="node">
<title>137158552594192</title>
<polygon fill="aliceblue" stroke="skyblue" points="381.5,-768 308.5,-768 308.5,-730 381.5,-730 381.5,-768"/>
<text text-anchor="middle" x="345" y="-752.8" font-family="Sans-Serif" font-size="14.00">tensor_6</text>
<text text-anchor="middle" x="345" y="-737.8" font-family="Sans-Serif" font-size="14.00">(2, 3, 1)</text>
</g>
<!-- 137158552594432 -->
<g id="node23" class="node">
<title>137158552594432</title>
<polygon fill="lightgray" stroke="darkslategray" points="394.5,-694 295.5,-694 295.5,-658 394.5,-658 394.5,-694"/>
<text text-anchor="middle" x="345" y="-672.3" font-family="Courier Bold" font-size="14.00">add_scalar</text>
</g>
<!-- 137158552594192&#45;&gt;137158552594432 -->
<g id="edge23" class="edge">
<title>137158552594192&#45;&gt;137158552594432</title>
<path fill="none" stroke="#666666" stroke-width="1.2" d="M345,-729.72C345,-721.29 345,-711.15 345,-702.02"/>
<polygon fill="#666666" stroke="#666666" stroke-width="1.2" points="347.8,-702 345,-694 342.2,-702 347.8,-702"/>
</g>
<!-- 137158552594288&#45;&gt;137158552594192 -->
<g id="edge20" class="edge">
<title>137158552594288&#45;&gt;137158552594192</title>
<path fill="none" stroke="#666666" stroke-width="1.2" d="M346.52,-803.81C346.28,-795.52 346,-785.39 345.74,-776.16"/>
<polygon fill="#666666" stroke="#666666" stroke-width="1.2" points="348.53,-775.94 345.51,-768.02 342.93,-776.1 348.53,-775.94"/>
</g>
<!-- 137158552594240 -->
<g id="node22" class="node">
<title>137158552594240</title>
<polygon fill="moccasin" stroke="orange" points="456,-914 402,-914 402,-876 456,-876 456,-914"/>
<text text-anchor="middle" x="429" y="-898.8" font-family="Sans-Serif" font-size="14.00">var_6</text>
<text text-anchor="middle" x="429" y="-883.8" font-family="Sans-Serif" font-size="14.00">8</text>
</g>
<!-- 137158552594240&#45;&gt;137158552594288 -->
<g id="edge22" class="edge">
<title>137158552594240&#45;&gt;137158552594288</title>
<path fill="none" stroke="#666666" stroke-width="1.2" d="M407.88,-875.72C397.15,-866.42 384.02,-855.06 372.71,-845.26"/>
<polygon fill="#666666" stroke="#666666" stroke-width="1.2" points="374.52,-843.12 366.64,-840 370.85,-847.36 374.52,-843.12"/>
</g>
<!-- 137158552594576 -->
<g id="node25" class="node">
<title>137158552594576</title>
<polygon fill="aliceblue" stroke="skyblue" points="373.5,-622 300.5,-622 300.5,-584 373.5,-584 373.5,-622"/>
<text text-anchor="middle" x="337" y="-606.8" font-family="Sans-Serif" font-size="14.00">tensor_7</text>
<text text-anchor="middle" x="337" y="-591.8" font-family="Sans-Serif" font-size="14.00">(2, 3, 1)</text>
</g>
<!-- 137158552594432&#45;&gt;137158552594576 -->
<g id="edge25" class="edge">
<title>137158552594432&#45;&gt;137158552594576</title>
<path fill="none" stroke="#666666" stroke-width="1.2" d="M343.06,-657.81C342.13,-649.52 340.99,-639.39 339.95,-630.16"/>
<polygon fill="#666666" stroke="#666666" stroke-width="1.2" points="342.71,-629.66 339.03,-622.02 337.14,-630.28 342.71,-629.66"/>
</g>
<!-- 137158552594384 -->
<g id="node24" class="node">
<title>137158552594384</title>
<polygon fill="moccasin" stroke="orange" points="454,-768 400,-768 400,-730 454,-730 454,-768"/>
<text text-anchor="middle" x="427" y="-752.8" font-family="Sans-Serif" font-size="14.00">var_7</text>
<text text-anchor="middle" x="427" y="-737.8" font-family="Sans-Serif" font-size="14.00">1e&#45;06</text>
</g>
<!-- 137158552594384&#45;&gt;137158552594432 -->
<g id="edge24" class="edge">
<title>137158552594384&#45;&gt;137158552594432</title>
<path fill="none" stroke="#666666" stroke-width="1.2" d="M405.88,-729.72C395.15,-720.42 382.02,-709.06 370.71,-699.26"/>
<polygon fill="#666666" stroke="#666666" stroke-width="1.2" points="372.52,-697.12 364.64,-694 368.85,-701.36 372.52,-697.12"/>
</g>
<!-- 137158552595056 -->
<g id="node27" class="node">
<title>137158552595056</title>
<polygon fill="lightgray" stroke="darkslategray" points="360,-548 306,-548 306,-512 360,-512 360,-548"/>
<text text-anchor="middle" x="333" y="-526.3" font-family="Courier Bold" font-size="14.00">sqrt</text>
</g>
<!-- 137158552594576&#45;&gt;137158552595056 -->
<g id="edge27" class="edge">
<title>137158552594576&#45;&gt;137158552595056</title>
<path fill="none" stroke="#666666" stroke-width="1.2" d="M335.97,-583.72C335.49,-575.29 334.92,-565.15 334.41,-556.02"/>
<polygon fill="#666666" stroke="#666666" stroke-width="1.2" points="337.2,-555.83 333.96,-548 331.61,-556.15 337.2,-555.83"/>
</g>
<!-- 137158552594816 -->
<g id="node26" class="node">
<title>137158552594816</title>
<polygon fill="aliceblue" stroke="skyblue" points="354.5,-476 281.5,-476 281.5,-438 354.5,-438 354.5,-476"/>
<text text-anchor="middle" x="318" y="-460.8" font-family="Sans-Serif" font-size="14.00">tensor_8</text>
<text text-anchor="middle" x="318" y="-445.8" font-family="Sans-Serif" font-size="14.00">(2, 3, 1)</text>
</g>
<!-- 137158552595152 -->
<g id="node28" class="node">
<title>137158552595152</title>
<polygon fill="lightgray" stroke="darkslategray" points="371.5,-402 264.5,-402 264.5,-366 371.5,-366 371.5,-402"/>
<text text-anchor="middle" x="318" y="-380.3" font-family="Courier Bold" font-size="14.00">rdiv_scalar</text>
</g>
<!-- 137158552594816&#45;&gt;137158552595152 -->
<g id="edge29" class="edge">
<title>137158552594816&#45;&gt;137158552595152</title>
<path fill="none" stroke="#666666" stroke-width="1.2" d="M318,-437.72C318,-429.29 318,-419.15 318,-410.02"/>
<polygon fill="#666666" stroke="#666666" stroke-width="1.2" points="320.8,-410 318,-402 315.2,-410 320.8,-410"/>
</g>
<!-- 137158552595056&#45;&gt;137158552594816 -->
<g id="edge26" class="edge">
<title>137158552595056&#45;&gt;137158552594816</title>
<path fill="none" stroke="#666666" stroke-width="1.2" d="M329.37,-511.81C327.6,-503.43 325.43,-493.18 323.47,-483.88"/>
<polygon fill="#666666" stroke="#666666" stroke-width="1.2" points="326.2,-483.27 321.81,-476.02 320.72,-484.43 326.2,-483.27"/>
</g>
<!-- 137158552595296 -->
<g id="node30" class="node">
<title>137158552595296</title>
<polygon fill="aliceblue" stroke="skyblue" points="338.5,-330 265.5,-330 265.5,-292 338.5,-292 338.5,-330"/>
<text text-anchor="middle" x="302" y="-314.8" font-family="Sans-Serif" font-size="14.00">tensor_9</text>
<text text-anchor="middle" x="302" y="-299.8" font-family="Sans-Serif" font-size="14.00">(2, 3, 1)</text>
</g>
<!-- 137158552595152&#45;&gt;137158552595296 -->
<g id="edge30" class="edge">
<title>137158552595152&#45;&gt;137158552595296</title>
<path fill="none" stroke="#666666" stroke-width="1.2" d="M314.13,-365.81C312.24,-357.43 309.93,-347.18 307.83,-337.88"/>
<polygon fill="#666666" stroke="#666666" stroke-width="1.2" points="310.55,-337.21 306.06,-330.02 305.09,-338.44 310.55,-337.21"/>
</g>
<!-- 137158552595008 -->
<g id="node29" class="node">
<title>137158552595008</title>
<polygon fill="moccasin" stroke="orange" points="427,-476 373,-476 373,-438 427,-438 427,-476"/>
<text text-anchor="middle" x="400" y="-460.8" font-family="Sans-Serif" font-size="14.00">var_8</text>
<text text-anchor="middle" x="400" y="-445.8" font-family="Sans-Serif" font-size="14.00">1</text>
</g>
<!-- 137158552595008&#45;&gt;137158552595152 -->
<g id="edge28" class="edge">
<title>137158552595008&#45;&gt;137158552595152</title>
<path fill="none" stroke="#666666" stroke-width="1.2" d="M378.88,-437.72C368.15,-428.42 355.02,-417.06 343.71,-407.26"/>
<polygon fill="#666666" stroke="#666666" stroke-width="1.2" points="345.52,-405.12 337.64,-402 341.85,-409.36 345.52,-405.12"/>
</g>
<!-- 137158552595296&#45;&gt;137158552595536 -->
<g id="edge32" class="edge">
<title>137158552595296&#45;&gt;137158552595536</title>
<path fill="none" stroke="#666666" stroke-width="1.2" d="M294.53,-291.72C291.02,-283.11 286.78,-272.73 282.99,-263.46"/>
<polygon fill="#666666" stroke="#666666" stroke-width="1.2" points="285.56,-262.35 279.95,-256 280.38,-264.47 285.56,-262.35"/>
</g>
<!-- 137158552595632 -->
<g id="node32" class="node">
<title>137158552595632</title>
<polygon fill="aliceblue" stroke="skyblue" points="313,-184 233,-184 233,-146 313,-146 313,-184"/>
<text text-anchor="middle" x="273" y="-168.8" font-family="Sans-Serif" font-size="14.00">tensor_10</text>
<text text-anchor="middle" x="273" y="-153.8" font-family="Sans-Serif" font-size="14.00">(2, 3, 8)</text>
</g>
<!-- 137158552595536&#45;&gt;137158552595632 -->
<g id="edge33" class="edge">
<title>137158552595536&#45;&gt;137158552595632</title>
<path fill="none" stroke="#666666" stroke-width="1.2" d="M273,-219.81C273,-211.52 273,-201.39 273,-192.16"/>
<polygon fill="#666666" stroke="#666666" stroke-width="1.2" points="275.8,-192.02 273,-184.02 270.2,-192.02 275.8,-192.02"/>
</g>
<!-- 137158552595632&#45;&gt;137158552595872 -->
<g id="edge35" class="edge">
<title>137158552595632&#45;&gt;137158552595872</title>
<path fill="none" stroke="#666666" stroke-width="1.2" d="M252.14,-145.72C241.64,-136.51 228.81,-125.27 217.71,-115.53"/>
<polygon fill="#666666" stroke="#666666" stroke-width="1.2" points="219.26,-113.17 211.4,-110 215.57,-117.38 219.26,-113.17"/>
</g>
<!-- 137158552595968 -->
<g id="node34" class="node">
<title>137158552595968</title>
<polygon fill="aliceblue" stroke="skyblue" points="232,-38 152,-38 152,0 232,0 232,-38"/>
<text text-anchor="middle" x="192" y="-22.8" font-family="Sans-Serif" font-size="14.00">tensor_11</text>
<text text-anchor="middle" x="192" y="-7.8" font-family="Sans-Serif" font-size="14.00">(8,)</text>
</g>
<!-- 137158552595872&#45;&gt;137158552595968 -->
<g id="edge36" class="edge">
<title>137158552595872&#45;&gt;137158552595968</title>
<path fill="none" stroke="#666666" stroke-width="1.2" d="M192,-73.81C192,-65.52 192,-55.39 192,-46.16"/>
<polygon fill="#666666" stroke="#666666" stroke-width="1.2" points="194.8,-46.02 192,-38.02 189.2,-46.02 194.8,-46.02"/>
</g>
</g>
</svg>
