<?xml version="1.0" encoding="UTF-8" standalone="no"?>
<!DOCTYPE svg PUBLIC "-//W3C//DTD SVG 1.1//EN"
 "http://www.w3.org/Graphics/SVG/1.1/DTD/svg11.dtd">
<!-- Generated by graphviz version 2.43.0 (0)
 -->
<!-- Title: %3 Pages: 1 -->
<svg width="740pt" height="1506pt"
 viewBox="0.00 0.00 740.00 1506.00" xmlns="http://www.w3.org/2000/svg" xmlns:xlink="http://www.w3.org/1999/xlink">
<g id="graph0" class="graph" transform="scale(1 1) rotate(0) translate(4 1502)">
<title>%3</title>
<polygon fill="white" stroke="transparent" points="-4,4 -4,-1502 736,-1502 736,4 -4,4"/>
<!-- 130357533018672 -->
<g id="node1" class="node">
<title>130357533018672</title>
<polygon fill="aliceblue" stroke="skyblue" points="254.5,-1498 181.5,-1498 181.5,-1460 254.5,-1460 254.5,-1498"/>
<text text-anchor="middle" x="218" y="-1482.8" font-family="Sans-Serif" font-size="14.00">tensor_1</text>
<text text-anchor="middle" x="218" y="-1467.8" font-family="Sans-Serif" font-size="14.00">(2, 3, 8)</text>
</g>
<!-- 130357533019536 -->
<g id="node2" class="node">
<title>130357533019536</title>
<polygon fill="lightgray" stroke="darkslategray" points="74,-1424 0,-1424 0,-1388 74,-1388 74,-1424"/>
<text text-anchor="middle" x="37" y="-1402.3" font-family="Courier Bold" font-size="14.00">reshape</text>
</g>
<!-- 130357533018672&#45;&gt;130357533019536 -->
<g id="edge4" class="edge">
<title>130357533018672&#45;&gt;130357533019536</title>
<path fill="none" stroke="#666666" stroke-width="1.2" d="M181.21,-1465.63C152.41,-1454.97 112.39,-1439.39 81.76,-1426.96"/>
<polygon fill="#666666" stroke="#666666" stroke-width="1.2" points="82.65,-1424.31 74.19,-1423.88 80.54,-1429.49 82.65,-1424.31"/>
</g>
<!-- 130357533738896 -->
<g id="node4" class="node">
<title>130357533738896</title>
<polygon fill="lightgray" stroke="darkslategray" points="191.5,-1424 92.5,-1424 92.5,-1388 191.5,-1388 191.5,-1424"/>
<text text-anchor="middle" x="142" y="-1402.3" font-family="Courier Bold" font-size="14.00">div_scalar</text>
</g>
<!-- 130357533018672&#45;&gt;130357533738896 -->
<g id="edge6" class="edge">
<title>130357533018672&#45;&gt;130357533738896</title>
<path fill="none" stroke="#666666" stroke-width="1.2" d="M192.44,-1459.72C181.8,-1450.6 169.78,-1439.48 160.06,-1429.81"/>
<polygon fill="#666666" stroke="#666666" stroke-width="1.2" points="161.95,-1427.74 154.34,-1424 157.96,-1431.67 161.95,-1427.74"/>
</g>
<!-- 130357533752528 -->
<g id="node6" class="node">
<title>130357533752528</title>
<polygon fill="lightgray" stroke="darkslategray" points="347.5,-1424 248.5,-1424 248.5,-1388 347.5,-1388 347.5,-1424"/>
<text text-anchor="middle" x="298" y="-1402.3" font-family="Courier Bold" font-size="14.00">add_scalar</text>
</g>
<!-- 130357533018672&#45;&gt;130357533752528 -->
<g id="edge8" class="edge">
<title>130357533018672&#45;&gt;130357533752528</title>
<path fill="none" stroke="#666666" stroke-width="1.2" d="M232.61,-1459.72C242.19,-1450.42 254.89,-1439.06 266.6,-1429.26"/>
<polygon fill="#666666" stroke="#666666" stroke-width="1.2" points="268.59,-1431.25 272.98,-1424 265.03,-1426.93 268.59,-1431.25"/>
</g>
<!-- 130357533749840 -->
<g id="node14" class="node">
<title>130357533749840</title>
<polygon fill="lightgray" stroke="darkslategray" points="464.5,-1424 365.5,-1424 365.5,-1388 464.5,-1388 464.5,-1424"/>
<text text-anchor="middle" x="415" y="-1402.3" font-family="Courier Bold" font-size="14.00">pow_scalar</text>
</g>
<!-- 130357533018672&#45;&gt;130357533749840 -->
<g id="edge14" class="edge">
<title>130357533018672&#45;&gt;130357533749840</title>
<path fill="none" stroke="#666666" stroke-width="1.2" d="M254.61,-1463.54C257.78,-1462.33 260.94,-1461.13 264,-1460 294.71,-1448.6 329.17,-1436.46 357.4,-1426.68"/>
<polygon fill="#666666" stroke="#666666" stroke-width="1.2" points="358.55,-1429.25 365.19,-1423.98 356.72,-1423.95 358.55,-1429.25"/>
</g>
<!-- 130357533746864 -->
<g id="node37" class="node">
<title>130357533746864</title>
<polygon fill="lightgray" stroke="darkslategray" points="337,-256 283,-256 283,-220 337,-220 337,-256"/>
<text text-anchor="middle" x="310" y="-234.3" font-family="Courier Bold" font-size="14.00">mul</text>
</g>
<!-- 130357533018672&#45;&gt;130357533746864 -->
<g id="edge37" class="edge">
<title>130357533018672&#45;&gt;130357533746864</title>
<path fill="none" stroke="#666666" stroke-width="1.2" d="M218.41,-1459.82C219,-1432.5 220,-1379.25 220,-1334 220,-1334 220,-1334 220,-383 220,-334.21 257.61,-288.33 284.2,-261.98"/>
<polygon fill="#666666" stroke="#666666" stroke-width="1.2" points="286.22,-263.92 290.03,-256.34 282.33,-259.89 286.22,-263.92"/>
</g>
<!-- 130357533019536&#45;&gt;130357533018672 -->
<g id="edge1" class="edge">
<title>130357533019536&#45;&gt;130357533018672</title>
<path fill="none" stroke="#666666" stroke-width="1.2" d="M74.28,-1419.55C103.23,-1430.27 143.31,-1445.88 173.84,-1458.28"/>
<polygon fill="#666666" stroke="#666666" stroke-width="1.2" points="172.92,-1460.93 181.38,-1461.35 175.03,-1455.74 172.92,-1460.93"/>
</g>
<!-- 130357533018480 -->
<g id="node3" class="node">
<title>130357533018480</title>
<polygon fill="honeydew" stroke="darkseagreen" points="73,-1498 1,-1498 1,-1460 73,-1460 73,-1498"/>
<text text-anchor="middle" x="37" y="-1482.8" font-family="Sans-Serif" font-size="14.00">vector_1</text>
<text text-anchor="middle" x="37" y="-1467.8" font-family="Sans-Serif" font-size="14.00">(2, 3, 8)</text>
</g>
<!-- 130357533018480&#45;&gt;130357533019536 -->
<g id="edge5" class="edge">
<title>130357533018480&#45;&gt;130357533019536</title>
<path fill="none" stroke="#666666" stroke-width="1.2" d="M37,-1459.72C37,-1451.29 37,-1441.15 37,-1432.02"/>
<polygon fill="#666666" stroke="#666666" stroke-width="1.2" points="39.8,-1432 37,-1424 34.2,-1432 39.8,-1432"/>
</g>
<!-- 130357533738896&#45;&gt;130357533018672 -->
<g id="edge2" class="edge">
<title>130357533738896&#45;&gt;130357533018672</title>
<path fill="none" stroke="#666666" stroke-width="1.2" d="M166.06,-1424C176.56,-1432.93 188.61,-1444.01 198.54,-1453.81"/>
<polygon fill="#666666" stroke="#666666" stroke-width="1.2" points="196.79,-1456.02 204.42,-1459.72 200.76,-1452.07 196.79,-1456.02"/>
</g>
<!-- 130357533739760 -->
<g id="node5" class="node">
<title>130357533739760</title>
<polygon fill="moccasin" stroke="orange" points="163,-1498 109,-1498 109,-1460 163,-1460 163,-1498"/>
<text text-anchor="middle" x="136" y="-1482.8" font-family="Sans-Serif" font-size="14.00">var_1</text>
<text text-anchor="middle" x="136" y="-1467.8" font-family="Sans-Serif" font-size="14.00">10.0</text>
</g>
<!-- 130357533739760&#45;&gt;130357533738896 -->
<g id="edge7" class="edge">
<title>130357533739760&#45;&gt;130357533738896</title>
<path fill="none" stroke="#666666" stroke-width="1.2" d="M137.55,-1459.72C138.26,-1451.29 139.11,-1441.15 139.89,-1432.02"/>
<polygon fill="#666666" stroke="#666666" stroke-width="1.2" points="142.68,-1432.21 140.56,-1424 137.1,-1431.74 142.68,-1432.21"/>
</g>
<!-- 130357533752528&#45;&gt;130357533018672 -->
<g id="edge3" class="edge">
<title>130357533752528&#45;&gt;130357533018672</title>
<path fill="none" stroke="#666666" stroke-width="1.2" d="M284.7,-1424C275.42,-1433.09 262.83,-1444.43 251.04,-1454.36"/>
<polygon fill="#666666" stroke="#666666" stroke-width="1.2" points="248.96,-1452.45 244.59,-1459.72 252.53,-1456.76 248.96,-1452.45"/>
</g>
<!-- 130357533752336 -->
<g id="node7" class="node">
<title>130357533752336</title>
<polygon fill="moccasin" stroke="orange" points="327,-1498 273,-1498 273,-1460 327,-1460 327,-1498"/>
<text text-anchor="middle" x="300" y="-1482.8" font-family="Sans-Serif" font-size="14.00">var_2</text>
<text text-anchor="middle" x="300" y="-1467.8" font-family="Sans-Serif" font-size="14.00">&#45;2.0</text>
</g>
<!-- 130357533752336&#45;&gt;130357533752528 -->
<g id="edge9" class="edge">
<title>130357533752336&#45;&gt;130357533752528</title>
<path fill="none" stroke="#666666" stroke-width="1.2" d="M299.48,-1459.72C299.25,-1451.29 298.96,-1441.15 298.7,-1432.02"/>
<polygon fill="#666666" stroke="#666666" stroke-width="1.2" points="301.5,-1431.92 298.48,-1424 295.91,-1432.08 301.5,-1431.92"/>
</g>
<!-- 130357533750272 -->
<g id="node8" class="node">
<title>130357533750272</title>
<polygon fill="aliceblue" stroke="skyblue" points="560.5,-1352 487.5,-1352 487.5,-1314 560.5,-1314 560.5,-1352"/>
<text text-anchor="middle" x="524" y="-1336.8" font-family="Sans-Serif" font-size="14.00">tensor_2</text>
<text text-anchor="middle" x="524" y="-1321.8" font-family="Sans-Serif" font-size="14.00">(8,)</text>
</g>
<!-- 130357533750512 -->
<g id="node9" class="node">
<title>130357533750512</title>
<polygon fill="lightgray" stroke="darkslategray" points="565.5,-1424 482.5,-1424 482.5,-1388 565.5,-1388 565.5,-1424"/>
<text text-anchor="middle" x="524" y="-1402.3" font-family="Courier Bold" font-size="14.00">constant</text>
</g>
<!-- 130357533750512&#45;&gt;130357533750272 -->
<g id="edge10" class="edge">
<title>130357533750512&#45;&gt;130357533750272</title>
<path fill="none" stroke="#666666" stroke-width="1.2" d="M524,-1387.81C524,-1379.52 524,-1369.39 524,-1360.16"/>
<polygon fill="#666666" stroke="#666666" stroke-width="1.2" points="526.8,-1360.02 524,-1352.02 521.2,-1360.02 526.8,-1360.02"/>
</g>
<!-- 130357533750128 -->
<g id="node10" class="node">
<title>130357533750128</title>
<polygon fill="moccasin" stroke="orange" points="551,-1498 497,-1498 497,-1460 551,-1460 551,-1498"/>
<text text-anchor="middle" x="524" y="-1482.8" font-family="Sans-Serif" font-size="14.00">var_3</text>
<text text-anchor="middle" x="524" y="-1467.8" font-family="Sans-Serif" font-size="14.00">1</text>
</g>
<!-- 130357533750128&#45;&gt;130357533750512 -->
<g id="edge11" class="edge">
<title>130357533750128&#45;&gt;130357533750512</title>
<path fill="none" stroke="#666666" stroke-width="1.2" d="M524,-1459.72C524,-1451.29 524,-1441.15 524,-1432.02"/>
<polygon fill="#666666" stroke="#666666" stroke-width="1.2" points="526.8,-1432 524,-1424 521.2,-1432 526.8,-1432"/>
</g>
<!-- 130357533750368 -->
<g id="node11" class="node">
<title>130357533750368</title>
<polygon fill="aliceblue" stroke="skyblue" points="732,-476 526,-476 526,-438 732,-438 732,-476"/>
<text text-anchor="middle" x="629" y="-460.8" font-family="Sans-Serif" font-size="14.00">llama_r_m_s_norm_0.weight</text>
<text text-anchor="middle" x="629" y="-445.8" font-family="Sans-Serif" font-size="14.00">(8,)</text>
</g>
<!-- 130357533740336 -->
<g id="node40" class="node">
<title>130357533740336</title>
<polygon fill="lightgray" stroke="darkslategray" points="509,-402 435,-402 435,-366 509,-366 509,-402"/>
<text text-anchor="middle" x="472" y="-380.3" font-family="Courier Bold" font-size="14.00">reshape</text>
</g>
<!-- 130357533750368&#45;&gt;130357533740336 -->
<g id="edge41" class="edge">
<title>130357533750368&#45;&gt;130357533740336</title>
<path fill="none" stroke="#666666" stroke-width="1.2" d="M588.98,-437.9C566.94,-427.93 539.52,-415.54 516.78,-405.25"/>
<polygon fill="#666666" stroke="#666666" stroke-width="1.2" points="517.7,-402.59 509.26,-401.85 515.39,-407.7 517.7,-402.59"/>
</g>
<!-- 130357533750416 -->
<g id="node12" class="node">
<title>130357533750416</title>
<polygon fill="lightgray" stroke="darkslategray" points="670.5,-548 587.5,-548 587.5,-512 670.5,-512 670.5,-548"/>
<text text-anchor="middle" x="629" y="-526.3" font-family="Courier Bold" font-size="14.00">constant</text>
</g>
<!-- 130357533750416&#45;&gt;130357533750368 -->
<g id="edge12" class="edge">
<title>130357533750416&#45;&gt;130357533750368</title>
<path fill="none" stroke="#666666" stroke-width="1.2" d="M629,-511.81C629,-503.52 629,-493.39 629,-484.16"/>
<polygon fill="#666666" stroke="#666666" stroke-width="1.2" points="631.8,-484.02 629,-476.02 626.2,-484.02 631.8,-484.02"/>
</g>
<!-- 130357533750032 -->
<g id="node13" class="node">
<title>130357533750032</title>
<polygon fill="moccasin" stroke="orange" points="656,-622 602,-622 602,-584 656,-584 656,-622"/>
<text text-anchor="middle" x="629" y="-606.8" font-family="Sans-Serif" font-size="14.00">var_4</text>
<text text-anchor="middle" x="629" y="-591.8" font-family="Sans-Serif" font-size="14.00">0.5</text>
</g>
<!-- 130357533750032&#45;&gt;130357533750416 -->
<g id="edge13" class="edge">
<title>130357533750032&#45;&gt;130357533750416</title>
<path fill="none" stroke="#666666" stroke-width="1.2" d="M629,-583.72C629,-575.29 629,-565.15 629,-556.02"/>
<polygon fill="#666666" stroke="#666666" stroke-width="1.2" points="631.8,-556 629,-548 626.2,-556 631.8,-556"/>
</g>
<!-- 130357533749696 -->
<g id="node16" class="node">
<title>130357533749696</title>
<polygon fill="aliceblue" stroke="skyblue" points="451.5,-1352 378.5,-1352 378.5,-1314 451.5,-1314 451.5,-1352"/>
<text text-anchor="middle" x="415" y="-1336.8" font-family="Sans-Serif" font-size="14.00">tensor_4</text>
<text text-anchor="middle" x="415" y="-1321.8" font-family="Sans-Serif" font-size="14.00">(2, 3, 8)</text>
</g>
<!-- 130357533749840&#45;&gt;130357533749696 -->
<g id="edge16" class="edge">
<title>130357533749840&#45;&gt;130357533749696</title>
<path fill="none" stroke="#666666" stroke-width="1.2" d="M415,-1387.81C415,-1379.52 415,-1369.39 415,-1360.16"/>
<polygon fill="#666666" stroke="#666666" stroke-width="1.2" points="417.8,-1360.02 415,-1352.02 412.2,-1360.02 417.8,-1360.02"/>
</g>
<!-- 130357533749888 -->
<g id="node15" class="node">
<title>130357533749888</title>
<polygon fill="moccasin" stroke="orange" points="442,-1498 388,-1498 388,-1460 442,-1460 442,-1498"/>
<text text-anchor="middle" x="415" y="-1482.8" font-family="Sans-Serif" font-size="14.00">var_5</text>
<text text-anchor="middle" x="415" y="-1467.8" font-family="Sans-Serif" font-size="14.00">2</text>
</g>
<!-- 130357533749888&#45;&gt;130357533749840 -->
<g id="edge15" class="edge">
<title>130357533749888&#45;&gt;130357533749840</title>
<path fill="none" stroke="#666666" stroke-width="1.2" d="M415,-1459.72C415,-1451.29 415,-1441.15 415,-1432.02"/>
<polygon fill="#666666" stroke="#666666" stroke-width="1.2" points="417.8,-1432 415,-1424 412.2,-1432 417.8,-1432"/>
</g>
<!-- 130357533749168 -->
<g id="node19" class="node">
<title>130357533749168</title>
<polygon fill="lightgray" stroke="darkslategray" points="434,-1278 380,-1278 380,-1242 434,-1242 434,-1278"/>
<text text-anchor="middle" x="407" y="-1256.3" font-family="Courier Bold" font-size="14.00">sum</text>
</g>
<!-- 130357533749696&#45;&gt;130357533749168 -->
<g id="edge18" class="edge">
<title>130357533749696&#45;&gt;130357533749168</title>
<path fill="none" stroke="#666666" stroke-width="1.2" d="M412.94,-1313.72C411.99,-1305.29 410.85,-1295.15 409.82,-1286.02"/>
<polygon fill="#666666" stroke="#666666" stroke-width="1.2" points="412.59,-1285.64 408.92,-1278 407.03,-1286.27 412.59,-1285.64"/>
</g>
<!-- 130357533749504 -->
<g id="node17" class="node">
<title>130357533749504</title>
<polygon fill="aliceblue" stroke="skyblue" points="443.5,-1206 370.5,-1206 370.5,-1168 443.5,-1168 443.5,-1206"/>
<text text-anchor="middle" x="407" y="-1190.8" font-family="Sans-Serif" font-size="14.00">tensor_5</text>
<text text-anchor="middle" x="407" y="-1175.8" font-family="Sans-Serif" font-size="14.00">(2, 3, 1)</text>
</g>
<!-- 130357533748832 -->
<g id="node21" class="node">
<title>130357533748832</title>
<polygon fill="lightgray" stroke="darkslategray" points="448.5,-1132 349.5,-1132 349.5,-1096 448.5,-1096 448.5,-1132"/>
<text text-anchor="middle" x="399" y="-1110.3" font-family="Courier Bold" font-size="14.00">div_scalar</text>
</g>
<!-- 130357533749504&#45;&gt;130357533748832 -->
<g id="edge21" class="edge">
<title>130357533749504&#45;&gt;130357533748832</title>
<path fill="none" stroke="#666666" stroke-width="1.2" d="M404.94,-1167.72C403.99,-1159.29 402.85,-1149.15 401.82,-1140.02"/>
<polygon fill="#666666" stroke="#666666" stroke-width="1.2" points="404.59,-1139.64 400.92,-1132 399.03,-1140.27 404.59,-1139.64"/>
</g>
<!-- 130357533749264 -->
<g id="node18" class="node">
<title>130357533749264</title>
<polygon fill="honeydew" stroke="darkseagreen" points="360,-1352 288,-1352 288,-1314 360,-1314 360,-1352"/>
<text text-anchor="middle" x="324" y="-1336.8" font-family="Sans-Serif" font-size="14.00">vector_2</text>
<text text-anchor="middle" x="324" y="-1321.8" font-family="Sans-Serif" font-size="14.00">[2]</text>
</g>
<!-- 130357533749264&#45;&gt;130357533749168 -->
<g id="edge19" class="edge">
<title>130357533749264&#45;&gt;130357533749168</title>
<path fill="none" stroke="#666666" stroke-width="1.2" d="M345.37,-1313.72C356.24,-1304.42 369.52,-1293.06 380.98,-1283.26"/>
<polygon fill="#666666" stroke="#666666" stroke-width="1.2" points="382.86,-1285.33 387.12,-1278 379.22,-1281.08 382.86,-1285.33"/>
</g>
<!-- 130357533749168&#45;&gt;130357533749504 -->
<g id="edge17" class="edge">
<title>130357533749168&#45;&gt;130357533749504</title>
<path fill="none" stroke="#666666" stroke-width="1.2" d="M407,-1241.81C407,-1233.52 407,-1223.39 407,-1214.16"/>
<polygon fill="#666666" stroke="#666666" stroke-width="1.2" points="409.8,-1214.02 407,-1206.02 404.2,-1214.02 409.8,-1214.02"/>
</g>
<!-- 130357533748928 -->
<g id="node20" class="node">
<title>130357533748928</title>
<polygon fill="aliceblue" stroke="skyblue" points="435.5,-1060 362.5,-1060 362.5,-1022 435.5,-1022 435.5,-1060"/>
<text text-anchor="middle" x="399" y="-1044.8" font-family="Sans-Serif" font-size="14.00">tensor_6</text>
<text text-anchor="middle" x="399" y="-1029.8" font-family="Sans-Serif" font-size="14.00">(2, 3, 1)</text>
</g>
<!-- 130357533748688 -->
<g id="node23" class="node">
<title>130357533748688</title>
<polygon fill="lightgray" stroke="darkslategray" points="433.5,-986 334.5,-986 334.5,-950 433.5,-950 433.5,-986"/>
<text text-anchor="middle" x="384" y="-964.3" font-family="Courier Bold" font-size="14.00">add_scalar</text>
</g>
<!-- 130357533748928&#45;&gt;130357533748688 -->
<g id="edge23" class="edge">
<title>130357533748928&#45;&gt;130357533748688</title>
<path fill="none" stroke="#666666" stroke-width="1.2" d="M395.14,-1021.72C393.36,-1013.29 391.21,-1003.15 389.29,-994.02"/>
<polygon fill="#666666" stroke="#666666" stroke-width="1.2" points="391.99,-993.25 387.59,-986 386.51,-994.41 391.99,-993.25"/>
</g>
<!-- 130357533748832&#45;&gt;130357533748928 -->
<g id="edge20" class="edge">
<title>130357533748832&#45;&gt;130357533748928</title>
<path fill="none" stroke="#666666" stroke-width="1.2" d="M399,-1095.81C399,-1087.52 399,-1077.39 399,-1068.16"/>
<polygon fill="#666666" stroke="#666666" stroke-width="1.2" points="401.8,-1068.02 399,-1060.02 396.2,-1068.02 401.8,-1068.02"/>
</g>
<!-- 130357533748880 -->
<g id="node22" class="node">
<title>130357533748880</title>
<polygon fill="moccasin" stroke="orange" points="352,-1206 298,-1206 298,-1168 352,-1168 352,-1206"/>
<text text-anchor="middle" x="325" y="-1190.8" font-family="Sans-Serif" font-size="14.00">var_6</text>
<text text-anchor="middle" x="325" y="-1175.8" font-family="Sans-Serif" font-size="14.00">8</text>
</g>
<!-- 130357533748880&#45;&gt;130357533748832 -->
<g id="edge22" class="edge">
<title>130357533748880&#45;&gt;130357533748832</title>
<path fill="none" stroke="#666666" stroke-width="1.2" d="M344.06,-1167.72C353.56,-1158.6 365.15,-1147.48 375.23,-1137.81"/>
<polygon fill="#666666" stroke="#666666" stroke-width="1.2" points="377.44,-1139.56 381.28,-1132 373.57,-1135.52 377.44,-1139.56"/>
</g>
<!-- 130357533748544 -->
<g id="node25" class="node">
<title>130357533748544</title>
<polygon fill="aliceblue" stroke="skyblue" points="420.5,-914 347.5,-914 347.5,-876 420.5,-876 420.5,-914"/>
<text text-anchor="middle" x="384" y="-898.8" font-family="Sans-Serif" font-size="14.00">tensor_7</text>
<text text-anchor="middle" x="384" y="-883.8" font-family="Sans-Serif" font-size="14.00">(2, 3, 1)</text>
</g>
<!-- 130357533748688&#45;&gt;130357533748544 -->
<g id="edge25" class="edge">
<title>130357533748688&#45;&gt;130357533748544</title>
<path fill="none" stroke="#666666" stroke-width="1.2" d="M384,-949.81C384,-941.52 384,-931.39 384,-922.16"/>
<polygon fill="#666666" stroke="#666666" stroke-width="1.2" points="386.8,-922.02 384,-914.02 381.2,-922.02 386.8,-922.02"/>
</g>
<!-- 130357533748736 -->
<g id="node24" class="node">
<title>130357533748736</title>
<polygon fill="moccasin" stroke="orange" points="344,-1060 290,-1060 290,-1022 344,-1022 344,-1060"/>
<text text-anchor="middle" x="317" y="-1044.8" font-family="Sans-Serif" font-size="14.00">var_7</text>
<text text-anchor="middle" x="317" y="-1029.8" font-family="Sans-Serif" font-size="14.00">1e&#45;06</text>
</g>
<!-- 130357533748736&#45;&gt;130357533748688 -->
<g id="edge24" class="edge">
<title>130357533748736&#45;&gt;130357533748688</title>
<path fill="none" stroke="#666666" stroke-width="1.2" d="M334.25,-1021.72C342.78,-1012.68 353.15,-1001.69 362.22,-992.08"/>
<polygon fill="#666666" stroke="#666666" stroke-width="1.2" points="364.5,-993.74 367.95,-986 360.43,-989.9 364.5,-993.74"/>
</g>
<!-- 130357533748064 -->
<g id="node27" class="node">
<title>130357533748064</title>
<polygon fill="lightgray" stroke="darkslategray" points="411,-840 357,-840 357,-804 411,-804 411,-840"/>
<text text-anchor="middle" x="384" y="-818.3" font-family="Courier Bold" font-size="14.00">sqrt</text>
</g>
<!-- 130357533748544&#45;&gt;130357533748064 -->
<g id="edge27" class="edge">
<title>130357533748544&#45;&gt;130357533748064</title>
<path fill="none" stroke="#666666" stroke-width="1.2" d="M384,-875.72C384,-867.29 384,-857.15 384,-848.02"/>
<polygon fill="#666666" stroke="#666666" stroke-width="1.2" points="386.8,-848 384,-840 381.2,-848 386.8,-848"/>
</g>
<!-- 130357533748304 -->
<g id="node26" class="node">
<title>130357533748304</title>
<polygon fill="aliceblue" stroke="skyblue" points="420.5,-768 347.5,-768 347.5,-730 420.5,-730 420.5,-768"/>
<text text-anchor="middle" x="384" y="-752.8" font-family="Sans-Serif" font-size="14.00">tensor_8</text>
<text text-anchor="middle" x="384" y="-737.8" font-family="Sans-Serif" font-size="14.00">(2, 3, 1)</text>
</g>
<!-- 130357533747968 -->
<g id="node28" class="node">
<title>130357533747968</title>
<polygon fill="lightgray" stroke="darkslategray" points="382.5,-694 275.5,-694 275.5,-658 382.5,-658 382.5,-694"/>
<text text-anchor="middle" x="329" y="-672.3" font-family="Courier Bold" font-size="14.00">rdiv_scalar</text>
</g>
<!-- 130357533748304&#45;&gt;130357533747968 -->
<g id="edge29" class="edge">
<title>130357533748304&#45;&gt;130357533747968</title>
<path fill="none" stroke="#666666" stroke-width="1.2" d="M369.84,-729.72C362.91,-720.77 354.48,-709.9 347.09,-700.36"/>
<polygon fill="#666666" stroke="#666666" stroke-width="1.2" points="349.28,-698.61 342.17,-694 344.86,-702.04 349.28,-698.61"/>
</g>
<!-- 130357533748064&#45;&gt;130357533748304 -->
<g id="edge26" class="edge">
<title>130357533748064&#45;&gt;130357533748304</title>
<path fill="none" stroke="#666666" stroke-width="1.2" d="M384,-803.81C384,-795.52 384,-785.39 384,-776.16"/>
<polygon fill="#666666" stroke="#666666" stroke-width="1.2" points="386.8,-776.02 384,-768.02 381.2,-776.02 386.8,-776.02"/>
</g>
<!-- 130357533747824 -->
<g id="node30" class="node">
<title>130357533747824</title>
<polygon fill="aliceblue" stroke="skyblue" points="365.5,-622 292.5,-622 292.5,-584 365.5,-584 365.5,-622"/>
<text text-anchor="middle" x="329" y="-606.8" font-family="Sans-Serif" font-size="14.00">tensor_9</text>
<text text-anchor="middle" x="329" y="-591.8" font-family="Sans-Serif" font-size="14.00">(2, 3, 1)</text>
</g>
<!-- 130357533747968&#45;&gt;130357533747824 -->
<g id="edge30" class="edge">
<title>130357533747968&#45;&gt;130357533747824</title>
<path fill="none" stroke="#666666" stroke-width="1.2" d="M329,-657.81C329,-649.52 329,-639.39 329,-630.16"/>
<polygon fill="#666666" stroke="#666666" stroke-width="1.2" points="331.8,-630.02 329,-622.02 326.2,-630.02 331.8,-630.02"/>
</g>
<!-- 130357533748112 -->
<g id="node29" class="node">
<title>130357533748112</title>
<polygon fill="moccasin" stroke="orange" points="329,-768 275,-768 275,-730 329,-730 329,-768"/>
<text text-anchor="middle" x="302" y="-752.8" font-family="Sans-Serif" font-size="14.00">var_8</text>
<text text-anchor="middle" x="302" y="-737.8" font-family="Sans-Serif" font-size="14.00">1</text>
</g>
<!-- 130357533748112&#45;&gt;130357533747968 -->
<g id="edge28" class="edge">
<title>130357533748112&#45;&gt;130357533747968</title>
<path fill="none" stroke="#666666" stroke-width="1.2" d="M308.95,-729.72C312.19,-721.2 316.09,-710.94 319.59,-701.74"/>
<polygon fill="#666666" stroke="#666666" stroke-width="1.2" points="322.31,-702.48 322.53,-694 317.07,-700.49 322.31,-702.48"/>
</g>
<!-- 130357533747344 -->
<g id="node32" class="node">
<title>130357533747344</title>
<polygon fill="lightgray" stroke="darkslategray" points="415,-548 341,-548 341,-512 415,-512 415,-548"/>
<text text-anchor="middle" x="378" y="-526.3" font-family="Courier Bold" font-size="14.00">reshape</text>
</g>
<!-- 130357533747824&#45;&gt;130357533747344 -->
<g id="edge32" class="edge">
<title>130357533747824&#45;&gt;130357533747344</title>
<path fill="none" stroke="#666666" stroke-width="1.2" d="M341.62,-583.72C347.73,-574.85 355.15,-564.11 361.69,-554.63"/>
<polygon fill="#666666" stroke="#666666" stroke-width="1.2" points="364.03,-556.18 366.27,-548 359.42,-553 364.03,-556.18"/>
</g>
<!-- 130357533747584 -->
<g id="node31" class="node">
<title>130357533747584</title>
<polygon fill="aliceblue" stroke="skyblue" points="418,-476 338,-476 338,-438 418,-438 418,-476"/>
<text text-anchor="middle" x="378" y="-460.8" font-family="Sans-Serif" font-size="14.00">tensor_10</text>
<text text-anchor="middle" x="378" y="-445.8" font-family="Sans-Serif" font-size="14.00">(2, 3, 1)</text>
</g>
<!-- 130357533746960 -->
<g id="node35" class="node">
<title>130357533746960</title>
<polygon fill="lightgray" stroke="darkslategray" points="343,-402 277,-402 277,-366 343,-366 343,-402"/>
<text text-anchor="middle" x="310" y="-380.3" font-family="Courier Bold" font-size="14.00">expand</text>
</g>
<!-- 130357533747584&#45;&gt;130357533746960 -->
<g id="edge35" class="edge">
<title>130357533747584&#45;&gt;130357533746960</title>
<path fill="none" stroke="#666666" stroke-width="1.2" d="M360.49,-437.72C351.75,-428.6 341.11,-417.48 331.84,-407.81"/>
<polygon fill="#666666" stroke="#666666" stroke-width="1.2" points="333.84,-405.84 326.28,-402 329.8,-409.72 333.84,-405.84"/>
</g>
<!-- 130357533747344&#45;&gt;130357533747584 -->
<g id="edge31" class="edge">
<title>130357533747344&#45;&gt;130357533747584</title>
<path fill="none" stroke="#666666" stroke-width="1.2" d="M378,-511.81C378,-503.52 378,-493.39 378,-484.16"/>
<polygon fill="#666666" stroke="#666666" stroke-width="1.2" points="380.8,-484.02 378,-476.02 375.2,-484.02 380.8,-484.02"/>
</g>
<!-- 130357533747392 -->
<g id="node33" class="node">
<title>130357533747392</title>
<polygon fill="honeydew" stroke="darkseagreen" points="456,-622 384,-622 384,-584 456,-584 456,-622"/>
<text text-anchor="middle" x="420" y="-606.8" font-family="Sans-Serif" font-size="14.00">vector_3</text>
<text text-anchor="middle" x="420" y="-591.8" font-family="Sans-Serif" font-size="14.00">[2, 3, 1]</text>
</g>
<!-- 130357533747392&#45;&gt;130357533747344 -->
<g id="edge33" class="edge">
<title>130357533747392&#45;&gt;130357533747344</title>
<path fill="none" stroke="#666666" stroke-width="1.2" d="M409.18,-583.72C403.99,-574.94 397.71,-564.31 392.14,-554.91"/>
<polygon fill="#666666" stroke="#666666" stroke-width="1.2" points="394.54,-553.46 388.06,-548 389.72,-556.31 394.54,-553.46"/>
</g>
<!-- 130357533747248 -->
<g id="node34" class="node">
<title>130357533747248</title>
<polygon fill="aliceblue" stroke="skyblue" points="350,-330 270,-330 270,-292 350,-292 350,-330"/>
<text text-anchor="middle" x="310" y="-314.8" font-family="Sans-Serif" font-size="14.00">tensor_11</text>
<text text-anchor="middle" x="310" y="-299.8" font-family="Sans-Serif" font-size="14.00">(2, 3, 8)</text>
</g>
<!-- 130357533747248&#45;&gt;130357533746864 -->
<g id="edge38" class="edge">
<title>130357533747248&#45;&gt;130357533746864</title>
<path fill="none" stroke="#666666" stroke-width="1.2" d="M310,-291.72C310,-283.29 310,-273.15 310,-264.02"/>
<polygon fill="#666666" stroke="#666666" stroke-width="1.2" points="312.8,-264 310,-256 307.2,-264 312.8,-264"/>
</g>
<!-- 130357533746960&#45;&gt;130357533747248 -->
<g id="edge34" class="edge">
<title>130357533746960&#45;&gt;130357533747248</title>
<path fill="none" stroke="#666666" stroke-width="1.2" d="M310,-365.81C310,-357.52 310,-347.39 310,-338.16"/>
<polygon fill="#666666" stroke="#666666" stroke-width="1.2" points="312.8,-338.02 310,-330.02 307.2,-338.02 312.8,-338.02"/>
</g>
<!-- 130357533747008 -->
<g id="node36" class="node">
<title>130357533747008</title>
<polygon fill="honeydew" stroke="darkseagreen" points="320,-476 248,-476 248,-438 320,-438 320,-476"/>
<text text-anchor="middle" x="284" y="-460.8" font-family="Sans-Serif" font-size="14.00">vector_4</text>
<text text-anchor="middle" x="284" y="-445.8" font-family="Sans-Serif" font-size="14.00">(2, 3, 8)</text>
</g>
<!-- 130357533747008&#45;&gt;130357533746960 -->
<g id="edge36" class="edge">
<title>130357533747008&#45;&gt;130357533746960</title>
<path fill="none" stroke="#666666" stroke-width="1.2" d="M290.7,-437.72C293.81,-429.2 297.57,-418.94 300.94,-409.74"/>
<polygon fill="#666666" stroke="#666666" stroke-width="1.2" points="303.65,-410.48 303.77,-402 298.39,-408.55 303.65,-410.48"/>
</g>
<!-- 130357533746720 -->
<g id="node38" class="node">
<title>130357533746720</title>
<polygon fill="aliceblue" stroke="skyblue" points="372,-184 292,-184 292,-146 372,-146 372,-184"/>
<text text-anchor="middle" x="332" y="-168.8" font-family="Sans-Serif" font-size="14.00">tensor_12</text>
<text text-anchor="middle" x="332" y="-153.8" font-family="Sans-Serif" font-size="14.00">(2, 3, 8)</text>
</g>
<!-- 130357533746864&#45;&gt;130357533746720 -->
<g id="edge39" class="edge">
<title>130357533746864&#45;&gt;130357533746720</title>
<path fill="none" stroke="#666666" stroke-width="1.2" d="M315.33,-219.81C317.92,-211.43 321.1,-201.18 323.98,-191.88"/>
<polygon fill="#666666" stroke="#666666" stroke-width="1.2" points="326.72,-192.49 326.42,-184.02 321.37,-190.83 326.72,-192.49"/>
</g>
<!-- 130357533741152 -->
<g id="node45" class="node">
<title>130357533741152</title>
<polygon fill="lightgray" stroke="darkslategray" points="408,-110 354,-110 354,-74 408,-74 408,-110"/>
<text text-anchor="middle" x="381" y="-88.3" font-family="Courier Bold" font-size="14.00">mul</text>
</g>
<!-- 130357533746720&#45;&gt;130357533741152 -->
<g id="edge47" class="edge">
<title>130357533746720&#45;&gt;130357533741152</title>
<path fill="none" stroke="#666666" stroke-width="1.2" d="M344.62,-145.72C350.73,-136.85 358.15,-126.11 364.69,-116.63"/>
<polygon fill="#666666" stroke="#666666" stroke-width="1.2" points="367.03,-118.18 369.27,-110 362.42,-115 367.03,-118.18"/>
</g>
<!-- 130357534894224 -->
<g id="node39" class="node">
<title>130357534894224</title>
<polygon fill="aliceblue" stroke="skyblue" points="491,-330 411,-330 411,-292 491,-292 491,-330"/>
<text text-anchor="middle" x="451" y="-314.8" font-family="Sans-Serif" font-size="14.00">tensor_13</text>
<text text-anchor="middle" x="451" y="-299.8" font-family="Sans-Serif" font-size="14.00">(1, 1, 8)</text>
</g>
<!-- 130357533740768 -->
<g id="node43" class="node">
<title>130357533740768</title>
<polygon fill="lightgray" stroke="darkslategray" points="484,-256 418,-256 418,-220 484,-220 484,-256"/>
<text text-anchor="middle" x="451" y="-234.3" font-family="Courier Bold" font-size="14.00">expand</text>
</g>
<!-- 130357534894224&#45;&gt;130357533740768 -->
<g id="edge44" class="edge">
<title>130357534894224&#45;&gt;130357533740768</title>
<path fill="none" stroke="#666666" stroke-width="1.2" d="M451,-291.72C451,-283.29 451,-273.15 451,-264.02"/>
<polygon fill="#666666" stroke="#666666" stroke-width="1.2" points="453.8,-264 451,-256 448.2,-264 453.8,-264"/>
</g>
<!-- 130357533740336&#45;&gt;130357534894224 -->
<g id="edge40" class="edge">
<title>130357533740336&#45;&gt;130357534894224</title>
<path fill="none" stroke="#666666" stroke-width="1.2" d="M466.92,-365.81C464.44,-357.43 461.4,-347.18 458.65,-337.88"/>
<polygon fill="#666666" stroke="#666666" stroke-width="1.2" points="461.28,-336.9 456.33,-330.02 455.91,-338.49 461.28,-336.9"/>
</g>
<!-- 130357533740672 -->
<g id="node41" class="node">
<title>130357533740672</title>
<polygon fill="honeydew" stroke="darkseagreen" points="508,-476 436,-476 436,-438 508,-438 508,-476"/>
<text text-anchor="middle" x="472" y="-460.8" font-family="Sans-Serif" font-size="14.00">vector_5</text>
<text text-anchor="middle" x="472" y="-445.8" font-family="Sans-Serif" font-size="14.00">[1, 1, 8]</text>
</g>
<!-- 130357533740672&#45;&gt;130357533740336 -->
<g id="edge42" class="edge">
<title>130357533740672&#45;&gt;130357533740336</title>
<path fill="none" stroke="#666666" stroke-width="1.2" d="M472,-437.72C472,-429.29 472,-419.15 472,-410.02"/>
<polygon fill="#666666" stroke="#666666" stroke-width="1.2" points="474.8,-410 472,-402 469.2,-410 474.8,-410"/>
</g>
<!-- 130357533740528 -->
<g id="node42" class="node">
<title>130357533740528</title>
<polygon fill="aliceblue" stroke="skyblue" points="470,-184 390,-184 390,-146 470,-146 470,-184"/>
<text text-anchor="middle" x="430" y="-168.8" font-family="Sans-Serif" font-size="14.00">tensor_14</text>
<text text-anchor="middle" x="430" y="-153.8" font-family="Sans-Serif" font-size="14.00">(2, 3, 8)</text>
</g>
<!-- 130357533740528&#45;&gt;130357533741152 -->
<g id="edge46" class="edge">
<title>130357533740528&#45;&gt;130357533741152</title>
<path fill="none" stroke="#666666" stroke-width="1.2" d="M417.38,-145.72C411.27,-136.85 403.85,-126.11 397.31,-116.63"/>
<polygon fill="#666666" stroke="#666666" stroke-width="1.2" points="399.58,-115 392.73,-110 394.97,-118.18 399.58,-115"/>
</g>
<!-- 130357533740768&#45;&gt;130357533740528 -->
<g id="edge43" class="edge">
<title>130357533740768&#45;&gt;130357533740528</title>
<path fill="none" stroke="#666666" stroke-width="1.2" d="M445.92,-219.81C443.44,-211.43 440.4,-201.18 437.65,-191.88"/>
<polygon fill="#666666" stroke="#666666" stroke-width="1.2" points="440.28,-190.9 435.33,-184.02 434.91,-192.49 440.28,-190.9"/>
</g>
<!-- 130357533740816 -->
<g id="node44" class="node">
<title>130357533740816</title>
<polygon fill="honeydew" stroke="darkseagreen" points="581,-330 509,-330 509,-292 581,-292 581,-330"/>
<text text-anchor="middle" x="545" y="-314.8" font-family="Sans-Serif" font-size="14.00">vector_6</text>
<text text-anchor="middle" x="545" y="-299.8" font-family="Sans-Serif" font-size="14.00">(2, 3, 8)</text>
</g>
<!-- 130357533740816&#45;&gt;130357533740768 -->
<g id="edge45" class="edge">
<title>130357533740816&#45;&gt;130357533740768</title>
<path fill="none" stroke="#666666" stroke-width="1.2" d="M520.79,-291.72C508.38,-282.34 493.16,-270.85 480.11,-260.99"/>
<polygon fill="#666666" stroke="#666666" stroke-width="1.2" points="481.58,-258.59 473.51,-256 478.21,-263.06 481.58,-258.59"/>
</g>
<!-- 130357533742736 -->
<g id="node46" class="node">
<title>130357533742736</title>
<polygon fill="aliceblue" stroke="skyblue" points="421,-38 341,-38 341,0 421,0 421,-38"/>
<text text-anchor="middle" x="381" y="-22.8" font-family="Sans-Serif" font-size="14.00">tensor_15</text>
<text text-anchor="middle" x="381" y="-7.8" font-family="Sans-Serif" font-size="14.00">(2, 3, 8)</text>
</g>
<!-- 130357533741152&#45;&gt;130357533742736 -->
<g id="edge48" class="edge">
<title>130357533741152&#45;&gt;130357533742736</title>
<path fill="none" stroke="#666666" stroke-width="1.2" d="M381,-73.81C381,-65.52 381,-55.39 381,-46.16"/>
<polygon fill="#666666" stroke="#666666" stroke-width="1.2" points="383.8,-46.02 381,-38.02 378.2,-46.02 383.8,-46.02"/>
</g>
</g>
</svg>
